<?xml version="1.0" encoding="UTF-8"?>
<svg id="Layer_2" data-name="Layer 2" xmlns="http://www.w3.org/2000/svg" viewBox="0 0 414.59 205.64">
  <defs>
    <style>
      .cls-1 {
        fill: none;
        stroke: #525f5f;
        stroke-miterlimit: 10;
      }

      .cls-2 {
        fill: #7aa4b0;
      }

      .cls-2, .cls-3, .cls-4, .cls-5, .cls-6, .cls-7, .cls-8, .cls-9 {
        stroke-width: 0px;
      }

      .cls-3 {
        fill: #59534d;
      }

      .cls-4 {
        fill: #6e777a;
      }

      .cls-5 {
        fill: #585b5c;
      }

      .cls-6 {
        fill: #415050;
      }

      .cls-7 {
        fill: #c0c1c6;
      }

      .cls-8 {
        fill: #a9ada1;
      }

      .cls-9 {
        fill: #97cf50;
      }
    </style>
  </defs>
  <g id="Layer_1-2" data-name="Layer 1">
    <g>
      <g>
        <g>
          <g>
            <polygon class="cls-5" points="414.59 32.64 394.77 44.35 381.96 36.93 327.62 5.57 328.19 4.36 356.37 0 414.59 32.64"/>
            <polygon class="cls-2" points="414.44 32.64 414.35 56.32 394.76 67.33 394.76 44.34 414.44 32.64"/>
            <polygon class="cls-2" points="394.76 44.34 394.76 67.33 323.71 26.31 327.62 5.57 394.76 44.34"/>
          </g>
          <polygon class="cls-4" points="410.3 32.64 394.87 41.54 331.54 5.79 356.88 1.79 410.3 32.64"/>
        </g>
        <line class="cls-1" x1="394.77" y1="43.36" x2="394.77" y2="67.41"/>
        <line class="cls-1" x1="406.53" y1="37.34" x2="406.53" y2="60.77"/>
        <line class="cls-1" x1="381.36" y1="36.47" x2="381.36" y2="59.9"/>
        <line class="cls-1" x1="369.41" y1="29.24" x2="369.41" y2="52.68"/>
        <line class="cls-1" x1="357.46" y1="22.02" x2="357.46" y2="45.45"/>
        <line class="cls-1" x1="345.5" y1="15.47" x2="345.5" y2="38.91"/>
        <line class="cls-1" x1="333.55" y1="8.93" x2="333.55" y2="32.36"/>
      </g>
      <g>
        <g>
          <g>
            <polygon class="cls-9" points="391.55 71.57 328.41 108.02 265.28 71.57 328.41 35.11 391.55 71.57"/>
            <g>
              <polygon class="cls-5" points="402.02 46.73 328.41 89.24 315.6 81.82 261.27 50.45 254.81 46.73 328.19 4.36 402.02 46.73"/>
              <polygon class="cls-2" points="402.02 46.73 402.02 69.73 328.41 112.23 328.41 89.24 402.02 46.73"/>
              <polygon class="cls-3" points="328.41 89.24 328.41 112.23 254.82 69.73 254.82 46.73 328.41 89.24"/>
            </g>
            <polygon class="cls-4" points="397.73 46.73 328.41 86.74 259.12 46.73 328.41 6.71 397.73 46.73"/>
          </g>
          <line class="cls-1" x1="338.36" y1="82.52" x2="338.36" y2="106.57"/>
          <line class="cls-1" x1="349.63" y1="76.06" x2="349.63" y2="100.11"/>
          <line class="cls-1" x1="360.89" y1="69.6" x2="360.89" y2="93.65"/>
          <line class="cls-1" x1="372.16" y1="63.14" x2="372.16" y2="87.19"/>
          <line class="cls-1" x1="383.42" y1="56.68" x2="383.42" y2="80.73"/>
          <line class="cls-1" x1="394.69" y1="50.22" x2="394.69" y2="74.27"/>
        </g>
        <polygon class="cls-8" points="352.74 27.93 345.58 32.06 338.43 27.93 345.58 23.8 352.74 27.93"/>
        <polygon class="cls-8" points="363.68 34.76 356.53 38.9 349.37 34.76 356.53 30.63 363.68 34.76"/>
        <polygon class="cls-8" points="304.89 57.36 297.73 61.49 290.58 57.36 297.73 53.23 304.89 57.36"/>
        <polygon class="cls-8" points="315.83 64.19 308.68 68.32 301.52 64.19 308.68 60.06 315.83 64.19"/>
      </g>
      <g>
        <g>
          <g>
            <polygon class="cls-5" points="208.8 80.77 134.41 123.73 121.46 116.24 66.54 84.54 0 44.92 74.39 1.97 208.8 80.77"/>
            <polygon class="cls-6" points="208.8 80.77 208.8 104.02 134.41 146.97 134.41 123.73 208.8 80.77"/>
            <polygon class="cls-6" points="134.41 123.73 134.41 146.97 0 68.41 0 44.92 134.41 123.73"/>
          </g>
          <polygon class="cls-4" points="204.46 80.77 134.41 121.21 4.36 44.92 74.39 4.47 204.46 80.77"/>
        </g>
        <g>
          <g>
            <g>
              <polygon class="cls-5" points="55.43 87.36 41.29 95.52 34.21 91.42 4.2 74.1 .63 72.04 14.76 63.88 55.43 87.36"/>
              <polygon class="cls-2" points="55.43 87.56 55.43 100.27 41.29 108.22 41.29 95.52 55.43 87.56"/>
              <polygon class="cls-2" points="41.29 95.52 41.29 108.22 .63 84.74 .63 72.03 41.29 95.52"/>
            </g>
            <polygon class="cls-4" points="53.06 87.36 41.35 93.97 3.07 71.86 14.76 65.25 53.06 87.36"/>
          </g>
          <line class="cls-1" x1="41.29" y1="94.98" x2="41.29" y2="108.26"/>
          <line class="cls-1" x1="48.89" y1="91" x2="48.89" y2="103.94"/>
          <line class="cls-1" x1="33.89" y1="91.17" x2="33.89" y2="104.11"/>
          <line class="cls-1" x1="27.28" y1="87.18" x2="27.28" y2="100.12"/>
          <line class="cls-1" x1="20.68" y1="83.19" x2="20.68" y2="96.13"/>
          <line class="cls-1" x1="14.07" y1="79.57" x2="14.07" y2="92.51"/>
          <line class="cls-1" x1="7.47" y1="75.95" x2="7.47" y2="88.9"/>
          <line class="cls-1" x1=".87" y1="72.33" x2=".87" y2="85.28"/>
        </g>
        <polygon class="cls-8" points="50.5 48.31 46.56 50.66 36.48 44.92 40.42 42.58 50.5 48.31"/>
        <polygon class="cls-8" points="56.01 44.78 52.06 47.13 41.98 41.4 45.92 39.05 56.01 44.78"/>
        <polygon class="cls-8" points="75.86 63.24 71.91 65.59 61.83 59.86 65.77 57.51 75.86 63.24"/>
        <polygon class="cls-8" points="81.36 59.72 77.41 62.06 67.33 56.33 71.27 53.98 81.36 59.72"/>
        <polygon class="cls-8" points="101.21 78.17 97.26 80.52 87.18 74.79 91.12 72.44 101.21 78.17"/>
        <polygon class="cls-8" points="106.71 74.65 102.76 77 92.68 71.26 96.62 68.92 106.71 74.65"/>
        <polygon class="cls-8" points="126.56 93.11 122.61 95.45 112.53 89.72 116.47 87.37 126.56 93.11"/>
        <polygon class="cls-8" points="132.06 89.58 128.12 91.93 118.04 86.2 121.98 83.85 132.06 89.58"/>
        <polygon class="cls-8" points="80.79 28.94 76.84 31.28 66.76 25.55 70.7 23.2 80.79 28.94"/>
        <polygon class="cls-8" points="86.29 25.41 82.35 27.76 72.27 22.03 76.21 19.68 86.29 25.41"/>
        <polygon class="cls-8" points="106.14 43.87 102.19 46.22 92.11 40.48 96.05 38.14 106.14 43.87"/>
        <polygon class="cls-8" points="111.65 40.34 107.7 42.69 97.62 36.96 101.56 34.61 111.65 40.34"/>
        <polygon class="cls-8" points="131.49 58.8 127.55 61.15 117.47 55.42 121.41 53.07 131.49 58.8"/>
        <polygon class="cls-8" points="137 55.28 133.05 57.62 122.97 51.89 126.91 49.54 137 55.28"/>
        <polygon class="cls-8" points="156.85 73.74 152.9 76.08 142.82 70.35 146.76 68 156.85 73.74"/>
        <polygon class="cls-8" points="162.35 70.21 158.4 72.56 148.32 66.82 152.26 64.48 162.35 70.21"/>
      </g>
      <g>
        <g>
          <g>
            <g>
              <polygon class="cls-5" points="325.73 92.31 277.22 120.37 265.36 113.5 215.07 84.47 209.08 81.02 257.6 52.97 325.73 92.31"/>
              <polygon class="cls-2" points="325.33 92.39 325.33 113.68 277.22 141.65 277.22 120.37 325.33 92.39"/>
              <polygon class="cls-7" points="277.22 120.37 277.22 141.65 209.09 102.31 209.09 81.02 277.22 120.37"/>
            </g>
            <polygon class="cls-4" points="321.76 92.31 277.22 118.06 213.08 81.02 257.6 55.27 321.76 92.31"/>
          </g>
          <line class="cls-1" x1="291.66" y1="110.56" x2="291.66" y2="133.25"/>
          <line class="cls-1" x1="302.93" y1="104.09" x2="302.93" y2="126.79"/>
          <line class="cls-1" x1="314.19" y1="97.63" x2="314.19" y2="120.33"/>
        </g>
        <polygon class="cls-8" points="255.78 93.21 248.62 97.34 241.47 93.21 248.62 89.08 255.78 93.21"/>
      </g>
      <g>
        <g>
          <g>
            <polygon class="cls-9" points="273.53 148.97 209.72 185.8 145.92 148.97 209.72 112.12 273.53 148.97"/>
            <g>
              <polygon class="cls-5" points="284.12 123.85 209.72 166.82 196.77 159.32 141.86 127.62 135.33 123.85 209.72 80.91 284.12 123.85"/>
              <polygon class="cls-2" points="284.12 123.85 284.12 147.1 209.72 190.05 209.72 166.82 284.12 123.85"/>
              <polygon class="cls-6" points="209.72 166.82 209.72 190.05 135.34 147.1 135.34 123.85 209.72 166.82"/>
            </g>
            <polygon class="cls-4" points="279.78 123.85 209.72 164.3 139.69 123.85 209.72 83.41 279.78 123.85"/>
            <polygon class="cls-8" points="226.33 123.85 209.73 133.43 193.14 123.85 209.73 114.27 226.33 123.85"/>
          </g>
          <g>
            <line class="cls-1" x1="221" y1="159.66" x2="221" y2="183.71"/>
            <line class="cls-1" x1="232.27" y1="153.2" x2="232.27" y2="177.25"/>
            <line class="cls-1" x1="243.53" y1="146.74" x2="243.53" y2="170.79"/>
            <line class="cls-1" x1="254.8" y1="140.28" x2="254.8" y2="164.33"/>
            <line class="cls-1" x1="266.06" y1="133.82" x2="266.06" y2="157.87"/>
            <line class="cls-1" x1="277.33" y1="127.36" x2="277.33" y2="151.41"/>
          </g>
        </g>
        <polygon class="cls-8" points="238.96 103.88 231.8 108.01 224.65 103.88 231.8 99.75 238.96 103.88"/>
      </g>
      <g>
        <g>
          <g>
            <polygon class="cls-5" points="208.69 167.8 183.1 182.58 170.29 175.16 115.96 143.8 109.5 140.07 135.08 125.31 208.69 167.8"/>
            <polygon class="cls-2" points="208.69 168.17 208.69 191.17 183.09 205.56 183.09 182.57 208.69 168.17"/>
            <polygon class="cls-2" points="183.09 182.57 183.09 205.56 109.5 163.07 109.5 140.06 183.09 182.57"/>
          </g>
          <polygon class="cls-4" points="204.4 167.8 183.21 179.77 113.92 139.76 135.08 127.79 204.4 167.8"/>
        </g>
        <line class="cls-1" x1="183.1" y1="181.59" x2="183.1" y2="205.64"/>
        <line class="cls-1" x1="196.86" y1="174.39" x2="196.86" y2="197.82"/>
        <line class="cls-1" x1="169.7" y1="174.7" x2="169.7" y2="198.13"/>
        <line class="cls-1" x1="157.75" y1="167.47" x2="157.75" y2="190.91"/>
        <line class="cls-1" x1="145.79" y1="160.25" x2="145.79" y2="183.68"/>
        <line class="cls-1" x1="133.84" y1="153.7" x2="133.84" y2="177.14"/>
        <line class="cls-1" x1="121.88" y1="147.16" x2="121.88" y2="170.59"/>
        <line class="cls-1" x1="109.93" y1="140.61" x2="109.93" y2="164.04"/>
      </g>
    </g>
  </g>
</svg>