<?xml version="1.0" encoding="UTF-8"?>
<svg id="Layer_2" data-name="Layer 2" xmlns="http://www.w3.org/2000/svg" viewBox="0 0 123.2 84.59">
  <defs>
    <style>
      .cls-1 {
        fill: none;
        stroke: #abb9c2;
        stroke-miterlimit: 10;
        stroke-width: .23px;
      }

      .cls-2 {
        fill: #7aa4b0;
      }

      .cls-2, .cls-3, .cls-4, .cls-5, .cls-6, .cls-7 {
        stroke-width: 0px;
      }

      .cls-3 {
        fill: #537980;
      }

      .cls-4 {
        fill: #abb9c2;
      }

      .cls-5 {
        fill: #a9ada1;
      }

      .cls-6 {
        fill: #fff;
      }

      .cls-7 {
        fill: #e3e4e5;
      }
    </style>
  </defs>
  <g id="Layer_1-2" data-name="Layer 1">
    <g>
      <polyline class="cls-2" points="122.97 33.66 121.96 49.34 55.89 84.45 56.95 68.9"/>
      <polygon class="cls-3" points="9.95 45.68 9.55 51.84 20.27 57.22 20.73 50.12 9.95 45.68"/>
      <polygon class="cls-5" points="2.55 38.54 77.91 .67 103.46 11.79 92.61 17.33 121.8 30.22 57.16 64.73 2.55 38.54"/>
      <path class="cls-6" d="m77.93,1.34l24.1,10.48-8.56,4.37-2.28,1.17,2.34,1.03,26.88,11.87-63.27,33.77L3.93,38.52,77.93,1.34Zm-.04-1.34L1.16,38.55l56.01,26.86L123.2,30.17l-29.17-12.88,10.86-5.55L77.89,0Z"/>
      <polygon class="cls-5" points="96.97 10.07 100.99 7.61 120.68 16.57 116.24 18.86 96.97 10.07"/>
      <path class="cls-6" d="m101.03,8.3l18.25,8.3-3.06,1.58-17.96-8.19,2.76-1.69Zm-.08-1.38l-5.27,3.22,20.58,9.39,5.82-3-21.13-9.61Z"/>
      <g>
        <path class="cls-4" d="m116.26,19.54l-.47,7.28,5.28,2.47.82-12.76s-5.64,3.2-5.63,3.01"/>
        <polygon class="cls-4" points="95.68 10.15 95.19 17.61 115.79 26.82 116.26 19.54 95.68 10.15"/>
        <polygon class="cls-5" points="39.64 28.91 75.56 10.02 97.69 19.9 60.35 38.69 39.64 28.91"/>
        <path class="cls-6" d="m75.58,10.7l20.68,9.23-35.93,18.08-19.33-9.13,34.57-18.18Zm-.04-1.35l-37.26,19.6,22.08,10.42,38.75-19.5-23.57-10.52Z"/>
        <polygon class="cls-7" points="38.28 28.94 37.69 38.06 59.53 48.31 60.11 39.35 38.28 28.94"/>
        <polygon class="cls-4" points="59.53 48.31 98.85 27.85 99.11 19.87 60.11 39.35 59.53 48.31"/>
        <polygon class="cls-2" points="19.74 50.9 18.68 65.43 55.74 84.35 56.95 68.96 19.74 50.9"/>
        <polygon class="cls-4" points="56.72 69.04 57.18 65.41 123.19 30.17 122.97 33.66 56.72 69.04"/>
        <polygon class="cls-7" points=".93 42.1 0 56.57 1.79 57.43 2.73 42.87 .93 42.1"/>
        <polygon class="cls-4" points="1.79 57.43 2.96 56.76 3.89 42.29 2.73 42.87 1.79 57.43"/>
        <polygon class="cls-7" points="1.16 38.55 .93 42.1 56.92 68.96 57.15 65.41 1.16 38.55"/>
        <line class="cls-1" x1="56.97" y1="68.96" x2="55.94" y2="84.58"/>
        <line class="cls-1" x1="64.77" y1="64.21" x2="63.75" y2="79.83"/>
        <line class="cls-1" x1="49.67" y1="65.74" x2="48.65" y2="81.36"/>
        <line class="cls-1" x1="42.66" y1="62.04" x2="41.64" y2="77.66"/>
        <line class="cls-1" x1="35.62" y1="58.84" x2="34.59" y2="74.45"/>
        <line class="cls-1" x1="28.34" y1="55.37" x2="27.32" y2="70.99"/>
        <line class="cls-1" x1="21.82" y1="51.95" x2="20.79" y2="67.56"/>
        <line class="cls-1" x1="72.26" y1="60.45" x2="71.24" y2="76.07"/>
        <line class="cls-1" x1="79.52" y1="56.42" x2="78.5" y2="72.03"/>
        <line class="cls-1" x1="86.52" y1="52.62" x2="85.49" y2="68.24"/>
        <line class="cls-1" x1="93.5" y1="49.07" x2="92.47" y2="64.69"/>
        <line class="cls-1" x1="100.46" y1="45.77" x2="99.43" y2="61.39"/>
        <line class="cls-1" x1="107.24" y1="41.45" x2="106.21" y2="57.07"/>
        <line class="cls-1" x1="113.93" y1="38.39" x2="112.91" y2="54"/>
        <line class="cls-1" x1="120.17" y1="34.79" x2="119.14" y2="50.41"/>
        <polyline class="cls-1" points="19.11 58.71 56.17 77.1 122.44 41.87"/>
      </g>
    </g>
  </g>
</svg>