<?xml version="1.0" encoding="UTF-8"?>
<svg id="Layer_2" data-name="Layer 2" xmlns="http://www.w3.org/2000/svg" viewBox="0 0 88.82 69.22">
  <defs>
    <style>
      .cls-1 {
        fill: #e38425;
      }

      .cls-1, .cls-2, .cls-3, .cls-4, .cls-5, .cls-6, .cls-7 {
        stroke-width: 0px;
      }

      .cls-2 {
        fill: #d63927;
      }

      .cls-3 {
        fill: #ee9050;
      }

      .cls-4 {
        fill: #f15523;
      }

      .cls-5 {
        fill: #f36e37;
      }

      .cls-6 {
        fill: #fff;
      }

      .cls-7 {
        fill: #f7914f;
      }
    </style>
  </defs>
  <g id="Layer_1-2" data-name="Layer 1">
    <g>
      <path class="cls-3" d="m80.85,55.1s.86,8.94,1.3,12.95c-.11,1.55-2.34,1.56-3.13,0-2.27-7.07-4.2-12.85-4.2-12.85l6.03-.09h0Z"/>
      <path class="cls-2" d="m11.43,42.02c0,3.47,2.82,3.48,6.29,3.48h32.52c3.47,0,6.29-.01,6.29-3.48V6.29c0-3.47-2.82-6.29-6.29-6.29H17.72c-3.47,0-6.29,2.82-6.29,6.29v35.73Z"/>
      <path class="cls-4" d="m22.43,42.02c0,3.47,2.82,3.48,6.29,3.48h32.52c3.47,0,6.29-.01,6.29-3.48V6.29c0-3.47-2.82-6.29-6.29-6.29H28.72c-3.47,0-6.29,2.82-6.29,6.29v35.73Z"/>
      <path class="cls-7" d="m65.33,42.02V6.29c0-3.47-2.82-6.29-6.29-6.29h2.2c3.47,0,6.29,2.82,6.29,6.29v35.73c0,3.47-2.82,3.48-6.29,3.48h-2.2c3.47,0,6.29-.01,6.29-3.48Z"/>
      <path class="cls-2" d="m51.3,14.91c0,1.15.93,2.08,2.07,2.08s2.08-.93,2.08-2.08-.93-2.08-2.08-2.08-2.07.93-2.07,2.08Z"/>
      <path class="cls-2" d="m33.76,14.91c0,1.15.93,2.08,2.08,2.08s2.07-.93,2.07-2.08-.93-2.08-2.07-2.08-2.08.93-2.08,2.08Z"/>
      <path class="cls-1" d="m51.3,30.57c0,1.14.93,2.08,2.07,2.08s2.08-.93,2.08-2.08-.93-2.08-2.08-2.08-2.07.93-2.07,2.08Z"/>
      <path class="cls-2" d="m33.76,30.57c0,1.14.93,2.08,2.08,2.08s2.07-.93,2.07-2.08-.93-2.08-2.07-2.08-2.08.93-2.08,2.08Z"/>
      <path class="cls-2" d="m65.32,22.54c.77-.8,18.63-1.55,18.83,1.36.2,2.91-2.49,30.84-4.18,31.81-1.69.97-14.05.78-14.35,0-.5-1.3-1.69-31.71-.3-33.17h0Z"/>
      <path class="cls-5" d="m73.72,22.55c.77-.82,14.72-1.59,14.92,1.39.2,2.98-2.49,31.56-4.18,32.56-1.69.99-10.15.8-10.44,0-.5-1.33-1.69-32.46-.3-33.95h0Z"/>
      <path class="cls-7" d="m84.96,21.96c2.43.25,4.28.7,3.78,3.18-.3.99-23.36.9-24.15.1-.4-.4-.2-3.09.89-3.28,1.09-.2,14.61-.5,19.48,0Z"/>
      <path class="cls-3" d="m22.59,55.1s-.86,8.94-1.3,12.95c.11,1.55,2.34,1.56,3.13,0,2.27-7.07,4.2-12.85,4.2-12.85l-6.03-.09Z"/>
      <path class="cls-3" d="m72.75,55.1s.86,8.94,1.3,12.95c-.11,1.55-2.34,1.56-3.13,0-2.27-7.07-4.2-12.85-4.2-12.85l6.03-.09h0Z"/>
      <path class="cls-3" d="m5.51,55.1s-.86,8.94-1.3,12.95c.11,1.55,2.34,1.56,3.13,0,2.27-7.07,4.2-12.85,4.2-12.85l-6.03-.09Z"/>
      <path class="cls-2" d="m24.22,22.55c-.77-.82-23.7-1.58-23.89,1.38-.2,2.96,2.49,31.3,4.18,32.29,1.69.99,19.12.79,19.42,0,.5-1.32,1.69-32.2.3-33.67Z"/>
      <path class="cls-5" d="m29.72,22.55c-.77-.82-14.72-1.59-14.92,1.39-.2,2.98,2.49,31.56,4.18,32.56,1.69.99,10.15.8,10.44,0,.5-1.33,1.69-32.46.3-33.95h0Z"/>
      <path class="cls-7" d="m3.86,21.96c-2.43.25-4.28.7-3.78,3.18.3.99,29.45.9,30.24.1.4-.4.2-3.09-.9-3.28-1.09-.2-20.69-.5-25.57,0Z"/>
      <path class="cls-4" d="m30.22,39.24h44.11c.7,0,1.26.56,1.26,1.26v14.71c0,.7-.56,1.26-1.26,1.26H30.22c-.7,0-1.26-.56-1.26-1.26v-14.71c0-.7.56-1.26,1.26-1.26Z"/>
      <path class="cls-6" d="m41.77,15.5c-4.58-.45-7.25,1.01-5.56,5.06,1.69,4.05,1.52,8.68.42,13.23-1.1,4.55-1.86,6.41,4.22,5.98,6.07-.42,17.36-1.18,22.17-.51,4.8.67,6.49-.25,5.14-4.3-1.35-4.05-1.43-10.11-.17-13.49,1.27-3.37,2.02-7.16-3.54-6.23-5.56.93-15.85.93-22.67.25h0Z"/>
    </g>
  </g>
</svg>