<?xml version="1.0" encoding="UTF-8"?>
<svg id="Layer_2" data-name="Layer 2" xmlns="http://www.w3.org/2000/svg" viewBox="0 0 143.59 232.88">
  <defs>
    <style>
      .cls-1 {
        stroke-width: .52px;
      }

      .cls-1, .cls-2, .cls-3, .cls-4, .cls-5, .cls-6, .cls-7, .cls-8 {
        fill: none;
        stroke-miterlimit: 10;
      }

      .cls-1, .cls-6, .cls-7 {
        stroke: #dbd3d8;
      }

      .cls-2 {
        stroke-width: 2.95px;
      }

      .cls-2, .cls-3 {
        stroke: #d1d3d4;
      }

      .cls-3 {
        stroke-width: 2.46px;
      }

      .cls-4 {
        stroke: #7f858b;
        stroke-linecap: round;
      }

      .cls-4, .cls-7 {
        stroke-width: .98px;
      }

      .cls-9 {
        fill: #7aa4b0;
      }

      .cls-9, .cls-10, .cls-11, .cls-12, .cls-13, .cls-14 {
        stroke-width: 0px;
      }

      .cls-10 {
        fill: #6e777a;
      }

      .cls-11 {
        fill: #718185;
      }

      .cls-12 {
        fill: #c6cac7;
      }

      .cls-13 {
        fill: #a9ada1;
      }

      .cls-14 {
        fill: #989189;
      }

      .cls-5 {
        stroke: #c6cac7;
      }

      .cls-5, .cls-6 {
        stroke-width: .49px;
      }

      .cls-8 {
        stroke: #000;
        stroke-width: .25px;
      }
    </style>
  </defs>
  <g id="Layer_1-2" data-name="Layer 1">
    <g>
      <path class="cls-9" d="m123.74,109.2l5.87,18.83s2.02,4.15,8.1,3.75c6.08-.4,5.87-4.66,5.87-4.66l-6.11,47.68s-3.95,5.64-11.38.82l-2.08-1.29,2.38-21.4-6.09-17.2,8,.1-4.56-14.27v-12.35Z"/>
      <line class="cls-7" x1="130.69" y1="129.03" x2="127.68" y2="156.01"/>
      <line class="cls-6" x1="137.71" y1="132.28" x2="132.11" y2="177.84"/>
      <path class="cls-6" d="m130.33,132.28s7.31,6.28,12.37,0"/>
      <path class="cls-6" d="m129.86,136.01s7.31,6.28,12.37,0"/>
      <path class="cls-6" d="m129.45,139.73s7.31,6.28,12.38,0"/>
      <path class="cls-6" d="m129,143.46s7.31,6.28,12.37,0"/>
      <path class="cls-6" d="m128.52,147.54s7.31,6.28,12.37,0"/>
      <path class="cls-6" d="m127.97,152.01s7.31,6.28,12.37,0"/>
      <path class="cls-6" d="m127.33,156.51s7.31,6.28,12.37,0"/>
      <path class="cls-6" d="m126.71,161.37s7.31,6.28,12.37,0"/>
      <path class="cls-6" d="m126.25,165.91s7.31,6.28,12.37,0"/>
      <path class="cls-6" d="m125.53,170.45s7.31,6.28,12.37,0"/>
      <path class="cls-6" d="m124.95,174.79s7.47,6.28,12.53,0l.24-1.94,5.6-45.56"/>
      <polygon class="cls-10" points="6.77 36.07 16.47 77.14 15.01 77.16 2.66 77.35 11.23 113.29 25.66 113.04 44.84 196.26 82.5 158.52 126.98 155.56 119.4 134.9 125.78 134.9 122.13 121.73 117.26 120.33 82.1 3.26 48.12 34.18 6.77 36.07"/>
      <polygon class="cls-9" points="7.5 41.63 5.5 77.31 12.21 77.2 12.93 63.15 7.5 41.63"/>
      <polygon class="cls-9" points="11.05 115.81 11.23 113.29 2.26 76.7 1.14 75.99 .03 111.83 8.53 151.51 21.49 150.12 24.4 114.45 11.05 115.81"/>
      <polygon class="cls-11" points="96 125.8 97.44 117.29 68.67 120.74 56.33 129.03 96 125.8"/>
      <polygon class="cls-9" points="27.47 130.05 44.27 201.02 83.06 160.22 128.3 157.29 123.95 191.61 79.4 194.84 42.54 232.87 24.86 165.3 27.47 130.05"/>
      <path class="cls-14" d="m127.13,111.36s8.94-2.01,10.51,3.47c1.57,5.48,3.02,11.07,3.02,11.07,0,0,1.9,4.03-2.68,4.25-4.58.22-6.15-3.13-6.15-3.13l-4.7-15.65Z"/>
      <polyline class="cls-6" points="26.32 145.56 43.2 218.1 81.42 175.2 126.39 172.3"/>
      <polyline class="cls-6" points="25.37 158.52 42.65 230.41 80.51 186.34 124.95 183.71"/>
      <polyline class="cls-6" points="27.21 133.55 43.66 203.86 83.06 163.66 127.79 160.63"/>
      <line class="cls-1" x1="122.28" y1="139.77" x2="129.29" y2="139.77"/>
      <line class="cls-1" x1="121.5" y1="144.23" x2="128.51" y2="144.23"/>
      <line class="cls-7" x1="103.09" y1="162.3" x2="99.64" y2="193.37"/>
      <line class="cls-7" x1="124.95" y1="161" x2="121.5" y2="192.07"/>
      <line class="cls-8" x1="92.98" y1="159.58" x2="89.84" y2="194.09"/>
      <line class="cls-8" x1="115.11" y1="157.9" x2="111.92" y2="193.03"/>
      <line class="cls-8" x1="76.74" y1="166.23" x2="74.92" y2="199.47"/>
      <line class="cls-8" x1="68.71" y1="173.51" x2="68.1" y2="206.5"/>
      <line class="cls-8" x1="61.11" y1="183.16" x2="59.92" y2="214.94"/>
      <line class="cls-8" x1="52.6" y1="192.07" x2="50.74" y2="224.41"/>
      <line class="cls-8" x1="43.96" y1="201.37" x2="42.54" y2="232.87"/>
      <line class="cls-4" x1="46.9" y1="139.13" x2="46.9" y2="148.17"/>
      <polygon class="cls-13" points="22.3 51.49 44.78 142 68.67 120.74 102.48 116.69 76.36 28.01 54.5 49.87 22.3 51.49"/>
      <polyline class="cls-5" points="1.38 86.14 9.95 119.53 24.91 118.24"/>
      <polyline class="cls-5" points="1.01 94.5 9.65 128.38 24.33 126.73"/>
      <polyline class="cls-5" points=".64 103.14 9.28 136.36 24.4 134.9"/>
      <polyline class="cls-5" points=".33 109.97 8.82 144.88 23.92 143.21"/>
      <line class="cls-8" x1="10.14" y1="115.37" x2="8.53" y2="151.36"/>
      <line class="cls-8" x1="1.73" y1="75.69" x2=".12" y2="111.68"/>
      <path class="cls-3" d="m125.77,110.41s11.14-2.43,12.86,3.34c1.72,5.77,3.44,12.05,3.44,12.05,0,0,.68,4.43-4.35,4.96-5.77.61-7.19-4.05-7.19-4.05l-4.76-16.3Z"/>
      <polygon class="cls-12" points="23.92 113.22 21.49 150.12 25.37 167.46 28.33 124.81 25.66 113.05 23.92 113.22"/>
      <polygon class="cls-2" points="6.1 36.1 16.47 77.14 2.66 77.35 11.5 114.45 25.66 113.04 44.98 198.11 83.75 158.52 126.98 155.56 119.4 134.9 126.39 134.9 122.13 121.73 117.26 120.33 81.93 2.7 48.12 34.18 6.1 36.1"/>
    </g>
  </g>
</svg>