<svg width="345" height="183" viewBox="0 0 345 183" fill="none" xmlns="http://www.w3.org/2000/svg">
    <path opacity="0.7" d="M341.2 95.4002C337.92 93.0602 328.25 93.5301 321.86 92.9901C313.35 92.2801 305.68 90.5401 299.9 88.7901C293.97 86.9901 283.74 76.5302 274.09 77.7702C254.48 80.3002 244.75 89.7902 232.27 91.9402C218.98 94.2202 211.05 53.4102 196.93 53.9702C176.81 54.7702 172.44 46.9302 156.52 41.3202C143.34 36.6702 134.26 36.4701 112.18 36.9301C100.24 37.1801 91.5397 43.6901 77.2797 44.2101C71.3597 44.4301 45.8697 15.6902 41.9097 11.3102C38.3097 7.34015 31.1197 3.02016 22.8697 0.660156C21.9197 6.84016 20.7897 11.6701 21.3697 16.0801C22.9897 28.3501 27.5197 31.9601 35.2097 39.8301C37.4697 42.1401 39.8297 44.8301 42.0897 48.9301C50.6897 64.5401 41.1497 86.8202 33.0497 94.1502C28.6597 98.1102 -0.0703057 123.6 0.149694 129.52C0.249694 132.17 0.549692 134.63 0.979692 136.95C2.23969 136.72 3.47969 136.47 4.68969 136.16C15.5597 133.4 25.5997 129.85 32.1297 121.81C38.2797 114.23 44.3297 93.5402 55.4597 92.1302V92.1502C67.2397 90.6602 72.6097 104.08 78.5997 108.1C91.0997 116.5 96.6997 113.06 129.11 100.19C186.49 77.3802 163.32 118.38 175.27 132.37C178.86 136.58 194.66 138.41 202.28 142.34C210.29 146.48 206.18 158.03 212.67 169.18C218.32 178.88 235.74 187.19 247.64 179.17C251.94 176.27 255.92 167.19 257.25 161.52C260.22 148.88 267.06 147.33 286.18 142.13C302.14 137.79 329.69 124.64 339.87 116.05C341.92 114.32 347.95 100.25 341.17 95.4101L341.2 95.4002Z" fill="#C7B8C5"/>
</svg>