<svg width="339" height="171" viewBox="0 0 339 171" fill="none" xmlns="http://www.w3.org/2000/svg">
    <path opacity="0.7" d="M0.759535 100.88C1.87953 105.42 3.46953 108.63 5.05954 111.44C10.4695 121.02 13.9195 125.68 12.3195 137.95C11.7495 142.36 9.40954 146.73 6.89954 152.46C14.5295 157.02 23.7995 159.83 32.6095 157.65C37.1495 156.53 40.3595 154.94 43.1695 153.35C52.7495 147.94 57.4095 144.49 69.6795 146.09C76.7095 147 83.6295 152.38 96.1195 155.84C106.15 158.62 116.59 153.97 126.84 154.98C127.7 155.06 128.55 155.17 129.41 155.34C140.55 157.56 153 167.88 164.06 170.37C164.06 170.37 187.68 172.6 196.75 167.05C208.39 159.91 206.19 144.06 206.9 138.25C207.49 133.45 207.39 101.4 218.86 89.9803C232 76.8903 248.12 82.7503 255.39 84.4003C278.9 89.7103 285.65 78.6503 289.57 70.4103C295.77 57.4003 310.57 49.1103 324.22 47.6303C330.88 46.9103 338.03 44.9403 338.14 40.2703C338.29 33.6203 325.39 22.6103 313.89 21.1703C304.81 20.0303 289.58 18.3203 280.88 14.7403C276.57 12.9703 274.86 8.38029 274.81 3.97029C270.02 -3.74971 256.21 3.16029 251.62 4.57029C240.93 7.85029 236.92 12.6103 219.07 14.8703C213.02 15.6403 206.83 10.1603 197.11 9.63029C192.49 9.37029 186.49 10.1003 180.56 13.4303C170.6 19.0303 165.97 33.9603 155.92 38.8803C147.55 42.9803 138.67 43.8303 129.58 42.9303C107.41 40.7303 83.9195 28.0803 63.1295 26.4103C62.9495 28.7603 62.6095 31.2203 62.0195 33.8003C60.7095 39.5703 26.3795 56.8003 21.1195 59.5003C11.4095 64.4903 -3.55047 83.5603 0.739535 100.86L0.759535 100.88Z" fill="#C7B8C5" />
</svg>