<svg width="250" height="148" viewBox="0 0 250 148" fill="none" xmlns="http://www.w3.org/2000/svg">
    <path opacity="0.7" fill-rule="evenodd" clip-rule="evenodd" d="M184.789 10.1804C182.939 34.0304 186.569 39.6204 182.809 44.2404C176.669 51.7904 162.609 42.3104 154.429 50.3604C146.789 57.8904 154.859 70.3404 147.289 77.0104C140.679 82.8304 132.169 75.4404 118.629 80.6404C108.219 84.6304 109.329 90.5004 100.839 94.8704C84.1091 103.5 70.8991 85.3204 41.2491 86.5104C34.5891 86.7804 11.359 87.7104 3.54905 103.06C-1.59095 113.17 0.379042 128.69 8.22904 133.09C19.499 139.41 32.849 117.15 53.979 120.65C68.969 123.13 68.109 135.32 85.979 143.2C112.179 154.75 142.479 141.09 150.459 137.49C172.939 127.35 170.299 118.76 191.979 110.41C218.519 100.18 230.589 109.93 241.339 98.4404C253.229 85.7304 250.239 61.2004 244.309 47.3404C241.099 39.8504 239.739 41.8004 230.619 25.3304C226.099 17.1604 223.369 11.1504 217.359 9.51038C213.359 8.42038 212.609 10.5504 207.479 10.0604C196.779 9.05038 192.019 -0.979608 187.849 0.770392C185.609 1.71039 185.159 5.36038 184.789 10.1804Z" fill="#C7B8C5" />
</svg>