<?xml version="1.0" encoding="UTF-8"?>
<svg id="Layer_2" data-name="Layer 2" xmlns="http://www.w3.org/2000/svg" viewBox="0 0 116.96 85.74">
  <defs>
    <style>
      .cls-1 {
        fill: none;
        stroke: #abb9c2;
        stroke-miterlimit: 10;
        stroke-width: 2.01px;
      }

      .cls-2 {
        fill: #7aa4b0;
      }

      .cls-2, .cls-3, .cls-4, .cls-5, .cls-6, .cls-7 {
        stroke-width: 0px;
      }

      .cls-3 {
        fill: #555f6d;
      }

      .cls-4 {
        fill: #537980;
      }

      .cls-5 {
        fill: #a9ada1;
      }

      .cls-6 {
        fill: #6b7c85;
      }

      .cls-7 {
        fill: #fff;
      }
    </style>
  </defs>
  <g id="Layer_1-2" data-name="Layer 1">
    <g>
      <polygon class="cls-4" points="61.06 83.48 100.5 64.98 101.79 44.99 70.99 60.32 62.08 58.9 61.06 83.48"/>
      <line class="cls-1" x1="75.64" y1="62.3" x2="74.13" y2="85.68"/>
      <line class="cls-1" x1="86.17" y1="56.11" x2="84.66" y2="79.48"/>
      <polygon class="cls-2" points="116.96 38.47 115.77 56.93 106.77 60.75 107.93 42.83 116.96 38.47"/>
      <polygon class="cls-6" points="74.64 58.99 74.22 65.4 62.08 58.9 62.5 52.46 74.64 58.99"/>
      <polygon class="cls-3" points="74.22 65.4 102.13 51.27 102.61 45.39 74.64 58.99 74.22 65.4"/>
      <polygon class="cls-6" points="1.85 20.8 0 49.54 61.06 83.48 63.06 52.5 1.85 20.8"/>
      <polygon class="cls-3" points="100.87 59.25 101.79 44.99 107.99 41.89 106.77 60.75 105.12 61.58 100.87 59.25"/>
      <polygon class="cls-5" points="3.19 20.82 43.68 .69 115.6 38.45 74.65 58.31 3.19 20.82"/>
      <path class="cls-7" d="m43.68,1.37l70.57,37.06-39.59,19.2L4.53,20.83,43.68,1.37Zm.02-1.37L1.85,20.8l72.78,38.19,42.32-20.52L43.69,0Z"/>
    </g>
  </g>
</svg>