<?xml version="1.0" encoding="UTF-8"?>
<svg xmlns="http://www.w3.org/2000/svg" xmlns:xlink="http://www.w3.org/1999/xlink" viewBox="0 0 162.12 109.96">
  <defs>
    <style>
      .cls-1 {
        fill: url(#New_Gradient_Swatch_2);
      }

      .cls-1, .cls-2, .cls-3, .cls-4, .cls-5, .cls-6, .cls-7, .cls-8, .cls-9, .cls-10, .cls-11, .cls-12, .cls-13, .cls-14, .cls-15, .cls-16, .cls-17, .cls-18, .cls-19, .cls-20, .cls-21, .cls-22, .cls-23, .cls-24, .cls-25, .cls-26, .cls-27, .cls-28, .cls-29, .cls-30, .cls-31, .cls-32, .cls-33, .cls-34, .cls-35, .cls-36, .cls-37, .cls-38, .cls-39, .cls-40, .cls-41, .cls-42, .cls-43, .cls-44, .cls-45, .cls-46, .cls-47, .cls-48, .cls-49, .cls-50, .cls-51, .cls-52, .cls-53, .cls-54, .cls-55 {
        stroke-width: 0px;
      }

      .cls-2 {
        fill: url(#New_Gradient_Swatch_2-2);
      }

      .cls-56 {
        clip-path: url(#clippath);
      }

      .cls-3 {
        fill: none;
      }

      .cls-4 {
        fill: url(#New_Gradient_Swatch_2-3);
      }

      .cls-4, .cls-5, .cls-6, .cls-7, .cls-8, .cls-9, .cls-57, .cls-17, .cls-19 {
        mix-blend-mode: overlay;
      }

      .cls-5 {
        fill: url(#New_Gradient_Swatch_2-4);
      }

      .cls-6 {
        fill: url(#New_Gradient_Swatch_2-5);
      }

      .cls-7 {
        fill: url(#New_Gradient_Swatch_2-6);
      }

      .cls-8 {
        fill: url(#New_Gradient_Swatch_2-7);
      }

      .cls-9 {
        fill: url(#New_Gradient_Swatch_2-8);
      }

      .cls-10 {
        fill: url(#linear-gradient-11);
      }

      .cls-11 {
        fill: url(#linear-gradient-16);
      }

      .cls-12 {
        fill: url(#linear-gradient-5);
      }

      .cls-12, .cls-13, .cls-14, .cls-15, .cls-16, .cls-18, .cls-20, .cls-21, .cls-22, .cls-23, .cls-24, .cls-25, .cls-30 {
        mix-blend-mode: screen;
      }

      .cls-13 {
        fill: url(#linear-gradient-4);
      }

      .cls-14 {
        fill: url(#linear-gradient-2);
      }

      .cls-15 {
        fill: url(#linear-gradient-3);
      }

      .cls-16 {
        fill: url(#linear-gradient-9);
      }

      .cls-17 {
        fill: url(#radial-gradient-2);
      }

      .cls-18 {
        fill: url(#linear-gradient);
      }

      .cls-19 {
        fill: url(#radial-gradient);
      }

      .cls-20 {
        fill: url(#linear-gradient-10);
      }

      .cls-21 {
        fill: url(#linear-gradient-12);
      }

      .cls-22 {
        fill: url(#linear-gradient-17);
      }

      .cls-23 {
        fill: url(#linear-gradient-13);
      }

      .cls-24 {
        fill: url(#linear-gradient-14);
      }

      .cls-25 {
        fill: url(#linear-gradient-15);
      }

      .cls-26 {
        fill: #ab938a;
        mix-blend-mode: multiply;
        opacity: .4;
      }

      .cls-27 {
        fill: url(#linear-gradient-8);
      }

      .cls-28 {
        fill: url(#linear-gradient-7);
      }

      .cls-29 {
        fill: url(#linear-gradient-6);
      }

      .cls-58 {
        isolation: isolate;
      }

      .cls-30 {
        fill: url(#New_Gradient_Swatch_2-9);
      }

      .cls-31 {
        fill: #5e787a;
      }

      .cls-32 {
        fill: #7b7f82;
      }

      .cls-33 {
        fill: #2c3e50;
      }

      .cls-34 {
        fill: #2b2b2b;
      }

      .cls-35 {
        fill: #88a1a8;
      }

      .cls-36 {
        fill: #6e7173;
      }

      .cls-37 {
        fill: #a2a7ab;
      }

      .cls-38 {
        fill: #a51616;
      }

      .cls-39 {
        fill: #a38671;
      }

      .cls-40 {
        fill: #262626;
      }

      .cls-41 {
        fill: #420404;
      }

      .cls-42 {
        fill: #141414;
      }

      .cls-43 {
        fill: #161515;
      }

      .cls-44 {
        fill: #ce2521;
      }

      .cls-45 {
        fill: #d5c295;
      }

      .cls-46 {
        fill: #bdc3c7;
      }

      .cls-47 {
        fill: #bf1d1d;
      }

      .cls-48 {
        fill: #b21919;
      }

      .cls-49 {
        fill: #baa786;
      }

      .cls-50 {
        fill: #a1a6a9;
      }

      .cls-51 {
        fill: #658a93;
      }

      .cls-52 {
        fill: #fff;
      }

      .cls-53 {
        fill: #ecf0f1;
      }

      .cls-54 {
        fill: #fba400;
      }

      .cls-55 {
        fill: #f0deb4;
      }
    </style>
    <linearGradient id="linear-gradient" x1="32.45" y1="26.64" x2="40.29" y2="26.64" gradientUnits="userSpaceOnUse">
      <stop offset="0" stop-color="#000"/>
      <stop offset="1" stop-color="#b31d0d"/>
    </linearGradient>
    <linearGradient id="linear-gradient-2" x1="113.6" y1="25.07" x2="125.13" y2="7.76" xlink:href="#linear-gradient"/>
    <linearGradient id="linear-gradient-3" x1="115.85" y1="7.93" x2="104.62" y2="1.27" xlink:href="#linear-gradient"/>
    <radialGradient id="radial-gradient" cx="465.56" cy="-2461.23" fx="465.56" fy="-2461.23" r="15.33" gradientTransform="translate(534.58 -2366.59) rotate(-180)" gradientUnits="userSpaceOnUse">
      <stop offset="0" stop-color="#fff"/>
      <stop offset=".08" stop-color="#d0d0d0"/>
      <stop offset=".17" stop-color="#9f9f9f"/>
      <stop offset=".26" stop-color="#757575"/>
      <stop offset=".36" stop-color="#505050"/>
      <stop offset=".46" stop-color="#333"/>
      <stop offset=".57" stop-color="#1c1c1c"/>
      <stop offset=".69" stop-color="#0c0c0c"/>
      <stop offset=".82" stop-color="#020202"/>
      <stop offset="1" stop-color="#000"/>
    </radialGradient>
    <linearGradient id="New_Gradient_Swatch_2" data-name="New Gradient Swatch 2" x1="75.76" y1="101.2" x2="67.78" y2="89.29" gradientUnits="userSpaceOnUse">
      <stop offset="0" stop-color="#000"/>
      <stop offset="1" stop-color="#fff"/>
    </linearGradient>
    <radialGradient id="radial-gradient-2" cx="402.97" cy="-2426.12" fx="402.97" fy="-2426.12" r="15.33" xlink:href="#radial-gradient"/>
    <linearGradient id="New_Gradient_Swatch_2-2" data-name="New Gradient Swatch 2" x1="138.35" y1="66.09" x2="130.37" y2="54.18" xlink:href="#New_Gradient_Swatch_2"/>
    <linearGradient id="linear-gradient-4" x1="68.29" y1="87.51" x2="66.25" y2="80.25" xlink:href="#linear-gradient"/>
    <linearGradient id="linear-gradient-5" x1="128.43" y1="51.99" x2="125.37" y2="46.26" xlink:href="#linear-gradient"/>
    <linearGradient id="linear-gradient-6" x1="44.11" y1="93.38" x2="40.04" y2="106.1" gradientUnits="userSpaceOnUse">
      <stop offset="0" stop-color="#b21919"/>
      <stop offset="1" stop-color="#511313"/>
    </linearGradient>
    <linearGradient id="linear-gradient-7" x1="39.45" y1="100.32" x2="45.13" y2="100.32" gradientUnits="userSpaceOnUse">
      <stop offset="0" stop-color="#bdc3c7"/>
      <stop offset="1" stop-color="#95a5a6"/>
    </linearGradient>
    <linearGradient id="New_Gradient_Swatch_2-3" data-name="New Gradient Swatch 2" x1="41.93" y1="96.98" x2="42.56" y2="102.8" xlink:href="#New_Gradient_Swatch_2"/>
    <linearGradient id="New_Gradient_Swatch_2-4" data-name="New Gradient Swatch 2" x1="38.47" y1="93.88" x2="43.05" y2="100.69" xlink:href="#New_Gradient_Swatch_2"/>
    <linearGradient id="linear-gradient-8" x1="0" y1="78.63" x2="2.34" y2="78.63" gradientUnits="userSpaceOnUse">
      <stop offset="0" stop-color="#b21919"/>
      <stop offset="1" stop-color="#9b1313"/>
    </linearGradient>
    <linearGradient id="linear-gradient-9" x1="85.34" y1="86.96" x2="66.32" y2="36.95" xlink:href="#linear-gradient"/>
    <linearGradient id="linear-gradient-10" x1="83.59" y1="42.52" x2="86.94" y2="46.77" xlink:href="#linear-gradient"/>
    <linearGradient id="linear-gradient-11" x1="1295.34" y1="-575.96" x2="1299.51" y2="-575.96" gradientTransform="translate(-1015.82 -893.65) rotate(66.87)" xlink:href="#linear-gradient-7"/>
    <linearGradient id="New_Gradient_Swatch_2-5" data-name="New Gradient Swatch 2" x1="120.85" y1="51.13" x2="119.2" y2="48.39" xlink:href="#New_Gradient_Swatch_2"/>
    <linearGradient id="New_Gradient_Swatch_2-6" data-name="New Gradient Swatch 2" x1="29.41" y1="78.15" x2="20.29" y2="69.41" xlink:href="#New_Gradient_Swatch_2"/>
    <linearGradient id="linear-gradient-12" x1="64.27" y1="17.35" x2="56.45" y2="11.5" xlink:href="#linear-gradient"/>
    <linearGradient id="linear-gradient-13" x1="95.48" y1="35.06" x2="79.4" y2="23.04" xlink:href="#linear-gradient"/>
    <linearGradient id="linear-gradient-14" x1="66.26" y1="78.72" x2="54.05" y2="75.92" xlink:href="#linear-gradient"/>
    <clipPath id="clippath">
      <path class="cls-3" d="m.49,70.67s1.33,3.03,4.12.61c2.79-2.42,2.06-9.94,1.82-11.63-.24-1.7,2.79-7.27-.73-5.09-3.51,2.18-6.42,12.12-5.21,16.12Z"/>
    </clipPath>
    <linearGradient id="New_Gradient_Swatch_2-7" data-name="New Gradient Swatch 2" x1="-6.83" y1="72.74" x2="4.5" y2="63.45" xlink:href="#New_Gradient_Swatch_2"/>
    <linearGradient id="linear-gradient-15" x1="23.96" y1="51.88" x2="12.76" y2="46.45" xlink:href="#linear-gradient"/>
    <linearGradient id="linear-gradient-16" x1="37.93" y1="86.66" x2="55.89" y2="86.66" gradientUnits="userSpaceOnUse">
      <stop offset="0" stop-color="#ecf0f1"/>
      <stop offset=".75" stop-color="#c9ced2"/>
      <stop offset="1" stop-color="#bdc3c7"/>
    </linearGradient>
    <linearGradient id="New_Gradient_Swatch_2-8" data-name="New Gradient Swatch 2" x1="40.85" y1="77.06" x2="48.35" y2="88.76" xlink:href="#New_Gradient_Swatch_2"/>
    <linearGradient id="New_Gradient_Swatch_2-9" data-name="New Gradient Swatch 2" x1="62.69" y1="36.04" x2="49.86" y2="16.68" xlink:href="#New_Gradient_Swatch_2"/>
    <linearGradient id="linear-gradient-17" x1="88.75" y1="54.06" x2="101.66" y2="54.06" xlink:href="#linear-gradient"/>
  </defs>
  <g class="cls-58">
    <g id="Layer_2" data-name="Layer 2">
      <g id="Layer_1-2" data-name="Layer 1">
        <g>
          <path class="cls-26" d="m151.88,65.82l-65.93,38.22c-13.65,7.88-35.79,7.88-49.45,0l-9.25-5.38c-13.65-7.88-13.65-20.67,0-28.55L93.17,31.89c13.65-7.88,35.79-7.88,49.45,0l9.25,5.38c13.65,7.88,13.65,20.67,0,28.55Z"/>
          <g>
            <g>
              <g>
                <path class="cls-34" d="m40.89,30.47s.87,3.78-1.09,3.84c1-.86.38-3.58.38-3.58,0,0-.14-9.11-6.09-8.79-.24.01-.46.04-.66.09.36-.2.81-.31,1.37-.34,5.95-.32,6.09,8.79,6.09,8.79Z"/>
                <path class="cls-47" d="m39.8,34.3c-.33.01-.74-.09-1.24-.33-2.72-1.29-7.06-7.76-6.11-10.77.16-.51.47-.92.97-1.18h0c.2-.05.42-.08.67-.09,5.95-.32,6.09,8.79,6.09,8.79,0,0,.06.26.11.64.12.86.21,2.34-.49,2.94Z"/>
              </g>
              <path class="cls-18" d="m40.29,31.36c-2.9-2.33-6.26-6.24-7.84-8.15.16-.51.47-.92.97-1.18h0c.2-.05.42-.08.67-.09,5.95-.32,6.09,8.79,6.09,8.79,0,0,.06.26.11.64Z"/>
            </g>
            <path class="cls-44" d="m41.33,30.81S91.35,1.77,94.87,1.77s-4.82,8.67-13.67,12.43c-8.85,3.76-36.11,18.06-36.11,18.06l-3.76-1.45Z"/>
            <path class="cls-40" d="m46.3,30.08S90.05,2.69,93.56,3.42c3.51.73,28.11,14.06,32.6,20.6,4.48,6.54,9.94,6.54,7.03,11.63-2.91,5.09-30.55,23.38-36.37,26.17-5.82,2.79-8.57,1.61-27.48.76-18.9-.85-23.04-32.51-23.04-32.51Z"/>
            <path class="cls-42" d="m87.64,6.06s-5.83,5.3,10.11,14.97c15.94,9.67,28.84,16.96,33.92,16.28,5.09-.68,1.36-14.08-3.73-15.44-5.09-1.36-31.74-21.92-40.31-15.82Z"/>
            <path class="cls-42" d="m37.62,34.43S81.57,11.19,88.53,6.95c2.72-1.66,2.44-2.12.13-1.4-3.59,1.11-12.51,6.55-17.62,9.29-8.4,4.5-35.37,18.57-33.42,19.59Z"/>
            <path class="cls-44" d="m150.38,27.9l-17.01,5.32c-.09-1.44-1.19-4.15-2.34-5.48-1.07-.65,2.57-.88-11.23-8.08-10.75-7.29-25.26-16.21-31.55-14.93,1.64-.79,1.45-1.1,3.62-1.84,1.56-.67,2.98-1.21,4.19-1.59.17-.05.33-.1.49-.15.59-.17,1.12-.31,1.59-.39.03,0,.06-.01.09-.02.76-.13,1.5-.22,2.22-.29.23-.05.45-.09.63-.12,4.87-.83,9.23-.02,12.8,1.31,4.97,1.84,8.41,4.66,9.57,5.38.65.4,3.28,1.98,6.63,4.09,4.33,2.73,9.85,6.34,13.85,9.43,1.6,1.24,2.95,2.39,3.88,3.37.85.9,1.76,2.31,2.57,3.98Z"/>
            <path class="cls-14" d="m137.57,29.57L101.1,5.82l-6.23-4.05c.79-.13,4.83-1.24,5.59-1.31.23-.05.45-.09.63-.12,4.87-.83,9.23-.02,12.8,1.31,4.97,1.84,8.41,4.66,9.57,5.38.65.4,3.28,1.98,6.63,4.09,4.33,2.73,13.73,9.71,17.73,12.8,1.57,3.21-10.24,5.65-10.24,5.65Z"/>
            <path class="cls-15" d="m99.23,1.77s4.58-3.18,12.47-.25c7.89,2.93-3.82-.13-7.51.76-3.69.89-3.94,1.53-4.96-.51Z"/>
            <path class="cls-42" d="m137.21,32.56l-7.41,4.26c6.12-4.09.01-10.36-10.73-15.86-10.75-7.29-25.39-16.11-31.68-14.83,0,0-.61-2.07,2.4-3.75,2.88-1.61,5.55-.89,7.29.17.39.24,34.61,17.16,38.78,23.18,3.03,4.36,1.36,6.85,1.36,6.85Z"/>
            <path class="cls-41" d="m80.86,92.26l-19.58-10,8.82-7.89s12.81-.68,13.4-.59c.59.08,4.66,4.24,4.75,4.5.08.25-7.39,13.99-7.39,13.99Z"/>
            <g>
              <g>
                <path class="cls-43" d="m63.63,105.94l-4.89-3.26s-5.32-21.07,13.03-22.48l4.89,2.5-13.03,23.24Z"/>
                <g>
                  <path class="cls-34" d="m79.79,89.01c0,6-4.21,13.29-9.41,16.29-5.19,3-9.41.57-9.41-5.43s4.21-13.29,9.41-16.29c5.19-3,9.41-.57,9.41,5.43Z"/>
                  <path class="cls-53" d="m78.67,89.77c0,2.97-1.17,6.29-3,9.1-.34.53-.72,1.05-1.11,1.53-1.22,1.53-2.65,2.83-4.17,3.71-1.52.88-2.95,1.23-4.17,1.1-.39-.04-.76-.12-1.11-.25-1.83-.69-3-2.67-3-5.63,0-.7.06-1.41.19-2.14.08-.48.19-.97.32-1.47,1.11-4.11,3.91-8.24,7.24-10.4.17-.11.35-.22.52-.32.18-.1.36-.2.52-.28,3.34-1.68,6.13-.78,7.24,2.04.14.34.24.71.32,1.1.13.58.19,1.23.19,1.92Z"/>
                  <path class="cls-19" d="m62.88,98.88c0-2.69,1.06-5.69,2.72-8.24.31-.48.65-.95,1-1.39,1.11-1.39,2.4-2.57,3.78-3.36,1.38-.79,2.67-1.11,3.78-1,.35.03.69.11,1,.23,1.66.63,2.72,2.41,2.72,5.1,0,.63-.06,1.28-.17,1.94-.07.44-.17.88-.29,1.33-1.01,3.72-3.54,7.46-6.56,9.43-.15.1-.32.2-.48.29-.16.09-.32.18-.48.26-3.02,1.53-5.55.71-6.56-1.85-.12-.31-.22-.64-.29-.99-.12-.53-.17-1.11-.17-1.74Z"/>
                  <path class="cls-34" d="m76.92,90.67c0,4.17-2.92,9.23-6.53,11.32-3.61,2.08-6.53.39-6.53-3.77s2.93-9.23,6.53-11.32c3.61-2.08,6.53-.39,6.53,3.77Z"/>
                  <ellipse class="cls-40" cx="70.39" cy="94.44" rx="7.91" ry="4.57" transform="translate(-46.59 108.18) rotate(-60)"/>
                </g>
              </g>
              <g class="cls-58">
                <polygon class="cls-37" points="72.71 90.51 72.21 90.22 78.01 86.7 72.71 90.51"/>
                <polygon class="cls-32" points="65.6 103.89 67.32 97.05 67.82 97.34 65.6 103.89"/>
                <polygon class="cls-36" points="68.99 92.61 68.49 92.32 70.01 85.93 68.99 92.61"/>
                <polygon class="cls-50" points="63.77 94.77 68.49 92.32 68.99 92.61 63.77 94.77"/>
                <g class="cls-57">
                  <path class="cls-1" d="m70.01,85.93l1.76-1.01.94,5.58,5.3-3.81c.23.49.41,1.05.51,1.68l-4.68,5.56,2.19,4.1c-.47.74-.98,1.45-1.53,2.1l-3.68-1.97-3.7,6.12-1.52-.4,2.23-6.54-4.58-.27c.11-.76.29-1.53.53-2.3l5.22-2.16,1.01-6.68Z"/>
                </g>
                <path class="cls-53" d="m70.01,85.93l1.76-1.01.94,5.58,5.3-3.81c.23.49.41,1.05.51,1.68l-4.68,5.56,2.19,4.1c-.47.74-.98,1.45-1.53,2.1l-3.68-1.97-3.7,6.12-1.52-.4,2.23-6.54-4.58-.27c.11-.76.29-1.53.53-2.3l5.22-2.16,1.01-6.68Z"/>
              </g>
            </g>
            <polygon class="cls-41" points="143.01 57.09 118.7 51.9 133.12 42.57 144.91 40.96 146.18 45.79 145.92 53.42 143.01 57.09"/>
            <g>
              <g>
                <path class="cls-43" d="m126.23,70.83l-4.89-3.26s-5.32-21.07,13.03-22.48l4.89,2.5-13.03,23.24Z"/>
                <g>
                  <path class="cls-34" d="m142.38,53.9c0,6-4.21,13.29-9.41,16.29-5.19,3-9.41.57-9.41-5.43s4.21-13.29,9.41-16.29c5.19-3,9.41-.57,9.41,5.43Z"/>
                  <path class="cls-53" d="m141.26,54.66c0,2.96-1.17,6.29-3,9.1-.34.53-.72,1.05-1.11,1.53-1.22,1.53-2.65,2.83-4.17,3.71-1.52.88-2.95,1.23-4.17,1.1-.39-.04-.76-.12-1.11-.25-1.83-.69-3-2.67-3-5.63,0-.7.06-1.41.19-2.14.08-.48.19-.97.32-1.47,1.11-4.11,3.91-8.24,7.24-10.4.17-.11.35-.22.52-.32.17-.1.36-.2.52-.28,3.34-1.68,6.13-.78,7.24,2.04.14.34.24.71.32,1.1.13.58.19,1.23.19,1.92Z"/>
                  <path class="cls-17" d="m125.48,63.77c0-2.69,1.06-5.69,2.72-8.24.31-.48.65-.95,1-1.39,1.11-1.39,2.4-2.57,3.78-3.36,1.38-.79,2.67-1.11,3.78-1,.35.03.69.11,1,.23,1.66.63,2.72,2.41,2.72,5.1,0,.63-.06,1.28-.17,1.94-.07.44-.17.88-.29,1.33-1.01,3.72-3.54,7.46-6.56,9.43-.15.1-.32.2-.48.29-.16.09-.32.18-.48.26-3.02,1.53-5.55.71-6.56-1.85-.12-.31-.22-.64-.29-.99-.12-.53-.17-1.11-.17-1.74Z"/>
                  <path class="cls-34" d="m139.51,55.56c0,4.17-2.93,9.23-6.53,11.32-3.61,2.08-6.53.39-6.53-3.77s2.93-9.23,6.53-11.32c3.61-2.08,6.53-.39,6.53,3.77Z"/>
                  <ellipse class="cls-40" cx="132.98" cy="59.33" rx="7.91" ry="4.57" transform="translate(15.11 144.83) rotate(-60)"/>
                </g>
              </g>
              <g class="cls-58">
                <polygon class="cls-37" points="135.3 55.4 134.8 55.1 140.6 51.59 135.3 55.4"/>
                <polygon class="cls-32" points="128.19 68.77 129.91 61.94 130.41 62.23 128.19 68.77"/>
                <polygon class="cls-36" points="131.59 57.5 131.08 57.21 132.6 50.82 131.59 57.5"/>
                <polygon class="cls-50" points="126.36 59.66 131.08 57.21 131.59 57.5 126.36 59.66"/>
                <g class="cls-57">
                  <path class="cls-2" d="m132.6,50.82l1.76-1.01.94,5.58,5.3-3.81c.23.49.41,1.05.51,1.68l-4.68,5.56,2.19,4.1c-.47.74-.98,1.45-1.53,2.1l-3.68-1.97-3.7,6.12-1.52-.4,2.23-6.54-4.58-.27c.11-.76.29-1.53.53-2.3l5.22-2.16,1.01-6.68Z"/>
                </g>
                <path class="cls-53" d="m132.6,50.82l1.76-1.01.94,5.58,5.3-3.81c.23.49.41,1.05.51,1.68l-4.68,5.56,2.19,4.1c-.47.74-.98,1.45-1.53,2.1l-3.68-1.97-3.7,6.12-1.52-.4,2.23-6.54-4.58-.27c.11-.76.29-1.53.53-2.3l5.22-2.16,1.01-6.68Z"/>
              </g>
            </g>
            <path class="cls-33" d="m57.09,40.26s10.54-13.09,17.93-9.57c7.39,3.51,10.01,9.9,8.85,11.51-1.16,1.61-4.87,4.15-10.49,6.19-5.62,2.05-9.99,3.72-9.99,3.72l-9.06-6.12,2.76-5.73Z"/>
            <g>
              <path class="cls-40" d="m93.77,3.87s25.98,14.72,34.64,19.68c1.29.74,2.21,2.54,2.37,3.73.13.93-1.26,8.92-2.3,12.51-1.03,3.55-1.51,5.11-2.4,6.31-.89,1.2-.36,1.98-3.96,1.35-2.97-.52-26.02-30.51-32.48-40.78-.72-1.14-.11-1.92.62-2.41.72-.48,2.75-.83,3.51-.39Z"/>
              <path class="cls-55" d="m128.61,29.64c-.74,4.91-2.25,13.5-4.03,16.57,0,0,0,0,0,.01-.4.69-.82,1.1-1.25,1.12-3.13.16-37.16-17.12-39.82-23.53-2.07-5-.11-8.81,1.67-12.66.91-1.98,4.05-6.94,5.51-6.99.04,0,.08,0,.12,0,.06,0,.12.02.18.03,2.43.42,32.49,18.64,34.95,20.01.15.09.3.18.44.28.13.09.26.18.38.28,0,0,0,0,0,0h0c-4.79.37-34.62-18.66-35.73-20.15-5.47,11.47-5.63,17.74-5.59,19.1,3.07,1.78,33.66,19.84,36.28,20.97l-.02-.04c-1.11-4.73,4.43-18.13,5.15-19.84,0,0,0,0,.01.01.12.1.24.21.34.33.05.05.1.1.14.16,1.03,1.15,1.52,2.73,1.28,4.31Z"/>
              <path class="cls-34" d="m113.01,56.1c-2.81-.39-37.39-22.43-38.17-22.9-.42-.25-.68-1.19-.62-2.33.06-.97.36-2.09,1.01-3.06,1.41-2.11,7.82-5.63,7.82-5.63,4.92,3.71,38.47,21.89,41.63,24.09h0c.1.07.2.14.3.22,3.05,2.34-9.15,10.01-11.96,9.61Z"/>
              <path class="cls-49" d="m124.67,46.27h0s0,.04-.01.06c-.63,2.03-8.52,6.41-11.18,6.96-2.25.46-37.03-21.03-39.26-22.42.06-.97.36-2.09,1.01-3.06,1.41-2.11,7.82-5.63,7.82-5.63.05.04.11.08.17.12,4.87,3.6,38.27,21.78,41.41,23.94.02.01.04.02.05.04Z"/>
              <path class="cls-45" d="m127.33,25.33c-.05-.05-.1-.1-.14-.16-.11-.12-.22-.22-.34-.33,0,0,0,0-.01-.01-.02-.02-.05-.04-.07-.05,0,0,0,0,0,0h0c-8.81-6.2-33.82-20.84-35.76-20.58-.96.13-7.2,13.96-5.83,19.38.05.19.1.37.17.54l.11-.1s-.01-.09-.02-.28c3.07,1.78,33.66,19.84,36.28,20.97l.34.53s0-.13,0-.38c.03-1.77.47-9.48,5.29-19.53Z"/>
              <path class="cls-49" d="m124.62,46.24s-.03,0-.04,0c-11.58-2.44-39.77-22.14-41.37-23.93.63.47,1.29.9,1.95,1.29.09.05.17.1.26.15,3.07,1.78,33.66,19.84,36.28,20.97.12.05.23.1.34.15.97.43,1.83.87,2.54,1.35.01,0,.02.01.03.02Z"/>
            </g>
            <g>
              <g>
                <path class="cls-40" d="m105.69,33.58l2.06.39s2.19,2.13,2.39,4c.19,1.87-.19,10.71-1.48,15.1-1.29,4.39-1.87,6.32-2.97,7.81-1.1,1.48-.45,2.45-4.9,1.68-4.45-.77,4.9-28.96,4.9-28.96Z"/>
                <path class="cls-34" d="m97.82,23.38s.84-1.87,3.29-2.19c.52-.07,7.35.58,8.39,4.64,1.03,4.06-.9,6.97-1.29,7.74-.39.77-.84,1.16-2.64,1.1-1.81-.06-9.55-3.03-8.97-5.16.58-2.13,1.23-6.13,1.23-6.13Z"/>
                <path class="cls-55" d="m107.61,31.86c-.24.83-.54,1.61-.9,2.27-.02.03-.04.06-.05.09-.05.09-.1.17-.15.25-6.66.51-9.78-2.79-10.87-4.59,0-.1,0-.2,0-.31v-.12c.01-.4.04-.85.09-1.33.24-2.21,1.06-5.05,3.57-6.23,2.63-1.24,8.32,1.03,8.9,3.74.28,1.32.07,3.94-.6,6.22Z"/>
                <path class="cls-45" d="m100.22,59.1l.03.05c-3.24-1.41-7.3-2.77-11.1-4.96-.05-1.68.16-9.45,6.93-23.65,1.38,1.84,4.5,4.4,10.43,3.94h0s0,0,0-.01c.03.02.06.04.09.07-.89,2.12-7.75,18.71-6.38,24.57Z"/>
                <path class="cls-55" d="m108.81,40.49c-.92,6.07-2.78,16.71-4.98,20.52,0,0-.01.01-.01.02-.5.86-1.02,1.36-1.54,1.39-3.87.19-12.2-.19-15.48-8.13-2.57-6.19-.14-10.9,2.06-15.68,1.13-2.45,5.01-8.59,6.82-8.65.05,0,.1,0,.14,0,.08.01.15.03.23.04,3.01.52,6.41,2.08,9.46,3.77.19.11.37.22.55.34.16.11.32.23.47.35,0,0,0,0,0,.01h0c-5.92.45-9.05-2.11-10.43-3.94-6.77,14.2-6.97,21.96-6.93,23.65,3.8,2.2,7.87,3.56,11.1,4.96l-.03-.05c-1.38-5.86,5.48-22.44,6.38-24.57l.02.02c.15.13.29.26.42.4.06.07.12.13.18.19,1.27,1.43,1.89,3.37,1.59,5.34Z"/>
                <path class="cls-34" d="m89.5,73.25c-3.48-.48-12.48-6.77-13.45-7.35-.52-.31-.85-1.47-.76-2.89.07-1.2.45-2.59,1.25-3.79,1.74-2.61,9.68-6.97,9.68-6.97,6.09,4.59,13.81,6.1,17.73,8.82h0c.12.09.25.18.37.27,3.77,2.9-11.32,12.39-14.8,11.9Z"/>
                <path class="cls-55" d="m103.93,61.08h0s-.01.05-.02.08c-.78,2.52-10.55,7.93-13.84,8.61-2.79.57-12.03-5.03-14.79-6.76.08-1.2.44-2.59,1.25-3.79,1.74-2.61,9.68-6.97,9.68-6.97.07.05.13.1.2.15,6.03,4.45,13.57,5.97,17.46,8.63.03.02.05.03.07.05Z"/>
                <g>
                  <path class="cls-45" d="m96.08,30.54c-6.77,14.2-6.97,21.96-6.93,23.65,0,.23.02.35.02.35l-.13.13c-.08-.21-.15-.43-.21-.66-1.69-6.71,6.44-22.75,6.99-23.81.02-.04.03-.06.03-.06l.32.23c-.03.06-.06.13-.09.19Z"/>
                  <path class="cls-45" d="m100.68,59.33c-.01.31,0,.47,0,.47l-.42-.65-.03-.05c-1.38-5.86,5.48-22.44,6.38-24.57l.02.02c.15.13.29.26.42.4.06.07.12.13.18.19-5.95,12.45-6.5,21.99-6.54,24.18Z"/>
                </g>
                <path class="cls-39" d="m103.87,61.03s-.04,0-.05-.01c-14.33-3.02-15.43-6.4-17.4-8.62.78.58,1.59,1.11,2.42,1.59.11.07.21.13.32.19,3.8,2.2,7.87,3.56,11.1,4.96.14.06.29.12.42.18,1.2.53,2.26,1.07,3.15,1.68.02,0,.03.02.04.03Z"/>
                <path class="cls-39" d="m106.7,34.14s-.04.06-.05.09c-.05.08-.09.16-.14.24,0,0,0,0,0,.01h0c-5.92.45-9.05-2.11-10.43-3.94-.1-.12-.18-.25-.26-.36-.05-.08-.1-.15-.14-.22-.02-.02-.03-.05-.04-.07,0-.1,0-.2,0-.31.13.14.26.29.4.42,1.87,1.89,5.02,3.86,10,4.11.21.01.43.02.65.02Z"/>
              </g>
              <g>
                <path class="cls-40" d="m83.37,21.31l2.06.39s2.19,2.13,2.39,4c.19,1.87-.19,10.71-1.48,15.1-1.29,4.39-1.87,6.32-2.97,7.81-1.1,1.48-.45,2.45-4.9,1.68-4.45-.77,4.9-28.96,4.9-28.96Z"/>
                <path class="cls-34" d="m75.5,11.12s.84-1.87,3.29-2.19c.52-.07,7.35.58,8.39,4.64,1.03,4.06-.9,6.97-1.29,7.74-.39.77-.84,1.16-2.64,1.1-1.81-.06-9.55-3.03-8.97-5.16.58-2.13,1.23-6.13,1.23-6.13Z"/>
                <path class="cls-55" d="m85.29,19.59c-.24.83-.54,1.61-.9,2.27-.02.03-.04.06-.05.09-.05.09-.1.17-.15.25-6.66.51-9.78-2.79-10.87-4.59,0-.1,0-.2,0-.31v-.12c.01-.4.04-.85.09-1.33.24-2.21,1.06-5.05,3.57-6.23,2.63-1.24,8.32,1.03,8.9,3.74.28,1.32.07,3.94-.6,6.22Z"/>
                <path class="cls-45" d="m77.9,46.83l.03.05c-3.24-1.41-7.3-2.77-11.1-4.96-.05-1.68.16-9.45,6.93-23.65,1.38,1.84,4.5,4.4,10.43,3.94h0s0,0,0-.01c.03.02.06.04.09.07-.89,2.12-7.75,18.71-6.38,24.57Z"/>
                <path class="cls-55" d="m86.49,28.22c-.92,6.07-2.78,16.71-4.98,20.52,0,0-.01.01-.01.02-.5.86-1.02,1.36-1.54,1.39-3.87.19-12.2-.19-15.48-8.13-2.57-6.18-.14-10.9,2.07-15.68,1.13-2.45,5.01-8.59,6.82-8.65.05,0,.1,0,.14,0,.08.01.15.03.22.04,3.01.52,6.41,2.08,9.46,3.77.19.11.37.22.55.34.16.11.32.23.47.35,0,0,0,0,0,.01h0c-5.92.45-9.05-2.11-10.43-3.94-6.77,14.2-6.97,21.96-6.93,23.65,3.8,2.2,7.87,3.56,11.1,4.96l-.03-.05c-1.38-5.86,5.48-22.44,6.38-24.57,0,0,.01.01.02.02.15.13.29.26.42.4.06.07.12.13.18.19,1.27,1.43,1.89,3.37,1.59,5.34Z"/>
                <path class="cls-34" d="m67.18,60.98c-3.48-.48-12.48-6.77-13.45-7.35-.52-.31-.85-1.47-.76-2.89.07-1.2.45-2.59,1.25-3.79,1.74-2.61,9.68-6.97,9.68-6.97,6.09,4.59,13.81,6.1,17.73,8.82h0c.12.09.25.18.37.27,3.77,2.9-11.32,12.39-14.81,11.9Z"/>
                <path class="cls-55" d="m81.61,48.81h0s-.01.05-.02.08c-.78,2.51-10.55,7.93-13.84,8.61-2.79.57-12.03-5.03-14.79-6.76.08-1.2.44-2.59,1.25-3.79,1.74-2.61,9.68-6.97,9.68-6.97.07.05.13.1.2.15,6.03,4.45,13.57,5.97,17.46,8.63.03.02.05.03.07.05Z"/>
                <g>
                  <path class="cls-45" d="m73.76,18.27c-6.77,14.2-6.97,21.96-6.93,23.65,0,.23.02.35.02.35l-.13.13c-.08-.21-.15-.43-.21-.66-1.69-6.71,6.44-22.75,6.99-23.81.02-.04.03-.06.03-.06l.32.23c-.03.06-.06.13-.09.19Z"/>
                  <path class="cls-45" d="m78.36,47.06c-.01.31,0,.47,0,.47l-.42-.65-.03-.05c-1.38-5.86,5.48-22.44,6.38-24.57,0,0,.01.01.02.02.15.13.29.26.42.4.06.07.12.13.18.19-5.95,12.45-6.5,21.99-6.54,24.18Z"/>
                </g>
                <path class="cls-39" d="m81.55,48.77s-.04,0-.05-.01c-14.33-3.02-15.43-6.4-17.4-8.62.78.58,1.59,1.11,2.42,1.59.11.07.21.13.32.19,3.8,2.2,7.87,3.56,11.1,4.96.14.06.29.12.42.18,1.2.53,2.26,1.07,3.15,1.68.02,0,.03.02.04.03Z"/>
                <path class="cls-39" d="m84.38,21.87s-.04.06-.05.09c-.05.08-.09.16-.14.24,0,0,0,0,0,.01h0c-5.92.45-9.05-2.11-10.43-3.94-.1-.12-.18-.25-.26-.36-.05-.08-.1-.15-.14-.22-.02-.02-.03-.05-.04-.07,0-.1,0-.2,0-.31.13.14.26.29.4.42,1.87,1.89,5.02,3.86,10,4.11.21.01.43.02.65.02Z"/>
              </g>
            </g>
            <path class="cls-42" d="m81.55,62.12l54.94-30.49s-28.14,31.17-51.37,33.2c-23.24,2.04-3.56-2.71-3.56-2.71Z"/>
            <path class="cls-44" d="m150.03,50.01c-.61,1.06-1.56,2.21-2.81,3.44-.25.25-.52.5-.79.75-.52.49-1.09.98-1.69,1.49-.54.46-1.13.92-1.73,1.39.04-.17.08-.34.11-.51.07-.34.13-.68.18-1.02.02-.17.05-.34.07-.5.04-.34.07-.67.09-1.01.02-.33.03-.66.03-.99,0-4.68-2.19-7.59-5.72-7.59-1.47,0-3.15.52-4.83,1.49-1.36.79-2.67,1.82-3.88,3.03-.35.35-.69.71-1.01,1.08-.12.14-.24.28-.37.43-.48.57-.95,1.18-1.38,1.8-.33.47-.65.95-.95,1.44-2.27,3.69-3.7,7.96-3.7,11.78,0,.74.06,1.43.16,2.08.11.65.26,1.24.46,1.78h0c-.42.24-.85.48-1.27.72-.39.22-.77.43-1.16.65-.06.04-.12.07-.18.1-4.59,2.55-9.13,4.95-13.19,7.04-8.67,4.47-15.13,7.51-15.13,7.51,0,0-2.98,1.7-7.14,4.04-.54.31-1.09.62-1.67.94-.54.3-1.1.61-1.66.92.08-.34.14-.67.2-1.01.06-.33.11-.66.15-.99.08-.66.12-1.31.12-1.95,0-3.69-1.36-6.27-3.67-7.21-.25-.11-.51-.19-.78-.25-.4-.09-.83-.14-1.28-.14-.11,0-.21,0-.32.01-.05,0-.11,0-.16.01-.1,0-.2.02-.3.03-.16.02-.32.04-.48.07-.15.03-.31.06-.46.1-.36.08-.72.19-1.08.32-.14.05-.28.1-.42.16-.19.08-.38.16-.56.25-.14.07-.28.13-.42.2-.04.02-.07.04-.11.06-.17.09-.35.18-.52.28-.34.2-.68.41-1.01.64-.17.11-.33.23-.5.35-.16.12-.33.24-.49.37-.15.12-.31.24-.46.37-1.74,1.44-3.32,3.27-4.66,5.3h0c-.12.18-.23.36-.34.54-.32.5-.61,1.01-.89,1.53-.12.21-.23.42-.34.64-.13.25-.25.5-.37.75-.1.21-.19.42-.28.63-.01.03-.02.05-.03.07-.18.42-.35.84-.51,1.27-.11.3-.22.6-.32.89-.07.21-.14.42-.2.63-.08.24-.14.47-.2.71-.07.23-.12.47-.18.71-.05.19-.09.39-.13.58-.14.68-.24,1.35-.31,2.01-.01.13-.03.27-.03.4-.03.39-.05.78-.05,1.17,0,.57.03,1.1.09,1.62-.18.18-.6.56-1.3,1.02-.35.23-.82.49-1.4.76-2.67,1.24-7.67,2.75-13.66,2.95-11.09.36-37.86-18.41-40.77-21.51-2.02-2.15-3.08-10.84-2.01-18.69.32-2.29.81-4.51,1.52-6.48.35-.98.75-1.88,1.21-2.71.07-.12.14-.25.22-.38.98-1.6,2.59-3.35,4.58-5.14.03-.02.06-.05.08-.07,7.14-6.38,19.16-13.37,25.09-16.77.18-.1.36-.2.53-.3.02-.01.03-.02.05-.03.63-.37,1.18-.68,1.62-.94,0,0,.01-.03.04-.07.03-.06.08-.15.14-.27,1.65-3.15,14.29-27.05,17.69-27.96,1.93-.52,12.22,3,20.72,7.99,8.65,5.08,17.42,9.45,17.69,13.58.25,3.86-1.12,6.74-3.16,15.14-1.55,6.42-3,13.96-2.21,16.22.06.18.14.33.24.44.05.06.1.1.16.13.04.03.07.04.11.06.15.07.34.08.56.03.04,0,.07-.02.11-.03.07-.02.14-.04.22-.08.03-.01.06-.03.09-.04,2.82-1.26,22.41-11.48,33.72-17.94l.46-.26c5.28-3.11,13.7-8.96,15.69-10.29.39-.25.62-.41.62-.41l12.15-3.44c.95,1.96,1.79,4.28,2.28,6.6.91,4.23.79,9.56-2.64,15.51Z"/>
            <path class="cls-47" d="m61.42,93.35c-1.22,2.79-1.94,5.72-1.94,8.42,0,.57.03,1.1.09,1.62-.18.18-.6.56-1.3,1.02-1.93,1.27-7.77,3.47-15.07,3.71-11.09.36-37.86-18.41-40.77-21.51-.5-.53-.95-1.48-1.31-2.71-.08-.27-.16-.56-.23-.87-.06-.23-.11-.47-.16-.71-.03-.14-.06-.29-.09-.44-.17-.88-.31-1.84-.41-2.85-.06-.58-.11-1.18-.14-1.79,0-.07-.01-.14-.01-.21-.02-.21-.03-.43-.04-.65,0-.17-.01-.34-.02-.51,0-.16-.01-.33-.02-.49-.02-.7-.02-1.41,0-2.13,4.23,5.34,33.23,32.31,61.41,20.1Z"/>
            <path class="cls-48" d="m66.89,85.25c-.28.28-.56.58-.84.89l.25-.74c.2-.06.39-.11.59-.15Z"/>
            <path class="cls-47" d="m121.65,66.5c0,1.48.22,2.77.62,3.86-.42.24-.85.48-1.27.72-5.04,2.82-10.08,5.5-14.54,7.79-8.67,4.47-15.13,7.51-15.13,7.51,0,0-3.81,2.17-8.81,4.98-.53.3-1.09.61-1.66.92.31-1.35.47-2.67.47-3.95s-.17-2.49-.5-3.5c4.62-2.15,11.08-5.27,20.11-9.79,7.92-3.96,14.99-8.25,21.18-12.5-.31,1.35-.47,2.69-.47,3.97Z"/>
            <path class="cls-47" d="m150.03,50.01c-.97,1.68-2.82,3.61-5.29,5.68-.54.46-1.12.92-1.73,1.39.32-1.37.48-2.73.48-4.04,0-2.61-.68-4.66-1.89-5.97,6.19-5.66,10-10.01,11.27-11.51.67,4.05.31,8.98-2.84,14.44Z"/>
            <path class="cls-53" d="m.49,70.67s1.33,3.03,4.12.61c2.79-2.42,2.06-9.94,1.82-11.63-.24-1.7,2.79-7.27-.73-5.09-3.51,2.18-6.42,12.12-5.21,16.12Z"/>
            <path class="cls-53" d="m.49,70.67s1.33,3.03,4.12.61c2.79-2.42,2.06-9.94,1.82-11.63-.24-1.7,2.79-7.27-.73-5.09-3.51,2.18-6.42,12.12-5.21,16.12Z"/>
            <g>
              <path class="cls-38" d="m31.84,95.22v.09c0,1.37-.34,2.45-.93,3.2-1.08,1.36-2.99,1.57-5.16.32l-13.86-8c-3.36-1.94-6.09-6.66-6.09-10.54v-.09c0-.51.22-.83.56-.9.21-.05.45,0,.72.16l23.47,13.55c.7.41,1.28,1.4,1.28,2.21Z"/>
              <path class="cls-34" d="m31.84,95.22v.09c0,1.37-.34,2.45-.93,3.2-1.11.88-2.79.89-4.65-.19l-13.86-8c-3.36-1.94-6.09-6.66-6.09-10.54v-.09c0-.14.02-.27.05-.39.21-.05.45,0,.72.16l23.47,13.55c.7.41,1.28,1.4,1.28,2.21Z"/>
              <g>
                <rect class="cls-40" x="25.03" y="96.31" width=".54" height="1.23" transform="translate(-45.08 25.64) rotate(-30)"/>
                <rect class="cls-40" x="24.29" y="95.03" width=".54" height="1.23" transform="translate(-44.53 25.09) rotate(-30)"/>
                <polygon class="cls-40" points="16.62 92.74 17.56 93.29 17.05 92.4 16.58 92.67 16.62 92.74"/>
                <path class="cls-40" d="m25.5,97.82l.04.07.72.42c.07.04.14.07.21.11l-.5-.87-.47.27Z"/>
                <rect class="cls-40" x="22.8" y="92.45" width=".54" height="1.23" transform="translate(-43.44 24) rotate(-30)"/>
                <rect class="cls-40" x="22.05" y="91.16" width=".54" height="1.23" transform="translate(-42.9 23.46) rotate(-30)"/>
                <rect class="cls-40" x="23.54" y="93.74" width=".54" height="1.23" transform="translate(-43.99 24.55) rotate(-30)"/>
                <rect class="cls-40" x="21.31" y="89.87" width=".54" height="1.23" transform="translate(-42.35 22.91) rotate(-29.99)"/>
                <rect class="cls-40" x="17.59" y="92.02" width=".54" height="1.23" transform="translate(-43.93 21.34) rotate(-30)"/>
                <rect class="cls-40" x="20.57" y="88.58" width=".54" height="1.23" transform="translate(-41.82 22.38) rotate(-30.01)"/>
                <rect class="cls-40" x="12.38" y="83" width=".54" height="1.23" transform="translate(-40.11 17.53) rotate(-30)"/>
                <polygon class="cls-40" points="12.46 82.73 12.31 82.47 11.37 81.93 11.37 81.93 11.99 83 12.46 82.73"/>
                <rect class="cls-40" x="13.13" y="84.29" width=".54" height="1.23" transform="translate(-40.66 18.08) rotate(-30)"/>
                <rect class="cls-40" x="16.85" y="90.73" width=".54" height="1.23" transform="translate(-43.39 20.8) rotate(-30.01)"/>
                <rect class="cls-40" x="18.33" y="86.44" width=".54" height="1.23" transform="translate(-41.04 20.97) rotate(-30)"/>
                <polygon class="cls-40" points="17.32 85.37 17.32 85.37 17.94 86.44 18.41 86.16 18.26 85.91 17.32 85.37"/>
                <rect class="cls-40" x="19.08" y="87.73" width=".54" height="1.23" transform="translate(-41.58 21.51) rotate(-30)"/>
                <rect class="cls-40" x="15.36" y="88.16" width=".54" height="1.23" transform="translate(-42.29 19.71) rotate(-30)"/>
                <rect class="cls-40" x="14.62" y="86.87" width=".54" height="1.23" transform="translate(-41.75 19.17) rotate(-30.01)"/>
                <rect class="cls-40" x="13.87" y="85.58" width=".54" height="1.23" transform="translate(-41.2 18.61) rotate(-29.99)"/>
                <rect class="cls-40" x="16.1" y="89.44" width=".54" height="1.23" transform="translate(-42.83 20.25) rotate(-29.99)"/>
                <rect class="cls-40" x="25.03" y="94.6" width=".54" height="1.23" transform="translate(-44.21 25.4) rotate(-30)"/>
                <path class="cls-40" d="m27.46,98.41l-.47.27c.27.12.53.21.79.28l-.32-.55Z"/>
                <rect class="cls-40" x="25.77" y="95.89" width=".54" height="1.23" transform="translate(-44.76 25.95) rotate(-30)"/>
                <rect class="cls-40" x="26.52" y="97.17" width=".54" height="1.23" transform="translate(-45.3 26.48) rotate(-29.99)"/>
                <polygon class="cls-40" points="15.13 91.88 16.07 92.43 15.56 91.54 15.09 91.81 15.13 91.88"/>
                <rect class="cls-40" x="22.05" y="89.44" width=".54" height="1.23" transform="translate(-42.03 23.22) rotate(-29.99)"/>
                <rect class="cls-40" x="24.29" y="93.31" width=".54" height="1.23" transform="translate(-43.67 24.86) rotate(-30)"/>
                <rect class="cls-40" x="22.8" y="90.73" width=".54" height="1.23" transform="translate(-42.58 23.77) rotate(-30)"/>
                <rect class="cls-40" x="16.1" y="91.16" width=".54" height="1.23" transform="translate(-43.7 20.48) rotate(-30)"/>
                <rect class="cls-40" x="23.54" y="92.02" width=".54" height="1.23" transform="translate(-43.12 24.31) rotate(-29.99)"/>
                <rect class="cls-40" x="10.9" y="82.14" width=".54" height="1.23" transform="translate(-39.88 16.67) rotate(-30)"/>
                <rect class="cls-40" x="11.64" y="83.43" width=".54" height="1.23" transform="translate(-40.42 17.21) rotate(-29.99)"/>
                <rect class="cls-40" x="19.82" y="87.3" width=".54" height="1.23" transform="translate(-41.25 21.81) rotate(-29.99)"/>
                <polygon class="cls-40" points="10.97 81.87 10.82 81.61 9.88 81.07 9.88 81.07 10.5 82.14 10.97 81.87"/>
                <polygon class="cls-40" points="18.81 86.22 18.81 86.23 19.42 87.29 19.89 87.02 19.75 86.76 18.81 86.22"/>
                <rect class="cls-40" x="13.13" y="86.01" width=".54" height="1.23" transform="translate(-41.51 18.3) rotate(-30)"/>
                <rect class="cls-40" x="12.38" y="84.72" width=".54" height="1.23" transform="translate(-40.97 17.76) rotate(-30)"/>
                <rect class="cls-40" x="14.62" y="88.58" width=".54" height="1.23" transform="translate(-42.61 19.4) rotate(-30)"/>
                <rect class="cls-40" x="13.87" y="87.3" width=".54" height="1.23" transform="translate(-42.06 18.85) rotate(-30)"/>
                <rect class="cls-40" x="15.36" y="89.87" width=".54" height="1.23" transform="translate(-43.16 19.94) rotate(-30)"/>
                <polygon class="cls-40" points="18.11 93.6 19.05 94.15 18.53 93.26 18.06 93.53 18.11 93.6"/>
                <rect class="cls-40" x="19.08" y="91.16" width=".54" height="1.23" transform="translate(-43.29 21.97) rotate(-30)"/>
                <polygon class="cls-40" points="19.59 94.46 20.54 95.01 20.02 94.11 19.55 94.39 19.59 94.46"/>
                <polygon class="cls-40" points="21.04 95.24 21.08 95.32 22.02 95.86 21.51 94.97 21.04 95.24"/>
                <rect class="cls-40" x="19.82" y="92.45" width=".54" height="1.23" transform="translate(-43.85 22.52) rotate(-30)"/>
                <rect class="cls-40" x="20.57" y="93.74" width=".54" height="1.23" transform="translate(-44.39 23.06) rotate(-30)"/>
                <polygon class="cls-40" points="22.53 96.1 22.57 96.18 23.51 96.72 23 95.83 22.53 96.1"/>
                <rect class="cls-40" x="19.82" y="90.73" width=".54" height="1.23" transform="translate(-42.98 22.28) rotate(-30)"/>
                <rect class="cls-40" x="20.57" y="92.02" width=".54" height="1.23" transform="translate(-43.53 22.83) rotate(-30)"/>
                <rect class="cls-40" x="19.82" y="89.01" width=".54" height="1.23" transform="translate(-42.12 22.05) rotate(-30)"/>
                <rect class="cls-40" x="21.31" y="93.31" width=".54" height="1.23" transform="translate(-44.06 23.37) rotate(-29.99)"/>
                <rect class="cls-40" x="22.05" y="94.6" width=".54" height="1.23" transform="translate(-44.6 23.91) rotate(-29.99)"/>
                <path class="cls-40" d="m27.73,98.25l.47.81c.17.03.33.05.48.06l.13-.08-.62-1.07-.47.27Z"/>
                <path class="cls-40" d="m6.51,79.29h0s-.09,0-.13,0c0,.02-.01.05-.02.08l.15-.09Z"/>
                <polygon class="cls-40" points="15.43 84.45 15.28 84.19 14.35 83.65 14.34 83.65 14.96 84.72 15.43 84.45"/>
                <rect class="cls-40" x="18.33" y="89.87" width=".54" height="1.23" transform="translate(-42.76 21.44) rotate(-30.01)"/>
                <path class="cls-40" d="m13.1,90.71l-.51-.89-.47.27.03.05c.09.06.18.12.27.17l.69.4Z"/>
                <rect class="cls-40" x="16.85" y="87.3" width=".54" height="1.23" transform="translate(-41.66 20.33) rotate(-30)"/>
                <rect class="cls-40" x="15.36" y="84.72" width=".54" height="1.23" transform="translate(-40.59 19.26) rotate(-30.01)"/>
                <rect class="cls-40" x="17.59" y="88.58" width=".54" height="1.23" transform="translate(-42.21 20.88) rotate(-30)"/>
                <rect class="cls-40" x="16.1" y="86.01" width=".54" height="1.23" transform="translate(-41.11 19.78) rotate(-29.99)"/>
                <rect class="cls-40" x="19.08" y="89.44" width=".54" height="1.23" transform="translate(-42.42 21.73) rotate(-29.99)"/>
                <polygon class="cls-40" points="24.01 96.96 24.06 97.04 25 97.58 24.48 96.69 24.01 96.96"/>
                <rect class="cls-40" x="21.31" y="88.16" width=".54" height="1.23" transform="translate(-41.49 22.68) rotate(-29.99)"/>
                <rect class="cls-40" x="17.59" y="90.3" width=".54" height="1.23" transform="translate(-43.07 21.11) rotate(-30)"/>
                <rect class="cls-40" x="19.08" y="92.88" width=".54" height="1.23" transform="translate(-44.15 22.2) rotate(-30)"/>
                <rect class="cls-40" x="23.54" y="95.46" width=".54" height="1.23" transform="translate(-44.85 24.78) rotate(-30)"/>
                <rect class="cls-40" x="18.33" y="91.59" width=".54" height="1.23" transform="translate(-43.6 21.65) rotate(-30)"/>
                <rect class="cls-40" x="21.31" y="91.59" width=".54" height="1.23" transform="translate(-43.21 23.14) rotate(-29.99)"/>
                <rect class="cls-40" x="20.57" y="90.3" width=".54" height="1.23" transform="translate(-42.66 22.59) rotate(-30)"/>
                <rect class="cls-40" x="22.8" y="94.17" width=".54" height="1.23" transform="translate(-44.3 24.23) rotate(-30)"/>
                <rect class="cls-40" x="18.33" y="88.16" width=".54" height="1.23" transform="translate(-41.9 21.2) rotate(-30)"/>
                <rect class="cls-40" x="22.05" y="92.88" width=".54" height="1.23" transform="translate(-43.74 23.68) rotate(-29.99)"/>
                <rect class="cls-40" x="16.85" y="85.58" width=".54" height="1.23" transform="translate(-40.81 20.11) rotate(-30)"/>
                <rect class="cls-40" x="16.85" y="89.01" width=".54" height="1.23" transform="translate(-42.52 20.56) rotate(-30)"/>
                <polygon class="cls-40" points="13.94 83.59 13.8 83.33 12.86 82.79 12.86 82.79 13.47 83.86 13.94 83.59"/>
                <rect class="cls-40" x="17.59" y="86.87" width=".54" height="1.23" transform="translate(-41.35 20.65) rotate(-30)"/>
                <polygon class="cls-40" points="15.84 84.51 15.83 84.51 16.45 85.58 16.92 85.3 16.77 85.05 15.84 84.51"/>
                <rect class="cls-40" x="15.36" y="86.44" width=".54" height="1.23" transform="translate(-41.43 19.47) rotate(-30)"/>
                <rect class="cls-40" x="13.87" y="83.86" width=".54" height="1.23" transform="translate(-40.34 18.38) rotate(-29.99)"/>
                <rect class="cls-40" x="16.1" y="87.73" width=".54" height="1.23" transform="translate(-41.97 20.02) rotate(-30)"/>
                <rect class="cls-40" x="14.62" y="85.15" width=".54" height="1.23" transform="translate(-40.89 18.94) rotate(-30.01)"/>
                <path class="cls-40" d="m7.99,85.31l-.62-1.07-.03.02c.16.38.35.75.54,1.11l.11-.06Z"/>
                <path class="cls-40" d="m7.25,82.3l-.62-1.07-.17.1c.06.37.15.75.25,1.13l.07.11.47-.27Z"/>
                <polygon class="cls-40" points="24.76 89.66 24.76 89.66 25.37 90.73 25.85 90.46 25.7 90.2 24.76 89.66"/>
                <rect class="cls-40" x="25.77" y="90.73" width=".54" height="1.23" transform="translate(-42.19 25.27) rotate(-30)"/>
                <rect class="cls-40" x="7.18" y="82.57" width=".54" height="1.23" transform="translate(-40.6 14.87) rotate(-30)"/>
                <rect class="cls-40" x="26.52" y="92.02" width=".54" height="1.23" transform="translate(-42.72 25.8) rotate(-30)"/>
                <rect class="cls-40" x="7.92" y="83.86" width=".54" height="1.23" transform="translate(-41.13 15.41) rotate(-29.99)"/>
                <rect class="cls-40" x="9.41" y="86.44" width=".54" height="1.23" transform="translate(-42.22 16.5) rotate(-30)"/>
                <path class="cls-40" d="m10.97,88.74l-.62-1.07-.47.27.4.69c.11.11.21.22.32.32l.37-.21Z"/>
                <rect class="cls-40" x="8.67" y="85.15" width=".54" height="1.23" transform="translate(-41.69 15.96) rotate(-30)"/>
                <rect class="cls-40" x="27.26" y="93.31" width=".54" height="1.23" transform="translate(-43.27 26.34) rotate(-30)"/>
                <rect class="cls-40" x="29.49" y="97.17" width=".54" height="1.23" transform="translate(-44.91 27.99) rotate(-30)"/>
                <rect class="cls-40" x="11.64" y="88.58" width=".54" height="1.23" transform="translate(-43.01 17.91) rotate(-30)"/>
                <rect class="cls-40" x="10.9" y="87.3" width=".54" height="1.23" transform="translate(-42.45 17.36) rotate(-30)"/>
                <rect class="cls-40" x="28" y="94.6" width=".54" height="1.23" transform="translate(-43.81 26.89) rotate(-30)"/>
                <rect class="cls-40" x="9.41" y="84.72" width=".54" height="1.23" transform="translate(-41.37 16.27) rotate(-30)"/>
                <rect class="cls-40" x="10.15" y="86.01" width=".54" height="1.23" transform="translate(-41.9 16.81) rotate(-29.99)"/>
                <rect class="cls-40" x="28.75" y="95.89" width=".54" height="1.23" transform="translate(-44.36 27.44) rotate(-30)"/>
                <path class="cls-40" d="m30.87,98.54s.03-.02.04-.03c.11-.14.21-.3.3-.46l-.04-.07-.47.27.16.28Z"/>
                <path class="cls-40" d="m11.54,89.73l-.45-.77-.29.17c.24.22.49.42.74.6Z"/>
                <path class="cls-40" d="m29.96,98.68l.15.26c.17-.06.34-.14.49-.24l-.17-.3-.47.27Z"/>
                <rect class="cls-40" x="28" y="92.88" width=".54" height="1.23" transform="translate(-42.95 26.66) rotate(-30)"/>
                <polygon class="cls-40" points="27.74 91.38 27.73 91.38 28.35 92.45 28.82 92.18 28.67 91.92 27.74 91.38"/>
                <rect class="cls-40" x="30.24" y="96.74" width=".54" height="1.23" transform="translate(-44.59 28.29) rotate(-30)"/>
                <rect class="cls-40" x="30.24" y="95.03" width=".54" height="1.23" transform="translate(-43.74 28.07) rotate(-30)"/>
                <rect class="cls-40" x="30.98" y="94.6" width=".54" height="1.23" transform="translate(-43.41 28.38) rotate(-30)"/>
                <path class="cls-40" d="m31.45,96.1l.28.48c.04-.22.07-.45.09-.69l-.37.21Z"/>
                <rect class="cls-40" x="29.49" y="93.74" width=".54" height="1.23" transform="translate(-43.2 27.53) rotate(-30)"/>
                <rect class="cls-40" x="30.24" y="93.31" width=".54" height="1.23" transform="translate(-42.87 27.83) rotate(-30)"/>
                <path class="cls-40" d="m31.45,94.39l.38.65c-.02-.25-.09-.5-.2-.75l-.18.1Z"/>
                <path class="cls-40" d="m30.72,93.12l.61,1.05.19-.11c-.2-.38-.48-.71-.8-.94Z"/>
                <polygon class="cls-40" points="29.22 92.24 29.84 93.31 30.31 93.03 30.16 92.78 29.22 92.24 29.22 92.24"/>
                <rect class="cls-40" x="28.75" y="92.45" width=".54" height="1.23" transform="translate(-42.64 26.97) rotate(-30)"/>
                <rect class="cls-40" x="27.26" y="91.59" width=".54" height="1.23" transform="translate(-42.41 26.11) rotate(-30)"/>
                <rect class="cls-40" x="8.66" y="83.43" width=".54" height="1.23" transform="translate(-40.82 15.72) rotate(-30)"/>
                <rect class="cls-40" x="28.75" y="94.17" width=".54" height="1.23" transform="translate(-43.5 27.2) rotate(-30)"/>
                <path class="cls-40" d="m31.32,97.6l.15-.08c.06-.15.11-.32.16-.48l-.45-.77-.47.27.62,1.07Z"/>
                <rect class="cls-40" x="29.49" y="95.46" width=".54" height="1.23" transform="translate(-44.05 27.75) rotate(-30)"/>
                <path class="cls-40" d="m8.74,86.59l-.62-1.07-.11.07c.2.36.42.71.65,1.05l.08-.05Z"/>
                <polygon class="cls-40" points="26.25 90.52 26.24 90.52 26.86 91.59 27.33 91.32 27.18 91.06 26.25 90.52"/>
                <path class="cls-40" d="m8.86,86.81l-.07.04c.13.19.27.37.41.55l-.34-.59Z"/>
                <path class="cls-40" d="m7.25,84.02v-.02s0,.01,0,.02h0Z"/>
                <path class="cls-40" d="m6.51,81.01l-.12-.2c0,.08.02.17.03.25l.08-.05Z"/>
                <rect class="cls-40" x="25.03" y="92.88" width=".54" height="1.23" transform="translate(-43.35 25.17) rotate(-30)"/>
                <rect class="cls-40" x="25.77" y="94.17" width=".54" height="1.23" transform="translate(-43.9 25.72) rotate(-30)"/>
                <rect class="cls-40" x="26.52" y="95.46" width=".54" height="1.23" transform="translate(-44.44 26.26) rotate(-30)"/>
                <rect class="cls-40" x="27.26" y="96.74" width=".54" height="1.23" transform="translate(-44.99 26.81) rotate(-30)"/>
                <rect class="cls-40" x="24.29" y="91.59" width=".54" height="1.23" transform="translate(-42.82 24.64) rotate(-30)"/>
                <rect class="cls-40" x="22.8" y="89.01" width=".54" height="1.23" transform="translate(-41.73 23.55) rotate(-30)"/>
                <rect class="cls-40" x="23.54" y="90.3" width=".54" height="1.23" transform="translate(-42.26 24.08) rotate(-30)"/>
                <polygon class="cls-40" points="21.79 87.94 21.78 87.94 22.4 89.01 22.87 88.74 22.72 88.48 21.79 87.94"/>
                <path class="cls-40" d="m7.99,80.15l-.15-.26-.75-.44c-.06-.03-.12-.06-.18-.09l.61,1.05.47-.27Z"/>
                <polygon class="cls-40" points="13.64 91.03 14.59 91.57 14.07 90.68 13.6 90.95 13.64 91.03"/>
                <rect class="cls-40" x="10.9" y="83.86" width=".54" height="1.23" transform="translate(-40.74 16.9) rotate(-30)"/>
                <rect class="cls-40" x="9.41" y="81.28" width=".54" height="1.23" transform="translate(-39.65 15.81) rotate(-30)"/>
                <rect class="cls-40" x="10.15" y="82.57" width=".54" height="1.23" transform="translate(-40.2 16.36) rotate(-30)"/>
                <polygon class="cls-40" points="9.48 81.01 9.33 80.75 8.4 80.21 8.39 80.21 9.01 81.28 9.48 81.01"/>
                <rect class="cls-40" x="14.62" y="90.3" width=".54" height="1.23" transform="translate(-43.48 19.64) rotate(-30.01)"/>
                <rect class="cls-40" x="7.92" y="80.43" width=".54" height="1.23" transform="translate(-39.41 14.95) rotate(-29.99)"/>
                <rect class="cls-40" x="13.87" y="89.01" width=".54" height="1.23" transform="translate(-42.93 19.09) rotate(-30.01)"/>
                <rect class="cls-40" x="13.13" y="87.73" width=".54" height="1.23" transform="translate(-42.38 18.53) rotate(-30)"/>
                <rect class="cls-40" x="12.38" y="86.44" width=".54" height="1.23" transform="translate(-41.84 18) rotate(-30)"/>
                <rect class="cls-40" x="11.64" y="85.15" width=".54" height="1.23" transform="translate(-41.29 17.45) rotate(-30)"/>
                <rect class="cls-40" x="25.77" y="92.45" width=".54" height="1.23" transform="translate(-43.04 25.49) rotate(-30)"/>
                <rect class="cls-40" x="7.92" y="82.14" width=".54" height="1.23" transform="translate(-40.28 15.18) rotate(-30)"/>
                <rect class="cls-40" x="8.67" y="81.71" width=".54" height="1.23" transform="translate(-39.98 15.51) rotate(-30.01)"/>
                <rect class="cls-40" x="24.29" y="89.87" width=".54" height="1.23" transform="translate(-41.95 24.4) rotate(-30)"/>
                <rect class="cls-40" x="26.52" y="93.74" width=".54" height="1.23" transform="translate(-43.58 26.03) rotate(-30)"/>
                <path class="cls-40" d="m6.63,79.51l-.31.18v.08c0,.1,0,.21.01.31l.44.77.47-.27-.62-1.07Z"/>
                <rect class="cls-40" x="7.18" y="80.85" width=".54" height="1.23" transform="translate(-39.73 14.64) rotate(-30)"/>
                <polygon class="cls-40" points="23.27 88.8 23.27 88.8 23.89 89.87 24.36 89.6 24.21 89.34 23.27 88.8"/>
                <polygon class="cls-40" points="20.3 87.08 20.29 87.09 20.91 88.15 21.38 87.88 21.23 87.62 20.3 87.08"/>
                <rect class="cls-40" x="27.26" y="95.03" width=".54" height="1.23" transform="translate(-44.13 26.57) rotate(-30)"/>
                <rect class="cls-40" x="25.03" y="91.16" width=".54" height="1.23" transform="translate(-42.49 24.93) rotate(-29.99)"/>
                <rect class="cls-40" x="10.9" y="85.58" width=".54" height="1.23" transform="translate(-41.61 17.14) rotate(-30)"/>
                <rect class="cls-40" x="10.15" y="84.29" width=".54" height="1.23" transform="translate(-41.06 16.59) rotate(-30)"/>
                <rect class="cls-40" x="11.64" y="86.87" width=".54" height="1.23" transform="translate(-42.15 17.68) rotate(-30)"/>
                <rect class="cls-40" x="9.41" y="83" width=".54" height="1.23" transform="translate(-40.51 16.04) rotate(-30)"/>
                <rect class="cls-40" x="28.75" y="97.6" width=".54" height="1.23" transform="translate(-45.22 27.66) rotate(-30)"/>
                <rect class="cls-40" x="12.38" y="88.16" width=".54" height="1.23" transform="translate(-42.7 18.23) rotate(-30)"/>
                <rect class="cls-40" x="28" y="96.31" width=".54" height="1.23" transform="translate(-44.67 27.11) rotate(-29.99)"/>
                <path class="cls-40" d="m29.69,98.84l-.47.27v.02c.21-.01.4-.04.59-.09l-.11-.2Z"/>
                <rect class="cls-40" x="13.13" y="89.44" width=".54" height="1.23" transform="translate(-43.24 18.77) rotate(-30)"/>
              </g>
            </g>
            <g>
              <path class="cls-13" d="m84.3,88.32c0,.69-.04,1.38-.12,2.09-.54.31-1.09.62-1.67.94-.54.3-1.1.61-1.66.92.08-.34.14-.67.2-1.01.06-.33.11-.66.15-.99.08-.66.12-1.31.12-1.95,0-4.68-2.2-7.59-5.72-7.59-.11,0-.21,0-.32.01-.05,0-.11,0-.16.01-.1,0-.2.02-.3.03-.16.02-.32.04-.48.07-.15.03-.31.06-.46.1-.36.08-.72.19-1.08.32-.14.05-.28.1-.42.16-.19.08-.38.16-.56.25-.14.07-.28.13-.42.2-.04.02-.07.04-.11.06-.17.09-.35.18-.52.28-.34.2-.68.41-1.01.64-.17.11-.33.23-.5.35-.16.12-.33.24-.49.37-.15.12-.31.24-.46.37-2.31,1.92-4.36,4.52-5.89,7.37-.12.21-.23.42-.34.64-.13.25-.25.5-.37.75-.1.21-.19.42-.28.63-.01.03-.02.05-.03.07-.18.42-.35.84-.51,1.27-.11.3-.22.6-.32.89-.07.21-.14.42-.2.63-.08.24-.14.47-.2.71-.07.23-.12.47-.18.71-.05.19-.09.39-.13.58-.14.68-.24,1.35-.31,2.01-.01.14-.03.27-.03.4-.03.39-.05.78-.05,1.17,0,.57.03,1.1.09,1.62-.18.18-.6.56-1.3,1.02-.35.23-.82.49-1.4.76l-.09-.45c-.18-.9-.27-1.89-.27-2.95,0-8.14,5.73-18.06,12.77-22.13,2.18-1.26,4.3-1.89,6.33-1.89,5.21,0,8.7,4.25,8.7,10.57Z"/>
              <path class="cls-48" d="m78.85,80.05c-.15-.08-.3-.15-.45-.22-.83-.37-1.77-.56-2.79-.56-1.75,0-3.62.57-5.56,1.69-6.62,3.82-12.01,13.16-12.01,20.81,0,.94.08,1.83.24,2.64.71-.46,1.12-.84,1.3-1.02-.07-.52-.09-1.05-.09-1.62,0-.39.02-.77.05-1.17,0-.13.02-.27.03-.4.07-.66.17-1.34.31-2.01.04-.19.08-.39.13-.58.06-.24.11-.47.18-.71.06-.24.13-.47.2-.71.06-.21.13-.42.2-.63.1-.3.2-.6.32-.89.16-.43.33-.84.51-1.27.01-.02.02-.04.03-.07.09-.21.19-.42.28-.63.12-.25.24-.5.37-.75.11-.21.22-.42.34-.64,1.54-2.84,3.58-5.45,5.89-7.37.15-.13.31-.25.46-.37.16-.13.33-.25.49-.37.17-.12.33-.24.5-.35.33-.23.67-.44,1.01-.64.17-.1.35-.2.52-.28.04-.02.07-.04.11-.06.14-.07.28-.14.42-.2.19-.09.38-.17.56-.25.14-.06.28-.11.42-.16.36-.13.73-.24,1.08-.32.15-.04.31-.07.46-.1.16-.03.32-.06.48-.07.1-.02.2-.03.3-.03.05,0,.11-.01.16-.01.11,0,.21-.01.32-.01.45,0,.88.05,1.28.14.27.06.53.14.78.25,2.31.93,3.67,3.52,3.67,7.21,0,.64-.04,1.29-.12,1.95-.04.33-.09.66-.15.99-.06.34-.13.67-.2,1.01.56-.31,1.12-.62,1.66-.92.17-1.03.26-2.05.26-3.03,0-3.97-1.47-6.93-3.93-8.26Z"/>
            </g>
            <g>
              <path class="cls-12" d="m146.47,53.05c0,.38-.01.77-.04,1.16-.52.49-1.09.98-1.69,1.49-.54.46-1.13.92-1.73,1.39.04-.17.08-.34.11-.51.07-.34.13-.68.18-1.02.02-.17.05-.34.07-.5.04-.34.07-.67.09-1.01.02-.33.03-.66.03-.99,0-4.68-2.19-7.59-5.72-7.59-1.47,0-3.15.52-4.83,1.49-1.36.79-2.67,1.82-3.88,3.03-.35.35-.69.71-1.01,1.08-.12.14-.24.28-.37.43-.48.57-.95,1.18-1.38,1.8-.33.47-.65.95-.95,1.44-2.27,3.69-3.7,7.96-3.7,11.78,0,.74.06,1.43.16,2.08.11.65.26,1.24.46,1.78h0c-.42.24-.85.48-1.27.72-.39.22-.77.43-1.16.65-.06.04-.12.07-.18.1l-.07-.18c-.61-1.51-.91-3.24-.91-5.14,0-8.14,5.73-18.06,12.78-22.13,2.17-1.25,4.3-1.89,6.33-1.89,5.21,0,8.7,4.24,8.7,10.57Z"/>
              <path class="cls-48" d="m137.77,44.01c-1.76,0-3.62.56-5.56,1.68-6.63,3.83-12.01,13.16-12.01,20.81,0,1.73.28,3.28.8,4.57.42-.24.85-.47,1.27-.72-.2-.54-.35-1.13-.46-1.78-.1-.65-.16-1.34-.16-2.08,0-3.82,1.43-8.08,3.7-11.78.3-.49.62-.97.95-1.44.44-.62.9-1.23,1.38-1.8.12-.15.24-.29.37-.43.33-.37.67-.73,1.01-1.08,1.21-1.21,2.51-2.24,3.88-3.03,1.68-.97,3.36-1.49,4.83-1.49,3.53,0,5.72,2.91,5.72,7.59,0,.33-.01.66-.03.99-.02.34-.05.67-.09,1.01-.02.17-.05.34-.07.5-.05.34-.11.68-.18,1.02-.04.17-.07.34-.11.51.6-.47,1.19-.94,1.73-1.39.14-.9.2-1.78.2-2.64,0-5.5-2.81-9.04-7.18-9.04Z"/>
            </g>
            <path class="cls-47" d="m63.65,89.25c-.12.18-.23.36-.34.53-1.07-.01-2.04-.72-2.41-1.04-.82.55-4.52,2.83-9.27,2.83-.87,0-1.77-.08-2.7-.25l-.5-.1.1-.5.5.1c6.43,1.24,11.69-2.57,11.74-2.61l.17-.13.15.15s1.3,1.23,2.55,1.01Z"/>
            <path class="cls-47" d="m43.54,91.12c-.63-.17-1.36-.4-2.17-.67-9.06-3.03-26.77-11.57-36.02-20.28-1.73-1.62-3.09-3.19-4.03-4.66l.43-.27c.93,1.44,2.26,2.97,3.95,4.57,9.19,8.66,26.81,17.16,35.83,20.17.8.27,1.52.49,2.14.66l-.13.49Z"/>
            <path class="cls-47" d="m89.56,73.24c-.09.05-8.91,4.62-10.2,5.41-.03.25-.14.83-.51,1.4-.25.39-.63.78-1.19,1.06-.25-.11-.51-.19-.78-.25.76-.2,1.23-.61,1.52-1.03.43-.63.46-1.29.47-1.34v-.13l.11-.07c.87-.59,9.97-5.31,10.36-5.51l.23.45Z"/>
            <g>
              <path class="cls-29" d="m45.59,102.33c0,2.14-1.5,3.01-3.36,1.94-1.85-1.07-4.36-2.99-4.36-5.13s2.5-3.7,4.36-2.63c1.85,1.07,3.36,3.67,3.36,5.81Z"/>
              <path class="cls-28" d="m45.13,101.97c0,.59-.14,1.06-.38,1.4-.45.67-1.3.83-2.28.34-.06-.03-.12-.07-.18-.1-1.57-.91-2.84-3.11-2.84-4.92,0-.55.12-1,.33-1.34.38-.62,1.06-.84,1.88-.59.2.07.41.16.63.29,1.57.91,2.84,3.11,2.84,4.92Z"/>
              <path class="cls-4" d="m44.64,101.68c0,.49-.11.88-.31,1.16-.37.55-1.07.69-1.88.28-.05-.03-.1-.05-.15-.08-1.3-.75-2.35-2.57-2.35-4.07,0-.45.1-.83.27-1.11.31-.51.88-.7,1.56-.48.16.05.34.13.52.24,1.3.75,2.35,2.57,2.35,4.07Z"/>
              <path class="cls-5" d="m40.67,99.24s-.76-2.74,1.4-1.34c2.16,1.4,2.29,3.5,2.16,4.13-.13.64-2.8-3.37-3.56-2.8Z"/>
            </g>
            <path class="cls-27" d="m2.34,79.8c0,1.15-.73,1.85-1.69,2.09-.17-.88-.31-1.84-.41-2.85-.06-.57-.11-1.18-.14-1.79,0-.07-.01-.14-.01-.21-.02-.21-.03-.43-.04-.65,0-.17-.01-.34-.02-.51,0-.16-.01-.33-.02-.49,1.26,1.32,2.33,3.03,2.33,4.42Z"/>
            <path class="cls-16" d="m123.32,42.63c-13.49,7.51-36.92,20.3-37.2,20.35-22.93,10.29-35.06,23.41-35.06,23.41l-9.61,3.81c-9.27-3.1-26.88-11.7-35.92-20.23l-.26-1.56-3.31-6.97c.35-.98.75-1.88,1.21-2.71.07-.12.14-.25.22-.38.98-1.6,2.59-3.35,4.58-5.14.03-.02.06-.05.08-.07,7.14-6.38,19.16-13.37,25.09-16.77.18-.1.36-.2.53-.3.02-.01.03-.02.05-.03.63-.37,1.18-.68,1.62-.94,0,0,.01-.03.04-.07,2.4,4.3,12.79,19.15,44.5,26.05,1.68.37,3.44.03,5.11-.56l.25-.09c.34-.22.82.03,1.25-.25.05.06.1.1.16.13.04.03.07.05.11.06.15.07.34.08.56.03.04,0,.07-.02.11-.03.07-.02.14-.04.22-.08.03-.01.06-.03.09-.04,2.82-1.26,22.41-11.48,33.72-17.94l.46-.26c3.9-2.23,13.7-8.96,15.69-10.29,2.41-.65-5.52,5.98-14.29,10.87Z"/>
            <path class="cls-20" d="m77.74,56.48s.8,3.33,3.6-.87c1.14-1.71,9.37-25.85,8.1-27.37-1.27-1.53-14.5,6.62-14.5,6.62l2.8,21.63Z"/>
            <path class="cls-34" d="m88.48,29.22c-.06,4.05-5.31,18.82-7.69,25.59-.26.73-.62,1.38-1.07,1.85-.11.02-.22.04-.34.04.32-.42.58-.94.78-1.5,2.38-6.77,7.63-21.55,7.69-25.59,0-.13,0-.25-.01-.36,0-.03,0-.06-.01-.1.22.03.44.06.66.07Z"/>
            <path class="cls-34" d="m80.79,54.81c-.26.73-.62,1.38-1.07,1.85-.72.73-1.67,1-2.85.36-5.29-2.89-17.92-6.11-28.91-13.55-3.18-2.15-6.21-4.65-8.9-7.6-.83-.91-.95-1.93-.17-3.3,3.22-5.67,11.64-22.99,15.01-23.57.01,0,.03-.01.04-.01,3.89-.55,14.28,4.77,16.85,6.19.41.23,1.36.74,2.62,1.46,4.98,2.82,14.78,8.75,15.07,12.23.29,3.46-5.23,18.96-7.68,25.95Z"/>
            <path class="cls-35" d="m87.85,29.6c-.05,3.68-4.41,16.25-6.99,23.59-.25.72-.49,1.39-.7,2.01-.2.56-.46,1.08-.78,1.5-.4.02-.84-.1-1.32-.36-6.82-3.72-25.84-8-37.81-21.15-.83-.91-.95-1.93-.17-3.3.27-.48.57-1.03.92-1.66,2.78-5.14,7.64-14.72,11.19-19.32.47-.62.93-1.14,1.34-1.56,4.05-.34,14.11,4.82,16.62,6.21,2.04,1.13,17.33,9.32,17.69,13.68.01.11.01.22.01.36Z"/>
            <path class="cls-10" d="m23.18,75.62c-.4.17-.76.21-1.06.15-.58-.11-.93-.64-.88-1.44,0-.05,0-.1.02-.15.16-1.32,1.28-2.81,2.5-3.34.37-.16.71-.21,1-.16.52.08.88.47.94,1.1.01.15.01.32-.01.5-.16,1.32-1.28,2.81-2.5,3.34Z"/>
            <g>
              <path class="cls-48" d="m122.11,47.51c0,1.66-1.17,3.69-2.61,4.52-1.44.83-2.61.16-2.61-1.51s1.17-2.29,2.61-3.12c1.44-.83,2.6-1.55,2.6.11Z"/>
              <path class="cls-46" d="m122.42,47.3c0,.21-.14,2.54-5.28,3.71,0,0-.6-.09-.48-.5.03-.11.12-.24.27-.4,0,0,4.12-1.16,4.46-2.81.14-.67.34-.83.52-.77.27.09.51.64.51.77Z"/>
              <path class="cls-6" d="m122.01,46.82c0,.21-.14,2.54-5.28,3.71,0,0-.03,0-.07-.01.03-.11.12-.24.27-.4,0,0,4.12-1.16,4.46-2.81.14-.67.34-.83.52-.77.06.13.1.24.1.28Z"/>
            </g>
            <path class="cls-47" d="m142.05,38.59c-.96,0-1.58-.78-1.58-1.97,0-1.65,1.16-3.66,2.59-4.48.42-.24.83-.37,1.21-.37.96,0,1.58.78,1.58,1.98,0,1.65-1.16,3.66-2.59,4.48-.42.24-.83.37-1.21.37Zm2.22-6.43c-.31,0-.66.11-1.01.31-1.32.76-2.39,2.62-2.39,4.14,0,.97.45,1.58,1.18,1.58.31,0,.66-.11,1.01-.31,1.32-.76,2.39-2.62,2.39-4.14,0-.97-.45-1.58-1.18-1.58Z"/>
            <path class="cls-51" d="m87.83,29.15c-10.47-1.34-30.77-14.9-35.65-18.24.47-.62.93-1.14,1.34-1.56,4.05-.34,14.11,4.82,16.62,6.21,2.03,1.12,17.11,9.21,17.68,13.59Z"/>
            <path class="cls-7" d="m22.01,73.61c-.13-.89,1.16-2.75,2.54-2.54,1.39.2-.59,2.04-1.36,2.54-.76.51-1.14.29-1.19,0Z"/>
            <path class="cls-21" d="m48.56,12.8s3.22-5.17,4.83-5.51c1.61-.34,8.99,2.04,11.96,3.73,2.97,1.7-8.23-3.63-12.3-2.37-1.1.34-4.5,4.16-4.5,4.16Z"/>
            <path class="cls-23" d="m71.63,13.99s17.22,8.82,18.66,12.55c1.13,2.94-.42,7.29-1.19,8.99-.76,1.7,2.36-7.14-1.53-10.77-3.9-3.65-15.94-10.77-15.94-10.77Z"/>
            <g>
              <path class="cls-34" d="m84.87,70.18l-2,1.16-.04,1.14-.22-.12.04-1.16,1.98-1.14s.1.05.24.13Z"/>
              <path class="cls-54" d="m85.4,71.91c-.28.18-1.2.71-1.58.93-.1.06-.23.06-.33,0l-.67-.37.04-1.14,2-1.16c.28.16.7.45.75.78.08.49.13.73-.22.95Z"/>
            </g>
            <path class="cls-47" d="m86.5,60.2c-.5.22-.97.41-1.43.57-1.37.49-2.61.73-3.74.73-.53,0-1.03-.05-1.52-.16-31.65-6.89-42.1-21.57-44.65-26.14.06-.03.11-.06.16-.09,0,0,.01-.03.04-.07.03-.06.08-.15.14-.27,2.33,4.28,12.51,19.13,44.41,26.07,1.42.31,3.04.13,4.97-.55.43-.15.88-.33,1.35-.54.06.18.14.33.24.44h.01Z"/>
            <path class="cls-48" d="m124.04,49.37c-.22,4.17-3.38,10.43-5.93,15.46-.99,1.97-1.93,3.83-2.56,5.29-.78,1.81-2.18,3.3-3.94,4.18l-22.34,11.17c-.21.11-.44.16-.67.16-.29,0-.58-.09-.84-.26-.45-.32-.68-.82-.63-1.37.22-2.19.93-5.83,1.61-9.34.07-.37.14-.73.21-1.1.04-.21.08-.43.12-.64.33-1.7.64-3.37.87-4.77.48-2.94-1.04-4.87-2.27-6.42-.32-.4-.62-.78-.85-1.15l-.04-.08-.03-.12c.15.07.34.08.56.03.2.31.47.65.75,1,1.22,1.55,2.89,3.66,2.37,6.82-.24,1.46-.56,3.22-.91,5,0,.01,0,.02,0,.03h0c-.1.51-.2,1.01-.3,1.51-.68,3.51-1.38,7.13-1.6,9.3-.04.36.11.69.41.9.3.21.67.23.99.07l22.34-11.17c1.66-.82,2.98-2.22,3.7-3.92.63-1.48,1.58-3.34,2.57-5.32,2.52-4.99,5.66-11.19,5.87-15.26.17-3.37-1.05-6.16-2.07-7.02l.46-.26c1.1,1.08,2.3,3.89,2.12,7.32Z"/>
            <path class="cls-48" d="m36.98,37.54s5.09,15.44,40.2,22.73c0,0-31.04-8.31-40.2-22.73Z"/>
            <path class="cls-24" d="m70.95,62.69s-26.62,26.11-30.74,27.05c-1.44.33-1.48-1.85-.91-4.83.98-1.6,2.59-3.35,4.59-5.14.03-.02.06-.05.08-.07,7.14-6.38,26.98-17,26.98-17Z"/>
            <g>
              <g class="cls-56">
                <g>
                  <path class="cls-46" d="m6.45,69.87c-.16.1-.08.01-.25.1-.08.04-.16.09-.25.13h0c-.48.11-1.07-.01-1.7-.38-1.67-.97-3.03-3.32-3.03-5.25,0-.44.07-.83.2-1.14.3-.2.62-.39.96-.57.29-.15-.49-.19-.19-.31,3.08-1.32,7.22-1.13,8.19.68,1,1.89-.88,4.92-3.91,6.73Z"/>
                  <path class="cls-53" d="m7.27,67.98c0,.76-.21,1.34-.57,1.71-.2.21-.46.36-.75.42h0c-.48.11-1.07-.01-1.7-.38-1.67-.97-3.03-3.32-3.03-5.25,0-.44.07-.83.2-1.14.32-.77.99-1.14,1.83-.98.31.05.65.18,1,.38,1.67.97,3.03,3.32,3.03,5.25Z"/>
                  <path class="cls-52" d="m6.19,66.01c0,.68-.6,1.24-1.34,1.24s-1.34-.55-1.34-1.24.6-1.24,1.34-1.24,1.34.55,1.34,1.24Z"/>
                  <g>
                    <path class="cls-46" d="m5.5,69.8c-.38,0-.79-.13-1.22-.37-1.49-.86-2.71-2.96-2.71-4.69,0-1.2.58-1.95,1.52-1.95.38,0,.79.13,1.22.37,1.49.86,2.71,2.96,2.71,4.69,0,1.2-.58,1.95-1.52,1.95Zm-2.4-6.95c-.9,0-1.46.72-1.46,1.89,0,1.7,1.2,3.78,2.68,4.63.42.24.82.36,1.19.36.9,0,1.46-.72,1.46-1.89,0-1.7-1.2-3.78-2.68-4.63-.42-.24-.82-.36-1.19-.36Z"/>
                    <path class="cls-46" d="m5.19,68.91c-.28,0-.59-.09-.91-.28-1.11-.64-2.02-2.21-2.02-3.49,0-.9.44-1.46,1.14-1.46.28,0,.59.09.91.28,1.11.64,2.02,2.21,2.02,3.49,0,.9-.44,1.46-1.14,1.46Zm-1.79-5.17c-.66,0-1.08.53-1.08,1.4,0,1.26.89,2.81,1.99,3.44.31.18.6.27.88.27.66,0,1.08-.54,1.08-1.4,0-1.26-.89-2.81-1.99-3.44-.31-.18-.6-.27-.88-.27Z"/>
                    <path class="cls-46" d="m4.82,67.84c-.17,0-.35-.06-.54-.17-.66-.38-1.19-1.3-1.19-2.06,0-.53.27-.87.68-.87.17,0,.35.06.54.17.65.38,1.19,1.3,1.19,2.06,0,.53-.27.87-.68.87Zm-1.05-3.03c-.38,0-.62.31-.62.81,0,.74.52,1.64,1.16,2,.18.1.35.16.51.16.38,0,.62-.31.62-.81,0-.74-.52-1.64-1.16-2.01-.18-.1-.35-.15-.51-.15Z"/>
                  </g>
                </g>
              </g>
              <path class="cls-8" d="m5.92,57.88c-.68,1.26-1.02,2.67-1.01,4.1.02,2.44-.14,6.28-1.22,8.11-1.65,2.8-5.09-5.34.51-11.96,3.73-4.41,2.77-2.21,1.72-.25Z"/>
            </g>
            <path class="cls-25" d="m35.03,36.14S8.41,62.25,4.3,63.19c-1.44.33-1.48-1.85-.91-4.83.98-1.6,2.59-3.35,4.58-5.14.03-.02.06-.05.08-.07,7.14-6.38,19.16-13.37,25.09-16.77.18-.1.36-.2.53-.3.02-.01.03-.02.05-.03.79.06,1.32.1,1.32.1Z"/>
            <g>
              <path class="cls-11" d="m37.94,90.79s-.85-8.97,10.79-10.66c8.36-1.22,7.6,1.16,6.51,2.6-.6.79-1.17,1.6-1.66,2.47-1.13,1.97-3.59,5.42-7.75,7.42-2.28,1.09-6.3,1.94-7.88-1.82Z"/>
              <g>
                <path class="cls-46" d="m45.76,92.14c-.16.1-.08.01-.25.1-.08.04-.16.09-.25.13h0c-.48.1-1.07-.01-1.7-.38-1.67-.97-3.03-3.32-3.03-5.25,0-.44.07-.83.2-1.14.3-.2.62-.39.96-.57.29-.15-.49-.19-.19-.31,3.08-1.32,7.22-1.13,8.19.68,1,1.89-.88,4.92-3.91,6.73Z"/>
                <path class="cls-53" d="m46.58,90.25c0,.76-.21,1.34-.56,1.71-.2.21-.46.36-.75.42h0c-.48.1-1.07-.01-1.7-.38-1.67-.97-3.03-3.32-3.03-5.25,0-.44.07-.83.2-1.14.32-.77.99-1.14,1.83-.98.31.05.65.18,1,.38,1.67.97,3.03,3.32,3.03,5.25Z"/>
                <path class="cls-52" d="m45.5,88.28c0,.68-.6,1.24-1.34,1.24s-1.34-.55-1.34-1.24.6-1.24,1.34-1.24,1.34.55,1.34,1.24Z"/>
                <g>
                  <path class="cls-46" d="m44.81,92.07c-.38,0-.79-.13-1.22-.37-1.49-.86-2.71-2.96-2.71-4.69,0-1.2.58-1.95,1.52-1.95.38,0,.79.13,1.22.37,1.49.86,2.71,2.96,2.71,4.69,0,1.2-.58,1.95-1.52,1.95Zm-2.4-6.95c-.9,0-1.46.72-1.46,1.89,0,1.7,1.2,3.78,2.67,4.63.42.24.82.36,1.19.36.9,0,1.46-.72,1.46-1.89,0-1.7-1.2-3.78-2.68-4.63-.42-.24-.82-.36-1.19-.36Z"/>
                  <path class="cls-46" d="m44.5,91.17c-.28,0-.59-.09-.91-.28-1.11-.64-2.02-2.21-2.02-3.49,0-.9.44-1.46,1.14-1.46.28,0,.59.09.91.28,1.11.64,2.02,2.21,2.02,3.49,0,.9-.44,1.46-1.14,1.46Zm-1.79-5.17c-.66,0-1.08.54-1.08,1.4,0,1.26.89,2.81,1.99,3.44.31.18.61.27.88.27.66,0,1.08-.54,1.08-1.4,0-1.26-.89-2.81-1.99-3.44-.31-.18-.6-.27-.88-.27Z"/>
                  <path class="cls-46" d="m44.13,90.11c-.17,0-.35-.06-.54-.17-.65-.38-1.19-1.3-1.19-2.06,0-.53.27-.87.68-.87.17,0,.35.06.54.16.66.38,1.19,1.3,1.19,2.06,0,.53-.27.87-.68.87Zm-1.05-3.03c-.38,0-.62.31-.62.81,0,.74.52,1.64,1.16,2.01.18.1.35.15.51.15.38,0,.62-.31.62-.81,0-.74-.52-1.64-1.16-2-.18-.1-.35-.16-.51-.16Z"/>
                </g>
              </g>
              <path class="cls-9" d="m38.68,88.92s1.02-6.23,10.3-7.76c9.29-1.53,2.8,2.67,0,4.07-2.8,1.4-10.94,7.12-10.3,3.69Z"/>
            </g>
            <g>
              <path class="cls-31" d="m80.86,53.19c-.25.72-.49,1.39-.7,2.01-.2.56-.46,1.08-.78,1.5-.4.02-.84-.1-1.32-.36-6.82-3.72-25.84-8-37.81-21.15-.83-.91-.95-1.93-.17-3.3.27-.48.57-1.03.92-1.66,8.58,4.12,21,11.64,30.13,17.22,1.1.67,2.17,1.34,3.22,2.01,1.1.7,2.16,1.39,3.19,2.08.83.55,2.26,1.11,3.33,1.65Z"/>
              <g>
                <path class="cls-31" d="m74.02,36.93c-.35-.21-.71-.38-1.05-.5-.57-.21-1.13-.32-1.67-.32-2.21,0-3.65,1.76-3.65,4.5,0,.4.03.81.1,1.23h0c.1.8.32,1.61.63,2.41.05.14.11.29.17.43.99,2.36,2.73,4.53,4.75,5.7.46.27.93.47,1.38.61.46.14.91.21,1.35.21.51,0,.98-.1,1.4-.27.33-.14.63-.33.89-.57.29-.26.55-.6.76-.98,0,0,0,0,0-.01.15-.27.27-.57.36-.91.15-.52.24-1.12.24-1.76,0-3.65-2.48-7.93-5.64-9.76Zm1.99,12.78s-.09,0-.13,0c-.24,0-.49-.05-.75-.13-.35-.11-.73-.27-1.1-.49-1.06-.62-2.05-1.58-2.86-2.72-.16-.22-.32-.46-.46-.69-.88-1.44-1.46-3.05-1.57-4.56-.01-.18-.02-.35-.02-.52,0-1.9.82-3.03,2.18-3.03h.04c.35,0,.72.09,1.12.23.27.1.54.24.82.4.05.03.1.06.15.1,1.76,1.08,3.3,3.11,4.11,5.25.32.81.52,1.64.6,2.44.02.24.04.47.04.7,0,1.47-.49,2.49-1.35,2.86-.24.12-.52.17-.82.17Z"/>
                <path class="cls-31" d="m63.92,44.51s5.39-4.41,7.35-3.76c1.96.65,4.74,2.94,4.74,4.9s-1.96,7.03-1.96,7.03l-10.13-8.17Z"/>
                <path class="cls-31" d="m71.42,40.83l-.11-3.05c-.02-.58.59-.97,1.1-.71l.63.31c.3.15.47.49.41.82l-.51,2.75c-.1.53-.7.79-1.15.51h-.01c-.22-.14-.35-.37-.36-.63Z"/>
                <polygon class="cls-31" points="73.23 44.51 77.64 43.53 78.78 45.98 72.41 46.14 73.23 44.51"/>
              </g>
            </g>
            <path class="cls-30" d="m73.4,16.64c-4.23,5.72-16.18,21.19-25.44,26.83-3.18-2.15-6.21-4.65-8.9-7.6-.83-.91-.95-1.93-.17-3.3,3.22-5.67,11.64-22.99,15.01-23.57.01,0,.03-.01.04-.01,3.89-.55,14.28,4.77,16.85,6.19.41.23,1.36.74,2.62,1.46Z"/>
            <g>
              <g>
                <g>
                  <path class="cls-40" d="m90.55,53.77s-3.48,1.72-2.29,3.27c.03-1.32,2.54-2.56,2.54-2.56,0,0,7.15-5.65,10.66-.84.14.2.26.39.35.57-.08-.4-.27-.82-.6-1.28-3.51-4.81-10.66.84-10.66.84Z"/>
                  <path class="cls-47" d="m89.31,57.79c-.51-.24-.84-.5-1.04-.76.01-.37.21-.73.49-1.05.74-.86,2.04-1.51,2.04-1.51,0,0,7.15-5.65,10.66-.83.08.1.14.2.2.3.05.09.1.18.15.27h0c.74,3.83-9.33,5.1-12.51,3.58Z"/>
                </g>
                <path class="cls-47" d="m84.49,55.96l5.06-.12s2.25,1.51.95,2.32-7.96,1.86-7.63.41c.32-1.46,1.62-2.61,1.62-2.61Z"/>
              </g>
              <path class="cls-22" d="m101.66,53.94c-2.78,1.07-9.72,3.47-12.91,2.04.74-.86,2.04-1.51,2.04-1.51,0,0,7.15-5.65,10.66-.83.08.1.14.2.2.3Z"/>
            </g>
          </g>
        </g>
      </g>
    </g>
  </g>
</svg>