<?xml version="1.0" encoding="UTF-8"?>
<svg xmlns="http://www.w3.org/2000/svg" xmlns:xlink="http://www.w3.org/1999/xlink" viewBox="0 0 192.45 134.08">
  <defs>
    <style>
      .cls-1, .cls-2, .cls-3, .cls-4, .cls-5, .cls-6, .cls-7, .cls-8, .cls-9, .cls-10, .cls-11, .cls-12, .cls-13, .cls-14, .cls-15, .cls-16, .cls-17, .cls-18, .cls-19, .cls-20, .cls-21, .cls-22, .cls-23, .cls-24, .cls-25, .cls-26, .cls-27, .cls-28, .cls-29, .cls-30, .cls-31, .cls-32, .cls-33, .cls-34, .cls-35, .cls-36, .cls-37, .cls-38, .cls-39 {
        stroke-width: 0px;
      }

      .cls-1, .cls-40 {
        fill: url(#New_Gradient_Swatch_4);
      }

      .cls-2 {
        fill: url(#New_Gradient_Swatch_2);
      }

      .cls-3 {
        fill: url(#New_Gradient_Swatch_2-2);
      }

      .cls-4 {
        fill: url(#New_Gradient_Swatch_4-2);
      }

      .cls-41 {
        clip-path: url(#clippath);
      }

      .cls-5 {
        fill: url(#linear-gradient-5);
      }

      .cls-5, .cls-6, .cls-7, .cls-8, .cls-10, .cls-13, .cls-14, .cls-15, .cls-16, .cls-17, .cls-18, .cls-19 {
        mix-blend-mode: screen;
      }

      .cls-6 {
        fill: url(#linear-gradient-4);
      }

      .cls-7 {
        fill: url(#linear-gradient-2);
      }

      .cls-8 {
        fill: url(#linear-gradient-3);
      }

      .cls-42, .cls-9, .cls-11 {
        mix-blend-mode: overlay;
      }

      .cls-9 {
        fill: url(#radial-gradient-2);
      }

      .cls-10 {
        fill: url(#linear-gradient);
      }

      .cls-11 {
        fill: url(#radial-gradient);
      }

      .cls-12 {
        fill: #ab938a;
        mix-blend-mode: multiply;
        opacity: .4;
      }

      .cls-43 {
        isolation: isolate;
      }

      .cls-13 {
        fill: url(#New_Gradient_Swatch_4-3);
      }

      .cls-14 {
        fill: url(#New_Gradient_Swatch_2-5);
      }

      .cls-15 {
        fill: url(#New_Gradient_Swatch_2-6);
      }

      .cls-16 {
        fill: url(#New_Gradient_Swatch_2-4);
      }

      .cls-17 {
        fill: url(#New_Gradient_Swatch_2-3);
      }

      .cls-18 {
        fill: url(#New_Gradient_Swatch_2-7);
      }

      .cls-19 {
        fill: url(#New_Gradient_Swatch_2-8);
      }

      .cls-20 {
        fill: #5e787a;
      }

      .cls-21 {
        fill: #82a42c;
      }

      .cls-22 {
        fill: #7b7f82;
      }

      .cls-23 {
        fill: #2b2b2b;
      }

      .cls-24 {
        fill: #88a1a8;
      }

      .cls-25 {
        fill: #6e7173;
      }

      .cls-26 {
        fill: #a2a7ab;
      }

      .cls-27 {
        fill: #6e8a22;
      }

      .cls-28 {
        fill: #262626;
      }

      .cls-29 {
        fill: #364649;
      }

      .cls-30 {
        fill: #161515;
      }

      .cls-31 {
        fill: #252d09;
      }

      .cls-32 {
        fill: #bdc3c7;
      }

      .cls-33 {
        fill: #b31d14;
      }

      .cls-34 {
        fill: #b1cc40;
      }

      .cls-35 {
        fill: #97b536;
      }

      .cls-36 {
        fill: #a1a6a9;
      }

      .cls-37 {
        fill: #fff;
      }

      .cls-38 {
        fill: #ecf0f1;
      }

      .cls-39 {
        fill: #fba400;
      }
    </style>
    <radialGradient id="radial-gradient" cx="-181.47" cy="-2321.54" fx="-181.47" fy="-2321.54" r="17.36" gradientTransform="translate(-16.33 -2258.51) rotate(-180)" gradientUnits="userSpaceOnUse">
      <stop offset="0" stop-color="#fff"/>
      <stop offset=".08" stop-color="#d0d0d0"/>
      <stop offset=".17" stop-color="#9f9f9f"/>
      <stop offset=".26" stop-color="#757575"/>
      <stop offset=".36" stop-color="#505050"/>
      <stop offset=".46" stop-color="#333"/>
      <stop offset=".57" stop-color="#1c1c1c"/>
      <stop offset=".69" stop-color="#0c0c0c"/>
      <stop offset=".82" stop-color="#020202"/>
      <stop offset="1" stop-color="#000"/>
    </radialGradient>
    <linearGradient id="New_Gradient_Swatch_2" data-name="New Gradient Swatch 2" x1="172.77" y1="70.46" x2="163.75" y2="56.97" gradientUnits="userSpaceOnUse">
      <stop offset="0" stop-color="#000"/>
      <stop offset="1" stop-color="#fff"/>
    </linearGradient>
    <radialGradient id="radial-gradient-2" cx="-90.78" cy="-2375.95" fx="-90.78" fy="-2375.95" r="17.36" xlink:href="#radial-gradient"/>
    <linearGradient id="New_Gradient_Swatch_2-2" data-name="New Gradient Swatch 2" x1="82.08" y1="124.87" x2="73.05" y2="111.38" xlink:href="#New_Gradient_Swatch_2"/>
    <linearGradient id="linear-gradient" x1="36.43" y1="91.87" x2="19.73" y2="69.75" gradientUnits="userSpaceOnUse">
      <stop offset="0" stop-color="#000"/>
      <stop offset="1" stop-color="#6e8a22"/>
    </linearGradient>
    <linearGradient id="New_Gradient_Swatch_2-3" data-name="New Gradient Swatch 2" x1="123.07" y1="51.31" x2="112.27" y2="32.63" xlink:href="#New_Gradient_Swatch_2"/>
    <linearGradient id="New_Gradient_Swatch_2-4" data-name="New Gradient Swatch 2" x1="62.66" y1="60.96" x2="44.27" y2="36.28" xlink:href="#New_Gradient_Swatch_2"/>
    <linearGradient id="New_Gradient_Swatch_2-5" data-name="New Gradient Swatch 2" x1="136.48" y1="17.08" x2="134.25" y2="4.8" xlink:href="#New_Gradient_Swatch_2"/>
    <linearGradient id="New_Gradient_Swatch_2-6" data-name="New Gradient Swatch 2" x1="22.07" y1="103.9" x2="20.82" y2="100.49" xlink:href="#New_Gradient_Swatch_2"/>
    <linearGradient id="New_Gradient_Swatch_4" data-name="New Gradient Swatch 4" x1=".99" y1="92.46" x2="10.59" y2="92.46" gradientUnits="userSpaceOnUse">
      <stop offset="0" stop-color="#ecf0f1"/>
      <stop offset=".24" stop-color="#c9cdce"/>
      <stop offset=".78" stop-color="#727577"/>
      <stop offset="1" stop-color="#4d5052"/>
    </linearGradient>
    <clipPath id="clippath">
      <path class="cls-1" d="m10.37,99.2s-5.13-1.65-9.38-4.4c.14-3.17.93-6.26,2.28-9.07,2.49,2.29,5.59,5.24,6.43,6.39,1.46,2.02.67,7.08.67,7.08Z"/>
    </clipPath>
    <linearGradient id="New_Gradient_Swatch_4-2" data-name="New Gradient Swatch 4" x1="58.85" y1="105.18" x2="43.02" y2="111.51" xlink:href="#New_Gradient_Swatch_4"/>
    <linearGradient id="New_Gradient_Swatch_4-3" data-name="New Gradient Swatch 4" x1="38.19" y1="98.66" x2="43.67" y2="111.86" xlink:href="#New_Gradient_Swatch_4"/>
    <linearGradient id="New_Gradient_Swatch_2-7" data-name="New Gradient Swatch 2" x1="45.57" y1="114.5" x2="42.1" y2="107.55" xlink:href="#New_Gradient_Swatch_2"/>
    <linearGradient id="New_Gradient_Swatch_2-8" data-name="New Gradient Swatch 2" x1="7.19" y1="97.92" x2="2.56" y2="88.66" xlink:href="#New_Gradient_Swatch_2"/>
    <linearGradient id="linear-gradient-2" x1="164.49" y1="59.14" x2="159.7" y2="50.68" xlink:href="#linear-gradient"/>
    <linearGradient id="linear-gradient-3" x1="73.3" y1="110.62" x2="68.96" y2="100.34" xlink:href="#linear-gradient"/>
    <linearGradient id="linear-gradient-4" x1="35.37" y1="123.8" x2="33.84" y2="113.4" xlink:href="#linear-gradient"/>
    <linearGradient id="linear-gradient-5" x1="117.79" y1="75.58" x2="124.83" y2="86.04" xlink:href="#linear-gradient"/>
  </defs>
  <g class="cls-43">
    <g id="Layer_2" data-name="Layer 2">
      <g id="Layer_1-2" data-name="Layer 1">
        <g>
          <path class="cls-12" d="m181.21,74.63l-90.93,52.96c-14.98,8.65-39.28,8.65-54.26,0l-10.15-5.91c-14.98-8.65-14.98-22.68,0-31.33l90.93-52.96c14.98-8.65,39.28-8.65,54.26,0l10.15,5.9c14.98,8.65,14.98,22.68,0,31.33Z"/>
          <g>
            <g>
              <path class="cls-23" d="m44.48,50.63s.87,3.78-1.08,3.83c1-.86.38-3.58.38-3.58,0,0-.14-9.1-6.08-8.78-.24.01-.46.04-.66.09.36-.19.81-.31,1.37-.34,5.94-.32,6.08,8.78,6.08,8.78Z"/>
              <path class="cls-34" d="m43.78,50.88s.62,2.72-.38,3.58c-.33,0-.74-.09-1.24-.33-3.18-1.5-8.56-10.09-5.13-11.94h0c.2-.05.42-.08.66-.09,5.94-.32,6.08,8.78,6.08,8.78Z"/>
            </g>
            <path class="cls-31" d="m86.92,114.1l-16.61-13.12,10.97-6.74s5.6-.11,6.28,2.06c.69,2.17,2.63,7.77,2.63,8.68s-2.28,5.03-2.28,5.03l-.98,4.09Z"/>
            <polygon class="cls-31" points="177.59 60.96 154.61 48.32 164.32 38.04 173.8 39.29 179.86 44.21 180.43 55.17 177.59 60.96"/>
            <g>
              <g>
                <path class="cls-30" d="m159.05,75.82l-10.43-6.35s-6.03-23.86,14.76-25.45l10.43,5.49-14.76,26.31Z"/>
                <g>
                  <path class="cls-23" d="m177.34,56.66c0,6.79-4.77,15.05-10.65,18.44-5.88,3.4-10.65.64-10.65-6.15s4.77-15.05,10.65-18.44c5.88-3.4,10.65-.64,10.65,6.15Z"/>
                  <path class="cls-38" d="m176.07,57.51c0,3.36-1.32,7.12-3.4,10.3-.39.6-.81,1.18-1.25,1.73-1.39,1.74-3,3.21-4.72,4.2-1.72.99-3.34,1.39-4.72,1.25-.44-.04-.86-.14-1.25-.29-2.08-.79-3.4-3.02-3.4-6.37,0-.79.07-1.6.22-2.43.09-.55.21-1.1.36-1.66,1.26-4.65,4.42-9.33,8.2-11.78.19-.13.4-.25.59-.37.2-.11.4-.22.59-.32,3.78-1.91,6.94-.89,8.2,2.31.15.38.27.8.36,1.24.15.66.22,1.39.22,2.18Z"/>
                  <path class="cls-11" d="m158.2,67.83c0-3.04,1.2-6.45,3.08-9.33.35-.54.74-1.07,1.13-1.57,1.26-1.57,2.72-2.91,4.28-3.81,1.56-.9,3.02-1.26,4.28-1.13.4.04.78.12,1.13.26,1.88.71,3.08,2.73,3.08,5.78,0,.72-.06,1.45-.2,2.2-.08.49-.19,1-.33,1.51-1.14,4.21-4.01,8.45-7.43,10.67-.17.11-.36.23-.54.33-.18.1-.36.2-.54.29-3.42,1.73-6.29.8-7.43-2.1-.14-.35-.25-.73-.33-1.13-.13-.6-.2-1.26-.2-1.97Z"/>
                  <path class="cls-23" d="m174.09,58.53c0,4.72-3.31,10.45-7.4,12.81-4.08,2.36-7.4.45-7.4-4.27s3.31-10.45,7.4-12.81c4.09-2.36,7.4-.45,7.4,4.27Z"/>
                  <path class="cls-28" d="m173.03,59.15c0,4.04-2.83,8.95-6.33,10.97-3.5,2.02-6.33.38-6.33-3.66s2.83-8.95,6.33-10.97c3.5-2.02,6.33-.38,6.33,3.66Z"/>
                </g>
              </g>
              <g class="cls-43">
                <polygon class="cls-26" points="169.33 58.35 168.76 58.02 175.32 54.04 169.33 58.35"/>
                <polygon class="cls-22" points="161.27 73.5 163.22 65.76 163.79 66.09 161.27 73.5"/>
                <polygon class="cls-25" points="165.12 60.74 164.55 60.41 166.26 53.17 165.12 60.74"/>
                <polygon class="cls-36" points="159.21 63.18 164.55 60.41 165.12 60.74 159.21 63.18"/>
                <g class="cls-42">
                  <path class="cls-2" d="m166.26,53.17l1.99-1.14,1.07,6.32,6-4.31c.26.56.46,1.19.58,1.9l-5.3,6.29,2.48,4.64c-.53.84-1.11,1.64-1.73,2.38l-4.17-2.23-4.19,6.93-1.72-.45,2.52-7.41-5.19-.31c.13-.86.33-1.73.6-2.6l5.91-2.44,1.15-7.57Z"/>
                </g>
                <path class="cls-38" d="m166.26,53.17l1.99-1.14,1.07,6.32,6-4.31c.26.56.46,1.19.58,1.9l-5.3,6.29,2.48,4.64c-.53.84-1.11,1.64-1.73,2.38l-4.17-2.23-4.19,6.93-1.72-.45,2.52-7.41-5.19-.31c.13-.86.33-1.73.6-2.6l5.91-2.44,1.15-7.57Z"/>
              </g>
            </g>
            <g>
              <g>
                <path class="cls-30" d="m68.35,130.23l-10.43-6.35s-6.03-23.86,14.76-25.45l10.43,5.49-14.76,26.31Z"/>
                <g>
                  <path class="cls-23" d="m86.65,111.06c0,6.79-4.77,15.05-10.65,18.44-5.88,3.4-10.65.64-10.65-6.15s4.77-15.05,10.65-18.44c5.88-3.4,10.65-.64,10.65,6.15Z"/>
                  <path class="cls-38" d="m85.37,111.92c0,3.36-1.32,7.12-3.4,10.3-.39.6-.81,1.18-1.25,1.73-1.39,1.74-3,3.21-4.72,4.2s-3.34,1.39-4.72,1.25c-.44-.04-.86-.14-1.25-.29-2.08-.79-3.4-3.02-3.4-6.37,0-.79.07-1.6.22-2.43.09-.55.21-1.1.36-1.66,1.26-4.65,4.42-9.33,8.2-11.78.19-.13.4-.25.59-.37s.4-.23.59-.32c3.78-1.91,6.94-.89,8.2,2.31.15.38.27.8.36,1.24.15.66.22,1.39.22,2.18Z"/>
                  <path class="cls-9" d="m67.51,122.24c0-3.04,1.2-6.45,3.08-9.33.35-.54.74-1.07,1.13-1.57,1.26-1.57,2.72-2.91,4.28-3.81,1.56-.9,3.02-1.26,4.28-1.13.4.04.78.12,1.13.26,1.88.71,3.08,2.73,3.08,5.78,0,.72-.06,1.45-.2,2.2-.08.49-.19,1-.33,1.51-1.14,4.21-4.01,8.45-7.43,10.67-.17.11-.36.23-.54.33-.18.1-.36.2-.54.29-3.42,1.73-6.29.8-7.43-2.1-.14-.35-.25-.73-.33-1.13-.13-.6-.2-1.26-.2-1.97Z"/>
                  <path class="cls-23" d="m83.4,112.94c0,4.72-3.31,10.45-7.4,12.81-4.09,2.36-7.4.45-7.4-4.27s3.31-10.45,7.4-12.81c4.09-2.36,7.4-.45,7.4,4.27Z"/>
                  <path class="cls-28" d="m82.33,113.55c0,4.04-2.83,8.95-6.33,10.97s-6.33.38-6.33-3.66,2.83-8.95,6.33-10.97c3.5-2.02,6.33-.38,6.33,3.66Z"/>
                </g>
              </g>
              <g class="cls-43">
                <polygon class="cls-26" points="78.63 112.76 78.06 112.43 84.63 108.45 78.63 112.76"/>
                <polygon class="cls-22" points="70.58 127.9 72.53 120.17 73.1 120.5 70.58 127.9"/>
                <polygon class="cls-25" points="74.42 115.14 73.85 114.81 75.57 107.58 74.42 115.14"/>
                <polygon class="cls-36" points="68.51 117.58 73.85 114.81 74.42 115.14 68.51 117.58"/>
                <g class="cls-42">
                  <path class="cls-3" d="m75.57,107.58l1.99-1.14,1.07,6.32,6-4.31c.26.56.46,1.19.58,1.9l-5.3,6.29,2.48,4.64c-.53.84-1.11,1.64-1.73,2.38l-4.17-2.23-4.19,6.93-1.72-.45,2.52-7.41-5.19-.31c.13-.86.33-1.73.6-2.6l5.91-2.44,1.15-7.57Z"/>
                </g>
                <path class="cls-38" d="m75.57,107.58l1.99-1.14,1.07,6.32,6-4.31c.26.56.46,1.19.58,1.9l-5.3,6.29,2.48,4.64c-.53.84-1.11,1.64-1.73,2.38l-4.17-2.23-4.19,6.93-1.72-.45,2.52-7.41-5.19-.31c.13-.86.33-1.73.6-2.6l5.91-2.44,1.15-7.57Z"/>
              </g>
            </g>
            <path class="cls-35" d="m179.35,59.2c-.47.56-1.06,1.13-1.76,1.75.43-1.65.66-3.29.66-4.86,0-7.43-5.22-10.45-11.66-6.73-6.44,3.72-11.66,12.76-11.66,20.2,0,1.99.38,3.67,1.05,4.98-.39.23-.79.46-1.19.69-.58.34-1.17.69-1.78,1.03-17.4,10.1-42.23,24.27-62.26,35.65h0c-.76.43-1.51.86-2.26,1.28-.53.3-1.05.6-1.57.89.34-1.46.52-2.91.52-4.3,0-7.44-5.22-10.45-11.66-6.73-6.44,3.71-11.66,12.75-11.66,20.19,0,1.31.16,2.48.47,3.51-.42.24-.83.47-1.22.69-.65.37-1.26.71-1.82,1.03-2.86,1.62-4.49,2.54-4.49,2.54,0,0-6.85,4-16.91-.57-.08-.04-32.21-17.82-35.43-20.03-1.11-.83-1.88-2.04-2.18-3.42-.45-2.06-1.82-4.74-2.2-8.19-.11-.96-.29-1.2-.34-1.88,0-.16,0-.35,0-.58.02-.44,1.03-.88,1.08-1.32,0-.01,0-.03,0-.05.22-2.25.77-5.95,1.62-8.01.07-.18.15-.36.23-.53,0,0,0,0,0-.01.1-.24.21-.48.32-.71,1.3-2.69,3.12-5.13,5.39-7.18,4.52-4.06,10.86-9.36,16.69-13.89h.01c1.73-1.36,3.41-2.64,4.98-3.8,1.56-1.15,3.03-2.19,4.32-3.06,0,0,.04-.06.12-.19.97-1.6,8.02-13.09,18.66-26.98.53-.7,1.08-1.41,1.64-2.12,4.28-5.48,10.74-9.45,16.59-12.62C93.61,4,103.67.57,109.38.11c5.09-.4,13.8.1,24.51,4.72,1.32.57,2.67,1.21,4.05,1.91,0,0,3.65-.23,7.54.91,3.89,1.14,31.53,20.11,31.53,20.11,0,0,.1.06.27.24.65.7,2.34,3.15,2.91,10.4.01.11.02.21.03.32,0,0,.48-.27.74,9.82.03,1.34.15,2.5.25,3.54.24,2.7.29,4.63-1.84,7.12Z"/>
            <path class="cls-34" d="m149.07,22.16c-16.62.34-52.6,25.02-55.52,27.42-2.91,2.4-9.77,14.05-9.77,14.05l.51-2.74,1.54-8.74c-6.95-.58-26.5-16.58-32.4-21.52.53-.7,1.08-1.41,1.64-2.12,4.28-5.48,10.74-9.45,16.59-12.62C93.61,4,103.67.57,109.38.11c5.09-.4,13.8.1,24.51,4.72l-12.74-2.04,5.83,1.54,13.19,8.22,15.42,9.08s10.11.17-6.51.51Z"/>
            <path class="cls-34" d="m80.71,86.47c-8.22,4.69-30.38,26.85-30.38,26.85C14.86,103.71,5.43,92.36,2.95,86.43c.1-.24.21-.48.32-.71,1.3-2.69,3.12-5.13,5.39-7.18,4.52-4.06,10.86-9.36,16.69-13.89h.01c1.73-1.36,3.41-2.64,4.98-3.8l50.35,25.61Z"/>
            <path class="cls-34" d="m154.04,38.27c-2.89,9.45-39.63,29.1-68.02,45.41-24.45,14.04-44.29,25.97-55.46,22.33-6.24-2.04-14.62-7.77-14.62-7.77-5.72-3.27-1.83-17.66-.34-20.34,2.47-4.43,5.74-9.21,9.76-13.24h.01c3.45-2.7,6.71-5.12,9.3-6.86,0,0,.04-.06.12-.19,5.83,5.33,37.83,16.46,38.55,21.27.86,5.65,9.99,2,9.99,2l2.86-1.14,5.48-6.17,62.03-43.52s1.04,5.93.34,8.22Z"/>
            <path class="cls-10" d="m37.3,59.28s-15.76,15.08-20.68,25.93c-4.91,10.85-2.23,10.97-2.23,10.97,0,0-.43-5.48,6.51-16.45,4.63-7.32,17.19-19.42,17.19-19.42l-.8-1.03Z"/>
            <path class="cls-35" d="m30.76,106.55s22.76-3.51,42.12-25.9l1.54.34s-17.83,21.14-43.66,25.56Z"/>
            <g>
              <path class="cls-21" d="m129.55,89.79c2.19-8.55-3.8-28.74-4.42-29.36s-2.18-.97-2.19-.98l-.09-.02-.03-.08-9.6-21.02.31-.14,9.56,20.94c.35.08,1.65.43,2.29,1.06.49.49,2.31,6.53,3.56,12.78,1.06,5.3,2.01,12.21,1.02,16.59l-.4.23Z"/>
              <path class="cls-21" d="m150.92,77.48c-1.3-14.63,2.49-20.75,5.01-24.8,1.19-1.91,2.12-3.41,2.17-5.17.09-4.14-2.23-6.18-3.22-7.05-.21-.17-.34-.29-.4-.38-.7-.99-1.98-1.66-1.99-1.67l-.05-.03-6.99-14.32.31-.15,6.94,14.23c.26.14,1.39.8,2.07,1.73.04.07.18.19.35.34,1.03.9,3.43,3.01,3.34,7.31-.04,1.84-1,3.38-2.21,5.33-2.49,4.01-6.23,10.03-4.98,24.43l-.33.19Z"/>
              <path class="cls-21" d="m97.07,108.33c2.01-16.79-3.17-27.39-4.29-29.43-.62-1.14-1.64-1.06-1.66-1.06l-.03-.34s1.26-.11,1.99,1.23c1.12,2.05,6.3,12.63,4.37,29.38l-.38.21Z"/>
              <path class="cls-21" d="m78.38,82.18c-1.11,0-2.29-.22-3.46-.81l.16-.31c3.17,1.62,6.47.29,8.05-.35.67-.27.92-.37,1.08-.26.06.04.1.12.1.2h-.34c0,.05.05.1.09.1-.11-.01-.45.14-.79.28-1.06.43-2.85,1.15-4.88,1.16Z"/>
              <path class="cls-21" d="m34.83,57.55c.76.76,2.17,1.86,3.56,1.35l.12.32c-.29.1-.58.15-.86.15-1.23,0-2.34-.87-3.02-1.54l.21-.29Z"/>
            </g>
            <path class="cls-21" d="m82.29,81.25c-.69-.92-.91-2.07-.6-3.17.59-2.16,1.55-5.49,2.82-9.12.64-1.84,1.3-3.6,1.96-5.23,2.88-7.04,5.88-11.86,8.91-14.33,3.23-2.63,8.88-6.34,15.91-10.46,1.48-.87,2.98-1.72,4.46-2.55,8.68-4.87,20.56-10.93,25.49-11.97.68-.14,1.49-.26,2.43-.35,1.31-.14,2.9-.22,4.57-.23h.38c2.18,0,4.08.12,5.22.34.31.06.6.09.84.11.92.09,3.38.33,3.48,3.62.08,2.63-1.56,7.39-3.89,11.32l-.3-.18c2.31-3.88,3.93-8.57,3.85-11.14-.09-2.98-2.17-3.19-3.17-3.29-.25-.02-.54-.05-.87-.11-1.11-.21-2.99-.34-5.15-.34h-.38c-1.66.01-3.23.09-4.54.23-.93.09-1.73.21-2.4.35-4.89,1.03-16.74,7.07-25.4,11.93-1.47.82-2.97,1.68-4.46,2.55-7.02,4.11-12.65,7.81-15.87,10.43-2.99,2.44-5.95,7.21-8.81,14.19-.66,1.62-1.32,3.38-1.95,5.21-1.26,3.62-2.23,6.95-2.81,9.1-.28.99-.08,2.04.55,2.87l-.27.21Z"/>
            <path class="cls-28" d="m156.61,27.97c.1,3.35-3.07,10.92-6.8,14.64-2.1,2.1-12.65,8.63-24.82,15.83l-4.16,2.46c-10.01,5.89-20.57,11.96-28.11,16.26-.97.56-1.89,1.08-2.76,1.57-.08.05-.14.09-.22.12h0c-1.34.77-2.53,1.45-3.54,2.02-.33.19-.67.27-1.03.27-.64,0-1.27-.31-1.67-.83-.39-.52-.52-1.18-.34-1.82.6-2.21,1.55-5.47,2.79-9.03.58-1.68,1.23-3.42,1.93-5.15,2.28-5.58,5.16-11.03,8.46-13.71,3.39-2.76,9.25-6.54,15.72-10.32,1.45-.85,2.94-1.7,4.43-2.54,10.22-5.74,20.86-10.92,25.06-11.8.64-.14,1.41-.25,2.26-.33,1.3-.14,2.83-.21,4.43-.23h.36c2.06,0,3.89.12,4.93.32.37.07.69.1.98.13,1.19.12,2.03.34,2.08,2.13Z"/>
            <path class="cls-28" d="m89.5,78.21c-1.37.78-2.58,1.47-3.63,2.06-.23.12-.46.19-.69.19-.43,0-.85-.21-1.12-.56-.26-.35-.34-.78-.23-1.22.56-2.05,1.41-5,2.52-8.25,1.19,2.84,2.31,5.64,3.15,7.79Z"/>
            <path class="cls-29" d="m155.93,27.99c.1,3.26-3.11,10.65-6.59,14.14-3.98,3.98-38.81,24.08-56.77,34.34-1.09.62-2.11,1.21-3.06,1.75-.84-2.15-1.95-4.94-3.15-7.79h0c.22-.64.45-1.3.69-1.96.39-1.08.81-2.19,1.25-3.29,2.28-5.7,5.18-11.33,8.5-14.04,9.2-7.5,37.41-22.93,44.92-24.52,3.26-.69,9.46-.67,11.72-.24.51.1.93.13,1.27.16.82.09,1.19.23,1.23,1.45Z"/>
            <path class="cls-17" d="m154.7,26.54c-8.22,9.09-55.13,35.06-67.66,41.92,2.41-6.7,5.78-14.1,9.75-17.33,9.2-7.5,37.41-22.93,44.92-24.52,3.26-.69,9.46-.67,11.72-.24.51.1.93.13,1.27.16Z"/>
            <path class="cls-23" d="m165.59,24.44l-14.17-2.68c-.6-.12-1.14-.42-1.63-.78-2.6-1.91-5.4-3.8-8.21-5.63-11.1-7.22-22.38-13.29-22.82-13.52,2.89.8,15.76,3.77,21.8,7.08,2.79,1.52,6.6,3.69,10.47,5.94,5.91,3.44,11.99,7.07,14.83,8.92.34.23.12.75-.27.67Z"/>
            <path class="cls-29" d="m151.55,21.09c-.42-.08-.84-.28-1.36-.67-8.89-6.48-20.1-13.04-26.35-16.56,5.11,1.35,12.34,3.43,16.39,5.65,6.63,3.63,18.41,10.53,23.87,13.95l-12.55-2.37Z"/>
            <path class="cls-23" d="m89.71,51.9l-12.75,27.89c-.49,1.07-1.56,1.76-2.73,1.76-.36,0-.71-.07-1.03-.19-4.24-1.56-16.34-6.37-26.87-13.92-3.24-2.32-6.33-4.89-8.99-7.72-.6-.63-.68-1.58-.2-2.31l17.33-26.55.58.45c.1.08,7.91,6.17,19.52,12.82,4.37,2.5,9.29,5.09,14.53,7.47l.62.28Z"/>
            <path class="cls-23" d="m77.1,77.86l-.75,1.65c-.51,1.1-1.77,1.64-2.91,1.22-6.09-2.25-24.46-9.68-35.6-21.47-.38-.4-.42-1.01-.12-1.47l1.7-2.61c11.8,12.32,30.91,20.16,37.69,22.68Z"/>
            <path class="cls-24" d="m88.82,52.24l-.7,1.53-9.06,19.81-1.15,2.51c-.46,1-1.62,1.47-2.64,1.07-7.81-3.04-24.47-10.4-35.35-21.46-.3-.3-.34-.77-.11-1.13l1.56-2.4,12.31-18.85.95-1.46s14.71,11.55,34.19,20.38Z"/>
            <g>
              <path class="cls-27" d="m123.33,65.24c0,1.41-.99,3.13-2.22,3.84-1.22.71-2.22.13-2.22-1.28s1.22-1.34,2.44-2.05c1.22-.71,1.99-1.92,1.99-.51Z"/>
              <g>
                <path class="cls-28" d="m124.68,65.96c-.39.42-4.81,4-6.35,3.26-.73-.35-.75-.56-.56-.69.21-.15.67-.19.67-.19,0,0,4.39-1.72,5.37-3.23.31-.47.54-.61.71-.56.38.11.43,1.11.16,1.4Z"/>
                <path class="cls-23" d="m124.36,65.4c-.39.42-4.81,4-6.35,3.26-.09-.05-.18-.09-.25-.13.21-.15.67-.19.67-.19,0,0,4.39-1.72,5.37-3.23.31-.47.54-.61.71-.56.04.32-.01.68-.15.84Z"/>
              </g>
            </g>
            <g>
              <path class="cls-27" d="m153.29,47.15c0,1.41-.99,3.13-2.22,3.84s-2.22.13-2.22-1.28,1.22-1.34,2.44-2.05c1.22-.71,1.99-1.92,1.99-.51Z"/>
              <g>
                <path class="cls-28" d="m154.63,47.87c-.39.42-4.81,4-6.35,3.26-.73-.35-.75-.56-.56-.69.21-.15.67-.19.67-.19,0,0,4.39-1.72,5.37-3.23.31-.47.54-.61.71-.56.38.11.43,1.11.16,1.4Z"/>
                <path class="cls-23" d="m154.32,47.31c-.39.42-4.81,4-6.35,3.26-.09-.05-.18-.09-.25-.13.21-.15.67-.19.67-.19,0,0,4.39-1.72,5.37-3.23.31-.47.54-.61.71-.56.04.32-.01.68-.15.84Z"/>
              </g>
            </g>
            <g>
              <path class="cls-23" d="m91.04,84.04l-2.6,1.5-.06,1.48-.28-.16.06-1.5,2.57-1.48s.13.06.31.16Z"/>
              <path class="cls-39" d="m91.73,86.29c-.36.23-1.55.92-2.04,1.21-.13.08-.3.08-.43,0l-.87-.48.06-1.48,2.6-1.5c.36.21.91.59.98,1.01.1.64.17.95-.29,1.23Z"/>
            </g>
            <g>
              <path class="cls-20" d="m79.06,73.58l-1.15,2.51c-.46,1-1.62,1.47-2.64,1.07-7.81-3.04-24.47-10.4-35.35-21.46-.3-.3-.34-.77-.11-1.13l1.56-2.4c8.24,3.87,18.5,9.32,27.39,14.76,1.1.67,2.18,1.35,3.24,2.01,1.1.7,2.17,1.4,3.21,2.09.56.36,2.22,1.46,3.86,2.55Z"/>
              <g>
                <path class="cls-20" d="m73.06,61.8c-.33-.19-.65-.35-.97-.46-.53-.2-1.05-.29-1.55-.29-2.05,0-3.38,1.63-3.38,4.16,0,.37.03.75.09,1.14h0c.1.74.3,1.49.58,2.23.05.13.1.27.16.39.92,2.19,2.53,4.19,4.39,5.27.43.25.86.44,1.27.56.42.13.84.19,1.25.19.47,0,.91-.09,1.29-.25.31-.13.58-.31.82-.52.27-.25.51-.55.7-.91,0,0,0,0,0-.01.14-.25.25-.53.33-.84.14-.48.22-1.03.22-1.63,0-3.38-2.29-7.34-5.22-9.03Zm1.84,11.83s-.08,0-.12,0c-.22,0-.46-.05-.69-.12-.33-.1-.67-.25-1.02-.45-.98-.57-1.9-1.46-2.64-2.51-.15-.2-.29-.42-.42-.64-.81-1.33-1.35-2.83-1.45-4.21-.01-.16-.02-.33-.02-.48,0-1.76.76-2.81,2.02-2.81h.04c.32,0,.67.08,1.03.21.25.1.5.22.76.37.05.03.1.05.14.09,1.63,1,3.05,2.87,3.8,4.85.29.75.48,1.52.56,2.26.02.22.03.44.03.65,0,1.36-.46,2.3-1.25,2.64-.22.11-.48.16-.76.16Z"/>
                <path class="cls-20" d="m63.71,68.81s4.99-4.08,6.8-3.48c1.81.6,4.38,2.72,4.38,4.53s-1.81,6.5-1.81,6.5l-9.37-7.56Z"/>
                <path class="cls-20" d="m70.65,65.41l-.1-2.82c-.02-.54.54-.89,1.02-.66l.58.29c.28.14.44.45.38.76l-.47,2.54c-.09.49-.65.73-1.07.47h-.01c-.2-.13-.32-.35-.33-.58Z"/>
                <polygon class="cls-20" points="72.33 68.81 76.41 67.9 77.47 70.17 71.57 70.32 72.33 68.81"/>
              </g>
            </g>
            <path class="cls-20" d="m88.82,52.24l-.7,1.53c-18.72-8.42-30.61-16.67-34.44-20.45l.95-1.46s14.71,11.55,34.19,20.38Z"/>
            <path class="cls-16" d="m74.57,44.15c-.16.16-.34.33-.51.5-5.39,5.37-14.89,14.36-23.17,19.99h0c-1.34.92-2.65,1.75-3.91,2.45-.22.13-.44.25-.65.36-3.24-2.32-6.33-4.89-8.99-7.72-.6-.63-.68-1.58-.2-2.31l17.33-26.55.58.45c.1.08,7.91,6.17,19.52,12.82Z"/>
            <path class="cls-28" d="m125,58.44l-4.16,2.46c-.08-.19-.16-.4-.25-.64-1.51-3.93-5.69-14.61-8.5-19.94,0-.01-.01-.02-.02-.03,1.45-.85,2.94-1.7,4.43-2.54,1.12,2.05,7.22,13.38,8.38,19.97.02.1.03.18.05.28.03.15.05.29.06.44Z"/>
            <path class="cls-28" d="m92.73,77.15c-1.06.6-2.05,1.17-2.97,1.7-.08-.21-.16-.42-.25-.64-.84-2.15-1.95-4.94-3.15-7.79h0c-.13-.33-.26-.65-.4-.97.58-1.69,1.23-3.43,1.93-5.15.13.28.27.58.4.87,1.58,3.47,3.35,7.75,4.28,11.29.05.23.12.47.16.69Z"/>
            <path class="cls-28" d="m153.37,36.16h0c-.53,1.88-1.36,3.69-2.62,5.22-.09-.25.66-.7.56-.98-1.7-4.35-4.11-9.72-6.53-14.78-.03-.07-.92.05-.95-.01,1.3-.14,2.83-.21,4.43-.23.12.24.25.49.38.75,1.51,3,2.88,5.03,4.28,8.79.16.42.3.82.45,1.23Z"/>
            <path class="cls-14" d="m151.03,14.85c-2.49.47-5.67.77-9.45.51-11.1-7.22-22.38-13.29-22.82-13.52,2.89.8,15.76,3.77,21.8,7.08,2.79,1.52,6.6,3.69,10.47,5.94Z"/>
            <path class="cls-33" d="m180.18,38.4s-.02.01-.04.02c-1.2.63-2.67-.06-3.02-1.37-.29-1.11-.69-2.55-1.15-4.09-.73-2.41.51-4.15,1.3-4.96.65.7,2.34,3.15,2.91,10.4Z"/>
            <g>
              <path class="cls-27" d="m35.09,127.42c-7.03-3.25-23.32-13.06-28.72-16.21-.06-.03-.11-.07-.17-.11-.11-.07-.21-.14-.31-.22.51-1.42,1.91-4.5,4.38-4.15.03,0,.06,0,.1.01,2.8.49,16.98,9.11,21,11.58.69.42,1.21,1.07,1.46,1.84.59,1.74,1.68,5.03,2.27,7.26Z"/>
              <path class="cls-23" d="m35.09,127.42c-7.03-3.25-23.32-13.06-28.72-16.21-.06-.03-.11-.07-.17-.11.64-1.58,1.95-4.07,4.06-4.37.03,0,.06,0,.1.01,2.8.49,16.98,9.11,21,11.58.69.42,1.21,1.07,1.46,1.84.59,1.74,1.68,5.03,2.27,7.26Z"/>
            </g>
            <g>
              <path class="cls-27" d="m31.19,108.06c-.14.08-.34.07-.54-.05l-16.03-9.31c-.29-.16-.55-.5-.67-.87l-.41-2.46c-.04-.12.02-.2.11-.14l.13.07.39,2.37c.13.37.39.71.67.87l16.35,9.52Z"/>
              <path class="cls-28" d="m32.62,106.42l-1.3,1.5c-.03.06-.08.1-.13.14l-16.35-9.52c-.29-.17-.55-.5-.67-.87l-.39-2.37s5.39,3.5,9.11,5.68c5.48,3.2,9.63,5.17,9.63,5.17.09.05.15.2.11.27Z"/>
            </g>
            <g>
              <path class="cls-27" d="m29.42,110.16c-.12.07-.29.06-.46-.04l-13.94-8.05c-.25-.14-.47-.43-.57-.74l-.35-2.1c-.03-.1.01-.17.09-.12l.11.06.34,2.01c.11.31.33.6.57.74l14.22,8.23Z"/>
              <path class="cls-28" d="m30.62,108.75l-1.09,1.29c-.03.05-.07.09-.11.12l-14.22-8.23c-.25-.14-.47-.43-.57-.74l-.34-2.01s4.47,2.7,7.64,4.55c4.67,2.72,8.31,4.68,8.31,4.68.08.04.4.28.37.34Z"/>
            </g>
            <g>
              <path class="cls-21" d="m23.25,105.44c-1.35.06-3.04-.82-3.77-1.96-.73-1.14-.22-2.12,1.13-2.18,1.35-.06,3.04.82,3.77,1.96.73,1.14.22,2.12-1.13,2.18Z"/>
              <path class="cls-32" d="m23.06,105.24c-1.35.06-3.04-.82-3.77-1.96-.73-1.14-.22-2.12,1.13-2.18,1.35-.06,3.04.82,3.77,1.96.73,1.14.22,2.12-1.13,2.18Z"/>
              <path class="cls-15" d="m19.13,101.96s.53-1.73,4.04.38c3.51,2.12-4.42.53-4.04-.38Z"/>
            </g>
            <g>
              <polygon class="cls-38" points="27.88 119.56 11.43 110.06 11.43 104.52 27.88 114.01 27.88 119.56"/>
              <path class="cls-32" d="m28.1,119.93l-16.87-9.74v-6.04l16.87,9.74v6.04Zm-16.45-9.99l16.02,9.25v-5.06l-16.02-9.25v5.06Z"/>
            </g>
            <g>
              <path class="cls-40" d="m10.37,99.2s-5.13-1.65-9.38-4.4c.14-3.17.93-6.26,2.28-9.07,2.49,2.29,5.59,5.24,6.43,6.39,1.46,2.02.67,7.08.67,7.08Z"/>
              <g class="cls-41">
                <g>
                  <path class="cls-32" d="m5.24,94.97c-.15.09-.07.01-.23.1-.08.04-.15.08-.23.12h0c-.45.1-1-.01-1.59-.35-1.56-.9-2.83-3.1-2.83-4.9,0-.42.07-.77.19-1.07.28-.19.58-.37.89-.53.27-.14-.46-.17-.18-.29,2.88-1.24,5.98-.34,6.88,1.36.93,1.77-.06,3.88-2.89,5.57Z"/>
                  <path class="cls-38" d="m6.01,93.2c0,.71-.2,1.25-.53,1.6-.19.2-.43.33-.7.39h0c-.45.1-1-.01-1.59-.35-1.56-.9-2.83-3.1-2.83-4.9,0-.42.07-.77.19-1.07.3-.72.93-1.06,1.71-.92.29.05.61.17.93.35,1.56.9,2.83,3.1,2.83,4.9Z"/>
                  <path class="cls-37" d="m5,91.36c0,.64-.56,1.15-1.25,1.15s-1.25-.52-1.25-1.15.56-1.15,1.25-1.15,1.25.52,1.25,1.15Z"/>
                  <g>
                    <path class="cls-32" d="m4.35,94.9c-.36,0-.74-.12-1.14-.35-1.39-.8-2.53-2.77-2.53-4.38,0-1.13.54-1.82,1.42-1.82.36,0,.74.12,1.14.35,1.39.8,2.53,2.77,2.53,4.38,0,1.13-.54,1.82-1.42,1.82Zm-2.25-6.49c-.84,0-1.36.68-1.36,1.77,0,1.59,1.12,3.53,2.5,4.33.39.22.76.34,1.11.34.84,0,1.36-.68,1.36-1.77,0-1.59-1.12-3.53-2.5-4.33-.39-.22-.76-.34-1.11-.34Z"/>
                    <path class="cls-32" d="m4.46,94.24c-.36,0-.78-.15-1.24-.43-1.06-.66-1.88-2.09-1.88-3.26,0-.84.41-1.36,1.06-1.36.27,0,.55.09.85.26,1.07.62,1.56,2.2,1.88,3.25.17.56.16,1-.04,1.27-.14.18-.35.28-.63.28Zm-2.06-5c-.62,0-1.01.5-1.01,1.31,0,1.16.81,2.57,1.86,3.21.44.27.87.43,1.21.43.26,0,.46-.09.59-.26.19-.25.2-.67.03-1.21-.32-1.04-.8-2.61-1.86-3.22-.29-.17-.56-.25-.82-.25Z"/>
                    <path class="cls-32" d="m3.72,93.07c-.16,0-.33-.05-.5-.15-.61-.35-1.11-1.22-1.11-1.92,0-.49.25-.81.64-.81.16,0,.33.05.5.15.61.35,1.11,1.22,1.11,1.92,0,.49-.25.81-.64.81Zm-.98-2.83c-.36,0-.58.29-.58.75,0,.69.48,1.53,1.08,1.87.17.1.33.15.48.15.36,0,.58-.29.58-.75,0-.69-.48-1.53-1.08-1.87-.17-.1-.33-.15-.47-.15Z"/>
                  </g>
                </g>
                <g>
                  <path class="cls-32" d="m10.39,98.31c-.13.08-.06.01-.2.09-.07.04-.13.07-.2.11h0c-.4.09-.87-.01-1.39-.31-1.37-.79-2.48-2.71-2.48-4.29,0-.36.06-.68.17-.93.25-.16.51-.32.78-.46.24-.13-.4-.15-.16-.25,2.52-1.08,3.93-.04,4.72,1.44.82,1.54,1.25,3.14-1.23,4.61Z"/>
                  <path class="cls-38" d="m11.06,96.76c0,.62-.17,1.09-.46,1.39-.17.17-.38.29-.62.34h0c-.4.09-.87-.01-1.39-.31-1.37-.79-2.48-2.71-2.48-4.29,0-.36.06-.68.17-.93.26-.63.81-.93,1.5-.8.25.04.53.15.81.31,1.37.79,2.47,2.71,2.47,4.29Z"/>
                  <path class="cls-37" d="m10.18,95.15c0,.56-.49,1.01-1.09,1.01s-1.09-.45-1.09-1.01.49-1.01,1.09-1.01,1.09.45,1.09,1.01Z"/>
                  <g>
                    <path class="cls-32" d="m9.61,98.25c-.31,0-.65-.1-.99-.3-1.22-.7-2.21-2.42-2.21-3.83,0-.98.48-1.59,1.24-1.59.31,0,.65.1.99.3,1.22.7,2.21,2.42,2.21,3.83,0,.98-.48,1.59-1.24,1.59Zm-1.96-5.68c-.73,0-1.19.59-1.19,1.54,0,1.39.98,3.09,2.19,3.78.34.2.67.3.97.3.73,0,1.19-.59,1.19-1.54,0-1.39-.98-3.09-2.18-3.79-.34-.2-.67-.3-.97-.3Z"/>
                    <path class="cls-32" d="m9.7,97.67c-.31,0-.69-.13-1.08-.38-.92-.57-1.65-1.83-1.65-2.85,0-.74.36-1.19.93-1.19.23,0,.48.08.74.23.94.54,1.36,1.93,1.65,2.85.15.49.14.87-.03,1.11-.12.16-.31.24-.55.24Zm-1.8-4.37c-.54,0-.88.44-.88,1.14,0,1.01.71,2.24,1.62,2.81.39.24.76.37,1.06.37.23,0,.41-.08.51-.22.16-.22.17-.59.02-1.06-.28-.91-.7-2.29-1.62-2.82-.25-.15-.49-.22-.72-.22Z"/>
                    <path class="cls-32" d="m9.06,96.65c-.14,0-.29-.05-.44-.13-.54-.31-.97-1.06-.97-1.68,0-.43.22-.71.56-.71.14,0,.29.05.44.13.54.31.97,1.06.97,1.68,0,.43-.22.71-.56.71Zm-.86-2.47c-.31,0-.5.25-.5.66,0,.6.42,1.34.95,1.64.15.08.29.13.42.13.31,0,.5-.25.5-.66,0-.6-.42-1.34-.94-1.64-.15-.08-.29-.13-.42-.13Z"/>
                  </g>
                </g>
              </g>
            </g>
            <g>
              <path class="cls-4" d="m51.71,108.22s-11.03-1.55-13.52-1.36c-2.49.19-5.84,4.06-5.84,4.06,0,0,14.33,8.92,19.18,3.34,4.85-5.58.18-6.04.18-6.04Z"/>
              <g>
                <path class="cls-32" d="m41.08,113.89c-.13.08-.06,0-.2.09-.07.04-.13.07-.2.11h0c-.4.09-.88-.01-1.39-.31-1.37-.79-2.48-2.71-2.48-4.29,0-.36.06-.68.17-.93.25-.16.51-.32.78-.46.24-.13-.4-.15-.16-.25,2.52-1.08,3.93-.04,4.72,1.44.82,1.54,1.25,3.14-1.23,4.61Z"/>
                <path class="cls-38" d="m41.75,112.35c0,.62-.17,1.09-.46,1.39-.17.17-.38.29-.62.34h0c-.4.09-.88-.01-1.39-.31-1.37-.79-2.48-2.71-2.48-4.29,0-.36.06-.68.17-.93.26-.63.81-.93,1.5-.8.25.04.53.15.81.31,1.37.79,2.47,2.71,2.47,4.29Z"/>
                <ellipse class="cls-37" cx="39.78" cy="110.74" rx="1.09" ry="1.01"/>
                <g>
                  <path class="cls-32" d="m40.3,113.83c-.31,0-.64-.1-.99-.3-1.22-.7-2.21-2.42-2.21-3.83,0-.98.48-1.59,1.24-1.59.31,0,.65.1.99.3,1.22.7,2.21,2.42,2.21,3.83,0,.98-.48,1.59-1.24,1.59Zm-1.96-5.68c-.73,0-1.19.59-1.19,1.54,0,1.39.98,3.09,2.18,3.79.34.2.67.3.97.3.74,0,1.19-.59,1.19-1.54,0-1.39-.98-3.09-2.19-3.79-.34-.2-.67-.3-.97-.3Z"/>
                  <path class="cls-32" d="m40.39,113.26c-.31,0-.69-.13-1.09-.38-.92-.57-1.65-1.83-1.65-2.85,0-.74.36-1.19.93-1.19.23,0,.48.08.74.23.94.54,1.36,1.93,1.65,2.85.15.49.14.87-.03,1.11-.12.16-.31.24-.55.24Zm-1.8-4.37c-.54,0-.88.44-.88,1.14,0,1.01.71,2.24,1.62,2.81.39.24.76.37,1.06.37.23,0,.41-.08.51-.22.16-.22.17-.59.02-1.06-.28-.91-.7-2.29-1.62-2.82-.25-.15-.49-.22-.72-.22Z"/>
                  <path class="cls-32" d="m39.75,112.23c-.14,0-.29-.05-.44-.13-.54-.31-.97-1.06-.97-1.68,0-.43.22-.71.56-.71.14,0,.29.05.44.13.54.31.97,1.06.97,1.68,0,.43-.22.71-.56.71Zm-.86-2.47c-.31,0-.5.25-.5.66,0,.6.42,1.34.94,1.64.15.08.29.13.42.13.31,0,.5-.25.5-.66,0-.6-.42-1.34-.94-1.64-.15-.08-.29-.13-.42-.13Z"/>
                </g>
              </g>
              <g>
                <path class="cls-32" d="m47.31,115.28c-.15.09-.07.01-.23.1-.08.04-.15.08-.23.12h0c-.45.1-1-.01-1.59-.35-1.56-.9-2.83-3.1-2.83-4.9,0-.42.07-.77.19-1.07.28-.19.58-.37.89-.53.27-.14-.46-.17-.18-.29,2.88-1.24,5.98-.34,6.88,1.35.93,1.77-.06,3.88-2.89,5.57Z"/>
                <path class="cls-38" d="m48.08,113.51c0,.71-.2,1.25-.53,1.6-.19.2-.43.33-.7.39h0c-.45.1-1-.01-1.59-.35-1.56-.9-2.83-3.1-2.83-4.9,0-.42.07-.77.19-1.07.3-.72.93-1.06,1.71-.92.29.05.61.17.93.35,1.56.9,2.83,3.1,2.83,4.9Z"/>
                <path class="cls-37" d="m47.07,111.67c0,.64-.56,1.15-1.25,1.15s-1.25-.52-1.25-1.15.56-1.15,1.25-1.15,1.25.52,1.25,1.15Z"/>
                <g>
                  <path class="cls-32" d="m46.42,115.21c-.36,0-.74-.12-1.14-.35-1.39-.8-2.53-2.77-2.53-4.38,0-1.13.54-1.82,1.42-1.82.36,0,.74.12,1.14.35,1.39.81,2.53,2.77,2.53,4.38,0,1.13-.54,1.82-1.42,1.82Zm-2.25-6.49c-.84,0-1.36.68-1.36,1.77,0,1.59,1.12,3.53,2.5,4.33.39.22.76.34,1.11.34.84,0,1.36-.68,1.36-1.77,0-1.59-1.12-3.53-2.5-4.33-.39-.22-.76-.34-1.11-.34Z"/>
                  <path class="cls-32" d="m46.52,114.55c-.36,0-.78-.15-1.24-.43-1.06-.66-1.88-2.09-1.88-3.26,0-.84.41-1.36,1.06-1.36.27,0,.55.09.85.26,1.07.62,1.56,2.21,1.88,3.25.17.56.16,1-.04,1.27-.14.18-.35.28-.63.28Zm-2.06-5c-.62,0-1.01.5-1.01,1.31,0,1.16.81,2.57,1.86,3.21.44.27.87.42,1.21.42.26,0,.46-.09.59-.26.19-.25.19-.67.03-1.21-.32-1.04-.8-2.61-1.86-3.22-.29-.17-.57-.25-.82-.25Z"/>
                  <path class="cls-32" d="m45.79,113.38c-.16,0-.33-.05-.5-.15-.61-.35-1.11-1.22-1.11-1.92,0-.49.25-.81.64-.81.16,0,.33.05.5.15.61.35,1.11,1.22,1.11,1.92,0,.49-.25.81-.64.81Zm-.98-2.83c-.36,0-.58.29-.58.75,0,.69.48,1.53,1.08,1.87.17.1.33.15.48.15.36,0,.58-.29.58-.75,0-.69-.49-1.53-1.08-1.87-.17-.1-.33-.15-.48-.15Z"/>
                </g>
              </g>
              <path class="cls-13" d="m51.71,108.22s-11.03-1.55-13.52-1.36c-2.49.19-5.84,4.06-5.84,4.06,0,0,14.33,8.92,19.18,3.34,4.85-5.58.18-6.04.18-6.04Z"/>
              <path class="cls-18" d="m34.53,109.81c.04.27,1.94-1.84,8.37-2.13,6.54-.29,8.93,1.95,8.93,1.95,0,0-2.17,8.3-17.31.17Z"/>
            </g>
            <path class="cls-19" d="m9.59,95.94c.29,2.3-4.28.06-8.5-2.45.24-2.44.87-4.83,1.86-7.05,2.25,1.88,6.17,5.66,6.64,9.49Z"/>
            <path class="cls-7" d="m179.35,59.2c-.47.56-1.06,1.13-1.76,1.75.43-1.65.66-3.29.66-4.86,0-7.43-5.22-10.45-11.66-6.73-6.44,3.72-11.66,12.76-11.66,20.2,0,1.99.38,3.67,1.05,4.98-.39.23-.79.46-1.19.69-.58.34-1.17.69-1.78,1.03l-.05-.09c-.97-1.86-1.42-4.09-1.46-6.61-.14-8.58,4.41-18.01,13.37-23.17,2.36-1.36,4.69-2.05,6.92-2.05,4.69,0,8.16,2.98,9.39,7.73.24,2.7.29,4.63-1.84,7.12Z"/>
            <path class="cls-27" d="m179.62,56.1c0,1.01-.09,2.05-.27,3.1-.47.56-1.06,1.13-1.76,1.75.43-1.65.66-3.29.66-4.86,0-7.43-5.22-10.45-11.66-6.73-6.44,3.72-11.66,12.76-11.66,20.2,0,1.99.38,3.67,1.05,4.98-.39.23-.79.46-1.19.69-.8-1.54-1.23-3.45-1.23-5.67,0-7.86,5.54-17.46,12.34-21.38,2.04-1.18,4.02-1.78,5.89-1.78,4.75,0,7.82,3.8,7.82,9.69Z"/>
            <path class="cls-8" d="m90.87,109.79c0,.69-.04,1.41-.12,2.13h0c-.76.43-1.51.86-2.26,1.28-.53.3-1.05.6-1.57.89.34-1.46.52-2.91.52-4.3,0-7.44-5.22-10.45-11.66-6.73-6.44,3.71-11.66,12.75-11.66,20.19,0,1.31.16,2.48.47,3.51-.42.24-.83.47-1.22.69-.65.37-1.26.71-1.82,1.03l-.13-.39c-.48-1.45-.72-3.08-.72-4.83,0-8.66,5.87-18.83,13.37-23.17,2.36-1.36,4.69-2.05,6.92-2.05,5.91,0,9.88,4.72,9.88,11.75Z"/>
            <path class="cls-27" d="m88.82,109.79c0,1.11-.11,2.26-.32,3.41-.53.3-1.05.6-1.57.89.34-1.46.52-2.91.52-4.3,0-7.44-5.22-10.45-11.66-6.73-6.44,3.71-11.66,12.75-11.66,20.19,0,1.31.16,2.48.47,3.51-.42.24-.83.47-1.22.69-.4-1.23-.62-2.64-.62-4.19,0-7.86,5.54-17.45,12.34-21.38,2.04-1.18,4.02-1.78,5.89-1.78,4.75,0,7.82,3.8,7.82,9.7Z"/>
            <path class="cls-6" d="m65.23,113.37s-1.09.95-2,1.43c-3.21,1.73-10.34,5.25-18.25,4.54-2.56-.23-7.34-1.5-11.34-3.51C23.48,110.71,10.19,103.03,0,96.93c0-.16,0-.35,0-.58.02-.44,1.03-.88,1.08-1.32,0-.01,0-.03,0-.05,2.05,1.18,4.27,2.46,6.62,3.82,5.89,3.42,13.76,7.83,21.19,11.88,3.78,2.06,7.59,3.43,10.8,4.8,5.96,2.55,10.03,2.13,16.26.35,1.79-.51,3.04-1.25,5.15-2.12.77-.32,1.57-.95,2.39-1.34l1.73.99Z"/>
            <path class="cls-5" d="m147.19,64.65c-5.62,5.15-49.66,34.02-57.49,39.14-.63-1.43-1.51-2.64-2.58-3.56,5.62-4.55,56.83-45.91,62.99-46.89,0,0,3.26,5.65-2.91,11.31Z"/>
            <g>
              <g>
                <path class="cls-23" d="m91.45,73.15c-.28.2-.57.39-.87.56-.97.56-3.18,2.04-2.12,3.41.04-1.47,2.83-2.85,2.83-2.85,0,0,7.97-6.3,11.88-.93.16.22.29.43.39.64-.09-.45-.3-.92-.67-1.42-3.36-4.6-9.7-.62-11.43.6Z"/>
                <path class="cls-27" d="m90.72,74.58c-.82.49-2.24,1.49-2.26,2.54.22.29.59.57,1.16.85,3.54,1.69,14.76.28,13.94-3.99h0c-.1-.21-.23-.42-.39-.64-3.26-4.47-9.34-.84-11.27.49-.38.26-.77.52-1.17.76Z"/>
              </g>
              <path class="cls-23" d="m86.75,75.37l2.63-.27s1.77,2.25.33,3.15c-1.44.9-5.01,2.48-5.29.84,0-.02,0-.04,0-.05-.26-1.63.76-3.19,2.34-3.67Z"/>
            </g>
          </g>
        </g>
      </g>
    </g>
  </g>
</svg>