<?xml version="1.0" encoding="UTF-8"?>
<svg id="Layer_2" data-name="Layer 2" xmlns="http://www.w3.org/2000/svg" viewBox="0 0 41.73 48.7">
  <defs>
    <style>
      .cls-1 {
        fill: #3f403f;
      }

      .cls-1, .cls-2, .cls-3 {
        stroke-width: 0px;
      }

      .cls-2 {
        fill: #ffc60b;
      }

      .cls-3 {
        fill: #fafafd;
      }
    </style>
  </defs>
  <g id="Layer_1-2" data-name="Layer 1">
    <g>
      <path class="cls-3" d="m13.45,41.28c0,4.1,3.32,7.42,7.42,7.42s7.42-3.32,7.42-7.42-3.32-7.42-7.42-7.42-7.42,3.32-7.42,7.42Z"/>
      <path class="cls-1" d="m21.46,0h-1.18v34.08h1.18V0Z"/>
      <path class="cls-2" d="m10.93,29.32c6.03-1.48,7.81-4.65,8.01-6.92h3.86c.2,2.27,1.98,5.44,8.01,6.92,6.72,1.65,10.28,5.44,10.28,12.16H.64c0-6.72,3.57-10.51,10.28-12.16Z"/>
      <path class="cls-1" d="m0,41.53c0,.41.33.74.74.74h40.25c.41,0,.74-.33.74-.74s-.33-.74-.74-.74H.74c-.41,0-.74.33-.74.74Z"/>
      <path class="cls-1" d="m18.37,20.81h5.01c.53,0,.95.43.95.96v1.45c0,.53-.43.96-.95.96h-5.01c-.53,0-.96-.43-.96-.96v-1.45c0-.53.43-.96.96-.96Z"/>
    </g>
  </g>
</svg>