<?xml version="1.0" encoding="UTF-8"?>
<svg id="Layer_2" data-name="Layer 2" xmlns="http://www.w3.org/2000/svg" viewBox="0 0 109.29 93.84">
  <defs>
    <style>
      .cls-1 {
        fill: #4c4c4c;
      }

      .cls-1, .cls-2, .cls-3, .cls-4, .cls-5, .cls-6, .cls-7, .cls-8, .cls-9 {
        stroke-width: 0px;
      }

      .cls-2 {
        fill: #3f403f;
      }

      .cls-3 {
        fill: #414141;
      }

      .cls-4 {
        fill: #098e7a;
      }

      .cls-5 {
        fill: #21282c;
      }

      .cls-6 {
        fill: #131b1f;
      }

      .cls-7 {
        fill: #c26916;
      }

      .cls-8 {
        fill: #f15523;
      }

      .cls-9 {
        fill: #ffc60b;
      }
    </style>
  </defs>
  <g id="Layer_1-2" data-name="Layer 1">
    <g>
      <path class="cls-2" d="m6.82,93.84H1.97l4.48-7.21h4.85l-4.48,7.21Z"/>
      <path class="cls-2" d="m100.96,93.84h4.85l-4.48-7.21h-4.85l4.48,7.21Z"/>
      <path class="cls-9" d="m109.29,50.84H0v36.23h109.29v-36.23Z"/>
      <path class="cls-7" d="m104.99,54.2H4.3v32.87h100.69v-32.87Z"/>
      <path class="cls-9" d="m106.66,72.29H3.19v3.45h103.47v-3.45Z"/>
      <path class="cls-9" d="m106.66,83.55H3.19v3.52h103.47v-3.52Z"/>
      <path class="cls-4" d="m10.26,57.03h-4.05v15.15h4.05v-15.15Z"/>
      <path class="cls-4" d="m100.29,56.61l-6.19,14.25,3.86,1.15,6.19-14.25-3.86-1.15Z"/>
      <path class="cls-8" d="m14.41,56.68l3.22,14.91-4,.59-3.22-14.9,4-.6Z"/>
      <path class="cls-9" d="m23.46,56.75l5.83,14.35-3.88,1.08-5.83-14.35,3.88-1.08Z"/>
      <path class="cls-9" d="m19.23,56.68l3.22,14.91-4,.59-3.22-14.9,4-.6Z"/>
      <path class="cls-8" d="m87.75,56.5l-3.22,14.91,4,.6,3.22-14.91-4-.59Z"/>
      <path class="cls-9" d="m92.7,56.5l-3.22,14.91,4,.6,3.22-14.91-4-.59Z"/>
      <path class="cls-2" d="m68.35,66.28h-27.3v5.91h27.3v-5.91Z"/>
      <path class="cls-9" d="m36.71,73.84h-4.3v12.35h4.3v-12.35Z"/>
      <path class="cls-9" d="m76.45,73.84h-4.3v12.35h4.3v-12.35Z"/>
      <path class="cls-2" d="m55.74,44.49h-2.18v5.42h2.18v-5.42Z"/>
      <path class="cls-6" d="m55.74,44.49h-2.18v2.43h2.18v-2.43Z"/>
      <path class="cls-6" d="m55.74,48.8h-2.18v1.58h2.18v-1.58Z"/>
      <path class="cls-2" d="m39.42,50.77h30.45l-.68-1.52h-29.1l-.67,1.52Z"/>
      <path class="cls-2" d="m15.55,0h78.19c.27,0,.5.22.5.5v45.33c0,.27-.22.5-.5.5H15.55c-.28,0-.5-.22-.5-.5V.5c0-.27.22-.5.5-.5Z"/>
      <path class="cls-5" d="m92.98,1.13H16.31v44.05h76.67V1.13Z"/>
      <path class="cls-1" d="m92.49,1.47H16.8v43.25h75.7V1.47Z"/>
      <path class="cls-3" d="m16.8,44.73h75.7V1.47L16.8,44.73Z"/>
    </g>
  </g>
</svg>