<?xml version="1.0" encoding="UTF-8"?>
<svg id="Layer_2" data-name="Layer 2" xmlns="http://www.w3.org/2000/svg" viewBox="0 0 29.07 105.43">
  <defs>
    <style>
      .cls-1 {
        fill: #3f403f;
      }

      .cls-1, .cls-2, .cls-3, .cls-4 {
        stroke-width: 0px;
      }

      .cls-2 {
        fill: #f15523;
      }

      .cls-3 {
        fill: #ffc60b;
      }

      .cls-4 {
        fill: #fafafd;
      }
    </style>
  </defs>
  <g id="Layer_1-2" data-name="Layer 1">
    <g>
      <path class="cls-1" d="m15.13,0h-1.18v71.58h1.18V0Z"/>
      <path class="cls-4" d="m9.1,99.99c0,3.01,2.44,5.44,5.44,5.44s5.44-2.43,5.44-5.44-2.44-5.44-5.44-5.44-5.44,2.44-5.44,5.44Z"/>
      <path class="cls-3" d="m6.54,98.66h15.99c.61,0,1.11.5,1.11,1.11v.31c0,.61-.5,1.11-1.11,1.11H6.54c-.61,0-1.11-.5-1.11-1.11v-.31c0-.61.5-1.11,1.11-1.11Z"/>
      <path class="cls-2" d="m11.67,77.5c2.36-3.3.19-6.96.19-6.96h5.35s-2.17,3.66.19,6.96c3.82,5.33,11.67,6.86,11.67,14.41s-5.88,8.14-5.88,8.14H5.88s-5.88-.59-5.88-8.14,7.84-9.07,11.67-14.41Z"/>
      <path class="cls-3" d="m11.29,70.5c0,.34.27.61.61.61h5.28c.34,0,.61-.27.61-.61s-.27-.61-.61-.61h-5.28c-.34,0-.61.27-.61.61Z"/>
      <path class="cls-3" d="m12.18,74.55c0,.34.27.61.61.61h3.49c.34,0,.61-.28.61-.61s-.27-.61-.61-.61h-3.49c-.34,0-.61.27-.61.61Z"/>
    </g>
  </g>
</svg>