<?xml version="1.0" encoding="UTF-8"?>
<svg id="Layer_2" data-name="Layer 2" xmlns="http://www.w3.org/2000/svg" viewBox="0 0 172.98 601.27">
  <defs>
    <style>
      .cls-1, .cls-2, .cls-3 {
        stroke-width: 0px;
      }

      .cls-2 {
        fill: #fff;
      }

      .cls-3 {
        fill: #ff1d25;
      }
    </style>
  </defs>
  <g id="Layer_1-2" data-name="Layer 1">
    <g>
      <path class="cls-1" d="m115.81,447.31V7.21c0-3.98-3.23-7.21-7.21-7.21h-60.42c-3.98,0-7.21,3.23-7.21,7.21v442.77C16.51,463.91,0,490.19,0,520.35c0,44.7,36.23,80.93,80.93,80.93s80.93-36.23,80.93-80.93c0-32.2-18.81-60.01-46.05-73.04Zm-36.93,138.32c-36.27,0-65.67-29.4-65.67-65.67,0-28.04,17.58-51.97,42.32-61.38V26.59c0-2.48,2.01-4.5,4.5-4.5h37.69c2.48,0,4.5,2.01,4.5,4.5v431.99c24.74,9.41,42.32,33.34,42.32,61.38,0,36.27-29.4,65.67-65.67,65.67Z"/>
      <circle class="cls-3" cx="78.88" cy="519.96" r="56.05"/>
      <rect class="cls-1" x="121.18" y="430.44" width="51.34" height="13.28" rx="1.28" ry="1.28"/>
      <rect class="cls-1" x="121.18" y="308.86" width="51.34" height="13.28" rx="1.28" ry="1.28"/>
      <path class="cls-3" d="m64.35,439.42h28.71c.63,0,1.13.51,1.13,1.13v68.66c0,.36-.29.65-.65.65h-29.34c-.36,0-.65-.29-.65-.65v-69c0-.44.36-.79.79-.79Z"/>
      <path class="cls-2" d="m102.22,458.58V26.59c0-2.48-2.01-4.5-4.5-4.5h-37.69c-2.48,0-4.5,2.01-4.5,4.5v431.99c-24.74,9.41-42.32,33.34-42.32,61.38,0,36.27,29.4,65.67,65.67,65.67s65.67-29.4,65.67-65.67c0-28.04-17.58-51.97-42.32-61.38Zm-23.34,117.43c-30.96,0-56.05-25.09-56.05-56.05,0-22.62,13.41-42.09,32.71-50.94,2.58-1.18,5.26-2.18,8.02-2.97V32.79c0-1.14.93-2.07,2.07-2.07h25.61c1.63,0,2.96,1.33,2.96,2.96v432.36c2.77.79,5.45,1.79,8.02,2.97,19.3,8.85,32.71,28.32,32.71,50.94,0,30.96-25.09,56.05-56.05,56.05Z"/>
      <rect class="cls-1" x="121.18" y="399.89" width="35.53" height="13.28" rx="1.28" ry="1.28"/>
      <rect class="cls-1" x="121.18" y="369.11" width="35.53" height="13.28" rx="1.28" ry="1.28"/>
      <rect class="cls-1" x="121.18" y="338.49" width="35.53" height="13.28" rx="1.28" ry="1.28"/>
      <rect class="cls-1" x="121.65" y="181.84" width="51.34" height="13.28" rx="1.28" ry="1.28"/>
      <rect class="cls-1" x="121.65" y="272.88" width="35.53" height="13.28" rx="1.28" ry="1.28"/>
      <rect class="cls-1" x="121.65" y="242.1" width="35.53" height="13.28" rx="1.28" ry="1.28"/>
      <rect class="cls-1" x="121.65" y="211.48" width="35.53" height="13.28" rx="1.28" ry="1.28"/>
      <rect class="cls-1" x="121.65" y="55.8" width="51.34" height="13.28" rx="1.28" ry="1.28"/>
      <rect class="cls-1" x="121.65" y="146.84" width="35.53" height="13.28" rx="1.28" ry="1.28"/>
      <rect class="cls-1" x="121.65" y="116.06" width="35.53" height="13.28" rx="1.28" ry="1.28"/>
      <rect class="cls-1" x="121.65" y="85.43" width="35.53" height="13.28" rx="1.28" ry="1.28"/>
    </g>
  </g>
</svg>