<?xml version="1.0" encoding="UTF-8"?>
<svg id="Layer_2" data-name="Layer 2" xmlns="http://www.w3.org/2000/svg" viewBox="0 0 45.6 45.59">
  <defs>
    <style>
      .cls-1 {
        fill: #3f403f;
      }

      .cls-1, .cls-2, .cls-3, .cls-4 {
        stroke-width: 0px;
      }

      .cls-2 {
        fill: #098e7a;
      }

      .cls-3 {
        fill: #f15523;
      }

      .cls-4 {
        fill: #fff;
      }
    </style>
  </defs>
  <g id="Layer_1-2" data-name="Layer 1">
    <g>
      <path class="cls-2" d="m45.6,22.8c0,12.59-10.21,22.8-22.8,22.8S0,35.39,0,22.8,10.2,0,22.8,0s22.8,10.21,22.8,22.8Z"/>
      <path class="cls-4" d="m41.9,22.8c0,10.55-8.55,19.11-19.11,19.11S3.69,33.35,3.69,22.8,12.25,3.69,22.8,3.69s19.11,8.55,19.11,19.1Z"/>
      <path class="cls-1" d="m21.5,6.91h0l-.48.23-.1-.44.66-.31h.49v2.51h-.57v-1.99Z"/>
      <path class="cls-1" d="m22.89,8.89v-.36l.32-.29c.55-.49.81-.77.82-1.06,0-.2-.12-.37-.41-.37-.22,0-.41.11-.54.21l-.17-.42c.19-.14.48-.26.82-.26.57,0,.88.33.88.79,0,.42-.3.76-.67,1.08l-.23.19h0s.94,0,.94,0v.48h-1.78Z"/>
      <path class="cls-1" d="m6.25,23.64c.07,0,.14,0,.25,0,.18-.01.36-.06.49-.15.16-.11.27-.27.32-.46h-.01c-.11.11-.28.18-.5.18-.42,0-.78-.3-.78-.78s.39-.9.95-.9c.64,0,.95.49.95,1.08,0,.52-.17.9-.44,1.15-.24.22-.57.33-.96.35-.1,0-.2,0-.27,0v-.46h0Zm.36-1.26c0,.22.11.4.36.4.16,0,.27-.08.32-.16.02-.03.03-.07.03-.15,0-.27-.1-.53-.37-.53-.2,0-.35.18-.34.44h0Z"/>
      <path class="cls-1" d="m9.04,13.83h0l-.48.23-.1-.44.66-.31h.49v2.5h-.57v-1.98Z"/>
      <path class="cls-1" d="m12.28,14.55c0,.77-.31,1.31-.95,1.31s-.93-.58-.94-1.29c0-.72.31-1.3.96-1.3s.93.6.93,1.29h0Zm-1.3.02c0,.57.13.85.36.85s.35-.28.35-.85-.12-.85-.36-.85c-.21,0-.36.27-.36.85h0Z"/>
      <path class="cls-1" d="m35.39,15.81v-.35l.32-.29c.55-.49.81-.77.82-1.07,0-.2-.12-.37-.41-.37-.22,0-.41.11-.54.21l-.16-.42c.19-.14.48-.26.82-.26.57,0,.88.33.88.79,0,.42-.3.76-.67,1.08l-.23.19h0s.94,0,.94,0v.48h-1.78Z"/>
      <path class="cls-1" d="m8.25,32.01c0-.3.17-.51.45-.63h0c-.24-.13-.36-.34-.36-.56,0-.42.38-.71.88-.71.58,0,.83.34.83.64,0,.22-.11.43-.36.55h0c.24.11.46.31.46.64,0,.46-.38.76-.96.76-.63,0-.93-.36-.93-.7h0Zm1.3-.02c0-.22-.16-.35-.39-.42-.19.06-.3.19-.3.38,0,.18.14.35.36.35.21,0,.34-.13.34-.31Zm-.66-1.19c0,.17.15.27.36.34.13-.04.25-.16.25-.32s-.09-.31-.3-.31c-.2,0-.3.13-.3.29h0Z"/>
      <path class="cls-1" d="m36.18,32.67v-.6h-1.11v-.38l.95-1.53h.71v1.47h.3v.44h-.3v.6h-.55,0Zm0-1.04v-.56c0-.15,0-.3.02-.46h-.02c-.08.16-.15.31-.23.46l-.34.55h0s.57,0,.57,0h0Z"/>
      <path class="cls-1" d="m14.7,8.35h0l-.48.23-.1-.44.66-.31h.49v2.5h-.57v-1.98Z"/>
      <path class="cls-1" d="m16.84,8.35h0l-.48.23-.1-.44.67-.31h.49v2.5h-.57v-1.98Z"/>
      <path class="cls-1" d="m30.53,8.59h0l-.48.23-.1-.44.66-.31h.49v2.51h-.57v-1.99Z"/>
      <path class="cls-1" d="m15.75,35.34v.37l-1.03,2.14h-.62l1.03-2.02h0s-1.15,0-1.15,0v-.48h1.77Z"/>
      <path class="cls-1" d="m31.22,35.83h-.97l-.06.38c.06,0,.1,0,.16,0,.24,0,.48.05.66.18.19.13.3.33.3.63,0,.46-.4.88-1.07.88-.3,0-.56-.07-.7-.14l.11-.44c.11.06.34.12.57.12.24,0,.5-.11.5-.38s-.2-.41-.71-.41c-.14,0-.24,0-.34.03l.16-1.32h1.38v.48h0Z"/>
      <path class="cls-1" d="m38.14,23.49c.1.06.34.15.58.15.3,0,.46-.15.46-.33,0-.25-.25-.36-.51-.36h-.24v-.42h.23c.2,0,.45-.08.45-.29,0-.15-.12-.26-.37-.26-.2,0-.42.09-.53.15l-.12-.42c.15-.1.45-.19.77-.19.54,0,.83.28.83.62,0,.27-.15.47-.46.58.3.06.54.29.54.62,0,.44-.39.76-1.02.76-.32,0-.6-.08-.74-.18l.12-.44h0Z"/>
      <path class="cls-1" d="m23.56,37.33c-.07,0-.13,0-.23,0-.52.04-.75.31-.82.6h.01c.12-.13.3-.2.53-.2.42,0,.77.3.77.82s-.38.91-.93.91c-.67,0-.99-.5-.99-1.1,0-.47.17-.86.44-1.11.25-.23.58-.35.97-.37.11,0,.18,0,.24,0v.45h0Zm-.32,1.25c0-.23-.13-.43-.38-.43-.16,0-.29.1-.35.22-.02.03-.02.08-.02.15.01.27.14.51.41.51.21,0,.34-.19.34-.44h0Z"/>
      <path class="cls-1" d="m7.56,13.93s-.08-.01-.12-.03l-.72-.44c-.11-.07-.15-.22-.08-.33.07-.11.22-.15.33-.08l.72.44c.11.07.15.22.08.33-.05.08-.12.12-.21.12h0Z"/>
      <path class="cls-1" d="m38.67,32.64s-.08-.01-.12-.03l-.72-.44c-.11-.07-.15-.22-.08-.33.07-.11.22-.15.33-.08l.72.44c.11.07.15.22.08.33-.05.08-.13.11-.21.11h0Z"/>
      <path class="cls-1" d="m13.97,7.67c-.09,0-.17-.04-.21-.12l-.42-.73c-.07-.11-.03-.26.09-.33.11-.07.26-.03.33.09l.42.73c.07.11.02.26-.09.33-.04.02-.08.03-.12.03h0Z"/>
      <path class="cls-1" d="m31.96,39.2c-.08,0-.17-.04-.21-.12l-.42-.73c-.06-.11-.02-.26.09-.33.11-.06.26-.02.33.09l.42.73c.07.11.03.26-.09.33-.04.02-.08.03-.12.03h0Z"/>
      <path class="cls-1" d="m31.74,7.78s-.08-.01-.12-.03c-.11-.07-.15-.22-.08-.33l.43-.73c.07-.11.22-.15.33-.08.11.07.15.22.08.33l-.43.73c-.05.08-.13.12-.21.12Z"/>
      <path class="cls-1" d="m13.35,39.09s-.08-.01-.12-.03c-.11-.07-.15-.22-.08-.33l.43-.73c.07-.11.22-.15.33-.08.11.07.15.22.08.33l-.43.73c-.05.08-.13.12-.21.12Z"/>
      <path class="cls-1" d="m37.9,13.84c-.08,0-.16-.04-.21-.11-.07-.11-.03-.26.08-.33l.72-.44c.11-.07.26-.03.33.08.07.11.03.26-.08.33l-.72.44s-.08.03-.13.03h0Z"/>
      <path class="cls-1" d="m6.9,32.73c-.08,0-.16-.04-.21-.11-.07-.11-.03-.26.08-.33l.72-.44c.11-.07.26-.03.33.08.07.11.03.26-.08.33l-.72.44s-.08.03-.13.03h0Z"/>
      <path class="cls-1" d="m22.73,5.34c-.13,0-.24-.11-.24-.24v-.84c0-.13.11-.24.24-.24s.24.11.24.24v.84c0,.13-.11.24-.24.24Z"/>
      <path class="cls-1" d="m22.79,41.64c-.13,0-.24-.11-.24-.24v-.84c0-.14.11-.24.24-.24s.24.11.24.24v.84c0,.14-.11.24-.24.24Z"/>
      <path class="cls-1" d="m40.49,23.04c-.13,0-.24-.11-.24-.24s.11-.24.24-.24h.84c.14,0,.24.11.24.24s-.11.24-.24.24h-.85,0Z"/>
      <path class="cls-1" d="m4.19,23.1c-.14,0-.24-.11-.24-.24s.11-.24.24-.24h.85c.13,0,.24.11.24.24s-.11.24-.24.24h-.85Z"/>
      <path class="cls-3" d="m24.43,11.52l-1.59-2.26-1.6,2.26h.93v10.79h1.32v-10.79h.93Z"/>
      <path class="cls-3" d="m16.85,16.72l-2.77-.02.9,2.61.55-.76,7.01,4.97.77-1.08-7.01-4.97.55-.76Z"/>
      <path class="cls-1" d="m24.48,22.8c0,.93-.76,1.69-1.69,1.69s-1.69-.76-1.69-1.69.75-1.69,1.69-1.69,1.69.76,1.69,1.69Z"/>
    </g>
  </g>
</svg>