<svg width="210" height="75" viewBox="0 0 210 75" fill="none" xmlns="http://www.w3.org/2000/svg">
<g clip-path="url(#clip0_25_609)">
<path d="M0 0V71H105H210V0H0ZM173.91 60.86H47.22C1.82 60.86 5.51 22.76 5.51 22.76L167.21 24.17L203.91 8.09C203.91 62.23 173.91 60.86 173.91 60.86Z" fill="#098E7A"/>
<path d="M5.51292 22.7614C5.51292 22.7614 1.8224 60.8624 47.2176 60.8624H173.912C173.912 60.8624 203.907 62.2343 203.907 8.09058L167.21 24.1749L5.51292 22.7614Z" fill="#E2E2E2" fill-opacity="0.4"/>
<path d="M40.8144 65.5945C38.6919 66.6446 40.9992 70.76 40.2142 72.8986C39.5981 74.5781 32.6702 75.6596 29.7209 74.446C28.9141 74.1139 28.4033 73.6097 28.4033 72.8986C28.4033 69.5899 32.3244 69.5899 35.4147 68.5398C38.507 67.4896 33.5247 61.2739 37.5829 59.2553C41.3569 57.3793 45.8901 57.701 47.1043 59.5891C47.1938 59.7317 47.2673 59.883 47.319 60.0429C48.8791 64.8642 42.9349 64.5426 40.8144 65.5927V65.5945Z" fill="#A5A4A0"/>
<path d="M179.758 65.5945C181.881 66.6446 179.574 70.76 180.359 72.8986C180.975 74.5781 187.903 75.6596 190.852 74.446C191.659 74.1139 192.169 73.6097 192.169 72.8986C192.169 69.5899 188.248 69.5899 185.158 68.5398C182.066 67.4896 187.048 61.2739 182.99 59.2553C179.216 57.3793 174.683 57.701 173.468 59.5891C173.379 59.7317 173.305 59.883 173.254 60.0429C171.694 64.8642 177.638 64.5426 179.758 65.5927V65.5945Z" fill="#A5A4A0"/>
</g>
<mask id="mask0_25_609" style="mask-type:alpha" maskUnits="userSpaceOnUse" x="5" y="8" width="199" height="53">
<path d="M5.51298 22.7614C5.51298 22.7614 1.82246 60.8624 47.2177 60.8624H173.912C173.912 60.8624 203.907 62.2342 203.907 8.09058L167.21 24.1749L5.51298 22.7614Z" fill="#E2E2E2"/>
</mask>
<g mask="url(#mask0_25_609)">
<rect x="1" y="56" width="207" height="9" fill="#3496FF"/>
</g>
<path d="M170.072 26.4349H5.42151C2.42855 26.4349 0 24.312 0 21.6918C0 19.0717 2.42656 16.9488 5.42151 16.9488H170.072C173.661 16.9488 179.852 14.8085 186.633 11.2251C193.268 7.71646 198.521 3.85489 200.282 1.85195C202.106 -0.224008 205.511 -0.613468 207.883 0.982623C210.256 2.57872 210.702 5.55704 208.877 7.63301C205.97 10.9399 199.439 15.537 192.241 19.3429C186.122 22.5785 177.308 26.4349 170.074 26.4349H170.072Z" fill="white"/>
<defs>
<clipPath id="clip0_25_609">
<rect width="210" height="75" fill="white"/>
</clipPath>
</defs>
</svg>
