<svg width="442" height="442" viewBox="0 0 442 442" fill="none" xmlns="http://www.w3.org/2000/svg">
<circle cx="221" cy="221" r="221" fill="white"/>
<g clip-path="url(#clip0_25_595)">
<path d="M221.004 425.63C108.167 425.63 16.3704 333.832 16.3704 221C16.3704 108.168 108.167 16.3704 221.004 16.3704C333.841 16.3704 425.637 108.168 425.637 221C425.637 333.832 333.841 425.63 221.004 425.63ZM221.004 28.3183C114.754 28.3183 28.3181 114.756 28.3181 221C28.3181 327.244 114.754 413.682 221.004 413.682C327.254 413.682 413.689 327.244 413.689 221C413.689 114.756 327.246 28.3183 221.004 28.3183Z" fill="black"/>
<path d="M84.7103 320.218C65.6303 294.051 54.5608 263.121 52.7058 230.782L100.118 228.064C101.451 251.271 109.393 273.463 123.082 292.241L84.7027 320.218H84.7103Z" fill="#FF1D25"/>
<path d="M362.832 312.139L322.9 286.434C335.446 266.944 342.079 244.313 342.079 221.008V220.69H389.574V221.008C389.574 253.452 380.33 284.972 362.832 312.147V312.139Z" fill="#7EFF48"/>
<path d="M52.4255 221.159V221C52.4255 188.616 61.64 157.156 79.0619 130.02L119.024 155.68C106.524 175.146 99.9136 197.733 99.9136 221L52.418 221.159H52.4255Z" fill="#FF4B3A"/>
<path d="M341.874 213.799C340.519 190.593 332.554 168.415 318.842 149.645L357.184 121.623C376.294 147.775 387.394 178.69 389.287 211.021L341.874 213.792V213.799Z" fill="#C5FF45"/>
<path d="M122.931 149.963L84.4983 122.062C103.54 95.8266 129.511 75.7316 159.592 63.9578L176.9 108.183C155.291 116.641 136.628 131.087 122.931 149.956V149.963Z" fill="#FF8C3E"/>
<path d="M314.602 144.186C299.785 126.158 280.296 112.863 258.232 105.745L272.823 60.5505C303.555 70.4693 330.691 88.9591 351.293 114.029L314.602 144.186Z" fill="#FFE443"/>
<path d="M183.396 105.866L168.662 60.7171C185.516 55.2202 203.128 52.4262 220.996 52.4262C235.405 52.4262 249.73 54.251 263.563 57.8551L251.6 103.815C241.674 101.233 231.377 99.9228 220.996 99.9228C208.132 99.9228 195.48 101.922 183.396 105.866Z" fill="#FFC840"/>
<path d="M240.099 359.787C240.099 345.779 221.03 310.954 221 311.037C220.941 310.954 201.901 345.779 201.901 359.787C201.901 365.985 208.327 376.518 221 376.518C235.45 376.518 240.099 365.985 240.099 359.787Z" fill="black"/>
</g>
<defs>
<clipPath id="clip0_25_595">
<rect width="409.259" height="409.259" fill="white" transform="translate(16.3704 16.3704)"/>
</clipPath>
</defs>
</svg>
