<svg width="629" height="215" viewBox="0 0 629 215" fill="none" xmlns="http://www.w3.org/2000/svg">
<path d="M513.93 36.495H512.65C493.23 36.495 477.43 20.695 477.43 1.27901V0H546.58V2.547C528.58 2.547 513.93 17.2 513.93 35.216V36.495ZM480.01 2.558C480.66 19.571 494.39 33.286 511.4 33.926C511.92 19.714 520.89 7.63 533.43 2.558H480.01Z" fill="white"/>
<path d="M547.86 70.4321H546.58C527.17 70.4321 511.38 54.6321 511.38 35.2161V33.9371H512.66C530.66 33.9371 545.32 19.2841 545.32 1.26807H547.86V70.4211V70.4321ZM513.96 36.4621C514.6 53.4741 528.31 67.201 545.32 67.8521V14.4331C540.24 26.9691 528.16 35.9551 513.96 36.4731" fill="white"/>
<path d="M280.26 44.874L275.133 67.146H274.074L268.837 45.911H267.69H265.54H264.493L259.851 67.146H258.771L253.048 44.874H249.542L256.378 70.2H262.178L266.665 50.42L271.616 70.2H277.448L283.656 44.874H280.26Z" fill="white"/>
<path d="M295.188 51.1148H295.045C293.49 51.1148 292.223 51.4788 291.23 52.1948C290.315 52.8568 289.621 53.7828 289.146 54.9518V44.8628H285.817V70.1998H289.146V59.5158C289.146 57.9178 289.587 56.6278 290.48 55.6458C291.374 54.6648 292.553 54.1688 294.042 54.1688C295.387 54.1688 296.478 54.5878 297.316 55.4148C298.165 56.2528 298.584 57.4218 298.584 58.9208V70.1998H301.914V59.6158C301.914 56.8808 301.352 54.7858 300.216 53.3198C299.08 51.8538 297.405 51.1148 295.188 51.1148Z" fill="white"/>
<path d="M303.678 51.6768V54.3118H306.523V70.1998H309.863V54.3118V51.6768H306.523H303.678Z" fill="white"/>
<path d="M307.46 48.689C308.198 48.689 308.75 48.491 309.114 48.094C309.477 47.697 309.654 47.201 309.654 46.605C309.654 46.01 309.477 45.503 309.114 45.117C308.75 44.72 308.209 44.522 307.46 44.522C306.71 44.522 306.17 44.72 305.817 45.117C305.453 45.514 305.277 46.01 305.277 46.605C305.277 47.201 305.453 47.708 305.817 48.094C306.17 48.491 306.721 48.689 307.46 48.689Z" fill="white"/>
<path d="M318.596 46.0542H315.398V51.6772H312.201V54.1802H315.398V63.8942C315.398 65.5362 315.674 66.8372 316.214 67.7972C316.754 68.7562 317.537 69.4392 318.54 69.8252C319.544 70.2222 320.746 70.4212 322.135 70.4212H324.979V67.4332H321.716C320.723 67.4332 319.952 67.1572 319.411 66.6172C318.871 66.0772 318.596 65.3052 318.596 64.3132V54.1802H324.979V51.6772H318.596V46.0542Z" fill="white"/>
<path d="M340.14 52.3498C338.828 51.4788 337.174 51.0488 335.156 51.0488C333.602 51.0488 332.257 51.3238 331.11 51.8648C329.963 52.4048 329.026 53.1328 328.276 54.0478C327.538 54.9628 326.986 55.9878 326.634 57.1238C326.27 58.2588 326.093 59.4278 326.093 60.6298V61.2578C326.093 62.4378 326.27 63.5958 326.634 64.7318C326.986 65.8668 327.538 66.8928 328.276 67.8078C329.015 68.7228 329.974 69.4508 331.154 70.0128C332.334 70.5638 333.734 70.8508 335.355 70.8508C336.81 70.8508 338.122 70.6078 339.28 70.1228C340.438 69.6378 341.397 68.9318 342.158 68.0058C342.918 67.0798 343.426 65.9768 343.679 64.7088H340.559C340.371 65.5688 339.82 66.3188 338.905 66.9698C337.99 67.6198 336.81 67.9398 335.344 67.9398C333.877 67.9398 332.808 67.6308 331.904 67.0248C331 66.4068 330.338 65.5808 329.908 64.5218C329.544 63.6398 329.346 62.6588 329.28 61.5888H343.977V60.1008C343.977 58.5458 343.657 57.0908 343.029 55.7238C342.389 54.3558 341.419 53.2428 340.107 52.3718M331.849 54.8858C332.72 54.2788 333.811 53.9818 335.123 53.9818C336.435 53.9818 337.45 54.2458 338.277 54.7748C339.115 55.3048 339.732 56.0538 340.151 57.0138C340.416 57.6308 340.603 58.3148 340.691 59.0748H329.401C329.511 58.4578 329.666 57.8738 329.886 57.3438C330.316 56.3078 330.967 55.4808 331.827 54.8858" fill="white"/>
<path d="M366.79 60.211C368.17 59.66 369.24 58.8 370.02 57.642C370.79 56.484 371.18 54.996 371.18 53.166V52.614C371.18 50.784 370.79 49.296 370.03 48.138C369.27 46.98 368.19 46.12 366.8 45.569C365.41 45.018 363.79 44.731 361.94 44.731H353.65V70.2H357.04V61.0379H361.94C362.11 61.0379 362.29 61.0379 362.47 61.0379L369.29 70.211H373.43L366.05 60.476C366.29 60.398 366.55 60.31 366.78 60.222M357.04 47.7299H362.55C363.61 47.7299 364.53 47.962 365.3 48.403C366.06 48.855 366.66 49.472 367.06 50.244C367.48 51.016 367.69 51.909 367.69 52.901C367.69 53.893 367.48 54.775 367.06 55.558C366.65 56.33 366.06 56.936 365.3 57.377C364.54 57.818 363.62 58.039 362.55 58.039H357.04V47.7299Z" fill="white"/>
<path d="M390.24 54.0478C389.38 53.1328 388.34 52.4048 387.12 51.8648C385.9 51.3238 384.5 51.0488 382.92 51.0488C381.34 51.0488 379.94 51.3238 378.72 51.8648C377.49 52.4048 376.45 53.1328 375.6 54.0478C374.74 54.9628 374.1 55.9878 373.66 57.1348C373.22 58.2818 373 59.4388 373 60.6188V61.2468C373 62.4268 373.21 63.5848 373.64 64.7208C374.07 65.8558 374.71 66.8818 375.54 67.7968C376.39 68.7118 377.42 69.4388 378.65 70.0018C379.88 70.5528 381.3 70.8398 382.92 70.8398C384.54 70.8398 385.96 70.5638 387.19 70.0018C388.41 69.4508 389.45 68.7118 390.3 67.7968C391.14 66.8818 391.77 65.8558 392.2 64.7208C392.63 63.5848 392.84 62.4268 392.84 61.2468V60.6188C392.84 59.4388 392.62 58.2708 392.18 57.1348C391.74 55.9878 391.09 54.9628 390.24 54.0478ZM388.73 64.4448C388.21 65.4808 387.45 66.3188 386.47 66.9258C385.49 67.5428 384.3 67.8408 382.91 67.8408C381.52 67.8408 380.34 67.5318 379.35 66.9258C378.37 66.3078 377.62 65.4808 377.09 64.4448C376.57 63.4078 376.3 62.2398 376.3 60.9388C376.3 59.6378 376.57 58.4358 377.1 57.3988C377.63 56.3628 378.39 55.5358 379.39 54.9298C380.38 54.3228 381.55 54.0258 382.9 54.0258C384.24 54.0258 385.43 54.3228 386.41 54.9298C387.4 55.5358 388.16 56.3518 388.69 57.3988C389.21 58.4358 389.48 59.6158 389.48 60.9388C389.48 62.2618 389.21 63.3968 388.7 64.4448" fill="white"/>
<path d="M408.08 61.093C406.88 60.2 405.28 59.649 403.29 59.45L401.28 59.241C400.19 59.13 399.41 58.855 398.94 58.447C398.47 58.028 398.22 57.477 398.22 56.782C398.22 55.977 398.55 55.305 399.23 54.764C399.9 54.235 400.88 53.971 402.17 53.971C403.46 53.971 404.44 54.235 405.1 54.753C405.76 55.272 406.11 55.9 406.13 56.65H409.25C409.2 54.819 408.53 53.441 407.23 52.515C405.94 51.589 404.24 51.126 402.16 51.126C400.77 51.126 399.55 51.346 398.48 51.798C397.41 52.251 396.58 52.901 395.97 53.739C395.37 54.588 395.07 55.591 395.07 56.771C395.07 58.348 395.62 59.561 396.73 60.432C397.85 61.303 399.28 61.821 401.03 62.008L403.05 62.218C404.34 62.361 405.28 62.637 405.86 63.067C406.44 63.497 406.73 64.092 406.73 64.853C406.73 65.713 406.34 66.429 405.55 67.025C404.77 67.62 403.64 67.907 402.16 67.907C400.52 67.907 399.36 67.587 398.67 66.948C397.99 66.308 397.63 65.636 397.58 64.919H394.46C394.51 66.727 395.2 68.149 396.52 69.186C397.86 70.222 399.73 70.752 402.16 70.752C403.66 70.752 404.99 70.498 406.15 70.002C407.31 69.506 408.21 68.811 408.87 67.918C409.54 67.025 409.87 65.999 409.87 64.842C409.87 63.221 409.26 61.964 408.06 61.082" fill="white"/>
<path d="M425.62 52.3498C424.31 51.4788 422.66 51.0488 420.64 51.0488C419.08 51.0488 417.74 51.3238 416.59 51.8648C415.44 52.4048 414.51 53.1328 413.76 54.0478C413.02 54.9628 412.47 55.9878 412.12 57.1238C411.75 58.2588 411.57 59.4278 411.57 60.6298V61.2578C411.57 62.4378 411.75 63.5958 412.12 64.7318C412.48 65.8668 413.02 66.8928 413.76 67.8078C414.5 68.7228 415.46 69.4508 416.64 70.0128C417.82 70.5638 419.22 70.8508 420.84 70.8508C422.29 70.8508 423.6 70.6078 424.76 70.1228C425.92 69.6378 426.88 68.9318 427.64 68.0058C428.4 67.0798 428.91 65.9768 429.16 64.7088H426.04C425.85 65.5688 425.3 66.3188 424.39 66.9698C423.47 67.6198 422.29 67.9398 420.83 67.9398C419.36 67.9398 418.29 67.6308 417.39 67.0248C416.48 66.4068 415.82 65.5808 415.39 64.5218C415.03 63.6398 414.83 62.6588 414.76 61.5888H429.46V60.1008C429.46 58.5458 429.14 57.0908 428.51 55.7238C427.87 54.3558 426.9 53.2428 425.59 52.3718M417.33 54.8858C418.2 54.2788 419.29 53.9818 420.6 53.9818C421.92 53.9818 422.93 54.2458 423.76 54.7748C424.6 55.3048 425.21 56.0538 425.63 57.0138C425.9 57.6308 426.08 58.3148 426.17 59.0748H414.88C414.99 58.4578 415.15 57.8738 415.37 57.3438C415.8 56.3078 416.45 55.4808 417.31 54.8858" fill="white"/>
<path d="M452.09 45.723C450.69 45.062 448.95 44.731 446.87 44.731H439.13V70.2H442.52V61.38H446.86C448.94 61.38 450.68 61.0489 452.08 60.3869C453.48 59.7259 454.54 58.789 455.26 57.576C455.98 56.363 456.34 54.941 456.34 53.32V52.769C456.34 51.126 455.98 49.704 455.26 48.502C454.54 47.3 453.48 46.363 452.08 45.712M452.26 55.757C451.85 56.562 451.26 57.212 450.47 57.686C449.69 58.16 448.69 58.403 447.49 58.403H442.52V47.7079H447.49C448.69 47.7079 449.68 47.939 450.47 48.403C451.26 48.866 451.85 49.505 452.26 50.31C452.67 51.115 452.87 52.0299 452.87 53.0549C452.87 54.0809 452.67 54.952 452.26 55.757Z" fill="white"/>
<path d="M468.56 52.1398C467.35 51.6878 465.8 51.4678 463.9 51.4678C463.35 51.4678 462.77 51.4678 462.17 51.4898C461.57 51.5008 460.98 51.5228 460.42 51.5558C459.86 51.5888 459.32 51.6328 458.81 51.6768V54.5878C459.32 54.5438 459.92 54.5108 460.62 54.4888C461.31 54.4668 462.04 54.4448 462.8 54.4228C463.56 54.4008 464.3 54.3888 465.02 54.3888C466.28 54.3888 467.25 54.7088 467.92 55.3598C468.58 56.0098 468.91 56.9688 468.91 58.2368V58.6888H464.22C462.62 58.6888 461.26 58.9098 460.13 59.3618C459 59.8138 458.14 60.4758 457.54 61.3578C456.96 62.2398 456.66 63.3308 456.66 64.6538C456.66 65.9768 456.93 67.0138 457.47 67.9178C458.02 68.8218 458.8 69.5058 459.8 69.9798C460.8 70.4538 462.01 70.6958 463.4 70.6958C464.69 70.6958 465.8 70.4648 466.71 70.0018C467.63 69.5388 468.35 68.8658 468.86 67.9728C469.12 67.5428 469.32 67.0688 469.47 66.5508V70.2108H472.11V58.4798C472.11 56.7488 471.82 55.3708 471.23 54.3448C470.66 53.3308 469.77 52.5918 468.57 52.1398M468.14 66.1648C467.66 66.8478 467.07 67.3338 466.35 67.6198C465.63 67.9068 464.88 68.0498 464.09 68.0498C462.75 68.0498 461.72 67.7418 461 67.1128C460.29 66.4848 459.92 65.6688 459.92 64.6538C459.92 63.6398 460.29 62.8018 461 62.1518C461.72 61.5008 462.75 61.1808 464.09 61.1808H468.91V63.3308C468.86 64.5328 468.6 65.4808 468.13 66.1648" fill="white"/>
<path d="M479.75 53.353C478.89 54.268 478.34 55.569 478.1 57.245V51.677H475.47V70.211H478.8V60.178C478.8 58.326 479.29 56.914 480.29 55.922C481.28 54.941 482.7 54.445 484.55 54.445H485.73V51.457H485.1C482.72 51.457 480.94 52.085 479.75 53.353Z" fill="white"/>
<path d="M496.21 59.583L503.04 51.677H499.54L491.62 60.873V44.874H488.29V70.2H491.62V61.567H494.09L501.06 70.2H504.92L496.21 59.583Z" fill="white"/>
<path d="M512.65 36.495H511.37V35.216C511.38 15.8 527.17 0 546.58 0H547.86V1.27901C547.86 20.695 532.06 36.495 512.66 36.495M545.29 2.58C528.31 3.253 514.63 16.946 513.96 33.926C530.94 33.253 544.62 19.571 545.29 2.58Z" fill="white"/>
<path d="M189.882 18.7441C188.592 18.7441 187.545 19.7691 187.545 21.0151C187.545 22.2611 188.592 23.3081 189.882 23.3081C191.172 23.3081 192.209 22.3051 192.209 21.0151C192.209 19.7251 191.183 18.7441 189.893 18.7441H189.882ZM189.882 22.8561C188.89 22.8561 188.107 22.0511 188.107 21.0371C188.107 20.0231 188.89 19.1961 189.871 19.1961H189.882C190.875 19.1961 191.669 20.0231 191.669 21.0371C191.669 22.0511 190.875 22.8561 189.882 22.8561Z" fill="white"/>
<path d="M190.367 21.1031C190.643 21.0151 190.875 20.8051 190.875 20.4971C190.875 20.2321 190.786 20.0671 190.643 19.9561C190.467 19.8241 190.202 19.7471 189.75 19.7471C189.353 19.7471 189.133 19.7911 188.923 19.8131V22.3381H189.474V21.2911H189.728C190.004 21.2911 190.169 21.4011 190.213 21.6761C190.268 22.0181 190.312 22.2391 190.367 22.3381H190.941C190.908 22.2501 190.853 22.1061 190.797 21.7101C190.753 21.3351 190.61 21.1251 190.378 21.0921L190.367 21.1031ZM189.728 20.8941H189.463V20.1661C189.541 20.1661 189.629 20.1661 189.772 20.1661C190.147 20.1661 190.301 20.3311 190.301 20.5411C190.301 20.7941 190.059 20.9051 189.728 20.9051V20.8941Z" fill="white"/>
<path d="M114.776 33.606L114.037 38.92C112.714 36.881 111.038 35.315 109.009 34.246C106.981 33.187 104.775 32.647 102.372 32.647C98.7889 32.647 95.36 33.595 92.085 35.481C88.81 37.377 86.197 40.023 84.257 43.408C82.305 46.793 81.335 50.354 81.335 54.103C81.335 59.009 82.8569 63.309 85.8889 67.014C88.9319 70.707 93.022 72.56 98.171 72.56C100.409 72.56 102.438 72.185 104.235 71.446C106.032 70.707 107.973 69.395 110.046 67.521L109.472 71.6H118.965L124.335 33.617H114.765L114.776 33.606ZM110.972 57.918C109.792 60.101 108.315 61.699 106.573 62.725C104.82 63.75 102.78 64.257 100.431 64.257C97.609 64.257 95.2929 63.353 93.4959 61.534C91.6989 59.715 90.806 57.322 90.806 54.345C90.806 50.486 91.986 47.333 94.356 44.885C96.727 42.438 99.6039 41.225 103 41.225C105.922 41.225 108.271 42.14 110.057 43.97C111.832 45.8 112.725 48.226 112.725 51.236C112.725 53.507 112.13 55.746 110.95 57.929L110.972 57.918Z" fill="white"/>
<path d="M155.03 38.7002C153.784 36.7262 152.197 35.2162 150.278 34.1912C148.36 33.1542 146.265 32.6362 144.005 32.6362C140.62 32.6362 137.378 33.5842 134.28 35.4702C131.182 37.3662 128.712 40.0122 126.882 43.3972C125.041 46.7712 124.125 50.3432 124.125 54.0922C124.125 58.9982 125.548 63.2982 128.403 67.0032C131.248 70.6962 135.096 72.5492 139.925 72.5492C142.031 72.5492 143.928 72.1632 145.614 71.3802C147.301 70.5972 149.121 69.2302 151.061 67.2562L148.514 85.5042H158.007L165.317 33.5952H155.747L155.03 38.6892V38.7002ZM152.175 57.7962C151.083 60.0242 149.738 61.6552 148.117 62.6922C146.508 63.7282 144.622 64.2462 142.461 64.2462C139.859 64.2462 137.731 63.3422 136.077 61.5232C134.412 59.7042 133.597 57.3112 133.597 54.3342C133.597 50.4642 134.688 47.3222 136.871 44.8742C139.054 42.4272 141.711 41.2142 144.854 41.2142C147.544 41.2142 149.705 42.1072 151.348 43.8932C152.991 45.6902 153.807 48.0502 153.807 50.9832C153.807 53.2982 153.266 55.5802 152.175 57.7962Z" fill="white"/>
<path d="M165.361 71.5901H174.854L182.209 18.9971H172.704L165.361 71.5901Z" fill="white"/>
<path d="M0.307983 193.368V132.109H11.862V157.402H34.608V132.109H46.163V193.368H34.608V167.909H11.862V193.368H0.307983Z" fill="white"/>
<path d="M71.015 193.368L87.113 132.109H107.234L123.332 193.368H111.435L108.105 179.894H86.231L82.901 193.368H71.004H71.015ZM88.954 169.222H105.404L97.962 139.386H96.385L88.943 169.222H88.954Z" fill="white"/>
<path d="M170.94 194.592C163.354 194.592 157.345 192.475 152.913 188.252C148.481 184.018 146.265 177.965 146.265 170.093V155.395C146.265 147.523 148.481 141.47 152.913 137.236C157.345 133.002 163.354 130.896 170.94 130.896C178.526 130.896 184.281 132.947 188.394 137.06C192.506 141.172 194.557 146.817 194.557 153.995V154.524H183.178V153.653C183.178 150.037 182.175 147.06 180.157 144.723C178.14 142.385 175.064 141.227 170.929 141.227C166.794 141.227 163.641 142.484 161.304 144.987C158.966 147.501 157.808 150.908 157.808 155.23V170.28C157.808 174.536 158.977 177.932 161.304 180.479C163.641 183.015 166.85 184.283 170.929 184.283C175.008 184.283 178.151 183.103 180.157 180.743C182.175 178.384 183.178 175.418 183.178 171.857V170.28H194.557V171.504C194.557 178.682 192.495 184.327 188.394 188.439C184.292 192.552 178.46 194.614 170.94 194.614V194.592Z" fill="white"/>
<path d="M221.515 193.368V132.109H233.07V156.432H234.646L254.515 132.109H269.3L243.754 162.297L270.182 193.357H254.956L234.657 168.505H233.081V193.357H221.526L221.515 193.368Z" fill="white"/>
<path d="M289.598 193.368L305.696 132.109H325.818L341.915 193.368H330.018L326.689 179.894H304.814L301.484 193.368H289.587H289.598ZM307.537 169.222H323.987L316.545 139.386H314.968L307.526 169.222H307.537Z" fill="white"/>
<path d="M375.34 193.368V142.617H357.49V132.12H404.75V142.617H386.9V193.368H375.34Z" fill="white"/>
<path d="M430.13 193.368V132.109H441.69V157.402H464.43V132.109H475.99V193.368H464.43V167.909H441.69V193.368H430.13Z" fill="white"/>
<path d="M528.83 194.592C521.14 194.592 515.01 192.475 510.45 188.252C505.9 184.018 503.63 177.965 503.63 170.093V155.395C503.63 147.523 505.9 141.47 510.45 137.236C515.01 133.002 521.13 130.896 528.83 130.896C536.54 130.896 542.66 133.013 547.21 137.236C551.77 141.459 554.04 147.523 554.04 155.395V170.093C554.04 177.965 551.77 184.018 547.21 188.252C542.66 192.486 536.54 194.592 528.83 194.592ZM528.83 184.26C533.15 184.26 536.51 183.004 538.9 180.501C541.29 177.998 542.48 174.635 542.48 170.434V155.032C542.48 150.831 541.29 147.479 538.9 144.965C536.51 142.462 533.15 141.205 528.83 141.205C524.51 141.205 521.24 142.462 518.81 144.965C516.38 147.479 515.18 150.831 515.18 155.032V170.434C515.18 174.635 516.4 177.987 518.81 180.501C521.23 183.015 524.57 184.26 528.83 184.26Z" fill="white"/>
<path d="M581.68 193.368V132.109H603.64L615.8 185.484H617.38V132.109H628.76V193.368H606.8L594.63 139.993H593.06V193.368H581.68Z" fill="white"/>
<path d="M494.26 208.385H430.31V215H494.26V208.385Z" fill="#70C2B4"/>
<path d="M561.51 208.385H497.56V215H561.51V208.385Z" fill="#E15679"/>
<path d="M628.77 208.385H564.82V215H628.77V208.385Z" fill="#F59D15"/>
</svg>
