<?xml version="1.0" encoding="UTF-8"?>
<svg id="Layer_2" data-name="Layer 2" xmlns="http://www.w3.org/2000/svg" viewBox="0 0 698.23 165.78">
  <defs>
    <style>
      .cls-1, .cls-2, .cls-3, .cls-4 {
        stroke-width: 0px;
      }

      .cls-2 {
        fill: #70c2b4;
      }

      .cls-3 {
        fill: #e15679;
      }

      .cls-4 {
        fill: #f59d15;
      }
    </style>
  </defs>
  <g id="Layer_1-2" data-name="Layer 1">
    <g>
      <g>
        <path class="cls-2" d="m618.81,85.41h-2.98c-45.45,0-82.43-36.98-82.43-82.43V0h161.85v5.97c-42.15,0-76.44,34.3-76.44,76.46v2.98ZM539.42,5.97c1.53,39.81,33.66,71.91,73.48,73.42,1.21-33.26,22.22-61.56,51.57-73.42h-125.04Z"/>
        <path class="cls-4" d="m698.23,164.85h-2.98c-45.44,0-82.41-36.97-82.41-82.42v-2.98h2.98c42.15,0,76.44-34.3,76.44-76.46h5.96v161.87Zm-79.37-79.5c1.51,39.82,33.6,71.94,73.4,73.47V33.78c-11.86,29.35-40.15,50.36-73.4,51.57"/>
      </g>
      <polygon class="cls-1" points="71.89 105.02 59.91 157.17 57.43 157.17 45.16 107.46 42.48 107.46 37.45 107.46 35.01 107.46 24.14 157.17 21.59 157.17 8.2 105.02 0 105.02 16 164.32 29.57 164.32 40.08 118.01 51.66 164.32 65.31 164.32 79.84 105.02 71.89 105.02"/>
      <g>
        <path class="cls-1" d="m106.84,119.64h-.32c-3.63,0-6.61.84-8.93,2.52-2.14,1.54-3.76,3.7-4.88,6.46v-23.6h-7.8v59.3h7.8v-25.02c0-3.74,1.04-6.75,3.13-9.06,2.09-2.3,4.86-3.45,8.33-3.45,3.14,0,5.7.98,7.67,2.92,1.98,1.95,2.97,4.69,2.97,8.21v26.4h7.8v-24.77c0-6.39-1.33-11.31-3.98-14.74-2.65-3.44-6.58-5.16-11.78-5.16"/>
        <polygon class="cls-1" points="126.72 120.94 126.72 127.11 133.38 127.11 133.38 164.32 141.18 164.32 141.18 127.11 141.18 120.94 133.38 120.94 126.72 120.94"/>
        <path class="cls-1" d="m135.57,113.96c1.73,0,3.02-.46,3.86-1.38.84-.92,1.26-2.08,1.26-3.49s-.42-2.57-1.26-3.49c-.84-.92-2.13-1.38-3.86-1.38s-3.02.46-3.86,1.38c-.84.92-1.26,2.09-1.26,3.49s.42,2.57,1.26,3.49c.84.92,2.12,1.38,3.86,1.38"/>
        <path class="cls-1" d="m161.62,107.78h-7.47v13.16h-7.47v5.85h7.47v22.74c0,3.85.64,6.89,1.91,9.14,1.27,2.25,3.09,3.83,5.44,4.75,2.36.92,5.16,1.38,8.41,1.38h6.66v-6.99h-7.64c-2.33,0-4.13-.64-5.4-1.91-1.28-1.27-1.91-3.07-1.91-5.4v-23.72h14.94v-5.85h-14.94v-13.16Z"/>
        <path class="cls-1" d="m212.05,122.53c-3.06-2.03-6.94-3.05-11.65-3.05-3.63,0-6.78.64-9.46,1.91-2.68,1.27-4.89,2.98-6.62,5.12-1.73,2.14-3.02,4.54-3.86,7.19-.84,2.65-1.26,5.39-1.26,8.2v1.46c0,2.76.42,5.47,1.26,8.12.84,2.65,2.12,5.05,3.86,7.19,1.73,2.14,3.98,3.86,6.74,5.16,2.76,1.3,6.04,1.95,9.83,1.95,3.41,0,6.47-.57,9.18-1.71,2.71-1.14,4.96-2.79,6.74-4.95,1.79-2.17,2.97-4.74,3.57-7.72h-7.31c-.43,2-1.72,3.76-3.86,5.28-2.14,1.52-4.91,2.27-8.33,2.27s-5.93-.72-8.04-2.15c-2.11-1.43-3.67-3.38-4.67-5.85-.84-2.07-1.32-4.36-1.46-6.86h34.4v-3.49c0-3.63-.74-7.04-2.23-10.23-1.49-3.2-3.77-5.81-6.83-7.84m-19.33,5.89c2.03-1.41,4.59-2.11,7.68-2.11s5.44.62,7.39,1.87c1.95,1.25,3.41,2.99,4.38,5.24.63,1.44,1.05,3.05,1.27,4.83h-26.42c.25-1.45.63-2.81,1.15-4.06,1-2.44,2.52-4.36,4.55-5.77"/>
        <path class="cls-1" d="m274.43,140.92c3.22-1.3,5.74-3.3,7.55-6.01,1.81-2.71,2.72-6.2,2.72-10.48v-1.3c0-4.28-.89-7.77-2.68-10.48-1.79-2.71-4.31-4.71-7.55-6.01-3.25-1.3-7.04-1.95-11.37-1.95h-19.41v59.62h7.96v-21.44h11.45c.42,0,.83-.01,1.24-.02l15.98,21.47h9.67l-17.25-22.79c.58-.18,1.15-.38,1.7-.6m-22.78-29.24h12.92c2.49,0,4.63.53,6.42,1.58,1.78,1.06,3.17,2.49,4.14,4.31.97,1.81,1.46,3.89,1.46,6.22s-.49,4.4-1.46,6.21c-.97,1.81-2.36,3.24-4.14,4.26-1.79,1.03-3.93,1.54-6.42,1.54h-12.92v-24.12Z"/>
        <path class="cls-1" d="m329.31,126.51c-2-2.14-4.44-3.85-7.31-5.12-2.87-1.27-6.15-1.91-9.83-1.91s-6.96.64-9.83,1.91c-2.87,1.27-5.31,2.98-7.31,5.12-2,2.14-3.52,4.55-4.55,7.23-1.03,2.68-1.54,5.4-1.54,8.16v1.46c0,2.76.5,5.47,1.5,8.12,1,2.65,2.49,5.05,4.47,7.19,1.98,2.14,4.4,3.86,7.27,5.16,2.87,1.3,6.2,1.95,9.99,1.95s7.12-.65,9.99-1.95c2.87-1.3,5.29-3.02,7.27-5.16,1.98-2.14,3.47-4.53,4.47-7.19,1-2.65,1.5-5.36,1.5-8.12v-1.46c0-2.76-.52-5.48-1.54-8.16-1.03-2.68-2.54-5.09-4.55-7.23m-3.53,24.33c-1.22,2.44-2.98,4.37-5.28,5.81-2.3,1.44-5.08,2.15-8.33,2.15s-6.02-.72-8.33-2.15c-2.3-1.43-4.06-3.37-5.28-5.81-1.22-2.44-1.83-5.17-1.83-8.2s.62-5.85,1.87-8.29c1.24-2.44,3.03-4.36,5.36-5.77,2.33-1.41,5.06-2.11,8.2-2.11s5.94.7,8.24,2.11c2.3,1.41,4.08,3.33,5.32,5.77,1.24,2.44,1.87,5.2,1.87,8.29s-.61,5.77-1.83,8.2"/>
        <path class="cls-1" d="m371.06,142.99c-2.82-2.08-6.55-3.37-11.21-3.86l-4.71-.49c-2.55-.27-4.37-.89-5.48-1.87-1.11-.97-1.67-2.28-1.67-3.9,0-1.9.78-3.47,2.36-4.71,1.57-1.24,3.87-1.87,6.9-1.87s5.32.61,6.87,1.83c1.54,1.22,2.34,2.69,2.39,4.43h7.31c-.11-4.28-1.68-7.5-4.71-9.67-3.03-2.17-6.98-3.25-11.86-3.25-3.25,0-6.12.53-8.61,1.58s-4.44,2.57-5.85,4.55c-1.41,1.98-2.11,4.35-2.11,7.11,0,3.68,1.3,6.54,3.9,8.57,2.6,2.03,5.96,3.26,10.07,3.69l4.71.49c3.03.32,5.22.99,6.58,1.99,1.35,1,2.03,2.4,2.03,4.18,0,2-.92,3.7-2.76,5.08-1.84,1.38-4.5,2.07-7.96,2.07-3.85,0-6.56-.74-8.16-2.24-1.6-1.49-2.45-3.07-2.56-4.75h-7.31c.11,4.23,1.72,7.56,4.83,9.99,3.11,2.44,7.51,3.66,13.2,3.66,3.52,0,6.63-.58,9.34-1.74,2.71-1.16,4.83-2.79,6.38-4.88,1.54-2.08,2.31-4.48,2.31-7.19,0-3.79-1.41-6.73-4.22-8.81"/>
        <path class="cls-1" d="m412.11,122.53c-3.06-2.03-6.94-3.05-11.65-3.05-3.63,0-6.78.64-9.46,1.91-2.68,1.27-4.89,2.98-6.62,5.12-1.73,2.14-3.02,4.54-3.86,7.19-.84,2.65-1.26,5.39-1.26,8.2v1.46c0,2.76.42,5.47,1.26,8.12.84,2.65,2.12,5.05,3.86,7.19,1.73,2.14,3.98,3.86,6.74,5.16,2.76,1.3,6.04,1.95,9.83,1.95,3.41,0,6.47-.57,9.18-1.71,2.71-1.14,4.95-2.79,6.74-4.95,1.79-2.17,2.98-4.74,3.57-7.72h-7.31c-.43,2-1.72,3.76-3.86,5.28-2.14,1.52-4.91,2.27-8.33,2.27s-5.93-.72-8.04-2.15c-2.11-1.43-3.67-3.38-4.67-5.85-.84-2.07-1.33-4.36-1.46-6.86h34.4v-3.49c0-3.63-.74-7.04-2.23-10.23-1.49-3.2-3.77-5.81-6.83-7.84m-19.33,5.89c2.03-1.41,4.59-2.11,7.68-2.11s5.44.62,7.39,1.87c1.95,1.25,3.41,2.99,4.38,5.24.63,1.44,1.05,3.05,1.27,4.83h-26.42c.25-1.45.63-2.81,1.15-4.06,1-2.44,2.52-4.36,4.55-5.77"/>
        <path class="cls-1" d="m474.09,107.01c-3.28-1.54-7.35-2.31-12.23-2.31h-18.11v59.62h7.96v-20.63h10.15c4.88,0,8.95-.77,12.23-2.31,3.28-1.54,5.75-3.74,7.43-6.58,1.68-2.84,2.52-6.16,2.52-9.95v-1.3c0-3.84-.84-7.17-2.52-9.99-1.68-2.82-4.16-5-7.43-6.54m.4,23.52c-.95,1.9-2.34,3.4-4.18,4.51-1.84,1.11-4.17,1.67-6.98,1.67h-11.62v-25.02h11.62c2.82,0,5.14.54,6.98,1.62,1.84,1.08,3.24,2.57,4.18,4.47.95,1.9,1.42,4.04,1.42,6.42s-.48,4.44-1.42,6.33"/>
        <path class="cls-1" d="m512.61,122.04c-2.82-1.06-6.44-1.59-10.89-1.59-1.3,0-2.65.01-4.06.04-1.41.03-2.78.08-4.1.16-1.33.08-2.59.18-3.78.28v6.82c1.19-.11,2.6-.19,4.22-.24,1.62-.05,3.33-.11,5.12-.16,1.79-.05,3.52-.08,5.2-.08,2.98,0,5.24.76,6.78,2.27,1.54,1.52,2.31,3.77,2.31,6.74v1.06h-10.97c-3.73,0-6.93.53-9.58,1.58-2.65,1.06-4.67,2.61-6.05,4.67-1.38,2.06-2.07,4.63-2.07,7.72s.64,5.52,1.91,7.64c1.27,2.11,3.09,3.72,5.44,4.83,2.36,1.11,5.16,1.67,8.41,1.67,3.03,0,5.62-.54,7.76-1.62,2.14-1.08,3.82-2.67,5.04-4.75.58-1,1.05-2.11,1.42-3.34v8.58h6.17v-27.45c0-4.06-.68-7.28-2.03-9.67-1.35-2.38-3.44-4.1-6.25-5.16m-1.02,32.81c-1.11,1.6-2.5,2.73-4.18,3.41-1.68.68-3.44,1.02-5.28,1.02-3.14,0-5.55-.73-7.23-2.19-1.68-1.46-2.52-3.38-2.52-5.77s.84-4.33,2.52-5.85c1.68-1.51,4.09-2.27,7.23-2.27h11.29v5.04c-.11,2.82-.72,5.02-1.83,6.62"/>
        <path class="cls-1" d="m538.81,124.88c-2.02,2.14-3.3,5.18-3.86,9.1v-13.04h-6.17v43.38h7.8v-23.47c0-4.33,1.16-7.65,3.49-9.95,2.33-2.3,5.66-3.45,9.99-3.45h2.76v-6.99h-1.46c-5.58,0-9.76,1.48-12.55,4.43"/>
      </g>
      <g>
        <polygon class="cls-1" points="577.33 139.46 593.33 120.94 585.12 120.94 566.6 142.49 566.6 105.02 558.81 105.02 558.81 164.32 566.6 164.32 566.6 144.09 572.37 144.09 588.7 164.32 597.71 164.32 577.33 139.46"/>
        <path class="cls-3" d="m615.82,85.41h-2.98v-2.98C612.84,36.98,649.81,0,695.25,0h2.98v2.98c0,45.45-36.97,82.43-82.41,82.43M692.21,6.03c-39.74,1.56-71.78,33.61-73.34,73.36,39.74-1.56,71.78-33.61,73.34-73.36"/>
      </g>
    </g>
  </g>
</svg>