<svg width="255" height="133" viewBox="0 0 255 133" fill="none" xmlns="http://www.w3.org/2000/svg">
    <path opacity="0.7" fill-rule="evenodd" clip-rule="evenodd" d="M54.1599 123.46C60.2599 100.33 57.6999 94.1803 62.2299 90.3103C69.6199 83.9803 81.7598 95.8403 91.2398 89.3903C100.11 83.3603 94.4099 69.6603 103.06 64.4603C110.6 59.9303 117.65 68.7203 131.91 66.0403C142.87 63.9803 142.83 58.0203 151.97 55.2303C169.98 49.7503 179.7 70.0103 209.09 74.1703C215.69 75.1003 238.71 78.3603 249.15 64.6703C256.03 55.6503 256.87 40.0303 249.95 34.2903C240 26.0503 222.86 45.5403 202.71 38.3003C188.41 33.1603 191.45 21.3303 175.28 10.3703C151.58 -5.6997 119.32 2.2903 110.82 4.4003C86.8799 10.3303 87.9398 19.2603 65.1098 23.5803C37.1598 28.8703 27.0399 17.1103 14.3998 26.4803C0.41985 36.8503 -1.05014 61.5103 2.29986 76.2103C4.10986 84.1503 5.79985 82.4803 11.8099 100.32C14.7899 109.16 16.3999 115.58 22.0199 118.27C25.7599 120.06 26.8799 118.1 31.8399 119.5C42.1899 122.41 45.0599 133.14 49.4799 132.17C51.8499 131.65 52.9498 128.14 54.1798 123.47L54.1599 123.46Z" fill="#C7B8C5"/>
</svg>