<svg width="341" height="118" viewBox="0 0 341 118" fill="none" xmlns="http://www.w3.org/2000/svg">
    <path opacity="0.7" fill-rule="evenodd" clip-rule="evenodd" d="M184.389 54.8203C190.919 54.9003 192.819 62.6103 195.779 65.2503C201.939 70.7703 205.249 69.3203 223.859 64.7703C256.809 56.7003 241.099 77.2603 246.539 85.7703C248.179 88.3403 256.629 90.5203 260.479 93.2403C264.519 96.1003 261.409 102.07 264.099 108.63C266.439 114.34 275.289 120.18 282.369 116.71C284.929 115.46 287.779 110.82 288.939 107.83C291.509 101.18 295.349 100.85 306.149 99.4703C315.169 98.3203 331.149 93.2503 337.339 89.3403C338.589 88.5503 342.929 81.3503 339.609 78.2103C337.999 76.6903 332.699 76.2103 329.269 75.4403C324.689 74.4103 320.649 72.8803 317.639 71.4903C314.549 70.0603 309.769 63.6003 304.429 63.5403C293.569 63.4303 287.549 67.8603 280.599 68.0803C273.189 68.3203 271.969 45.5103 264.239 44.7403C253.229 43.6503 251.439 39.0503 243.209 34.8003C236.389 31.2703 231.459 30.4803 219.419 29.0503C212.899 28.2803 207.679 31.1703 199.879 30.3703C196.639 30.0403 184.949 12.4803 183.119 9.79033C179.749 4.83033 168.349 -2.04967 159.199 1.45033C156.799 2.37033 155.159 3.45033 153.729 4.51033C148.869 8.10033 146.559 10.2903 139.759 10.2503C135.859 10.2203 131.729 7.76031 124.689 6.71031C118.559 5.80031 112.759 9.68032 106.569 9.22032C100.349 8.76032 92.8691 3.96032 86.6691 3.35032C86.6691 3.35032 73.6391 3.72032 69.0691 7.35032C63.1991 12.0303 65.4691 20.5203 65.4691 23.7303C65.4691 26.3903 67.6691 43.8503 62.1791 50.8503C55.8991 58.8703 46.7091 56.7603 42.6291 56.3403C29.4591 55.0203 26.5191 61.5003 24.9291 66.2603C22.4191 73.7703 14.9091 79.2803 7.55906 81.0103C3.97906 81.8503 0.209056 83.4103 0.459056 85.9503C0.819056 89.5903 8.59906 94.7203 14.9591 94.7403C19.9891 94.7503 28.4091 94.6603 33.3891 96.0303C35.8591 96.7103 37.0991 99.1003 37.4191 101.5C40.5491 105.39 47.6191 100.69 50.0191 99.6203C55.6291 97.1103 57.499 94.2503 67.079 91.8203C70.329 91.0003 74.0691 93.5703 79.4091 93.2003C81.9491 93.0303 85.1691 92.2303 88.1791 90.0203C93.2291 86.3003 94.7591 77.8503 99.9091 74.4903C115.309 64.4603 136.989 76.7403 153.419 74.9203C159.549 74.2403 165.279 73.0703 169.429 69.1903C173.349 65.5303 178.209 54.7303 184.369 54.8103L184.389 54.8203Z" fill="#C7B8C5"/>
</svg>