<svg width="482" height="153" viewBox="0 0 482 153" fill="none" xmlns="http://www.w3.org/2000/svg">
    <path opacity="0.7" fill-rule="evenodd" clip-rule="evenodd" d="M302.09 43.2402C300.77 36.8202 307.169 32.5402 318.169 27.3302C332.349 20.6102 327.31 19.7202 322.39 17.9102C319.52 16.8502 316.359 11.6702 310.539 11.1602C302.949 10.4902 291.529 10.8102 272.799 13.5902C266.409 14.5402 260.01 10.7502 259.57 7.52021C259.12 4.22021 257.98 0.860205 253.43 0.100205C246.31 -0.269795 232.649 -0.0597949 222.909 5.97021C210.639 13.5802 200.42 25.3902 190.06 24.0202C171.3 21.5302 175.849 10.3802 152.859 12.7102C147.879 13.2102 131.89 18.2902 126.88 20.6302C118.97 24.3202 113.7 23.6302 111.1 20.8502C109.92 19.6002 109.469 18.0402 109.359 16.0202C109.079 11.0902 107.75 8.41021 104.07 7.42021C99.5595 6.19021 92.2095 9.58021 85.3895 12.3102C79.7195 14.5802 69.0095 8.54021 66.4495 7.93021C60.0395 6.41021 55.0595 7.79021 48.4095 11.7102C38.7795 17.3702 36.4995 18.0602 32.8795 18.7302C30.3895 19.1902 26.9195 19.5402 21.1095 20.9102C11.1595 23.2602 11.8195 26.0502 12.8595 28.7302C13.8695 31.3302 15.3695 32.7302 24.7095 34.3102C26.9595 34.6902 34.6295 36.4002 39.6495 38.3302C47.4695 41.3402 49.2495 46.9402 50.8895 54.6602C52.1895 60.7902 63.1695 60.2802 64.2595 60.2002C74.4195 59.4802 80.0995 60.2002 82.4095 63.1902C84.8995 66.4202 81.2395 68.2902 78.5095 70.4702C76.8195 71.8302 75.7795 73.0502 77.8795 74.6202C83.2795 78.6702 85.3495 79.0402 85.5295 81.2302C85.8095 84.6002 81.9895 86.2802 76.6595 86.9302C70.3495 87.7002 68.2295 89.6302 65.4295 90.9102C63.0295 92.0002 60.5595 92.8402 57.1795 93.1302C54.0495 93.4002 47.6295 92.8702 46.8695 90.3402C46.4595 88.9602 48.9895 86.7502 49.2895 85.0402C49.6295 83.0902 47.2595 82.3602 44.4495 82.4602C42.7295 82.5302 38.8895 83.3102 36.0795 85.1702C31.0095 88.5202 27.7995 92.4002 24.6295 93.5802C21.0695 94.9102 17.6095 94.7402 13.3195 95.3902C11.5695 95.6602 7.3595 96.7102 4.7395 98.2102C2.1995 99.6602 -0.0405029 101.54 0.0494971 103.4C0.189497 106.15 8.1095 106.96 10.4295 107.69C13.5095 108.66 21.7795 109.86 23.9595 112.66C28.0495 117.9 23.1095 120.89 24.2995 124.63C25.4295 128.16 29.2095 129.31 32.4795 130.1C41.3895 132.25 48.8295 129.74 56.4595 132.06C62.8195 133.99 67.6795 138.04 64.1695 141.42C61.0595 144.42 57.0395 145.77 56.9495 147.68C56.8295 150.39 60.9495 151.97 67.4895 152.1C72.0295 152.19 78.7695 151.22 84.4895 148.6C87.5995 147.18 91.1095 144.77 92.5495 142.74C93.5695 141.29 93.3395 139.91 87.4995 137.69C78.7295 134.36 87.7495 125.35 91.2595 121.82C94.4095 118.65 101.74 114.08 107.6 115.45C110.24 116.07 111.569 117.22 115.579 119.45C122.459 123.27 135.07 116.56 140.79 112.52C146.38 108.59 154.05 105.69 157.27 110.9C162.44 119.27 173.37 115.75 192.93 110.65C203.55 107.88 214.71 95.1802 220.84 92.0102C230.93 86.7902 243.23 92.9602 244.4 97.3102C247.1 107.43 252.96 110.44 264.39 108.82C270.97 107.89 282.769 108.06 282.599 113.61C282.389 120.57 287.96 122.37 291.62 122.4C298.18 122.48 317.019 115.11 324.169 112.29C334.359 108.26 334.4 122.72 345.07 119.98C352.91 117.96 357.34 116.9 361.59 119.16C368.29 122.74 373.35 128.69 379.82 128.62C386.21 128.55 389.629 123.42 392.599 114.67C394.119 110.2 397.809 106.44 403.349 105.86C410.009 105.16 418.19 109.57 426.9 107.06C434.22 104.95 438.369 98.2302 444.419 94.7502C449.529 91.8002 457.03 92.5102 463.57 91.7202C466.69 91.3402 472.7 90.9302 475.87 90.3102C483.09 88.9202 482.15 86.0502 479.65 83.0702C477.68 80.7402 468.73 74.7002 456.58 73.5702C446.73 72.6502 439.62 72.0102 430.81 72.4002C412.35 73.2202 414.24 62.1702 402.58 60.6202C393.17 59.3702 382.879 60.0402 377.299 58.6002C372.619 57.3802 374.81 52.9002 375.56 48.7202C376.43 43.8502 364.579 39.8402 350.969 41.9502C341.599 43.4002 335.7 43.5702 326.63 45.6802C317.66 47.7602 303.06 48.0502 302.07 43.2302L302.09 43.2502V43.2402Z" fill="#C7B8C5" />
</svg>