<svg width="221" height="69" viewBox="0 0 221 69" fill="none" xmlns="http://www.w3.org/2000/svg">
    <path opacity="0.7" fill-rule="evenodd" clip-rule="evenodd" d="M95.4397 10.4501C109.66 6.74005 130.07 -0.779947 147.27 1.20005C157.76 2.40005 158.85 14.03 183.14 12.34C196.63 11.4 187.53 33.23 198.93 40.52C204.9 44.33 220.65 36 220.86 43.08C221.11 51.34 208.25 55.78 200.01 56.53C193.44 57.13 185.57 49.83 179.52 47.02C167.78 41.57 156.75 41.34 144.14 44.28C130.6 47.44 118.45 55.8 107.24 63.81C102.65 67.08 97.6696 69.55 90.6696 68.19C86.7696 67.43 83.8797 64.0901 80.0297 59.7001C74.3597 53.2601 68.4297 45.65 64.1197 46.77C52.9397 49.67 37.0897 55.45 20.2797 54.49C1.26969 53.39 -3.93036 44.48 3.60964 42.58C21.8996 37.95 30.6596 35.22 34.7196 31.21C39.5196 26.48 43.3897 15.9501 46.1997 9.17005C49.0797 2.23005 57.4497 -0.589968 64.8897 1.46003C76.1997 4.58003 85.7197 13 95.4497 10.46H95.4397V10.4501Z" fill="#C7B8C5" />
</svg>