<svg width="266" height="163" viewBox="0 0 266 163" fill="none" xmlns="http://www.w3.org/2000/svg">
    <path opacity="0.7" fill-rule="evenodd" clip-rule="evenodd" d="M37.1595 88.6104C35.5195 94.0804 28.1995 92.0804 22.5495 99.7804C19.0095 104.61 20.8495 106.81 17.3895 120.41C15.3395 128.48 13.9595 133.93 10.5095 140.18C4.79953 150.56 -1.15046 153.3 0.199536 157.37C1.44954 161.14 7.8495 162.66 12.2295 162.53C20.9295 162.26 27.0695 155.27 31.1395 150.5C41.5895 138.25 37.9995 132.13 44.8895 128.15C49.6595 125.4 52.6995 127.57 79.2695 131.59C93.2195 133.7 95.0995 133.51 96.4595 133.31C107.69 131.65 108.97 125.36 123.11 119.56C130.59 116.49 139.2 112.95 148.9 115.26C154.63 116.63 154.9 118.64 169.53 125.57C176.82 129.02 180.46 130.75 184.14 131.59C191.13 133.18 196.92 132.39 208.21 130.73C219.32 129.1 224.87 128.29 232.28 125.57C238.67 123.23 246.88 120.13 254.63 112.68C260.26 107.27 266.31 101.45 264.94 96.3504C262.93 88.8304 247.45 92.7404 227.12 80.8804C214.63 73.5904 215.77 69.3704 208.21 67.9904C192.29 65.0804 185.65 83.5404 166.95 82.6004C153.15 81.9104 142.53 71.1304 141.16 69.7104C135.339 63.6404 135.6 59.8804 126.55 49.0804C122.6 44.3704 119.21 40.3204 113.66 36.1904C103.059 28.2904 92.1595 25.7304 88.7295 25.0204C75.8095 22.3304 71.8195 25.7704 67.2395 21.5804C60.3395 15.2704 65.1595 3.5704 59.4995 0.950398C56.5095 -0.439602 52.8295 1.76037 45.7495 6.11037C34.2895 13.1504 34.9195 16.2304 27.6995 19.8604C16.0795 25.7104 6.43951 21.7704 4.48951 26.7404C3.24951 29.8904 6.19952 33.8704 7.92952 36.1904C13.4095 43.5704 19.5495 42.4004 23.3995 48.2204C26.5495 52.9904 23.4195 55.2604 25.1195 63.6904C28.0195 78.0504 39.1895 81.8004 37.1495 88.6204L37.1595 88.6104Z" fill="#C7B8C5"/>
</svg>