<svg width="245" height="78" viewBox="0 0 245 78" fill="none" xmlns="http://www.w3.org/2000/svg">
    <path opacity="0.7" fill-rule="evenodd" clip-rule="evenodd" d="M65.9198 10.4402C79.0198 4.28017 86.1298 15.6202 105.21 12.8202C122.55 10.2802 123.83 -0.129828 138.54 0.910172C150.14 1.74017 151.78 8.38016 164.14 8.05016C176.33 7.73016 180.75 1.10018 186.76 4.48018C192.36 7.63018 190.77 14.6402 199.26 21.1502C202.83 23.8802 203.39 22.8602 207 25.3202C217.63 32.5602 214.61 42.6901 223.07 49.7301C231.8 57.0001 242.08 52.0801 244.5 57.4701C246.62 62.1801 241.39 71.7602 233.79 75.9202C215.12 86.1402 196.47 55.9201 148.07 48.5401C133.7 46.3501 133.52 48.7302 104.02 45.5602C71.5098 42.0702 72.1798 39.2202 59.3798 40.2002C30.9898 42.3902 17.3998 57.2102 6.39978 49.1302C2.28978 46.1102 -0.800198 40.3702 0.449802 36.0302C2.1398 30.1302 11.4398 28.1702 16.5198 27.1002C32.5798 23.7202 37.6898 30.4102 48.0698 26.5002C58.3198 22.6402 55.8798 15.1502 65.9298 10.4302L65.9198 10.4402Z" fill="#C7B8C5" />
</svg>