<svg width="435" height="137" viewBox="0 0 435 137" fill="none" xmlns="http://www.w3.org/2000/svg">
    <path opacity="0.7" fill-rule="evenodd" clip-rule="evenodd" d="M39.8598 130.78C41.5898 135.59 55.4298 137.66 66.6498 133.16C81.0898 127.38 81.7398 114.51 95.2198 111.73C104.63 109.79 107.28 115.44 113.08 112.92C127.98 106.44 114.5 67.34 130.94 56.97C141.09 50.56 148.8 63.84 173.2 58.76C181.49 57.03 189.27 53.7 197.61 57.57C203.31 60.22 202.96 63.3 207.73 65.31C219.1 70.1 227.61 55.31 241.06 56.38C256.69 57.63 256.48 78.48 275.59 83.76C290.85 87.98 296.34 76.15 311.9 81.97C323.09 86.16 322.34 93.06 336.9 98.04C344.34 100.59 350.43 100.8 352.97 105.78C355.46 110.66 351.7 114.54 354.16 117.69C357.76 122.3 366.86 115.32 379.16 118.29C387.98 120.41 387.51 125.01 401.18 131.39C408.53 134.82 418.03 139.25 422.61 135.56C426.42 132.49 422.63 127.17 425.59 116.51C428.8 104.95 435.39 103.52 434.52 97.46C433.33 89.13 419.33 81.22 407.14 82.58C396.22 83.8 394.26 91.61 384.52 91.51C373.75 91.4 362.69 81.7 363.69 75.44C364.39 71.08 373.68 67.97 392.26 61.75C400.9 58.86 407.8 56.99 416.67 51.63C423.95 47.23 427.59 45.03 427.38 42.7C426.85 36.86 403.42 35.61 344.04 29.01C291.71 23.19 299.35 22.99 287.49 22.46C262.6 21.35 254.71 23.39 241.65 17.1C226.43 9.78004 217.86 -2.25997 211.29 1.03003C206.65 3.35003 209.33 10.16 204.15 15.91C201.36 19.01 194.67 23.59 166.65 18.89C134.68 13.52 130.67 5.42003 119.03 9.37003C105.68 13.89 109.51 25.03 91.6498 36.16C88.6398 38.03 69.6698 49.46 47.0098 46.28C33.9798 44.45 28.7898 39.06 22.5998 42.71C16.6398 46.23 18.6998 52.88 12.4798 68.31C5.88983 84.66 -1.85017 90.67 0.569827 93.91C3.60983 97.97 15.5898 88.31 33.3098 90.93C42.4698 92.28 55.8198 97.31 57.1198 105.22C58.8698 115.87 37.4998 124.25 39.8598 130.82V130.78Z" fill="#C7B8C5" />
</svg>