<svg width="184" height="97" viewBox="0 0 184 97" fill="none" xmlns="http://www.w3.org/2000/svg">
    <path opacity="0.7" fill-rule="evenodd" clip-rule="evenodd" d="M127.02 29.7603C137.27 33.4603 138.77 37.7703 140.55 42.3503C142.69 47.8503 147.14 52.0202 156.41 53.6202C175.56 56.9402 194.95 58.0203 174.66 71.6003C152.19 86.6403 127.09 76.2402 122.21 82.2802C110.63 96.6002 74.2398 101.87 75.7298 90.9902C83.8498 31.9002 49.1098 74.1003 31.5998 74.5703C15.7198 75.0003 0.429834 68.7503 0.639834 62.9203C0.719834 60.6303 3.78984 50.9603 7.59984 51.1003C24.9298 51.7703 50.2598 44.2302 49.1198 31.2402C47.0398 7.60024 60.9798 -3.84974 75.3498 1.45026C90.7298 7.13026 98.0298 17.6402 110.91 24.9602C114.52 27.0202 122.27 28.0302 127.03 29.7402V29.7603H127.02Z" fill="#C7B8C5" />
</svg>