<?xml version="1.0" encoding="UTF-8"?>
<svg id="Layer_2" data-name="Layer 2" xmlns="http://www.w3.org/2000/svg" xmlns:xlink="http://www.w3.org/1999/xlink" viewBox="0 0 339.83 495.35">
  <defs>
    <style>
      .cls-1 {
        opacity: .1;
      }

      .cls-2 {
        fill: url(#radial-gradient);
      }

      .cls-2, .cls-3, .cls-4, .cls-5, .cls-6 {
        stroke-width: 0px;
      }

      .cls-3 {
        fill: #636b76;
      }

      .cls-4 {
        fill: #b3b3b4;
      }

      .cls-5 {
        fill: #e68f24;
      }

      .cls-6 {
        fill: #e7e7e7;
      }
    </style>
    <radialGradient id="radial-gradient" cx="169.92" cy="215.19" fx="169.92" fy="215.19" r="193.88" gradientUnits="userSpaceOnUse">
      <stop offset="0" stop-color="#ffffd0"/>
      <stop offset="1" stop-color="#ff0"/>
    </radialGradient>
  </defs>
  <g id="Layer_1-2" data-name="Layer 1">
    <g class="cls-1">
      <path class="cls-2" d="m339.83,169.93C339.83,76.08,263.76,0,169.91,0S0,76.08,0,169.93s96.72,134.93,96.72,177.86v9.42c0,40.41,32.77,73.18,73.19,73.18s73.2-32.77,73.2-73.18v-9.42c0-37.53,96.72-88.97,96.72-177.86Z"/>
    </g>
    <g>
      <path class="cls-5" d="m172.44,413.84h-5.05c-19.14,0-34.71-15.57-34.71-34.71v-61.34c0-19.14,15.57-34.71,34.71-34.71h5.05c19.14,0,34.71,15.57,34.71,34.71v61.34c0,19.14-15.57,34.71-34.71,34.71Zm-5.05-119.07c-12.7,0-23.03,10.33-23.03,23.02v61.34c0,12.7,10.33,23.03,23.03,23.03h5.05c12.7,0,23.03-10.33,23.03-23.03v-61.34c0-12.7-10.33-23.02-23.03-23.02h-5.05Z"/>
      <g>
        <path class="cls-5" d="m140.34,301.96c-1.54,0-2.97-1-3.44-2.56l-38.01-126.71c-.57-1.9.51-3.9,2.41-4.47,1.9-.57,3.91.51,4.48,2.41l38.01,126.71c.57,1.9-.51,3.9-2.41,4.48-.34.1-.69.15-1.04.15Z"/>
        <path class="cls-5" d="m160.05,289.44c-1.81,0-3.37-1.37-3.57-3.21l-12.2-114.2c-.21-1.97,1.22-3.74,3.19-3.96,1.98-.22,3.74,1.22,3.96,3.19l12.2,114.2c.21,1.97-1.22,3.74-3.19,3.95-.13.02-.26.02-.39.02Z"/>
        <path class="cls-5" d="m199.48,301.96c-.34,0-.69-.05-1.04-.15-1.9-.57-2.98-2.57-2.41-4.48l38.01-126.71c.57-1.9,2.57-2.98,4.48-2.41,1.9.57,2.98,2.57,2.41,4.47l-38.01,126.71c-.47,1.56-1.89,2.56-3.44,2.56Z"/>
        <path class="cls-5" d="m179.78,289.44c-.13,0-.26,0-.39-.02-1.98-.21-3.4-1.98-3.19-3.95l12.2-114.2c.21-1.97,1.97-3.41,3.96-3.19,1.97.21,3.4,1.98,3.19,3.96l-12.2,114.2c-.2,1.84-1.76,3.21-3.57,3.21Z"/>
      </g>
      <path class="cls-5" d="m194.85,242.64c0,5.95-4.83,10.79-10.79,10.79h-28.31c-5.95,0-10.78-4.83-10.78-10.79h0c0-5.96,4.83-10.78,10.78-10.78h28.31c5.96,0,10.79,4.83,10.79,10.78h0Z"/>
      <path class="cls-5" d="m122.88,181.55c-.56,0-1.13-.02-1.7-.04-10.31-.41-19.64-4.72-25.59-11.81-2.07-2.47-1.75-6.16.72-8.23,2.47-2.07,6.16-1.75,8.23.72,3.84,4.57,10.07,7.36,17.11,7.64,8.02.33,15.97-2.66,21.22-7.99,2.06-2.1,5.37-2.33,7.7-.54,12.54,9.58,27.09,9.53,40.98-.15,2.55-1.78,6.05-1.25,7.96,1.21,2.38,3.07,7.64,5.42,13.4,5.97,4.58.44,13.45.14,21.35-6.78,2.43-2.13,6.12-1.88,8.24.55,2.13,2.43,1.88,6.12-.54,8.24-8.19,7.17-19.18,10.69-30.17,9.63-6.85-.66-13.11-3.04-17.67-6.61-15.39,8.92-32.28,8.91-46.66-.01-6.84,5.29-15.51,8.2-24.59,8.2Z"/>
    </g>
    <g>
      <path class="cls-3" d="m236.15,449.2c0,25.49-29.66,46.15-66.24,46.15s-66.24-20.66-66.24-46.15,29.66-46.14,66.24-46.14,66.24,20.66,66.24,46.14Z"/>
      <path class="cls-4" d="m96.72,354.5v67.04c0,9.16,1.69,17.94,4.78,26.03,26.93,0,100.83,2.54,135.81,2.54,3.73-8.78,5.8-18.44,5.8-28.57v-67.04H96.72Z"/>
      <path class="cls-6" d="m252.82,358.57c0,6.7-5.44,12.13-12.13,12.13H99.14c-6.7,0-12.14-5.43-12.14-12.13h0c0-6.7,5.43-12.13,12.14-12.13h141.54c6.7,0,12.13,5.43,12.13,12.13h0Z"/>
      <path class="cls-6" d="m252.82,403.06c0,6.7-5.44,12.13-12.13,12.13H99.14c-6.7,0-12.14-5.43-12.14-12.13h0c0-6.7,5.43-12.13,12.14-12.13h141.54c6.7,0,12.13,5.43,12.13,12.13h0Z"/>
      <path class="cls-6" d="m252.82,447.55c0,6.7-5.44,12.13-12.13,12.13H99.14c-6.7,0-12.14-5.43-12.14-12.13h0c0-6.7,5.43-12.13,12.14-12.13h141.54c6.7,0,12.13,5.43,12.13,12.13h0Z"/>
    </g>
  </g>
</svg>