<?xml version="1.0" encoding="UTF-8"?>
<svg id="Layer_2" data-name="Layer 2" xmlns="http://www.w3.org/2000/svg" viewBox="0 0 244.9 147.5">
  <defs>
    <style>
      .cls-1 {
        fill: #fff;
        stroke-width: 0px;
      }
    </style>
  </defs>
  <g id="Layer_1-2" data-name="Layer 1">
    <g>
      <path class="cls-1" d="m239.79,0h-.02c-2.85,0-5.17,2.25-5.17,5.02s2.32,5.06,5.17,5.06,5.13-2.23,5.13-5.06-2.26-5.02-5.11-5.02m-.02,9.07c-2.18,0-3.92-1.77-3.92-4.02s1.74-4.06,3.9-4.06h.02c2.19,0,3.95,1.82,3.95,4.06s-1.76,4.03-3.95,4.02"/>
      <path class="cls-1" d="m240.87,5.2v-.04c.61-.16,1.11-.62,1.11-1.29,0-.58-.19-.96-.52-1.2-.38-.3-.98-.45-1.97-.45-.87,0-1.37.09-1.83.16v5.59h1.21v-2.31h.56c.62,0,.98.24,1.07.85.11.76.21,1.25.35,1.46h1.26c-.08-.18-.2-.52-.32-1.39-.1-.84-.41-1.28-.92-1.37m-1.42-.46h-.58v-1.62c.17-.02.38-.02.67-.02.82,0,1.16.36,1.16.83,0,.57-.54.8-1.26.8"/>
      <path class="cls-1" d="m73.87,32.82l-1.62,11.74c-2.92-4.52-6.62-7.95-11.11-10.32-4.47-2.35-9.36-3.54-14.67-3.54-7.91,0-15.49,2.09-22.73,6.26-7.24,4.2-13,10.04-17.3,17.52-4.31,7.47-6.44,15.34-6.44,23.62,0,10.84,3.35,20.35,10.07,28.51,6.72,8.16,15.76,12.26,27.14,12.26,4.95,0,9.41-.82,13.4-2.47,3.96-1.62,8.25-4.53,12.84-8.68l-1.26,9.02h20.96l11.86-83.91h-21.13Zm-8.41,53.71c-2.61,4.81-5.87,8.36-9.72,10.62-3.87,2.26-8.38,3.38-13.56,3.38-6.24,0-11.34-2.01-15.31-6.02-3.96-4.01-5.94-9.3-5.94-15.89,0-8.53,2.61-15.49,7.85-20.89,5.23-5.4,11.61-8.1,19.11-8.1,6.46,0,11.65,2.02,15.59,6.07,3.93,4.04,5.9,9.41,5.9,16.06,0,5.02-1.31,9.95-3.92,14.77"/>
      <path class="cls-1" d="m162.8,44.09c-2.76-4.36-6.26-7.68-10.5-9.96-4.23-2.3-8.86-3.42-13.87-3.42-7.47,0-14.63,2.09-21.48,6.26-6.85,4.2-12.3,10.04-16.35,17.52-4.07,7.46-6.09,15.34-6.09,23.62,0,10.84,3.14,20.34,9.44,28.51,6.3,8.16,14.78,12.26,25.45,12.26,4.65,0,8.84-.86,12.56-2.58,3.72-1.72,7.74-4.75,12.03-9.1l-5.62,40.31h20.98l16.15-114.67h-21.13l-1.57,11.26Zm-6.3,42.18c-2.41,4.92-5.39,8.52-8.96,10.82-3.55,2.29-7.73,3.44-12.5,3.44-5.74,0-10.44-2-14.09-6.02-3.67-4.01-5.49-9.3-5.49-15.88,0-8.54,2.42-15.5,7.24-20.9,4.82-5.4,10.7-8.1,17.62-8.1,5.94,0,10.72,1.97,14.35,5.93,3.63,3.96,5.44,9.18,5.44,15.67,0,5.13-1.2,10.15-3.61,15.04"/>
      <polygon class="cls-1" points="185.62 116.74 206.6 116.74 222.83 .56 201.85 .56 185.62 116.74"/>
    </g>
  </g>
</svg>