<?xml version="1.0" encoding="UTF-8"?>
<svg id="Layer_2" data-name="Layer 2" xmlns="http://www.w3.org/2000/svg" viewBox="0 0 468.96 196.64">
  <defs>
    <style>
      .cls-1 {
        fill: #117bc3;
        stroke-width: 0px;
      }
    </style>
  </defs>
  <g id="Layer_1-2" data-name="Layer 1">
    <g>
      <path class="cls-1" d="m224.92,68.83h-48.21c-7.11,0-12.89,5.78-12.89,12.89v64.3c0,7.11,5.78,12.89,12.89,12.89h48.21c.67,0,1.2-.54,1.2-1.2v-10.01c0-.67-.54-1.21-1.2-1.21h-48.21c-.26,0-.46-.21-.46-.46v-64.3c0-.26.21-.46.46-.46h48.21c.67,0,1.2-.54,1.2-1.21v-10.01c0-.67-.54-1.2-1.2-1.2"/>
      <path class="cls-1" d="m291.58,68.96h-41.54c-7.11,0-12.89,5.78-12.89,12.89v64.16c0,7.11,5.78,12.89,12.89,12.89h41.54c7.11,0,12.89-5.78,12.89-12.89v-64.16c0-7.1-5.78-12.89-12.89-12.89m-42,12.89c0-.26.21-.46.46-.46h41.54c.26,0,.46.21.46.46v64.16c0,.26-.21.46-.46.46h-41.54c-.26,0-.46-.21-.46-.46v-64.16Z"/>
      <path class="cls-1" d="m379.83,68.96h-45.53c-7.11,0-12.88,5.78-12.88,12.89v75.78c0,.26.09.51.23.7.21.34.59.56,1.02.56h10.01c.67,0,1.2-.54,1.2-1.2v-39.45h27.93l13.46,40.9c.1.3.32.55.6.7.17.09.36.13.54.13.13,0,.26-.02.38-.06l9.51-3.13c.63-.21.97-.89.77-1.52l-12.18-37.02h4.95c7.1,0,12.88-5.78,12.88-12.89v-23.51c0-7.1-5.78-12.89-12.88-12.89m-46,29.99v-17.1c0-.26.21-.46.47-.46h45.54c.26,0,.46.21.46.46v23.51c0,.26-.21.46-.46.46-6.61,0-36.78.04-49.92.06,2.48-1.74,3.92-4.18,3.92-6.92"/>
      <path class="cls-1" d="m419.54,81.25h48.21c.66,0,1.2-.54,1.2-1.21v-10.01c0-.67-.54-1.2-1.2-1.2h-48.21c-7.11,0-12.88,5.78-12.88,12.89v25.68c0,.67.54,1.2,1.2,1.2h2.41c-2.29,1.74-3.61,4.18-3.61,6.93v33.67c0,5.62,5.42,9.71,12.88,9.71h48.21c.66,0,1.2-.54,1.2-1.2v-10.01c0-.67-.54-1.21-1.2-1.21h-48.21c-.16,0-.32,0-.46-.02v-28.2c.14-.01.3-.02.46-.02h48.21c.66,0,1.2-.54,1.2-1.2v-10.01c0-.67-.54-1.2-1.2-1.2h-48.21c-.15,0-.31,0-.46,0v-24.11c0-.26.21-.46.46-.46"/>
      <path class="cls-1" d="m255.02,0h0c-1.04,0-1.89.82-1.89,1.84s.85,1.85,1.89,1.85,1.88-.82,1.88-1.85-.83-1.84-1.87-1.84m0,3.32c-.8,0-1.43-.65-1.43-1.47s.64-1.49,1.43-1.49h0c.8,0,1.44.67,1.44,1.49s-.65,1.47-1.44,1.47"/>
      <path class="cls-1" d="m255.42,1.9h0c.22-.07.41-.24.41-.49,0-.21-.07-.35-.19-.44-.14-.11-.36-.17-.72-.17-.32,0-.5.03-.67.06v2.05h.44v-.84h.2c.23,0,.36.09.39.31.04.28.08.46.13.53h.46c-.03-.07-.07-.19-.12-.51-.03-.31-.15-.47-.34-.5m-.52-.17h-.21v-.59c.06,0,.14,0,.25,0,.3,0,.43.13.43.3,0,.21-.2.29-.46.29"/>
      <path class="cls-1" d="m194.31,12.01l-.59,4.29c-1.07-1.65-2.42-2.91-4.06-3.78-1.64-.86-3.43-1.29-5.37-1.29-2.9,0-5.67.76-8.32,2.29-2.65,1.54-4.76,3.67-6.33,6.41-1.58,2.73-2.36,5.61-2.36,8.64,0,3.97,1.23,7.45,3.68,10.43,2.46,2.99,5.77,4.49,9.93,4.49,1.81,0,3.45-.3,4.9-.9,1.45-.59,3.02-1.66,4.7-3.18l-.46,3.3h7.67l4.34-30.71h-7.73Zm-3.08,19.65c-.96,1.76-2.15,3.06-3.56,3.89-1.42.83-3.07,1.24-4.96,1.24-2.28,0-4.15-.73-5.6-2.2-1.45-1.47-2.18-3.4-2.18-5.82,0-3.12.96-5.67,2.87-7.65,1.91-1.97,4.25-2.96,6.99-2.96,2.36,0,4.26.74,5.71,2.22,1.44,1.48,2.16,3.44,2.16,5.88,0,1.84-.48,3.64-1.43,5.41"/>
      <path class="cls-1" d="m226.85,16.13c-1.01-1.59-2.29-2.81-3.84-3.65-1.55-.84-3.24-1.25-5.07-1.25-2.74,0-5.36.76-7.86,2.29-2.51,1.54-4.5,3.67-5.98,6.41-1.49,2.73-2.23,5.61-2.23,8.64,0,3.97,1.15,7.45,3.45,10.43,2.3,2.99,5.41,4.49,9.31,4.49,1.7,0,3.23-.32,4.6-.95,1.36-.63,2.83-1.74,4.4-3.33l-2.06,14.75h7.68l5.91-41.96h-7.73l-.58,4.12Zm-2.31,15.44c-.88,1.8-1.97,3.12-3.28,3.96-1.3.84-2.83,1.26-4.58,1.26-2.1,0-3.82-.73-5.16-2.2-1.34-1.47-2.01-3.4-2.01-5.81,0-3.12.89-5.67,2.65-7.65,1.76-1.97,3.91-2.96,6.45-2.96,2.17,0,3.92.72,5.25,2.17,1.33,1.45,1.99,3.36,1.99,5.73,0,1.88-.44,3.71-1.32,5.51"/>
      <polygon class="cls-1" points="235.2 42.72 242.88 42.72 248.82 .2 241.14 .2 235.2 42.72"/>
      <path class="cls-1" d="m173.25,191.88c-.98,0-1.88-.18-2.71-.53-.83-.35-1.54-.85-2.15-1.49-.61-.64-1.08-1.4-1.42-2.26-.34-.86-.51-1.81-.51-2.84s.17-1.99.51-2.85c.34-.87.81-1.62,1.42-2.26.61-.64,1.32-1.14,2.14-1.49.82-.35,1.73-.53,2.72-.53s1.81.17,2.57.5c.76.33,1.4.77,1.93,1.3.53.53.9,1.1,1.12,1.71l-1.67.78c-.32-.78-.82-1.41-1.5-1.88-.68-.48-1.49-.71-2.45-.71s-1.82.23-2.57.69c-.75.46-1.33,1.09-1.75,1.91-.42.82-.63,1.77-.63,2.85s.21,2.02.63,2.84c.42.82,1,1.45,1.75,1.91s1.6.69,2.57.69,1.77-.24,2.45-.71c.68-.48,1.18-1.1,1.5-1.86l1.67.76c-.22.61-.6,1.17-1.12,1.7-.53.53-1.17.96-1.93,1.3-.76.33-1.62.5-2.57.5"/>
      <path class="cls-1" d="m191.64,191.88c-.99,0-1.91-.18-2.75-.53-.85-.35-1.59-.85-2.22-1.49-.64-.64-1.14-1.4-1.5-2.27-.37-.87-.55-1.82-.55-2.85s.18-1.97.55-2.85c.36-.87.86-1.62,1.5-2.26.64-.64,1.38-1.13,2.22-1.48.85-.35,1.76-.53,2.75-.53s1.91.18,2.75.53c.85.35,1.59.85,2.22,1.49.64.64,1.14,1.4,1.5,2.26.36.87.55,1.81.55,2.84s-.18,1.97-.55,2.85c-.36.87-.86,1.63-1.5,2.27-.64.64-1.38,1.14-2.22,1.49-.85.35-1.76.53-2.75.53m0-1.69c.75,0,1.45-.14,2.08-.42.63-.28,1.18-.67,1.64-1.17.46-.5.83-1.08,1.08-1.74.26-.66.39-1.37.39-2.12s-.13-1.46-.39-2.11c-.26-.65-.62-1.23-1.08-1.73-.46-.5-1.01-.89-1.64-1.17-.63-.28-1.32-.42-2.08-.42s-1.45.14-2.08.42c-.63.28-1.18.67-1.64,1.17-.46.5-.82,1.08-1.08,1.73-.26.66-.39,1.36-.39,2.11s.13,1.46.39,2.12c.26.66.62,1.24,1.08,1.74.46.5,1.01.89,1.64,1.17.63.28,1.32.42,2.08.42"/>
      <polygon class="cls-1" points="205.01 191.66 205.01 177.85 206.69 177.85 211.86 185.21 211.01 185.21 216.15 177.85 217.81 177.85 217.81 191.66 215.98 191.66 215.98 180.15 216.63 180.35 211.49 187.58 211.35 187.58 206.27 180.35 206.84 180.15 206.84 191.66 205.01 191.66"/>
      <path class="cls-1" d="m224.56,191.66v-13.81h4.89c.91,0,1.72.17,2.41.52.69.35,1.23.84,1.62,1.48.39.64.58,1.4.58,2.28s-.19,1.62-.58,2.25c-.39.64-.93,1.13-1.61,1.47-.69.35-1.49.52-2.42.52h-3.06v5.28h-1.84Zm1.84-6.95h3.11c.54,0,1.02-.1,1.43-.31.41-.21.73-.51.95-.91.23-.4.34-.85.34-1.37s-.11-.99-.34-1.38c-.23-.39-.55-.69-.95-.9-.41-.21-.88-.32-1.43-.32h-3.11v5.19Z"/>
      <polygon class="cls-1" points="240.22 191.66 240.22 177.85 242.06 177.85 242.06 189.99 248.12 189.99 248.12 191.66 240.22 191.66"/>
      <polygon class="cls-1" points="253.85 191.66 253.85 177.85 262.86 177.85 262.86 179.52 255.68 179.52 255.68 183.89 262.48 183.89 262.48 185.58 255.68 185.58 255.68 189.99 262.86 189.99 262.86 191.66 253.85 191.66"/>
      <polygon class="cls-1" points="271.22 191.66 271.22 179.52 267.47 179.52 267.47 177.85 276.74 177.85 276.74 179.52 273.05 179.52 273.05 191.66 271.22 191.66"/>
      <polygon class="cls-1" points="282.17 191.66 282.17 177.85 291.18 177.85 291.18 179.52 284 179.52 284 183.89 290.81 183.89 290.81 185.58 284 185.58 284 189.99 291.18 189.99 291.18 191.66 282.17 191.66"/>
      <rect class="cls-1" x="304.02" y="177.85" width="2.61" height="13.81"/>
      <path class="cls-1" d="m317.16,191.88c-.95,0-1.82-.22-2.59-.68-.78-.45-1.4-1.07-1.86-1.86-.46-.79-.7-1.69-.7-2.69s.23-1.89.69-2.67c.46-.78,1.07-1.4,1.85-1.85.78-.46,1.65-.69,2.61-.69s1.85.23,2.63.68c.78.45,1.39,1.07,1.85,1.84.45.78.67,1.67.67,2.69s-.23,1.91-.7,2.7c-.47.79-1.09,1.4-1.86,1.85-.77.45-1.63.68-2.59.68m0-1.67c.63,0,1.2-.15,1.7-.46.5-.31.9-.74,1.19-1.28.29-.54.43-1.15.43-1.82s-.14-1.27-.43-1.8c-.29-.53-.69-.95-1.19-1.26-.5-.31-1.07-.46-1.7-.46s-1.18.15-1.68.46c-.5.31-.9.73-1.2,1.26-.3.53-.44,1.13-.44,1.8s.15,1.27.44,1.82c.3.54.7.97,1.2,1.28.5.31,1.06.46,1.68.46"/>
      <polygon class="cls-1" points="330.88 191.66 330.88 179.52 327.14 179.52 327.14 177.85 336.41 177.85 336.41 179.52 332.72 179.52 332.72 191.66 330.88 191.66"/>
      <path class="cls-1" d="m353.49,191.88c-.86,0-1.66-.16-2.39-.49-.73-.33-1.35-.78-1.85-1.34-.51-.57-.88-1.2-1.11-1.91l1.59-.65c.33.89.83,1.57,1.49,2.05.66.48,1.44.71,2.32.71.54,0,1.02-.09,1.43-.26.41-.17.72-.42.95-.73.23-.31.34-.68.34-1.1,0-.58-.16-1.04-.49-1.37-.33-.33-.8-.59-1.44-.78l-2.54-.78c-1-.31-1.77-.79-2.31-1.46-.54-.66-.8-1.43-.8-2.31,0-.75.19-1.42.55-1.99.37-.57.88-1.03,1.53-1.35.65-.33,1.39-.49,2.22-.49s1.58.15,2.25.45c.67.3,1.24.7,1.71,1.2.47.5.82,1.07,1.04,1.71l-1.58.65c-.28-.77-.72-1.35-1.32-1.76-.6-.41-1.29-.61-2.09-.61-.49,0-.93.08-1.31.25-.38.17-.67.41-.87.73-.2.32-.31.69-.31,1.11,0,.51.16.96.48,1.35.32.4.81.7,1.46.91l2.32.69c1.09.33,1.91.81,2.47,1.43.56.62.84,1.38.84,2.3,0,.75-.2,1.42-.58,2-.39.58-.93,1.04-1.61,1.36-.68.33-1.49.49-2.4.49"/>
      <path class="cls-1" d="m371.05,191.88c-.99,0-1.91-.18-2.75-.53-.84-.35-1.59-.85-2.22-1.49-.64-.64-1.14-1.4-1.5-2.27-.36-.87-.55-1.82-.55-2.85s.18-1.97.55-2.85c.37-.87.87-1.62,1.5-2.26.64-.64,1.38-1.13,2.22-1.48.85-.35,1.76-.53,2.75-.53s1.9.18,2.75.53c.84.35,1.59.85,2.22,1.49.63.64,1.14,1.4,1.5,2.26.36.87.55,1.81.55,2.84s-.18,1.97-.55,2.85c-.36.87-.87,1.63-1.5,2.27-.64.64-1.38,1.14-2.22,1.49-.85.35-1.76.53-2.75.53m0-1.69c.75,0,1.45-.14,2.08-.42.63-.28,1.18-.67,1.64-1.17.46-.5.82-1.08,1.09-1.74.26-.66.39-1.37.39-2.12s-.13-1.46-.39-2.11c-.26-.65-.62-1.23-1.09-1.73-.46-.5-1.01-.89-1.64-1.17-.63-.28-1.32-.42-2.08-.42s-1.45.14-2.08.42c-.63.28-1.18.67-1.64,1.17-.46.5-.82,1.08-1.09,1.73-.26.66-.39,1.36-.39,2.11s.13,1.46.39,2.12c.26.66.62,1.24,1.09,1.74.46.5,1.01.89,1.64,1.17.63.28,1.32.42,2.08.42"/>
      <polygon class="cls-1" points="384.41 191.66 384.41 177.85 386.25 177.85 386.25 189.99 392.31 189.99 392.31 191.66 384.41 191.66"/>
      <path class="cls-1" d="m402.69,191.88c-1,0-1.89-.21-2.66-.63-.77-.42-1.37-1-1.8-1.73-.43-.74-.64-1.57-.64-2.51v-9.16h1.83v9.12c0,.63.14,1.19.42,1.68.28.49.66.87,1.15,1.14.49.27,1.05.41,1.7.41s1.21-.14,1.7-.41c.49-.27.87-.65,1.15-1.14.28-.49.42-1.05.42-1.68v-9.12h1.84v9.16c0,.94-.21,1.78-.64,2.51-.43.74-1.02,1.31-1.79,1.73-.77.42-1.66.63-2.67.63"/>
      <polygon class="cls-1" points="416.89 191.66 416.89 179.52 413.14 179.52 413.14 177.85 422.41 177.85 422.41 179.52 418.72 179.52 418.72 191.66 416.89 191.66"/>
      <rect class="cls-1" x="427.84" y="177.85" width="2.61" height="13.81"/>
      <path class="cls-1" d="m443.06,191.88c-.99,0-1.91-.18-2.75-.53-.85-.35-1.59-.85-2.22-1.49-.64-.64-1.14-1.4-1.5-2.27-.36-.87-.55-1.82-.55-2.85s.18-1.97.55-2.85c.37-.87.87-1.62,1.5-2.26.64-.64,1.38-1.13,2.22-1.48.85-.35,1.76-.53,2.75-.53s1.9.18,2.75.53c.84.35,1.58.85,2.22,1.49.64.64,1.14,1.4,1.5,2.26.36.87.55,1.81.55,2.84s-.18,1.97-.55,2.85c-.36.87-.87,1.63-1.5,2.27-.64.64-1.38,1.14-2.22,1.49-.85.35-1.76.53-2.75.53m0-1.69c.75,0,1.44-.14,2.08-.42.63-.28,1.18-.67,1.64-1.17.46-.5.82-1.08,1.08-1.74.26-.66.39-1.37.39-2.12s-.13-1.46-.39-2.11c-.26-.65-.62-1.23-1.08-1.73-.46-.5-1.01-.89-1.64-1.17-.63-.28-1.32-.42-2.08-.42s-1.45.14-2.08.42c-.63.28-1.18.67-1.64,1.17-.46.5-.82,1.08-1.08,1.73-.26.66-.39,1.36-.39,2.11s.13,1.46.39,2.12c.26.66.62,1.24,1.08,1.74.46.5,1.01.89,1.64,1.17.63.28,1.32.42,2.08.42"/>
      <polygon class="cls-1" points="456.42 191.66 456.42 177.85 457.96 177.85 465.87 189.01 465.21 189.08 465.21 177.85 467.04 177.85 467.04 191.66 465.51 191.66 457.63 180.43 458.26 180.35 458.26 191.66 456.42 191.66"/>
      <path class="cls-1" d="m133.89,76.27l-32.71-18.89s.05.06.08.09c.11.13.23.25.34.38.04.05.09.1.13.15.13.16.27.31.39.47.04.04.07.09.11.13.1.13.21.26.31.4.04.05.07.1.11.14.12.16.24.33.36.5.03.05.07.1.1.14.1.14.19.28.28.42.03.05.06.09.09.14.11.17.22.35.32.52.03.05.06.1.09.15.09.15.18.3.26.45.02.04.05.08.07.13.1.18.2.37.29.55.03.05.05.11.08.16.08.16.16.33.24.49.02.04.03.07.05.11.09.19.18.39.26.58.02.06.05.11.07.17.08.18.15.36.23.54.01.03.02.05.03.08.08.2.16.41.24.62.02.06.04.12.06.17.07.2.14.41.21.61,0,.02.01.03.02.05.07.21.14.43.2.64.02.06.04.12.05.18.07.22.13.44.19.67,0,.02.01.05.02.07.06.21.11.42.17.63.02.06.03.12.05.18.06.23.11.46.17.7,0,.03.02.07.02.1.05.21.09.42.14.64.01.06.03.12.04.18.05.24.1.48.14.73,0,.04.02.09.02.13.04.22.08.44.12.66.01.06.02.12.03.18.04.25.08.51.12.77,0,.05.02.11.02.16.03.22.07.45.1.68,0,.06.02.12.02.18.03.26.07.53.1.8,0,.06.01.12.02.18.03.24.05.47.08.71,0,.06.01.11.02.17.03.28.06.56.08.84,0,.07.01.13.02.2.02.25.05.5.07.76,0,.05,0,.1.01.15.02.29.05.59.07.88,0,.07.01.15.02.22.02.27.04.54.05.82,0,.04,0,.08,0,.12.02.31.04.62.05.93,0,.08,0,.15.01.23.02.3.03.59.04.89,0,.03,0,.05,0,.08.01.32.03.65.04.98,0,.08,0,.16,0,.24.01.33.02.66.04,1v34.8s0,.07,0,.07c0,10.55-4.11,20.46-11.56,27.92-.24.24-.49.48-.74.71l22.2-12.82c16.59-10.33,19.51-16.7,19.51-26.27v-24.82c0-2.78-1.49-5.37-3.9-6.76"/>
      <path class="cls-1" d="m118.83,135.06l-29.73,17.16-.47.27c-.16.09-.32.18-.48.27-9.03,5.05-19.47,6.36-29.48,3.68-.33-.09-.66-.18-.99-.28l22.2,12.82c9.93,5.3,16.45,7.33,21.78,7.19.21,0,.41-.01.62-.03.2-.01.41-.03.61-.05,3.39-.31,6.34-1.53,9.48-3.34h0s21.51-12.42,21.51-12.42c2.4-1.39,3.9-3.98,3.9-6.75v-37.77c-2.36,7.65-8.58,12.81-18.95,19.26"/>
      <path class="cls-1" d="m102.87,177.14c-.2.02-.4.04-.6.05-.49.03-.98.05-1.47.05-6.27,0-12.84-2.72-21.44-7.31l-29.73-17.16-.47-.27c-.16-.09-.31-.19-.47-.28-8.89-5.29-15.24-13.69-17.93-23.7-.09-.33-.17-.66-.25-1v25.63c.37,11.25,1.88,17.91,4.67,22.46.11.18.22.35.33.52s.23.34.34.5c1.97,2.78,4.49,4.73,7.63,6.54h.01s.01.02.01.02l21.5,12.41c2.1,1.21,4.66,1.37,6.87.46.11-.05.23-.1.34-.15.04-.02.09-.04.13-.06.15-.08.31-.16.46-.24l30.07-17.36.47-.27.47-.27,1.69-.98c-.68.16-1.37.27-2.05.36-.2.03-.4.05-.59.07"/>
      <path class="cls-1" d="m34.92,177.14c-.12-.16-.23-.33-.35-.5-3.76-5.59-4.82-12.96-5.17-23.47v-34.87c0-.18,0-.37,0-.55.14-10.34,4.23-20.04,11.56-27.37.24-.24.49-.48.74-.71l-22.2,12.82c-8.47,5.27-14.1,9.65-17.05,15.27-.1.18-.19.36-.28.55-.09.18-.17.36-.26.55C.64,121.72,0,124.93,0,128.75v24.82c0,2.78,1.49,5.37,3.9,6.75l30.07,17.36.47.27.47.27,1.69.98c-.48-.51-.92-1.04-1.34-1.59-.12-.16-.24-.32-.35-.48"/>
      <path class="cls-1" d="m.95,118.3c.08-.18.17-.37.26-.55,2.96-6.06,8.81-10.65,17.74-16.21l29.73-17.16.47-.27c.16-.09.32-.18.48-.27,9.03-5.05,19.47-6.36,29.48-3.67.33.09.66.18.99.28l-22.2-12.81c-9.93-5.3-16.45-7.33-21.78-7.19-.21,0-.41.01-.62.03-.2.01-.41.03-.61.05-3.39.31-6.35,1.53-9.48,3.34h-.02s-19.14,11.06-19.14,11.06l-2.36,1.36c-1.5.87-2.65,2.21-3.3,3.76C.21,80.97,0,81.99,0,83.03v37.78c.21-.67.45-1.32.71-1.96.08-.18.16-.37.24-.55"/>
      <path class="cls-1" d="m34.92,59.46c.2-.02.4-.04.6-.05.49-.03.97-.05,1.46-.05,6.27,0,12.84,2.72,21.45,7.31l29.54,17.05.5.29.16.09c.11.07.23.13.34.2,8.96,5.29,15.36,13.71,18.06,23.77.09.33.17.65.25.98v-25.61c-.63-19-4.49-24.93-12.33-29.64-.16-.1-.33-.2-.5-.3-.05-.03-.11-.06-.16-.09l-.34-.2-21.16-12.22c-2.4-1.39-5.39-1.39-7.8,0l-30.07,17.36-.47.27-.47.27-1.69.98c.68-.16,1.36-.27,2.05-.36.2-.03.4-.05.59-.07"/>
    </g>
  </g>
</svg>