<?xml version="1.0" encoding="UTF-8"?>
<svg id="Layer_2" data-name="Layer 2" xmlns="http://www.w3.org/2000/svg" viewBox="0 0 358.92 122.79">
  <defs>
    <style>
      .cls-1 {
        stroke-width: 0px;
      }
    </style>
  </defs>
  <g id="Layer_1-2" data-name="Layer 1">
    <g>
      <path class="cls-1" d="m293.33,20.84h-.73c-11.09,0-20.11-9.02-20.11-20.11v-.73h39.49v1.45c-10.28,0-18.65,8.37-18.65,18.66v.73Zm-19.37-19.38c.37,9.72,8.21,17.55,17.93,17.91.3-8.12,5.42-15.02,12.58-17.91h-30.51Z"/>
      <path class="cls-1" d="m312.72,40.22h-.73c-11.09,0-20.11-9.02-20.11-20.11v-.73h.73c10.28,0,18.65-8.37,18.65-18.66h1.45v39.49h0Zm-19.36-19.4c.37,9.72,8.2,17.56,17.91,17.93V8.24c-2.9,7.16-9.8,12.29-17.91,12.59"/>
      <path class="cls-1" d="m159.88,25.63l-2.93,12.72h-.6l-2.99-12.13h-2.48l-2.65,12.13h-.62l-3.27-12.72h-2l3.9,14.46h3.31l2.56-11.3,2.83,11.3h3.33l3.55-14.46h-1.94Z"/>
      <path class="cls-1" d="m168.41,29.19h-.08c-.89,0-1.61.21-2.18.62-.52.38-.92.91-1.19,1.57v-5.76h-1.9v14.47h1.9v-6.1c0-.91.25-1.65.76-2.21.51-.56,1.18-.84,2.03-.84.77,0,1.39.24,1.87.71.48.48.72,1.15.72,2v6.44h1.9v-6.05c0-1.56-.32-2.76-.97-3.6-.65-.84-1.61-1.26-2.87-1.26Z"/>
      <path class="cls-1" d="m173.26,29.51v1.5h1.62v9.07h1.91v-10.58h-3.53Z"/>
      <path class="cls-1" d="m175.42,27.81c.42,0,.74-.11.94-.34.21-.23.31-.51.31-.85s-.1-.63-.31-.85c-.21-.23-.52-.34-.94-.34s-.74.11-.94.34c-.21.23-.31.51-.31.85s.1.63.31.85c.2.23.52.34.94.34Z"/>
      <path class="cls-1" d="m181.78,26.3h-1.83v3.21h-1.83v1.43h1.83v5.55c0,.94.16,1.68.47,2.23.31.55.76.94,1.33,1.16.57.23,1.26.34,2.05.34h1.62v-1.71h-1.86c-.57,0-1.01-.16-1.32-.47-.31-.31-.47-.75-.47-1.32v-5.79h3.65v-1.43h-3.65v-3.21Z"/>
      <path class="cls-1" d="m194.08,29.9c-.75-.5-1.69-.74-2.85-.74-.89,0-1.66.16-2.31.47-.65.31-1.19.72-1.62,1.25-.42.52-.74,1.11-.94,1.76-.21.65-.31,1.32-.31,2v.36c0,.67.1,1.33.31,1.98.2.65.52,1.23.94,1.76.42.52.97.94,1.64,1.26.67.31,1.47.48,2.4.48.83,0,1.58-.14,2.24-.42.66-.28,1.21-.68,1.64-1.21.43-.53.72-1.16.87-1.88h-1.78c-.11.49-.42.92-.94,1.29-.52.37-1.2.55-2.03.55s-1.45-.18-1.96-.52c-.52-.35-.89-.82-1.14-1.43-.21-.5-.32-1.06-.36-1.67h8.39v-.85c0-.89-.18-1.72-.54-2.5-.37-.78-.92-1.42-1.67-1.91m-4.72,1.44c.5-.35,1.12-.52,1.87-.52s1.33.15,1.8.45c.48.3.83.73,1.07,1.28.15.35.26.74.31,1.18h-6.45c.06-.35.15-.69.28-.99.25-.59.62-1.06,1.11-1.4"/>
      <path class="cls-1" d="m209.3,34.39c.79-.31,1.4-.81,1.84-1.47.44-.66.66-1.51.66-2.56v-.31c0-1.05-.22-1.9-.65-2.56-.43-.66-1.05-1.15-1.84-1.47-.79-.31-1.72-.48-2.78-.48h-4.74v14.55h1.94v-5.23h3.1l3.9,5.24h2.36l-4.21-5.56c.14-.04.28-.09.42-.14m-5.56-7.13h3.15c.6,0,1.13.13,1.57.38.43.26.77.61,1.01,1.05.24.44.36.95.36,1.52s-.12,1.07-.36,1.52c-.24.44-.57.79-1.01,1.04-.43.25-.96.38-1.57.38h-3.15v-5.89Z"/>
      <path class="cls-1" d="m222.7,30.87c-.49-.52-1.08-.94-1.78-1.25-.7-.31-1.5-.47-2.4-.47s-1.7.16-2.4.47c-.7.31-1.3.72-1.78,1.25-.49.52-.86,1.11-1.11,1.76-.25.65-.38,1.32-.38,1.99v.36c0,.67.12,1.33.37,1.98.25.65.61,1.23,1.09,1.76.48.52,1.07.94,1.78,1.26.7.31,1.51.48,2.44.48s1.74-.16,2.44-.48c.7-.31,1.29-.74,1.78-1.26.48-.52.84-1.11,1.09-1.76.25-.65.37-1.31.37-1.98v-.36c0-.67-.13-1.34-.38-1.99-.25-.65-.62-1.24-1.11-1.76Zm-.86,5.94c-.3.59-.73,1.07-1.29,1.42-.56.35-1.24.52-2.03.52s-1.47-.18-2.03-.52c-.56-.35-.99-.82-1.29-1.42-.3-.59-.45-1.26-.45-2s.15-1.43.45-2.02c.3-.59.74-1.06,1.31-1.41.57-.35,1.23-.52,2-.52s1.45.17,2.01.52c.56.35.99.81,1.3,1.41.3.59.45,1.27.45,2.02s-.15,1.4-.45,2"/>
      <path class="cls-1" d="m232.88,34.89c-.69-.51-1.6-.82-2.73-.94l-1.15-.12c-.62-.06-1.06-.22-1.33-.45-.27-.24-.41-.55-.41-.95,0-.46.19-.84.57-1.15.38-.3.94-.45,1.68-.45s1.3.15,1.67.45c.38.3.57.65.59,1.08h1.78c-.03-1.05-.41-1.83-1.15-2.36-.74-.53-1.71-.79-2.9-.79-.79,0-1.49.13-2.1.38-.61.26-1.08.63-1.43,1.11-.35.48-.52,1.06-.52,1.73,0,.9.31,1.59.95,2.09.64.5,1.45.79,2.46.9l1.15.12c.74.08,1.27.24,1.61.48.33.25.5.59.5,1.02,0,.49-.23.9-.67,1.24-.45.34-1.1.5-1.94.5-.94,0-1.6-.18-1.99-.55-.39-.37-.6-.75-.62-1.16h-1.78c.03,1.03.42,1.84,1.18,2.44.76.59,1.83.89,3.22.89.86,0,1.62-.14,2.28-.43.66-.28,1.18-.68,1.56-1.19.38-.51.57-1.1.57-1.76,0-.93-.35-1.64-1.03-2.15"/>
      <path class="cls-1" d="m242.9,29.9c-.75-.5-1.69-.74-2.85-.74-.89,0-1.66.16-2.31.47-.65.31-1.19.72-1.62,1.25-.42.52-.74,1.11-.94,1.76-.21.65-.31,1.32-.31,2v.36c0,.67.1,1.33.31,1.98.21.65.52,1.23.94,1.76.42.52.97.94,1.64,1.26.67.31,1.47.48,2.4.48.83,0,1.58-.14,2.24-.42.66-.28,1.21-.68,1.64-1.21.43-.53.72-1.16.87-1.88h-1.78c-.11.49-.42.92-.94,1.29-.52.37-1.2.55-2.03.55s-1.45-.18-1.96-.52c-.52-.35-.89-.82-1.14-1.43-.21-.5-.32-1.06-.36-1.67h8.39v-.85c0-.89-.18-1.72-.54-2.5-.37-.78-.92-1.42-1.67-1.91m-4.72,1.44c.5-.35,1.12-.52,1.87-.52s1.33.15,1.8.45c.48.3.83.73,1.07,1.28.15.35.26.74.31,1.18h-6.45c.06-.35.15-.69.28-.99.25-.59.62-1.06,1.11-1.4"/>
      <path class="cls-1" d="m258.02,26.11c-.8-.38-1.79-.57-2.98-.57h-4.42v14.55h1.94v-5.04h2.47c1.19,0,2.19-.19,2.98-.57.8-.38,1.4-.91,1.81-1.61.41-.69.62-1.5.62-2.43v-.31c0-.94-.21-1.75-.62-2.44s-1.01-1.22-1.81-1.59m.1,5.74c-.23.46-.57.83-1.02,1.1-.45.27-1.02.41-1.71.41h-2.83v-6.11h2.83c.69,0,1.25.13,1.71.4.45.26.79.63,1.02,1.09s.35.98.35,1.57-.11,1.08-.35,1.54Z"/>
      <path class="cls-1" d="m267.42,29.78c-.69-.26-1.57-.38-2.66-.38-.31,0-.65,0-.99.01-.35,0-.68.02-1,.04-.32.02-.63.04-.92.07v1.66c.29-.03.64-.04,1.03-.06.4-.01.81-.03,1.25-.04s.86-.02,1.27-.02c.72,0,1.28.18,1.66.55.38.37.57.92.57,1.64v.26h-2.68c-.91,0-1.69.13-2.34.38-.65.26-1.14.64-1.48,1.14-.33.5-.5,1.13-.5,1.88s.16,1.35.47,1.86c.31.52.76.91,1.33,1.18s1.26.41,2.05.41c.74,0,1.37-.13,1.9-.4.52-.26.93-.65,1.23-1.16.14-.25.26-.52.35-.81v2.09h1.5v-6.7c0-.99-.16-1.78-.5-2.36-.33-.58-.84-1-1.52-1.26m-.25,8.01c-.27.39-.61.67-1.02.83-.41.16-.84.25-1.29.25-.77,0-1.35-.18-1.76-.54-.41-.36-.62-.82-.62-1.4s.21-1.06.62-1.43.99-.55,1.76-.55h2.75v1.23c-.03.69-.18,1.23-.45,1.62"/>
      <path class="cls-1" d="m273.81,30.47c-.49.52-.81,1.27-.94,2.22v-3.18h-1.5v10.59h1.9v-5.73c0-1.06.28-1.86.85-2.43.57-.56,1.38-.84,2.44-.84h.67v-1.71h-.36c-1.36,0-2.38.36-3.06,1.08Z"/>
      <path class="cls-1" d="m283.22,34.03l3.9-4.51h-2l-4.52,5.25v-9.14h-1.9v14.46h1.9v-4.93h1.41l3.98,4.93h2.2l-4.97-6.06Z"/>
      <path class="cls-1" d="m292.6,20.84h-.73v-.73c0-11.09,9.02-20.11,20.11-20.11h.73v.73c0,11.09-9.02,20.11-20.11,20.11m18.64-19.37c-9.7.38-17.51,8.2-17.9,17.9,9.7-.38,17.51-8.2,17.9-17.9Z"/>
      <path class="cls-1" d="m108.27,10.7c-.74,0-1.33.59-1.33,1.3s.6,1.31,1.33,1.31,1.33-.57,1.33-1.31-.59-1.3-1.32-1.3h0Zm0,2.35c-.57,0-1.01-.46-1.01-1.04s.45-1.05,1.01-1.05h0c.57,0,1.02.47,1.02,1.05s-.45,1.04-1.02,1.04Z"/>
      <path class="cls-1" d="m108.55,12.05c.16-.05.29-.17.29-.35,0-.15-.05-.25-.13-.31-.1-.08-.25-.12-.51-.12-.23,0-.35.03-.47.04v1.44h.31v-.6h.14c.16,0,.25.06.28.22.03.2.06.32.09.38h.33c-.02-.05-.05-.13-.08-.36-.03-.21-.11-.33-.24-.35h0Zm-.37-.12h-.15v-.42h.18c.21,0,.3.09.3.21,0,.14-.14.21-.33.21h0Z"/>
      <path class="cls-1" d="m65.37,19.19l-.42,3.04c-.76-1.16-1.71-2.06-2.87-2.67-1.16-.6-2.42-.91-3.79-.91-2.05,0-4,.54-5.87,1.62-1.87,1.08-3.36,2.59-4.47,4.53-1.11,1.93-1.67,3.97-1.67,6.11,0,2.8.87,5.26,2.6,7.37,1.74,2.11,4.07,3.17,7.01,3.17,1.28,0,2.44-.21,3.46-.64,1.03-.42,2.13-1.17,3.32-2.24l-.33,2.33h5.42l3.07-21.69h-5.47,0Zm-2.17,13.88c-.67,1.25-1.52,2.16-2.51,2.75-1,.59-2.17.88-3.51.88-1.61,0-2.93-.52-3.96-1.56-1.03-1.04-1.54-2.41-1.54-4.11,0-2.2.67-4,2.03-5.4,1.35-1.4,3-2.09,4.94-2.09,1.67,0,3.01.52,4.03,1.57,1.01,1.05,1.52,2.43,1.52,4.15,0,1.3-.34,2.58-1.01,3.82h.01Z"/>
      <path class="cls-1" d="m88.36,22.1c-.71-1.13-1.62-1.99-2.71-2.58-1.1-.59-2.29-.89-3.58-.89-1.93,0-3.78.54-5.55,1.62-1.77,1.08-3.18,2.59-4.23,4.53-1.05,1.93-1.57,3.97-1.57,6.11,0,2.8.81,5.26,2.44,7.37,1.62,2.11,3.82,3.17,6.58,3.17,1.2,0,2.29-.22,3.25-.67.96-.45,2-1.23,3.11-2.36l-1.45,10.42h5.42l4.17-29.65h-5.47l-.41,2.91h0Zm-1.63,10.91c-.62,1.27-1.39,2.2-2.32,2.8-.92.59-2,.89-3.23.89-1.49,0-2.7-.52-3.65-1.56-.95-1.04-1.42-2.41-1.42-4.11,0-2.21.62-4,1.87-5.4,1.25-1.4,2.76-2.09,4.56-2.09,1.54,0,2.77.51,3.71,1.53.94,1.03,1.4,2.37,1.4,4.05,0,1.32-.31,2.63-.93,3.89Z"/>
      <path class="cls-1" d="m94.26,40.89h5.42l4.2-30.04h-5.43l-4.19,30.04Z"/>
      <path class="cls-1" d="m0,110.43v-34.99h6.6v14.45h12.99v-14.45h6.6v34.99h-6.6v-14.54H6.6v14.54H0Z"/>
      <path class="cls-1" d="m40.38,110.43l9.19-34.99h11.49l9.19,34.99h-6.79l-1.9-7.69h-12.49l-1.9,7.69h-6.79,0Zm10.25-13.79h9.39l-4.25-17.04h-.9l-4.25,17.04h0Z"/>
      <path class="cls-1" d="m97.45,111.13c-4.33,0-7.76-1.21-10.3-3.62-2.53-2.42-3.8-5.87-3.8-10.37v-8.39c0-4.5,1.27-7.95,3.8-10.37,2.53-2.42,5.96-3.62,10.3-3.62s7.62,1.17,9.97,3.52c2.35,2.35,3.52,5.57,3.52,9.67v.3h-6.5v-.5c0-2.07-.57-3.77-1.73-5.1-1.15-1.33-2.91-2-5.27-2s-4.16.72-5.5,2.15c-1.33,1.44-2,3.38-2,5.85v8.6c0,2.43.67,4.37,2,5.82,1.33,1.45,3.17,2.17,5.5,2.17s4.12-.67,5.27-2.02c1.15-1.35,1.73-3.04,1.73-5.08v-.9h6.5v.7c0,4.1-1.18,7.32-3.52,9.67-2.34,2.35-5.67,3.53-9.97,3.53h0Z"/>
      <path class="cls-1" d="m126.33,110.43v-34.99h6.6v13.89h.9l11.35-13.89h8.44l-14.59,17.24,15.09,17.74h-8.7l-11.59-14.19h-.9v14.19h-6.61Z"/>
      <path class="cls-1" d="m165.22,110.43l9.19-34.99h11.49l9.19,34.99h-6.79l-1.9-7.69h-12.49l-1.9,7.69h-6.79,0Zm10.25-13.79h9.39l-4.25-17.04h-.9l-4.25,17.04h0Z"/>
      <path class="cls-1" d="m214.19,110.43v-28.98h-10.19v-5.99h26.99v5.99h-10.19v28.98h-6.6Z"/>
      <path class="cls-1" d="m245.48,110.43v-34.99h6.6v14.45h12.99v-14.45h6.6v34.99h-6.6v-14.54h-12.99v14.54h-6.6Z"/>
      <path class="cls-1" d="m301.85,111.13c-4.4,0-7.9-1.21-10.5-3.62-2.6-2.42-3.9-5.87-3.9-10.37v-8.39c0-4.5,1.3-7.95,3.9-10.37,2.6-2.42,6.1-3.62,10.5-3.62s7.9,1.21,10.5,3.62,3.9,5.87,3.9,10.37v8.39c0,4.5-1.3,7.95-3.9,10.37-2.6,2.42-6.1,3.62-10.5,3.62Zm0-5.9c2.47,0,4.38-.72,5.75-2.15,1.37-1.43,2.05-3.35,2.05-5.75v-8.8c0-2.4-.68-4.31-2.05-5.75-1.37-1.43-3.28-2.15-5.75-2.15s-4.34.72-5.72,2.15c-1.39,1.44-2.07,3.35-2.07,5.75v8.8c0,2.4.69,4.31,2.07,5.75,1.38,1.44,3.29,2.15,5.72,2.15Z"/>
      <path class="cls-1" d="m332.03,110.43v-34.99h12.54l6.95,30.48h.9v-30.48h6.5v34.99h-12.54l-6.95-30.48h-.9v30.48h-6.5Z"/>
      <path class="cls-1" d="m282.1,119.01h-36.52v3.78h36.52v-3.78Z"/>
      <path class="cls-1" d="m320.51,119.01h-36.52v3.78h36.52v-3.78Z"/>
      <path class="cls-1" d="m358.92,119.01h-36.52v3.78h36.52v-3.78Z"/>
    </g>
  </g>
</svg>