<?xml version="1.0" encoding="UTF-8"?>
<svg id="Layer_2" data-name="Layer 2" xmlns="http://www.w3.org/2000/svg" viewBox="0 0 284.6 291.78">
  <defs>
    <style>
      .cls-1 {
        isolation: isolate;
      }

      .cls-2 {
        fill: #4f413c;
      }

      .cls-2, .cls-3, .cls-4, .cls-5, .cls-6, .cls-7, .cls-8, .cls-9, .cls-10, .cls-11, .cls-12, .cls-13 {
        stroke-width: 0px;
      }

      .cls-3 {
        fill: #c72f21;
      }

      .cls-4 {
        fill: #e0dcc6;
      }

      .cls-5 {
        fill: #b4b096;
      }

      .cls-6 {
        fill: #918779;
      }

      .cls-7 {
        fill: #b5aa95;
      }

      .cls-8 {
        fill: #a09787;
      }

      .cls-9 {
        fill: #ff7464;
      }

      .cls-10 {
        fill: #f1f2f2;
      }

      .cls-11 {
        fill: #fff;
      }

      .cls-12 {
        fill: #e6e7e8;
      }

      .cls-13 {
        fill: #f4f3ea;
      }
    </style>
  </defs>
  <g id="Layer_1-2" data-name="Layer 1">
    <g>
      <polygon class="cls-4" points="142.29 291.78 10.06 215.44 10.06 94.35 142.29 170.69 142.29 291.78"/>
      <polygon class="cls-8" points="274.52 215.44 142.29 291.78 142.29 170.69 274.52 94.35 274.52 215.44"/>
      <g>
        <g>
          <g class="cls-1">
            <polygon class="cls-11" points="27.43 210.69 48.02 222.57 48.61 222.23 48.02 221.89 28.02 210.34 27.43 210.69"/>
            <polygon class="cls-12" points="27.43 210.69 28.02 210.34 28.15 161.2 28.15 160.52 27.56 160.86 27.43 210.69"/>
            <polygon class="cls-12" points="49.21 224.62 49.8 224.28 49.93 171.73 49.34 172.07 49.21 224.62"/>
            <polygon class="cls-11" points="49.34 172.07 49.93 171.73 26.96 158.47 26.37 158.82 49.34 172.07"/>
            <g>
              <path class="cls-10" d="m26.24,211.36l22.96,13.26.13-52.54-22.97-13.26-.13,52.54Zm1.19-.67l.12-49.82.59.34,20,11.55-.12,49.14v.68l-20.59-11.88Z"/>
              <polygon class="cls-2" points="28.02 210.34 48.02 221.89 48.14 172.75 28.15 161.2 28.02 210.34"/>
            </g>
          </g>
          <g class="cls-1">
            <polygon class="cls-11" points="27.5 159.3 48.08 171.19 48.67 170.85 48.08 170.5 28.08 158.96 27.5 159.3"/>
            <polygon class="cls-12" points="27.5 159.3 28.08 158.96 28.21 115.83 28.21 115.15 27.62 115.49 27.5 159.3"/>
            <polygon class="cls-12" points="49.27 173.24 49.86 172.9 49.99 126.35 49.4 126.7 49.27 173.24"/>
            <polygon class="cls-11" points="49.4 126.7 49.99 126.35 27.02 113.1 26.43 113.44 49.4 126.7"/>
            <g>
              <path class="cls-10" d="m26.3,159.98l22.97,13.26.13-46.54-22.96-13.26-.13,46.54Zm1.19-.68l.12-43.81.59.34,20,11.55-.12,43.13v.69l-20.59-11.89Z"/>
              <polygon class="cls-2" points="28.08 158.96 48.08 170.5 48.21 127.38 28.21 115.83 28.08 158.96"/>
            </g>
          </g>
        </g>
        <g>
          <g class="cls-1">
            <polygon class="cls-11" points="49.34 223.38 69.92 235.26 70.51 234.92 69.92 234.58 49.93 223.04 49.34 223.38"/>
            <polygon class="cls-12" points="49.34 223.38 49.93 223.04 50.05 173.9 50.05 173.22 49.46 173.56 49.34 223.38"/>
            <polygon class="cls-12" points="71.11 237.31 71.7 236.97 71.83 184.42 71.24 184.77 71.11 237.31"/>
            <polygon class="cls-11" points="71.24 184.77 71.83 184.42 48.87 171.17 48.28 171.51 71.24 184.77"/>
            <g>
              <path class="cls-10" d="m48.14,224.06l22.96,13.25.13-52.55-22.97-13.26-.13,52.55Zm1.19-.68l.12-49.82.59.34,20,11.55-.12,49.13v.68l-20.59-11.89Z"/>
              <polygon class="cls-2" points="49.93 223.04 69.92 234.58 70.05 185.45 50.05 173.9 49.93 223.04"/>
            </g>
          </g>
          <g class="cls-1">
            <polygon class="cls-11" points="49.4 172 69.98 183.88 70.57 183.54 69.98 183.2 49.99 171.66 49.4 172"/>
            <polygon class="cls-12" points="49.4 172 49.99 171.66 50.11 128.52 50.11 127.84 49.52 128.19 49.4 172"/>
            <polygon class="cls-12" points="71.17 185.93 71.76 185.59 71.89 139.06 71.3 139.4 71.17 185.93"/>
            <polygon class="cls-11" points="71.3 139.4 71.89 139.06 48.93 125.8 48.34 126.14 71.3 139.4"/>
            <g>
              <path class="cls-10" d="m48.21,172.67l22.97,13.26.13-46.53-22.96-13.26-.13,46.53Zm1.19-.67l.12-43.81.59.34,20,11.55-.13,43.13v.68l-20.59-11.88Z"/>
              <polygon class="cls-2" points="49.99 171.66 69.98 183.2 70.11 140.07 50.11 128.52 49.99 171.66"/>
            </g>
          </g>
        </g>
        <g class="cls-1">
          <polygon class="cls-13" points="75.01 239.25 71.7 241.15 68.34 243.13 19.55 215.16 26.21 211.29 68.39 235.42 71.75 237.36 75.01 239.25"/>
          <polygon class="cls-7" points="26.24 107.9 26.24 115.61 26.21 211.29 19.55 215.16 19.58 111.78 22.93 109.84 26.24 107.9"/>
          <path class="cls-4" d="m22.91,102.11l-6.64,3.86h0s0,0,0,0h-.02s.02.03.02.03l-.07,111.06,55.5,31.84v.02l6.66-3.87.07-111.09-55.52-31.85Zm20.47,19.43l-17.13-9.81-3.31-1.89-2.96-1.72,23.41,13.42Zm25.02,113.88l-.05,7.71-48.79-27.97.03-103.38,6.67,3.83,42.17,24.14-.02,95.68Zm3.31,5.73v-.09,1.58-1.5Z"/>
        </g>
      </g>
      <g>
        <g>
          <g class="cls-1">
            <polygon class="cls-11" points="79.46 240.67 100.04 252.56 100.63 252.22 100.04 251.88 80.05 240.33 79.46 240.67"/>
            <polygon class="cls-12" points="79.46 240.67 80.05 240.33 80.17 191.2 80.17 190.52 79.58 190.86 79.46 240.67"/>
            <polygon class="cls-12" points="101.23 254.61 101.82 254.27 101.95 201.73 101.36 202.06 101.23 254.61"/>
            <polygon class="cls-11" points="101.36 202.06 101.95 201.73 78.98 188.47 78.4 188.8 101.36 202.06"/>
            <g>
              <path class="cls-10" d="m78.26,241.35l22.97,13.26.13-52.54-22.96-13.26-.13,52.54Zm1.19-.68l.12-49.82.59.34,20,11.55-.12,49.14v.68l-20.59-11.88Z"/>
              <polygon class="cls-2" points="80.05 240.33 100.04 251.88 100.17 202.74 80.17 191.2 80.05 240.33"/>
            </g>
          </g>
          <g class="cls-1">
            <polygon class="cls-11" points="79.52 189.3 100.11 201.18 100.7 200.84 100.11 200.5 80.11 188.95 79.52 189.3"/>
            <polygon class="cls-12" points="79.52 189.3 80.11 188.95 80.23 145.83 80.23 145.15 79.64 145.48 79.52 189.3"/>
            <polygon class="cls-12" points="101.29 203.23 101.88 202.89 102.01 156.35 101.42 156.69 101.29 203.23"/>
            <polygon class="cls-11" points="101.42 156.69 102.01 156.35 79.05 143.09 78.46 143.43 101.42 156.69"/>
            <g>
              <path class="cls-10" d="m78.33,189.98l22.96,13.25.13-46.53-22.96-13.26-.13,46.54Zm1.19-.68l.12-43.81.59.34,20,11.55-.12,43.13v.68l-20.59-11.88Z"/>
              <polygon class="cls-2" points="80.11 188.95 100.11 200.5 100.23 157.37 80.23 145.83 80.11 188.95"/>
            </g>
          </g>
        </g>
        <g>
          <g class="cls-1">
            <polygon class="cls-11" points="101.36 253.37 121.95 265.26 122.53 264.91 121.95 264.58 101.95 253.03 101.36 253.37"/>
            <polygon class="cls-12" points="101.36 253.37 101.95 253.03 102.07 203.9 102.07 203.21 101.48 203.55 101.36 253.37"/>
            <polygon class="cls-12" points="123.13 267.31 123.72 266.96 123.85 214.42 123.26 214.76 123.13 267.31"/>
            <polygon class="cls-11" points="123.26 214.76 123.85 214.42 100.89 201.16 100.3 201.5 123.26 214.76"/>
            <g>
              <path class="cls-10" d="m100.17,254.05l22.96,13.26.13-52.54-22.96-13.26-.13,52.54Zm1.19-.67l.12-49.82.59.34,20,11.55-.12,49.14v.68l-20.59-11.88Z"/>
              <polygon class="cls-2" points="101.95 253.03 121.95 264.58 122.07 215.44 102.07 203.9 101.95 253.03"/>
            </g>
          </g>
          <g class="cls-1">
            <polygon class="cls-11" points="101.42 201.99 122.01 213.88 122.6 213.54 122.01 213.19 102.01 201.65 101.42 201.99"/>
            <polygon class="cls-12" points="101.42 201.99 102.01 201.65 102.13 158.52 102.13 157.84 101.55 158.18 101.42 201.99"/>
            <polygon class="cls-12" points="123.2 215.93 123.78 215.58 123.92 169.05 123.33 169.39 123.2 215.93"/>
            <polygon class="cls-11" points="123.33 169.39 123.92 169.05 100.95 155.79 100.36 156.13 123.33 169.39"/>
            <g>
              <path class="cls-10" d="m100.23,202.67l22.96,13.26.13-46.53-22.97-13.26-.13,46.53Zm1.19-.67l.12-43.81.59.34,20,11.55-.12,43.13v.69l-20.59-11.89Z"/>
              <polygon class="cls-2" points="102.01 201.65 122.01 213.19 122.13 170.07 102.13 158.52 102.01 201.65"/>
            </g>
          </g>
        </g>
        <g class="cls-1">
          <polygon class="cls-13" points="127.03 269.25 123.72 271.13 120.37 273.12 71.57 245.15 78.24 241.28 120.41 265.41 123.77 267.35 127.03 269.25"/>
          <polygon class="cls-7" points="78.26 137.89 78.26 145.6 78.24 241.28 71.57 245.15 71.6 141.77 74.96 139.83 78.26 137.89"/>
          <path class="cls-4" d="m74.93,132.1l-6.64,3.85h-.03s.02.03.02.03l-.07,110.92,55.5,31.99v.02l6.66-3.87.07-111.08-55.52-31.85Zm20.47,19.43l-17.14-9.81-3.31-1.89-2.96-1.72,23.4,13.42Zm25.01,113.88l-.05,7.71-48.79-27.97.03-103.38,6.66,3.83,42.17,24.14-.03,95.68Zm3.31,5.72v-.08s0,1.58,0,1.58v-1.5Z"/>
        </g>
      </g>
      <g>
        <g>
          <g class="cls-1">
            <polygon class="cls-11" points="251.98 210.08 231.39 221.97 230.8 221.63 231.39 221.29 251.39 209.74 251.98 210.08"/>
            <polygon class="cls-12" points="251.98 210.08 251.39 209.74 251.27 160.6 251.27 159.92 251.85 160.26 251.98 210.08"/>
            <polygon class="cls-12" points="230.2 224.02 229.61 223.68 229.48 171.13 230.07 171.48 230.2 224.02"/>
            <polygon class="cls-11" points="230.07 171.48 229.48 171.13 252.45 157.87 253.04 158.22 230.07 171.48"/>
            <g>
              <path class="cls-10" d="m253.04,158.22l-22.96,13.26.13,52.54,22.97-13.26-.13-52.54Zm-21.65,63.76v-.68l-.12-49.14,20-11.55.59-.34.12,49.82-20.59,11.89Z"/>
              <polygon class="cls-2" points="251.39 209.74 231.39 221.29 231.27 172.15 251.27 160.6 251.39 209.74"/>
            </g>
          </g>
          <g class="cls-1">
            <polygon class="cls-11" points="251.91 158.7 231.33 170.59 230.74 170.24 231.33 169.9 251.32 158.36 251.91 158.7"/>
            <polygon class="cls-12" points="251.91 158.7 251.32 158.36 251.2 115.23 251.2 114.55 251.79 114.89 251.91 158.7"/>
            <polygon class="cls-12" points="230.14 172.64 229.55 172.3 229.42 125.76 230.01 126.1 230.14 172.64"/>
            <polygon class="cls-11" points="230.01 126.1 229.42 125.76 252.38 112.5 252.97 112.84 230.01 126.1"/>
            <g>
              <path class="cls-10" d="m252.97,112.84l-22.96,13.26.13,46.54,22.96-13.26-.13-46.54Zm-21.65,57.74v-.68l-.12-43.13,20-11.55.59-.34.12,43.81-20.59,11.88Z"/>
              <polygon class="cls-2" points="251.32 158.36 231.33 169.9 231.2 126.78 251.2 115.23 251.32 158.36"/>
            </g>
          </g>
        </g>
        <g>
          <g class="cls-1">
            <polygon class="cls-11" points="230.07 222.78 209.49 234.66 208.9 234.32 209.49 233.98 229.48 222.44 230.07 222.78"/>
            <polygon class="cls-12" points="230.07 222.78 229.48 222.44 229.36 173.3 229.36 172.62 229.95 172.96 230.07 222.78"/>
            <polygon class="cls-12" points="208.3 236.71 207.71 236.37 207.58 183.82 208.17 184.17 208.3 236.71"/>
            <polygon class="cls-11" points="208.17 184.17 207.58 183.82 230.54 170.57 231.13 170.91 208.17 184.17"/>
            <g>
              <path class="cls-10" d="m231.13,170.91l-22.96,13.26.13,52.54,22.97-13.26-.13-52.54Zm-21.65,63.76v-.68l-.13-49.13,20-11.55.59-.34.12,49.82-20.59,11.89Z"/>
              <polygon class="cls-2" points="229.48 222.44 209.49 233.98 209.36 184.85 229.36 173.3 229.48 222.44"/>
            </g>
          </g>
          <g class="cls-1">
            <polygon class="cls-11" points="230.01 171.4 209.42 183.29 208.83 182.94 209.42 182.61 229.42 171.06 230.01 171.4"/>
            <polygon class="cls-12" points="230.01 171.4 229.42 171.06 229.3 127.93 229.3 127.24 229.89 127.59 230.01 171.4"/>
            <polygon class="cls-12" points="208.24 185.33 207.65 184.99 207.52 138.46 208.11 138.8 208.24 185.33"/>
            <polygon class="cls-11" points="208.11 138.8 207.52 138.46 230.48 125.2 231.07 125.54 208.11 138.8"/>
            <g>
              <path class="cls-10" d="m231.07,125.54l-22.96,13.26.13,46.53,22.96-13.26-.13-46.53Zm-21.65,57.75v-.68l-.12-43.13,20-11.55.59-.34.12,43.81-20.59,11.88Z"/>
              <polygon class="cls-2" points="229.42 171.06 209.42 182.61 209.3 139.47 229.3 127.93 229.42 171.06"/>
            </g>
          </g>
        </g>
        <g class="cls-1">
          <polygon class="cls-6" points="204.4 238.65 207.71 240.54 211.07 242.53 259.86 214.56 253.2 210.69 211.02 234.82 207.66 236.76 204.4 238.65"/>
          <polygon class="cls-5" points="253.17 107.3 253.17 115.01 253.2 210.69 259.86 214.56 259.83 111.18 256.48 109.24 253.17 107.3"/>
          <path class="cls-8" d="m200.98,133.36l.07,111.09,6.66,3.87v-.02l55.5-31.99-.07-110.91h.02s-.02-.03-.02-.03h0s0,0,0,0l-6.64-3.86-55.52,31.85Zm58.45-25.84l-2.96,1.72-3.31,1.89-17.14,9.81,23.41-13.43Zm-48.44,31.63l42.18-24.14,6.66-3.83.03,103.38-48.79,27.97-.05-7.71-.03-95.68Zm-3.28,102.9v-1.58s0,.07,0,.07v1.5Z"/>
        </g>
      </g>
      <g>
        <g>
          <g class="cls-1">
            <polygon class="cls-11" points="199.87 240.05 179.28 251.94 178.69 251.6 179.28 251.26 199.28 239.71 199.87 240.05"/>
            <polygon class="cls-12" points="199.87 240.05 199.28 239.71 199.16 190.57 199.16 189.89 199.75 190.23 199.87 240.05"/>
            <polygon class="cls-12" points="178.1 253.99 177.51 253.64 177.37 201.1 177.97 201.44 178.1 253.99"/>
            <polygon class="cls-11" points="177.97 201.44 177.37 201.1 200.34 187.84 200.93 188.18 177.97 201.44"/>
            <g>
              <path class="cls-10" d="m200.93,188.18l-22.96,13.26.13,52.54,22.97-13.26-.13-52.54Zm-21.65,63.76v-.68l-.13-49.13,20-11.55.59-.34.12,49.82-20.59,11.88Z"/>
              <polygon class="cls-2" points="199.28 239.71 179.28 251.26 179.16 202.12 199.16 190.57 199.28 239.71"/>
            </g>
          </g>
          <g class="cls-1">
            <polygon class="cls-11" points="199.81 188.67 179.22 200.56 178.63 200.22 179.22 199.88 199.22 188.33 199.81 188.67"/>
            <polygon class="cls-12" points="199.81 188.67 199.22 188.33 199.09 145.2 199.09 144.52 199.68 144.86 199.81 188.67"/>
            <polygon class="cls-12" points="178.03 202.61 177.44 202.26 177.31 155.73 177.9 156.07 178.03 202.61"/>
            <polygon class="cls-11" points="177.9 156.07 177.31 155.73 200.28 142.47 200.87 142.81 177.9 156.07"/>
            <g>
              <path class="cls-10" d="m200.87,142.81l-22.97,13.26.13,46.53,22.96-13.26-.13-46.53Zm-21.65,57.75v-.68l-.12-43.13,20-11.55.59-.34.12,43.81-20.59,11.89Z"/>
              <polygon class="cls-2" points="199.22 188.33 179.22 199.88 179.1 156.75 199.09 145.2 199.22 188.33"/>
            </g>
          </g>
        </g>
        <g>
          <g class="cls-1">
            <polygon class="cls-11" points="177.97 252.75 157.38 264.63 156.79 264.29 157.38 263.95 177.37 252.4 177.97 252.75"/>
            <polygon class="cls-12" points="177.97 252.75 177.37 252.4 177.26 203.27 177.26 202.59 177.85 202.93 177.97 252.75"/>
            <polygon class="cls-12" points="156.2 266.69 155.61 266.34 155.47 213.8 156.06 214.14 156.2 266.69"/>
            <polygon class="cls-11" points="156.06 214.14 155.47 213.8 178.44 200.54 179.03 200.88 156.06 214.14"/>
            <g>
              <path class="cls-10" d="m179.03,200.88l-22.96,13.25.13,52.55,22.96-13.26-.13-52.54Zm-21.65,63.75v-.68l-.12-49.14,20-11.55.59-.34.12,49.82-20.59,11.88Z"/>
              <polygon class="cls-2" points="177.37 252.4 157.38 263.95 157.26 214.82 177.26 203.27 177.37 252.4"/>
            </g>
          </g>
          <g class="cls-1">
            <polygon class="cls-11" points="177.9 201.37 157.32 213.25 156.73 212.91 157.32 212.57 177.31 201.02 177.9 201.37"/>
            <polygon class="cls-12" points="177.9 201.37 177.31 201.02 177.19 157.9 177.19 157.21 177.78 157.56 177.9 201.37"/>
            <polygon class="cls-12" points="156.13 215.31 155.54 214.96 155.41 168.42 156 168.77 156.13 215.31"/>
            <polygon class="cls-11" points="156 168.77 155.41 168.42 178.37 155.16 178.96 155.51 156 168.77"/>
            <g>
              <path class="cls-10" d="m178.97,155.51l-22.97,13.26.13,46.54,22.96-13.26-.13-46.54Zm-21.65,57.75v-.68l-.12-43.13,20-11.55.59-.34.12,43.81-20.59,11.88Z"/>
              <polygon class="cls-2" points="177.31 201.02 157.32 212.57 157.19 169.45 177.19 157.9 177.31 201.02"/>
            </g>
          </g>
        </g>
        <g class="cls-1">
          <polygon class="cls-6" points="152.29 268.62 155.61 270.51 158.96 272.49 207.75 244.53 201.09 240.65 158.91 264.79 155.56 266.73 152.29 268.62"/>
          <polygon class="cls-5" points="201.06 137.27 201.06 144.98 201.09 240.65 207.75 244.53 207.73 141.14 204.37 139.21 201.06 137.27"/>
          <path class="cls-8" d="m152.22,163.86l.14,108.94,3.9,4.29,54.84-30.75-.07-110.97h.02s-.02-.03-.02-.03h0s0,0,0,0l-6.64-3.86-52.17,32.38Zm55.11-26.37l-2.96,1.72-3.31,1.89-17.14,9.81,23.41-13.43Zm-48.44,31.63l42.18-24.14,6.66-3.83.03,103.38-48.79,27.97-.05-7.71-.03-95.68Zm-3.28,102.89v-1.58,1.58Z"/>
        </g>
      </g>
      <g>
        <polygon class="cls-3" points="10.56 88.5 0 82.4 0 94.6 141.84 176.49 142.04 176.38 142.04 12.59 10.56 88.5"/>
        <polygon class="cls-8" points="284.58 81.89 270.31 85.85 142.74 12.19 142.04 12.59 142.04 176.38 284.58 94.09 284.58 81.89"/>
        <polygon class="cls-9" points="284.6 81.89 278.12 85.62 164.56 151.16 141.86 164.27 .02 82.37 142.76 0 284.6 81.89"/>
      </g>
    </g>
  </g>
</svg>