<?xml version="1.0" encoding="UTF-8"?>
<svg xmlns="http://www.w3.org/2000/svg" xmlns:xlink="http://www.w3.org/1999/xlink" viewBox="0 0 358.1 351.96">
  <defs>
    <style>
      .cls-1 {
        fill: url(#New_Gradient_Swatch_4);
      }

      .cls-1, .cls-2, .cls-3, .cls-4, .cls-5, .cls-6, .cls-7, .cls-8, .cls-9, .cls-10, .cls-11, .cls-12, .cls-13, .cls-14, .cls-15, .cls-16, .cls-17, .cls-18, .cls-19, .cls-20, .cls-21, .cls-22, .cls-23, .cls-24, .cls-25, .cls-26, .cls-27, .cls-28, .cls-29, .cls-30, .cls-31, .cls-32, .cls-33, .cls-34, .cls-35, .cls-36, .cls-37, .cls-38, .cls-39, .cls-40, .cls-41, .cls-42, .cls-43, .cls-44, .cls-45, .cls-46, .cls-47, .cls-48, .cls-49, .cls-50, .cls-51, .cls-52, .cls-53, .cls-54, .cls-55, .cls-56, .cls-57, .cls-58, .cls-59, .cls-60, .cls-61, .cls-62, .cls-63, .cls-64, .cls-65, .cls-66 {
        stroke-width: 0px;
      }

      .cls-2 {
        fill: url(#New_Gradient_Swatch_2-3);
      }

      .cls-3 {
        fill: url(#New_Gradient_Swatch_2-4);
      }

      .cls-4 {
        fill: url(#New_Gradient_Swatch_4-8);
      }

      .cls-5 {
        fill: url(#New_Gradient_Swatch_4-2);
      }

      .cls-6 {
        fill: url(#New_Gradient_Swatch_4-6);
      }

      .cls-7 {
        fill: url(#New_Gradient_Swatch_4-7);
      }

      .cls-8 {
        fill: url(#New_Gradient_Swatch_4-4);
      }

      .cls-9 {
        fill: url(#New_Gradient_Swatch_4-5);
      }

      .cls-67 {
        clip-path: url(#clippath);
      }

      .cls-68, .cls-10, .cls-11, .cls-12, .cls-13 {
        mix-blend-mode: overlay;
      }

      .cls-10 {
        fill: url(#radial-gradient-2);
      }

      .cls-11 {
        fill: url(#radial-gradient);
      }

      .cls-12 {
        fill: url(#New_Gradient_Swatch_2-10);
      }

      .cls-13 {
        fill: url(#New_Gradient_Swatch_2-11);
      }

      .cls-14 {
        fill: url(#New_Gradient_Swatch_2-12);
      }

      .cls-14, .cls-15, .cls-17, .cls-18, .cls-19, .cls-20, .cls-21, .cls-22, .cls-23 {
        mix-blend-mode: screen;
      }

      .cls-15 {
        fill: url(#New_Gradient_Swatch_2-13);
      }

      .cls-16 {
        fill: #ab938a;
        mix-blend-mode: multiply;
        opacity: .4;
      }

      .cls-69 {
        isolation: isolate;
      }

      .cls-17 {
        fill: url(#New_Gradient_Swatch_2);
      }

      .cls-70 {
        fill: url(#New_Gradient_Swatch_4-3);
      }

      .cls-18 {
        fill: url(#New_Gradient_Swatch_2-9);
      }

      .cls-19 {
        fill: url(#New_Gradient_Swatch_2-5);
      }

      .cls-20 {
        fill: url(#New_Gradient_Swatch_2-6);
      }

      .cls-21 {
        fill: url(#New_Gradient_Swatch_2-2);
      }

      .cls-22 {
        fill: url(#New_Gradient_Swatch_2-7);
      }

      .cls-23 {
        fill: url(#New_Gradient_Swatch_2-8);
      }

      .cls-24 {
        fill: #f8b318;
      }

      .cls-25 {
        fill: #f2f2f4;
      }

      .cls-26 {
        fill: #5e787a;
      }

      .cls-27 {
        fill: #7b7f82;
      }

      .cls-28 {
        fill: #2b2b2b;
      }

      .cls-29 {
        fill: #88a1a8;
      }

      .cls-30 {
        fill: #6e7173;
      }

      .cls-31 {
        fill: #a2a7ab;
      }

      .cls-32 {
        fill: #2f3235;
      }

      .cls-33 {
        fill: #262626;
      }

      .cls-34 {
        fill: #3c5b60;
      }

      .cls-35 {
        fill: #353435;
      }

      .cls-36 {
        fill: #364649;
      }

      .cls-37 {
        fill: #1b1819;
      }

      .cls-38 {
        fill: #212223;
      }

      .cls-39 {
        fill: #161515;
      }

      .cls-40 {
        fill: #c72f21;
      }

      .cls-41 {
        fill: #c3ced1;
      }

      .cls-42 {
        fill: #d2d1ca;
      }

      .cls-43 {
        fill: #e0dcc6;
      }

      .cls-44 {
        fill: #dfe3e5;
      }

      .cls-45 {
        fill: #bdc3c7;
      }

      .cls-46 {
        fill: #c0392b;
      }

      .cls-47 {
        fill: #aab3b5;
      }

      .cls-48 {
        fill: #b31d14;
      }

      .cls-49 {
        fill: #b21919;
      }

      .cls-50 {
        fill: #c2bea8;
      }

      .cls-51 {
        fill: #bc1d19;
      }

      .cls-52 {
        fill: #a1a6a9;
      }

      .cls-53 {
        fill: #938785;
      }

      .cls-54 {
        fill: #939899;
      }

      .cls-55 {
        fill: #ff7464;
      }

      .cls-56 {
        fill: #931818;
      }

      .cls-57 {
        fill: #ffdd4d;
      }

      .cls-58 {
        fill: #fff;
      }

      .cls-59 {
        fill: #ed4c3b;
      }

      .cls-60 {
        fill: #ea7500;
      }

      .cls-61 {
        fill: #e52520;
      }

      .cls-62 {
        fill: #ecf0f1;
      }

      .cls-63 {
        fill: #ffa800;
      }

      .cls-64 {
        fill: #fe5236;
      }

      .cls-65 {
        fill: #fba400;
      }

      .cls-66 {
        fill: #f4f3ea;
      }
    </style>
    <linearGradient id="New_Gradient_Swatch_2" data-name="New Gradient Swatch 2" x1="3481.21" y1="269.69" x2="3477.64" y2="239.51" gradientTransform="translate(3603.6) rotate(-180) scale(1 -1)" gradientUnits="userSpaceOnUse">
      <stop offset="0" stop-color="#000"/>
      <stop offset="1" stop-color="#fff"/>
    </linearGradient>
    <linearGradient id="New_Gradient_Swatch_2-2" data-name="New Gradient Swatch 2" x1="3357.93" y1="199.27" x2="3354.35" y2="169.09" xlink:href="#New_Gradient_Swatch_2"/>
    <radialGradient id="radial-gradient" cx="5265.84" cy="-2145.34" fx="5265.84" fy="-2145.34" r="18.09" gradientTransform="translate(5499.33 -1818.33) rotate(-180)" gradientUnits="userSpaceOnUse">
      <stop offset="0" stop-color="#fff"/>
      <stop offset=".08" stop-color="#d0d0d0"/>
      <stop offset=".17" stop-color="#9f9f9f"/>
      <stop offset=".26" stop-color="#757575"/>
      <stop offset=".36" stop-color="#505050"/>
      <stop offset=".46" stop-color="#333"/>
      <stop offset=".57" stop-color="#1c1c1c"/>
      <stop offset=".69" stop-color="#0c0c0c"/>
      <stop offset=".82" stop-color="#020202"/>
      <stop offset="1" stop-color="#000"/>
    </radialGradient>
    <linearGradient id="New_Gradient_Swatch_2-3" data-name="New Gradient Swatch 2" x1="-5953.73" y1="334.75" x2="-5963.14" y2="320.69" gradientTransform="translate(6195.18)" xlink:href="#New_Gradient_Swatch_2"/>
    <radialGradient id="radial-gradient-2" cx="5173.98" cy="-2092.37" fx="5173.98" fy="-2092.37" r="18.09" xlink:href="#radial-gradient"/>
    <linearGradient id="New_Gradient_Swatch_2-4" data-name="New Gradient Swatch 2" x1="-5861.87" y1="281.78" x2="-5871.28" y2="267.72" gradientTransform="translate(6195.18)" xlink:href="#New_Gradient_Swatch_2"/>
    <linearGradient id="New_Gradient_Swatch_2-5" data-name="New Gradient Swatch 2" x1="-6007.81" y1="286.09" x2="-6014.96" y2="268.93" gradientTransform="translate(6195.18)" xlink:href="#New_Gradient_Swatch_2"/>
    <linearGradient id="New_Gradient_Swatch_2-6" data-name="New Gradient Swatch 2" x1="-5970.99" y1="258.69" x2="-5997.24" y2="233.44" gradientTransform="translate(6195.18)" xlink:href="#New_Gradient_Swatch_2"/>
    <linearGradient id="New_Gradient_Swatch_2-7" data-name="New Gradient Swatch 2" x1="-4599.03" y1="323.31" x2="-4606.07" y2="312.22" gradientTransform="translate(4832.63)" xlink:href="#New_Gradient_Swatch_2"/>
    <linearGradient id="New_Gradient_Swatch_2-8" data-name="New Gradient Swatch 2" x1="-4508.81" y1="269.05" x2="-4514.44" y2="260.95" gradientTransform="translate(4832.63)" xlink:href="#New_Gradient_Swatch_2"/>
    <linearGradient id="New_Gradient_Swatch_4" data-name="New Gradient Swatch 4" x1="-5914.51" y1="232.38" x2="-5909.35" y2="245.16" gradientTransform="translate(6195.18)" gradientUnits="userSpaceOnUse">
      <stop offset="0" stop-color="#ecf0f1"/>
      <stop offset=".24" stop-color="#c9cdce"/>
      <stop offset=".78" stop-color="#727577"/>
      <stop offset="1" stop-color="#4d5052"/>
    </linearGradient>
    <linearGradient id="New_Gradient_Swatch_2-9" data-name="New Gradient Swatch 2" x1="-5904.79" y1="244.64" x2="-5913.24" y2="230.8" gradientTransform="translate(6195.18)" xlink:href="#New_Gradient_Swatch_2"/>
    <linearGradient id="New_Gradient_Swatch_4-2" data-name="New Gradient Swatch 4" x1="-5999.37" y1="315.63" x2="-5982.69" y2="315.63" xlink:href="#New_Gradient_Swatch_4"/>
    <linearGradient id="New_Gradient_Swatch_2-10" data-name="New Gradient Swatch 2" x1="-5990.49" y1="318.11" x2="-5993.52" y2="311.02" gradientTransform="translate(6195.18)" xlink:href="#New_Gradient_Swatch_2"/>
    <linearGradient id="New_Gradient_Swatch_4-3" data-name="New Gradient Swatch 4" x1="-4673.36" y1="293.27" x2="-4661.38" y2="293.27" gradientTransform="translate(4832.63)" xlink:href="#New_Gradient_Swatch_4"/>
    <linearGradient id="New_Gradient_Swatch_4-4" data-name="New Gradient Swatch 4" x1="-4673.36" y1="293.27" x2="-4661.38" y2="293.27" gradientTransform="translate(4832.63)" xlink:href="#New_Gradient_Swatch_4"/>
    <clipPath id="clippath">
      <path class="cls-8" d="m169.51,298.14l-.58.46c-.77.6-2.22,1.09-3.1.68-1.62-.76-4.21-1.97-6.57-3.31.31-.67.69-1.56.77-1.96.31-1.31.61-2.65.95-3.98.22-.86.45-1.71.71-2.55.04-.12.08-.24.12-.36l6.82,4.04c3.32,2.4,3.31,5.07.87,6.98Z"/>
    </clipPath>
    <linearGradient id="New_Gradient_Swatch_2-11" data-name="New Gradient Swatch 2" x1="-5791.93" y1="1143.64" x2="-5795.51" y2="1135.28" gradientTransform="translate(6065.38 40.98) rotate(8.66)" xlink:href="#New_Gradient_Swatch_2"/>
    <linearGradient id="New_Gradient_Swatch_2-12" data-name="New Gradient Swatch 2" x1="-5911.54" y1="275.36" x2="-5905.03" y2="283.28" gradientTransform="translate(6195.18)" xlink:href="#New_Gradient_Swatch_2"/>
    <linearGradient id="New_Gradient_Swatch_2-13" data-name="New Gradient Swatch 2" x1="-6010.69" y1="297.92" x2="-6011.95" y2="294.46" gradientTransform="translate(6195.18)" xlink:href="#New_Gradient_Swatch_2"/>
    <linearGradient id="New_Gradient_Swatch_4-5" data-name="New Gradient Swatch 4" x1="-5908.15" y1="274.08" x2="-5910.03" y2="268.86" xlink:href="#New_Gradient_Swatch_4"/>
    <linearGradient id="New_Gradient_Swatch_4-6" data-name="New Gradient Swatch 4" x1="-5914.38" y1="268.31" x2="-5906.13" y2="268.31" xlink:href="#New_Gradient_Swatch_4"/>
    <linearGradient id="New_Gradient_Swatch_4-7" data-name="New Gradient Swatch 4" x1="-5879.01" y1="256.63" x2="-5880.71" y2="251.36" xlink:href="#New_Gradient_Swatch_4"/>
    <linearGradient id="New_Gradient_Swatch_4-8" data-name="New Gradient Swatch 4" x1="-5885.21" y1="250.3" x2="-5876.96" y2="250.3" xlink:href="#New_Gradient_Swatch_4"/>
  </defs>
  <g class="cls-69">
    <g id="Layer_2" data-name="Layer 2">
      <g id="Layer_1-2" data-name="Layer 1">
        <g>
          <path class="cls-16" d="m18.83,273.16l177.67-102.11c25.11-14.5,65.82-14.5,90.92,0l26.74,15.44c25.11,14.5,25.11,38,0,52.49l-7.26,4.17c6.64.97,12.93,2.93,18.12,5.93l10.43,6.07c15.39,8.89,15.39,23.29,0,32.18l-93.41,54.41c-15.39,8.89-39.26,5.51-54.65-3.38l-10.43-6.07c-4.73-2.73-8.1-5.67-10.06-8.68l-30.4,17.48c-25.11,14.49-65.82,14.49-90.92,0l-26.74-15.44c-25.11-14.5-25.11-38,0-52.49Z"/>
          <g>
            <polygon class="cls-53" points="318.89 206.46 277.55 183.09 32.04 324.84 73.37 348.21 318.89 206.46"/>
            <g>
              <g>
                <g>
                  <path class="cls-33" d="m109.7,303.94c.28,0,.55-.16.67-.43.17-.37,0-.81-.36-.98-3.77-1.72-16.24-7.12-18.37-4.42-1,1.27.31,3.24,1.39,4.6l.16.21c.25.31.74.4,1.06.14.32-.25.39-.69.14-1l-.05-.06-.15-.19c-1.77-2.25-1.39-2.78-1.39-2.78.85-1.08,8.45,1.13,16.59,4.85.1.05.2.07.31.07Z"/>
                  <g>
                    <path class="cls-28" d="m95.34,309.2s0-.03,0-.05v-2.81l1.03,1.04c.16-.13.33-.26.53-.37l11.53-15.69c2.07-1.2,5.41-1.2,7.47-.01l18.63,10.75.37-.96,1.79.7v2.73s0,.07,0,.11v.2l-.03-.02c-.1.7-.59,1.38-1.52,1.92l-19.39,11.2c-2.07,1.19-5.41,1.2-7.47.01l-11.41-6.63c-.9-.52-1.38-1.18-1.49-1.85h-.04s0-.27,0-.27Z"/>
                    <path class="cls-35" d="m135.13,303.8l-19.39,11.19c-2.07,1.2-5.41,1.2-7.47.01l-11.41-6.63c-2.06-1.19-2.05-3.12.02-4.31l11.53-15.69c2.07-1.2,5.41-1.2,7.47-.02l19.27,11.13c2.06,1.19,2.05,3.11-.02,4.31Z"/>
                  </g>
                  <g>
                    <g>
                      <path class="cls-60" d="m98.65,255.48l18.98,11.03v15.79c0,3.73-2.13,7.98-4.77,9.5l-3.64,2.1.36,19.53-10.58-6.08s-.06-.03-.08-.05l-.05-.03h0c-1.01-.65-1.65-2.11-1.65-4.15v-42.01c0-1.89.55-3.9,1.43-5.64Z"/>
                      <path class="cls-24" d="m101.98,251.62l18.74-10.82c1.28-.74,2.43-.69,3.29-.03l10.68,6.12-17.06,11.6v8.01l-18.98-11.03c.86-1.69,2.04-3.11,3.33-3.86Z"/>
                    </g>
                    <path class="cls-65" d="m131.67,247.1l-18.74,10.82c-2.63,1.52-4.77,5.77-4.77,9.5v42.01c0,3.73,2.13,5.51,4.77,3.99l18.74-10.82c2.63-1.52,4.77-5.77,4.77-9.5v-42.01c0-3.73-2.13-5.51-4.77-3.99Z"/>
                    <path class="cls-60" d="m112.7,265.02v10.45c0,.15.02.27.07.38.15.38.53.49.98.23l2.8-1.62,14.13-8.15c.57-.34,1.05-1.15,1.05-1.82v-10.45c0-.6-.37-.87-.83-.71-.07.03-.15.07-.22.1l-2.91,1.68-14.02,8.09c-.58.33-1.05,1.14-1.05,1.82Z"/>
                    <path class="cls-34" d="m112.7,265.02v10.44c0,.15.02.28.07.38.07-.02.15-.06.22-.09l2.8-1.62,14.12-8.15c.25-.14.47-.37.64-.64.25-.37.41-.8.41-1.18v-10.46c0-.15-.02-.27-.07-.38-.07.03-.15.07-.22.1l-2.91,1.68-12.43,7.18-1.58.91c-.58.33-1.05,1.14-1.05,1.82Z"/>
                    <polygon class="cls-35" points="121.58 278.66 112.7 283.78 112.7 281.87 121.58 276.74 121.58 278.66"/>
                    <polygon class="cls-33" points="121.22 278.45 121.22 277.37 113.06 282.08 113.06 283.15 121.22 278.45"/>
                  </g>
                  <g class="cls-69">
                    <path class="cls-56" d="m131.67,277.07h0s-.02-.02-.02-.02c0,0,.01,0,.02.02Z"/>
                    <path class="cls-56" d="m131.57,279.64s.09-.06.14-.09c0,0,.01,0,.02-.02,0,0,.01,0,.02-.01h.01s.04-.04.06-.06c.02-.02.05-.05.08-.07.05-.05.1-.11.15-.17.01-.02.02-.04.04-.05h0s0,0,0,0h0s.03-.05.05-.07c.01-.02.03-.05.05-.07.02-.02.03-.04.04-.07h0s0,0,0-.01c.02-.03.03-.06.05-.08.01-.03.03-.06.04-.09.08-.17.14-.36.16-.54.01-.07.02-.14.02-.21,0-.05,0-.1-.01-.15-.01-.09-.03-.17-.07-.23,0,0,0,0,0-.01l-.04-.07s-.02-.03-.04-.05h0s0-.01,0-.01c0-.01-.02-.02-.03-.03-.01-.01-.02-.03-.04-.03,0,0,0-.01-.02-.01,0-.01-.02-.02-.03-.02h0s-.56-.32-.56-.32c.03.02.06.05.09.09h0s.06.08.09.13c0,0,0,0,0,.01,0,.01.01.03.02.04.01.03.03.07.03.11,0,.01,0,.02,0,.03.01.06.02.12.02.19,0,.07,0,.14-.02.21,0,.03,0,.05-.02.07-.01.05-.02.11-.03.16,0,.01-.01.03-.01.04-.02.07-.05.14-.08.21,0,0,0,.01,0,.02-.03.08-.07.15-.11.22h0c-.04.08-.09.15-.14.21h0c-.05.07-.1.13-.15.19,0,0-.01.01-.02.02-.05.05-.1.1-.15.14-.01,0-.02.02-.03.02-.06.05-.11.09-.18.12-.11.06-.22.1-.31.11-.12.03-.24,0-.33-.04l.53.3c.06.04.14.07.22.08.02,0,.05,0,.07,0,.04,0,.09,0,.14-.02.04,0,.09-.02.13-.04.05-.02.09-.04.14-.07Z"/>
                    <path class="cls-59" d="m130.37,279.55c.02.07.04.14.06.2,0,0,0,.01,0,.02.03.06.07.12.11.17,0,0,0,0,0,0,.04.05.09.09.15.12l-.58-.33s0,0,0,0c-.02-.01-.04-.02-.06-.04-.02-.01-.04-.03-.05-.04-.01-.01-.02-.02-.03-.03,0,0,0,0,0,0,0,0,0,0-.01-.01-.02-.02-.03-.04-.05-.06-.01-.02-.03-.05-.04-.07,0,0,0-.02-.01-.02,0,0,0-.01,0-.02,0-.02-.01-.03-.02-.04-.01-.03-.03-.07-.03-.11,0-.02,0-.03,0-.05,0-.02,0-.03,0-.04,0-.02,0-.04-.01-.06,0-.06-.01-.12-.01-.19l.58.33c0,.09.01.17.02.25,0,.02,0,.03,0,.04Z"/>
                    <path class="cls-51" d="m131.57,277.11c-.08.05-.16.1-.23.16-.01.01-.02.02-.03.03-.07.06-.14.12-.2.19,0,0-.01.01-.02.02-.07.08-.14.15-.2.24h0c-.06.09-.12.18-.18.28,0,0,0,0,0,0-.05.09-.1.19-.14.28,0,.01,0,.02-.01.03-.04.09-.07.18-.1.27,0,.02-.01.04-.02.06-.02.07-.03.14-.05.21,0,.03-.01.06-.02.09-.01.1-.02.19-.02.28l-.58-.33c0-.09,0-.19.02-.28,0-.03.01-.06.02-.09,0-.05.02-.1.03-.14,0-.02.01-.04.02-.07,0-.02.01-.04.02-.06,0-.02.01-.04.02-.07.02-.05.04-.1.06-.15,0-.02.02-.03.02-.05,0,0,0-.02.01-.03,0-.02.01-.03.02-.05.02-.04.04-.08.06-.12.02-.04.04-.07.06-.11,0,0,0,0,0,0,0,0,0,0,0-.01.02-.03.03-.06.05-.08.02-.03.04-.07.07-.1.02-.03.04-.06.06-.09,0,0,0,0,0,0s0,0,0,0c.02-.03.05-.06.07-.1.03-.03.05-.06.08-.1.01-.01.03-.03.04-.04,0,0,.01-.01.02-.02.01-.01.02-.02.03-.03.03-.04.07-.07.11-.1.02-.02.05-.04.07-.06.01-.01.02-.02.03-.03.01-.01.02-.02.03-.03.07-.05.13-.1.2-.14.34-.19.64-.21.87-.08l.58.33c-.22-.13-.53-.11-.87.08Z"/>
                    <g>
                      <path class="cls-61" d="m131.57,279.97c.68-.39,1.23-1.35,1.23-2.14,0-.43-.16-.72-.42-.83,0,0-.02-.02-.03-.02-.04-.02-.08-.03-.12-.03-.04,0-.08-.01-.12-.01-.06,0-.12,0-.18.03-.05.01-.09.03-.14.04-.03,0-.05.02-.07.03,0,0-.02,0-.03.02h0s-.07.03-.1.05c-.08.05-.16.1-.23.16-.01,0-.02.02-.03.03-.16.13-.3.28-.43.46-.06.09-.12.18-.17.27-.12.21-.21.42-.27.64-.02.07-.04.14-.05.21-.03.13-.04.25-.04.38,0,.04,0,.08.01.12h0c0,.06.01.12.03.17,0,.04.02.07.03.1,0,.03.02.06.03.08,0,0,0,0,0,0,0,.02.02.05.03.07,0,.01.01.02.02.03.04.07.09.13.16.18,0,0,0,0,.01.02,0,0,.01,0,.02.01.23.14.54.13.89-.07Zm0-.34s-.09.05-.14.07c-.04.02-.09.03-.13.04-.05.02-.1.02-.14.02-.03,0-.05,0-.07,0-.08-.01-.16-.04-.22-.08-.08-.06-.15-.15-.19-.26-.04-.09-.05-.21-.05-.33,0-.6.42-1.33.94-1.63.11-.06.21-.1.31-.11.14-.03.26-.01.36.05,0,0,.02.01.03.02.03.02.05.04.08.07,0,0,0,0,.01.01.02.02.04.05.05.08.01.02.02.03.03.05.03.06.05.14.07.23,0,.05.01.1.01.15,0,.07,0,.14-.02.21-.03.18-.09.36-.16.54-.03.06-.06.13-.09.18-.02.02-.03.04-.04.07-.02.03-.04.05-.05.07-.02.02-.03.05-.05.07h0s-.03.04-.04.06c-.05.06-.1.12-.15.17-.02.03-.05.05-.08.07-.02.02-.04.04-.06.06,0,0-.02.02-.03.02,0,.01-.02.02-.02.02-.05.04-.09.07-.14.09Z"/>
                      <path class="cls-51" d="m131.87,279.75c.26-.22.49-.53.66-.85-.08-.04-.15-.08-.21-.13-.02.06-.05.11-.08.17-.02.02-.03.05-.04.07-.02.03-.04.05-.05.08-.01.02-.03.04-.04.06h0s-.03.05-.04.06c-.05.06-.1.12-.15.18-.03.02-.05.05-.08.06-.02.03-.04.04-.06.05-.01.01-.02.02-.03.02-.01.01-.02.02-.03.02-.02.02-.04.04-.08.05.08.05.16.11.24.16Z"/>
                      <path class="cls-37" d="m131.91,277.45s0,.02,0,.03c.01.06.02.12.02.19,0,.07,0,.14-.02.21,0,.03,0,.05-.02.07-.01.05-.02.11-.03.16,0,.01-.01.03-.01.04-.02.07-.05.14-.08.21,0,0,0,.01,0,.02-.03.08-.07.15-.11.22h0c-.04.08-.09.15-.14.21h0c-.05.07-.1.13-.15.19,0,0-.01.01-.02.02-.05.05-.1.1-.15.14-.01,0-.02.02-.03.02-.06.05-.11.09-.18.12-.11.06-.22.1-.31.11-.04-.09-.05-.21-.05-.33,0-.6.42-1.33.94-1.63.11-.06.21-.1.3-.11.01.03.03.07.03.11Z"/>
                    </g>
                  </g>
                  <g>
                    <g class="cls-69">
                      <path class="cls-46" d="m130.9,272.73c.01-.07.03-.15.05-.23,0,0,0-.02,0-.02.03-.08.06-.17.09-.24,0,0,0,0,0,0,.04-.09.08-.16.12-.24,0,0,0,0,0,0,.05-.08.09-.15.15-.22,0,0,0-.02.01-.02.05-.06.1-.13.15-.18.01-.01.02-.03.03-.04.04-.04.09-.08.13-.12.02-.02.04-.04.06-.05.06-.05.13-.1.2-.14.04-.03.09-.05.13-.06.01,0,.03-.01.04-.02.02-.01.05-.02.07-.03.02,0,.03,0,.05-.01.01,0,.03,0,.04,0,.02,0,.04,0,.06-.01.01,0,.02,0,.03,0,.02,0,.05,0,.07,0h.02s.05,0,.08,0c0,0,.01,0,.02,0,.02,0,.04.01.06.02,0,0,.01,0,.02,0,.02.01.05.02.07.03l-.32-.19h0s-.04-.02-.05-.03c0,0,0,0-.01,0,0,0-.01,0-.02,0,0,0-.02,0-.03-.01,0,0-.02,0-.03,0,0,0-.01,0-.02,0,0,0,0,0-.01,0-.02,0-.04,0-.06,0h-.07s-.01,0-.02,0c-.01,0-.02,0-.03,0,0,0-.02,0-.03,0,0,0-.02,0-.03,0-.02,0-.03,0-.04.01,0,0-.02,0-.02,0,0,0-.02,0-.02,0-.02,0-.05.02-.07.03,0,0-.02,0-.03,0,0,0-.01,0-.02,0-.04.02-.09.04-.13.06-.07.04-.13.09-.2.14-.02.02-.04.04-.06.05-.03.03-.06.05-.09.08-.01.02-.03.03-.04.04-.01.01-.02.02-.03.04-.01.02-.03.03-.04.04-.03.04-.06.07-.08.11-.01.01-.02.03-.03.04,0,0,0,.01-.01.02,0,.01-.02.03-.03.04-.02.03-.04.06-.06.09-.02.03-.04.06-.05.09,0,0,0,0,0,0,0,0,0,0,0,0-.01.02-.03.05-.04.07-.02.03-.03.06-.05.09-.01.03-.02.05-.04.08h0s-.03.07-.04.1c-.01.03-.02.07-.03.1,0,.02-.01.03-.02.05,0,0,0,.01,0,.02,0,.01,0,.03-.01.04-.01.04-.02.08-.03.12,0,.02,0,.05-.01.07,0,.01,0,.02,0,.04,0,.01,0,.02,0,.04,0,.07-.01.14-.01.2,0,.33.12.56.31.67l.33.19c-.19-.11-.3-.34-.31-.67,0-.08,0-.16.02-.24,0-.01,0-.03,0-.04Z"/>
                      <path class="cls-64" d="m131.92,271.2c.58-.33,1.05-.06,1.05.6,0,.66-.46,1.47-1.04,1.81-.58.33-1.05.06-1.05-.6,0-.66.47-1.47,1.04-1.8Z"/>
                    </g>
                    <g class="cls-69">
                      <path class="cls-46" d="m127.25,274.78c.01-.08.03-.15.05-.23,0,0,0-.02,0-.02.02-.09.06-.16.09-.25,0,0,0,0,0,0,.04-.08.08-.17.12-.24,0,0,0,0,0,0,.04-.08.09-.15.15-.22,0,0,.01-.01.01-.02.05-.06.1-.12.15-.18.01-.01.02-.03.03-.04.04-.05.09-.08.13-.12.02-.02.04-.04.06-.05.06-.05.13-.1.2-.14.05-.03.09-.05.13-.06.01,0,.03-.01.04-.02.03-.01.05-.02.07-.03.02,0,.03-.01.05-.01.02,0,.03,0,.04-.01.02,0,.04,0,.06,0,.01,0,.02,0,.03,0,.02,0,.05,0,.07,0h.02s.05,0,.08.01c0,0,.01,0,.02,0,.02,0,.04,0,.06.02,0,0,.01,0,.02,0,.02.01.05.02.07.03l-.33-.19s0,0,0,0c-.02-.01-.04-.02-.05-.03,0,0,0,0-.01,0,0,0-.01,0-.02,0,0,0-.02,0-.03,0-.01,0-.02,0-.03,0,0,0-.01,0-.02,0,0,0,0,0-.01,0-.02,0-.04,0-.06,0h0s-.01,0-.01,0c-.02,0-.03,0-.05,0,0,0-.01,0-.02,0-.01,0-.02,0-.03,0-.01,0-.02,0-.03,0,0,0-.02,0-.03,0-.01,0-.03,0-.04,0,0,0-.02,0-.02,0,0,0-.02,0-.02,0-.02,0-.05.02-.07.03,0,0-.02,0-.03.01,0,0,0,0-.01,0-.04.02-.09.04-.13.07-.07.04-.13.09-.2.14-.02.02-.04.04-.06.05-.03.03-.06.05-.09.08-.01.01-.03.03-.04.04-.01.01-.02.03-.03.04-.01.02-.03.03-.04.04-.03.03-.06.07-.09.1,0,.01-.02.03-.03.04,0,0-.01.01-.02.02,0,.01-.02.02-.03.04-.02.03-.04.06-.06.09-.02.03-.04.06-.05.09,0,0,0,0,0,0,0,0,0,0,0,0-.01.02-.03.05-.04.07-.02.03-.03.06-.05.09-.01.03-.02.05-.04.08h0s0,0,0,0c-.01.03-.03.06-.04.1-.01.03-.02.06-.04.1,0,.02,0,.03-.01.05,0,0,0,.02,0,.02,0,.01,0,.03-.01.04-.01.04-.02.08-.03.12,0,.02,0,.05-.01.07,0,.01,0,.03,0,.04,0,.01,0,.02,0,.03,0,.07-.01.14-.01.21,0,.33.12.56.31.67l.33.19c-.19-.11-.31-.34-.31-.67,0-.08,0-.16.02-.24,0-.01,0-.03,0-.04Z"/>
                      <path class="cls-64" d="m128.27,273.24c.58-.33,1.05-.06,1.05.6,0,.66-.47,1.47-1.04,1.81-.58.33-1.05.06-1.05-.6,0-.66.47-1.47,1.04-1.81Z"/>
                    </g>
                    <g class="cls-69">
                      <path class="cls-46" d="m123.61,276.82c.01-.08.03-.15.05-.23,0,0,0-.01,0-.02.03-.08.06-.16.09-.25h0c.04-.09.08-.17.12-.25,0,0,0,0,0,0,.05-.08.1-.15.15-.23,0,0,0-.01.01-.02.05-.06.1-.13.15-.19.01-.01.02-.02.03-.04.04-.04.09-.08.13-.12.02-.02.04-.04.06-.05.06-.05.13-.1.2-.14.04-.03.09-.05.13-.07.01,0,.03-.01.04-.02.02-.01.05-.02.07-.03.02,0,.03-.01.05-.01.01,0,.03,0,.04,0,.02,0,.04,0,.06-.01.01,0,.02,0,.03,0,.02,0,.04,0,.07,0h.01s.05,0,.08.01c0,0,.01,0,.02,0,.02,0,.04.01.06.02,0,0,.01,0,.02,0,.02,0,.05.02.07.03l-.32-.19s0,0,0,0c-.02-.01-.03-.02-.05-.03,0,0,0,0-.01,0,0,0-.01,0-.02,0-.01,0-.02,0-.03-.01-.01,0-.02,0-.03,0,0,0-.01,0-.02,0,0,0,0,0-.01,0-.02,0-.04,0-.06,0h-.02s-.03,0-.05,0c0,0-.01,0-.02,0-.01,0-.02,0-.03,0,0,0-.02,0-.03,0,0,0-.02,0-.03,0-.01,0-.03,0-.04.01,0,0-.02,0-.02,0,0,0-.02,0-.02,0-.02,0-.05.02-.07.02,0,0-.02,0-.03.01,0,0-.01,0-.02,0-.04.02-.09.04-.13.06-.07.04-.13.08-.2.14-.02.02-.04.04-.06.05-.03.03-.06.05-.09.08-.01.01-.03.03-.04.04-.01.01-.02.03-.03.04-.01.01-.03.03-.04.04-.03.03-.06.07-.09.1-.01.01-.02.03-.03.04,0,0,0,.01-.01.02,0,.01-.02.02-.03.04-.02.03-.04.06-.06.09s-.04.06-.05.09c0,0,0,0,0,0h0s-.03.05-.04.08c-.02.03-.03.06-.05.09-.01.03-.02.06-.04.08t0,0h0s-.03.07-.04.1c-.01.03-.02.07-.03.1,0,.02-.01.03-.02.05,0,0,0,.01,0,.02,0,.01,0,.02-.01.04-.01.04-.02.08-.03.12,0,.02,0,.05-.01.07,0,.01,0,.03,0,.04,0,.01,0,.02,0,.04,0,.07-.01.14-.01.2,0,.33.12.56.31.67l.33.19c-.19-.11-.3-.34-.31-.67,0-.08,0-.16.02-.24,0-.01,0-.02,0-.04Z"/>
                      <path class="cls-64" d="m124.62,275.29c.58-.34,1.05-.06,1.05.6,0,.66-.46,1.47-1.04,1.81-.58.33-1.05.06-1.05-.6,0-.66.46-1.47,1.04-1.8Z"/>
                    </g>
                  </g>
                  <g>
                    <path class="cls-60" d="m104.83,269.63l-5.3-3.06c-.08-.04-.15-.07-.21-.08-.23-.03-.4.12-.4.43v1.89s0,9.55,0,9.55c0,.39.28.87.61,1.07l5.3,3.06c.3.17.55.07.6-.22,0-.04,0-.1.01-.14v-1.97s0-9.47,0-9.47c0-.39-.27-.87-.61-1.06Z"/>
                    <path class="cls-35" d="m104.83,269.63l-5.3-3.06c-.08-.04-.15-.07-.21-.08,0,.04-.02.09-.02.14v1.9s0,9.55,0,9.55c0,.4.28.87.61,1.06l5.3,3.06c.07.04.15.07.21.07,0-.04,0-.1.01-.14v-1.97s0-9.47,0-9.47c0-.39-.27-.87-.61-1.06Z"/>
                  </g>
                  <path class="cls-33" d="m96.73,305.3c.26,0,.53-.05.8-.15,3.93-1.55,3.24-15.85,3.06-18.7-.02-.41-.38-.71-.78-.69-.41.03-.71.38-.69.78.42,6.64.03,16.39-2.13,17.24-.57.24-1.52-.4-2.6-1.73-.26-.31-.73-.36-1.04-.1-.32.26-.36.72-.1,1.04.51.62,1.9,2.32,3.49,2.32Z"/>
                  <g>
                    <path class="cls-64" d="m103.19,275.78v3.11c0,1.53-1.32,3.54-2.95,4.47l-.76-.43v-.62l.33-.19c1.26-.73,2.29-2.29,2.29-3.48v-3.11l1.09.24Z"/>
                    <path class="cls-40" d="m103.52,275.59v3.11c0,1.53-1.32,3.54-2.95,4.48l-.33.19v-.62l.33-.19c1.26-.73,2.29-2.29,2.29-3.48v-3.11l.65-.38Z"/>
                    <g>
                      <polygon class="cls-45" points="101.28 277.5 100.68 277.18 100.49 277.53 100.62 277.9 101.28 277.5"/>
                      <g>
                        <polygon class="cls-43" points="101.9 279.49 102.49 279.81 101.99 279.89 101.74 279.6 101.9 279.49"/>
                        <path class="cls-43" d="m101.33,279.24c-.3-.25-.65-.82-.65-2.07l-.83.48c0,1.58.5,2.26.95,2.54h0,.02s.09.06.14.09l.43.23-.03-.12c.07,0,.12,0,.13,0l.4-.92s-.28,0-.57-.24Z"/>
                        <path class="cls-50" d="m102.49,279.81l-.4.92c-.07,0-1.64.06-1.64-2.75l.83-.48c0,1.25.35,1.81.65,2.07.29.25.57.24.57.24Z"/>
                      </g>
                    </g>
                    <path class="cls-66" d="m102.16,264.29c.09.19.05.42-.1.57l-.59.6c-.65.66-1.01,1.49-1.01,2.34v3.41h-1.13v-3.41c0-1.06.45-2.1,1.26-2.92l.74-.75c.25-.26.69-.18.84.15h0Z"/>
                    <path class="cls-28" d="m99.02,270.7v12.25c0,.39.33.7.74.7h.34c.41,0,.73-.31.73-.7v-12.25h-1.82Z"/>
                    <path class="cls-28" d="m101.3,283.59v2.68c0,.36-.35.65-.79.65h-1.17c-.44,0-.79-.29-.79-.65v-2.68c0-.36.35-.65.79-.65h1.17c.44,0,.79.29.79.65Z"/>
                    <g>
                      <path class="cls-64" d="m103.81,271.33l-1.7-1.02h0c-.07-.06-.16-.1-.26-.09l-3.73.31c-.43.04-.91.69-.91,1.25v5.41c0,.23.08.38.21.45h0l1.72,1.03.02-1.82,2.44-1.41c.36-.21.66-.73.66-1.16v-2.32l1.56-.62Z"/>
                      <path class="cls-40" d="m98.9,272.79v5.41c0,.43.3.61.66.4l3.73-2.15c.36-.21.66-.73.66-1.16v-3.57c0-.32-.16-.51-.41-.49l-3.72.31c-.43.04-.91.69-.91,1.25Z"/>
                    </g>
                    <path class="cls-33" d="m100.83,269.32c0-.39-.33-.7-.73-.7h-.34c-.41,0-.74.31-.74.7v1.38h0c0,.13.09.26.26.36.35.2.93.2,1.28,0,.17-.1.26-.23.27-.36h0v-1.38Z"/>
                  </g>
                </g>
                <g>
                  <g>
                    <path class="cls-35" d="m126.76,265.3l2-1.15c.25-.15.46-.5.46-.8v-5.58c0-.29-.21-.41-.46-.27l-2,1.15c-.26.15-.46.51-.46.8v5.58c0,.29.21.41.46.27Z"/>
                    <path class="cls-35" d="m123.07,267.42l2-1.15c.26-.15.46-.5.46-.8v-5.58c0-.3-.21-.41-.46-.27l-2,1.15c-.25.15-.46.51-.46.8v5.58c0,.29.21.41.46.27Z"/>
                    <path class="cls-35" d="m119.37,269.54l2-1.15c.26-.15.46-.51.46-.8v-5.58c0-.3-.21-.41-.46-.27l-2,1.15c-.26.15-.46.51-.46.8v5.58c0,.3.21.41.46.27Z"/>
                    <path class="cls-35" d="m115.68,271.67l2-1.15c.26-.15.46-.51.46-.8v-5.58c0-.3-.21-.41-.46-.27l-2,1.15c-.25.15-.46.51-.46.8v5.58c0,.3.21.41.46.27Z"/>
                  </g>
                  <path class="cls-17" d="m115.33,262.28c3.75,1.63,9.92,3.75,15.22,3.06.25-.37.41-.8.41-1.18v-10.46c0-.15-.02-.27-.07-.38-.07.03-.15.07-.22.1l-2.91,1.68-12.43,7.18Z"/>
                </g>
              </g>
              <g>
                <g>
                  <path class="cls-33" d="m232.98,233.52c.28,0,.55-.16.67-.43.17-.37,0-.81-.36-.98-3.77-1.72-16.23-7.13-18.37-4.42-1,1.27.31,3.24,1.39,4.6l.21.26c.26.32.72.37,1.04.11.32-.26.37-.72.11-1.04l-.21-.26c-1.76-2.24-1.38-2.77-1.38-2.77.86-1.09,8.45,1.13,16.59,4.85.1.05.2.07.31.07Z"/>
                  <g>
                    <path class="cls-28" d="m218.62,238.78v-2.85l1.03,1.04c.16-.13.33-.25.53-.37l11.53-15.69c2.07-1.19,5.41-1.2,7.47-.01l18.63,10.75.37-.96,1.79.7v2.73s0,.07,0,.11v.2l-.03-.02c-.1.7-.59,1.38-1.52,1.92l-19.39,11.2c-2.07,1.19-5.41,1.2-7.47.01l-11.41-6.63c-.9-.52-1.38-1.18-1.49-1.86h-.04s0-.27,0-.27Z"/>
                    <path class="cls-35" d="m258.41,233.38l-19.39,11.19c-2.07,1.2-5.41,1.2-7.47.02l-11.41-6.63c-2.05-1.19-2.04-3.12.02-4.31l11.53-15.69c2.07-1.19,5.41-1.2,7.47-.01l19.27,11.12c2.05,1.18,2.04,3.12-.02,4.31Z"/>
                  </g>
                  <g>
                    <g>
                      <path class="cls-60" d="m221.93,185.06l18.98,11.03v15.79c0,3.73-2.13,7.98-4.77,9.5l-3.64,2.1.36,19.53-10.58-6.08s-.06-.03-.08-.05l-.05-.03h0c-1.01-.66-1.65-2.11-1.65-4.15v-42.01c0-1.89.55-3.9,1.43-5.64Z"/>
                      <path class="cls-24" d="m225.26,181.19l18.74-10.82c1.28-.74,2.43-.69,3.29-.03l10.68,6.12-17.06,11.6v8.01l-18.98-11.03c.86-1.69,2.04-3.11,3.34-3.86Z"/>
                    </g>
                    <path class="cls-65" d="m254.95,176.68l-18.74,10.82c-2.63,1.52-4.77,5.77-4.77,9.5v42.01c0,3.72,2.13,5.51,4.77,3.99l18.74-10.82c2.63-1.52,4.77-5.77,4.77-9.5v-42.01c0-3.73-2.13-5.51-4.77-3.99Z"/>
                    <path class="cls-60" d="m235.98,194.6v10.45c0,.15.02.27.07.38.15.38.53.49.98.23l2.8-1.62,14.13-8.15c.57-.34,1.05-1.16,1.05-1.82v-10.45c0-.6-.37-.87-.83-.71-.07.03-.15.07-.22.1l-2.92,1.68-14.01,8.09c-.58.33-1.05,1.14-1.05,1.82Z"/>
                    <path class="cls-34" d="m235.98,194.6v10.44c0,.15.02.27.07.38.07-.02.15-.06.22-.09l2.8-1.62,14.12-8.15c.25-.14.47-.37.64-.63.25-.37.41-.8.41-1.18v-10.46c0-.15-.02-.27-.07-.38-.07.03-.15.07-.22.1l-2.91,1.68-12.44,7.18-1.58.92c-.58.33-1.05,1.14-1.05,1.82Z"/>
                    <polygon class="cls-35" points="244.86 208.23 235.98 213.36 235.98 211.45 244.86 206.32 244.86 208.23"/>
                    <polygon class="cls-33" points="244.5 208.03 244.5 206.95 236.35 211.66 236.35 212.73 244.5 208.03"/>
                  </g>
                  <g class="cls-69">
                    <path class="cls-56" d="m254.95,206.65h0s-.02-.01-.02-.01c0,0,.01,0,.02.01Z"/>
                    <path class="cls-56" d="m254.85,209.22s.09-.06.14-.09c0,0,.01,0,.02-.02,0,0,.01,0,.02-.01h.01s.04-.04.06-.06c.02-.02.05-.05.08-.07.05-.05.1-.11.15-.17.01-.02.03-.04.04-.06h0s0,0,0,0h0s.03-.05.05-.07c.02-.02.03-.05.05-.08.02-.02.03-.04.04-.07h0s0,0,0-.01c.02-.03.03-.06.05-.08.01-.03.03-.06.05-.09.08-.17.14-.36.17-.54.01-.07.02-.14.02-.21,0-.05,0-.1-.01-.15-.01-.09-.03-.16-.06-.23,0,0,0,0,0-.01l-.04-.07s-.02-.03-.03-.05h0s0-.01,0-.01c0-.01-.02-.02-.02-.03-.01-.01-.02-.02-.04-.03,0,0,0,0-.01-.01-.01,0-.02-.02-.03-.02h0s-.56-.32-.56-.32c.03.02.06.05.09.08h0s.06.08.09.13c0,0,0,0,0,.01,0,.01.01.03.02.04.01.03.03.07.03.11,0,.01,0,.02,0,.03.01.06.02.12.02.19,0,.07,0,.14-.02.21,0,.03-.01.05-.02.07-.01.05-.02.11-.03.16,0,.01-.01.03-.01.04-.02.07-.05.14-.08.2,0,0,0,.01,0,.02-.03.07-.07.15-.11.22h0c-.04.08-.09.15-.14.21h0c-.05.07-.1.13-.15.19,0,0-.01.01-.02.01-.05.05-.1.1-.15.15-.01,0-.02.02-.03.02-.06.05-.11.09-.18.12-.11.06-.22.1-.31.11-.12.02-.24,0-.33-.04l.53.3c.06.04.14.07.22.08.02,0,.05,0,.07,0,.04,0,.09,0,.14-.02.04,0,.09-.02.13-.04.05-.02.09-.04.14-.06Z"/>
                    <path class="cls-59" d="m253.65,209.13c.02.07.04.14.06.2,0,0,0,.01,0,.02.03.06.07.12.11.17,0,0,0,0,0,0,.04.05.09.09.15.12l-.58-.33s0,0,0,0c-.02-.01-.04-.02-.06-.04-.02-.01-.04-.03-.05-.05-.01-.01-.02-.02-.03-.03,0,0,0,0,0,0,0,0,0,0-.01-.01-.02-.02-.03-.04-.05-.06-.01-.02-.03-.05-.04-.07,0,0,0-.02-.01-.02,0,0,0-.01,0-.02,0-.02-.01-.03-.02-.04-.01-.03-.02-.07-.03-.11,0-.02,0-.03,0-.05,0-.01,0-.03,0-.04,0-.02,0-.04-.01-.06,0-.06-.01-.12-.01-.19l.58.33c0,.09,0,.17.02.25,0,.02,0,.03,0,.05Z"/>
                    <path class="cls-51" d="m254.85,206.69c-.08.05-.16.1-.23.16-.01,0-.02.02-.03.03-.07.06-.14.12-.2.19,0,0-.01.01-.02.02-.07.07-.14.15-.2.24,0,0,0,0,0,0-.06.09-.12.18-.18.27,0,0,0,0,0,0-.05.09-.1.19-.14.28,0,0,0,.02-.01.03-.04.09-.07.18-.1.27,0,.02-.01.04-.02.06-.02.07-.03.14-.05.21,0,.03-.01.06-.02.09-.01.1-.02.19-.02.28l-.58-.33c0-.09,0-.19.02-.28,0-.03.01-.06.02-.09,0-.05.02-.1.03-.14,0-.02.01-.04.02-.07,0-.02.01-.04.02-.06,0-.02.01-.04.02-.07.02-.05.03-.1.06-.15,0-.02.02-.03.02-.05,0,0,0-.02.01-.03,0-.02.01-.03.02-.05.02-.04.04-.08.06-.12.02-.04.04-.07.06-.11,0,0,0,0,0,0,0,0,0,0,0,0,.02-.03.03-.06.05-.08.02-.03.04-.07.06-.1.02-.03.04-.06.06-.09,0,0,0,0,0,0,0,0,0,0,0,0,.03-.03.05-.07.08-.1.03-.03.05-.06.08-.1.01-.01.03-.03.04-.04,0,0,.01-.01.02-.02.01-.01.02-.02.03-.03.03-.03.07-.07.11-.1.02-.02.04-.04.07-.06.01-.01.02-.02.03-.03.01,0,.02-.02.03-.03.07-.05.13-.1.2-.14.34-.19.64-.21.87-.08l.58.33c-.22-.13-.53-.11-.87.08Z"/>
                    <g>
                      <path class="cls-61" d="m254.85,209.55c.68-.39,1.23-1.35,1.23-2.13,0-.43-.16-.72-.42-.83,0,0-.02-.01-.03-.01-.04-.02-.08-.02-.12-.03-.04,0-.08,0-.12,0-.06,0-.12,0-.18.03-.05,0-.09.02-.14.04-.03,0-.05.01-.07.03,0,0-.02,0-.03.02h0s-.07.03-.1.05c-.08.05-.16.1-.23.16-.01,0-.02.02-.03.03-.16.13-.3.28-.43.46-.06.09-.12.18-.17.27-.12.21-.21.42-.27.64-.02.07-.04.14-.05.21-.03.13-.04.25-.04.37,0,.04,0,.08,0,.12h0c0,.06.01.12.03.17,0,.04.02.07.03.1.01.03.02.06.03.09,0,0,0,0,0,0,0,.02.02.05.03.07,0,.01.01.02.02.03.04.07.09.13.16.18,0,0,.01,0,.01.02,0,0,.01,0,.02.01.23.14.54.13.89-.07Zm0-.33s-.09.05-.14.06c-.04.02-.09.03-.13.04-.05.01-.1.02-.14.02-.03,0-.05,0-.07,0-.08-.01-.16-.04-.22-.08-.08-.06-.15-.15-.19-.26-.03-.09-.05-.21-.05-.33,0-.6.42-1.34.94-1.63.11-.06.21-.1.3-.11.14-.03.26,0,.36.05,0,0,.02.01.03.02.03.02.05.04.08.07,0,0,0,0,.01.01.02.02.04.05.05.08.01.02.02.03.03.06.03.06.05.14.06.23,0,.05.01.1.01.15,0,.07,0,.14-.02.21-.03.18-.08.36-.17.54-.03.06-.06.13-.09.18-.02.02-.03.04-.04.07-.02.03-.03.05-.05.08-.02.02-.03.05-.05.07h0s-.03.04-.04.06c-.05.06-.1.12-.15.17-.02.02-.05.05-.08.07-.02.02-.04.04-.06.06,0,0-.02.02-.03.02,0,.01-.02.01-.02.02-.05.04-.09.07-.14.09Z"/>
                      <path class="cls-51" d="m255.15,209.33c.26-.22.49-.53.66-.86-.08-.04-.15-.08-.21-.13-.03.06-.05.11-.08.16-.02.02-.03.05-.04.07-.02.03-.04.05-.05.08-.01.02-.03.04-.04.06h0s-.03.05-.04.06c-.05.06-.1.12-.15.18-.02.02-.05.05-.08.06-.02.03-.04.04-.06.05-.01.01-.02.02-.03.02-.01.01-.02.02-.02.02-.03.02-.05.04-.08.05.07.06.15.11.24.16Z"/>
                      <path class="cls-37" d="m255.19,207.03s0,.02,0,.03c.01.06.02.12.02.19,0,.07,0,.14-.02.21,0,.03-.01.05-.02.07-.01.05-.02.11-.03.16,0,.01-.01.03-.01.04-.02.07-.05.14-.08.2,0,0,0,.01,0,.02-.03.07-.07.15-.11.22h0c-.04.08-.09.15-.14.21h0c-.05.07-.1.13-.15.19,0,0-.01.01-.02.01-.05.05-.1.1-.15.15-.01,0-.02.02-.03.02-.06.05-.11.09-.18.12-.11.06-.22.1-.31.11-.03-.09-.05-.21-.05-.33,0-.6.42-1.33.94-1.63.11-.06.21-.1.3-.11.01.03.03.07.03.11Z"/>
                    </g>
                  </g>
                  <g>
                    <g class="cls-69">
                      <path class="cls-46" d="m254.18,202.31c.01-.07.03-.15.05-.23,0,0,0-.01,0-.02.03-.08.06-.17.09-.25,0,0,0,0,0,0,.04-.08.08-.17.12-.25,0,0,0,0,0,0,.05-.08.09-.15.15-.22,0,0,0-.01.01-.02.05-.06.1-.12.15-.18.01-.01.02-.03.03-.04.04-.04.09-.08.13-.12.02-.02.04-.04.06-.05.06-.05.13-.1.2-.14.05-.03.09-.05.13-.06.01,0,.03-.01.04-.02.02-.01.05-.02.07-.03.02,0,.03,0,.05-.01.01,0,.03,0,.04,0,.02,0,.04,0,.06,0,.01,0,.02,0,.03,0,.02,0,.05,0,.07,0h.02s.05,0,.08,0c0,0,.01,0,.02,0,.02,0,.04.01.06.02,0,0,.01,0,.02,0,.02,0,.05.02.07.03l-.33-.19h0s-.04-.02-.05-.03c0,0,0,0-.01,0,0,0-.01,0-.02,0,0,0-.02,0-.03-.01-.01,0-.02,0-.03,0,0,0-.01,0-.02,0,0,0,0,0-.01,0-.02,0-.04,0-.06,0h-.02s-.03,0-.05,0c0,0-.01,0-.02,0-.01,0-.02,0-.03,0-.01,0-.02,0-.03,0,0,0-.02,0-.03,0-.01,0-.03,0-.04,0,0,0-.02,0-.02,0,0,0-.02,0-.02,0-.02,0-.05.02-.07.03,0,0-.02,0-.03,0,0,0-.01,0-.02,0-.04.02-.09.04-.13.06-.07.04-.13.09-.2.14-.02.02-.04.04-.06.05-.03.03-.06.05-.09.08-.01.01-.03.03-.04.04-.01.01-.02.02-.03.04-.01.01-.03.03-.04.04-.03.03-.06.07-.08.1,0,.01-.02.03-.03.04,0,0-.01.01-.02.02,0,.01-.02.02-.03.04-.02.03-.04.06-.06.09-.02.03-.04.06-.05.09,0,0,0,0,0,0,0,0,0,0,0,0-.01.02-.03.05-.04.07-.02.03-.03.06-.05.09-.01.03-.03.05-.04.08h0s0,0,0,0c-.01.03-.03.06-.04.1-.01.03-.02.07-.04.1,0,.02-.01.03-.01.05,0,0,0,.01,0,.02,0,.01,0,.02-.01.04-.01.04-.02.08-.03.12,0,.02,0,.05-.01.07,0,.01,0,.02,0,.04,0,.01,0,.02,0,.03,0,.07-.01.14-.01.2,0,.33.12.56.31.67l.32.19c-.19-.11-.3-.34-.31-.67,0-.08,0-.16.02-.24,0-.01,0-.03,0-.04Z"/>
                      <path class="cls-64" d="m255.2,200.78c.58-.33,1.05-.06,1.05.6,0,.66-.46,1.47-1.04,1.81-.58.33-1.05.06-1.05-.6,0-.66.47-1.47,1.04-1.81Z"/>
                    </g>
                    <g class="cls-69">
                      <path class="cls-46" d="m250.54,204.35c.01-.07.03-.15.05-.23,0,0,0-.01,0-.02.03-.08.06-.17.09-.25h0c.04-.09.08-.17.12-.25,0,0,0,0,0,0,.05-.08.09-.15.15-.22,0,0,.01-.01.02-.02.05-.06.1-.12.15-.18.01-.01.02-.02.03-.04.04-.04.09-.08.13-.12.02-.02.04-.04.06-.05.06-.05.13-.1.2-.14.04-.03.09-.05.13-.07.01,0,.03-.01.04-.02.02,0,.05-.02.07-.02.02,0,.03-.01.05-.01.01,0,.03,0,.04-.01.02,0,.04,0,.06,0,.01,0,.02,0,.03,0,.02,0,.05,0,.07,0,0,0,0,0,.01,0,.03,0,.05,0,.08,0,0,0,.01,0,.02,0,.02,0,.04.01.06.02,0,0,.01,0,.02,0,.02.01.05.02.07.03l-.33-.19h0s-.04-.02-.06-.03c0,0,0,0-.01,0,0,0-.01,0-.02,0,0,0-.02,0-.03,0,0,0-.02,0-.03,0,0,0-.01,0-.02,0,0,0,0,0,0,0-.02,0-.04,0-.06,0h0s-.01,0-.02,0c-.02,0-.03,0-.05,0,0,0-.01,0-.02,0-.01,0-.02,0-.03,0,0,0-.02,0-.03,0,0,0-.02,0-.03,0-.02,0-.03,0-.04,0,0,0-.02,0-.02,0,0,0-.02,0-.02,0-.02,0-.05.02-.07.03,0,0-.02,0-.03,0,0,0-.01,0-.02,0-.04.02-.09.04-.13.07-.07.04-.13.09-.2.14-.02.02-.04.03-.06.05-.03.03-.06.05-.09.08-.01.01-.03.03-.04.04-.01.01-.02.02-.03.04-.01.01-.03.03-.04.04-.03.03-.06.07-.09.1,0,.01-.02.03-.03.04,0,0-.01.01-.01.02,0,.01-.02.02-.03.04-.02.03-.04.06-.06.09-.02.03-.04.06-.05.09,0,0,0,0,0,0,0,0,0,0,0,0-.01.02-.03.05-.04.07-.02.03-.03.06-.05.09-.01.03-.02.05-.04.08h0s0,0,0,0c-.01.03-.03.06-.04.1-.01.03-.02.07-.03.1,0,.02-.01.03-.02.05,0,0,0,.01,0,.02,0,.01,0,.02-.01.04-.01.04-.02.08-.03.12,0,.02,0,.05-.01.07,0,.01,0,.03,0,.04,0,.01,0,.02,0,.03,0,.07-.01.14-.01.2,0,.33.12.56.31.67l.33.19c-.19-.11-.31-.34-.31-.67,0-.08,0-.16.02-.24,0-.01,0-.02,0-.04Z"/>
                      <path class="cls-64" d="m251.55,202.82c.58-.33,1.05-.06,1.05.6,0,.66-.46,1.47-1.04,1.81-.58.33-1.05.06-1.05-.6,0-.66.46-1.47,1.04-1.8Z"/>
                    </g>
                    <g class="cls-69">
                      <path class="cls-46" d="m246.89,206.4c.01-.08.03-.15.05-.23,0,0,0-.01,0-.02.03-.08.06-.17.09-.25h0c.04-.09.08-.17.12-.25,0,0,0,0,0,0,.04-.08.09-.15.15-.22,0,0,0-.01.01-.02.05-.06.1-.13.15-.18.01-.01.02-.02.03-.04.04-.04.09-.08.13-.12.02-.02.04-.04.06-.05.06-.05.13-.1.2-.14.05-.03.09-.05.13-.07.01,0,.03-.01.04-.02.02,0,.05-.02.07-.03.02,0,.03,0,.05-.01.02,0,.03,0,.04,0,.02,0,.04,0,.06,0,.01,0,.02,0,.03,0,.02,0,.05,0,.07,0h.02s.05,0,.08.01c0,0,.01,0,.02,0,.02,0,.04.01.06.02,0,0,.01,0,.02,0,.02,0,.05.02.07.03l-.33-.19s0,0,0,0c-.02-.01-.03-.02-.05-.03,0,0,0,0-.01,0,0,0-.01,0-.02,0,0,0-.02,0-.03,0-.01,0-.02,0-.03,0,0,0-.01,0-.02,0,0,0,0,0-.01,0-.02,0-.04,0-.06,0h0s-.01,0-.01,0h-.05s-.01,0-.02,0c-.01,0-.02,0-.03,0-.01,0-.02,0-.03,0,0,0-.02,0-.03,0-.01,0-.03,0-.04.01,0,0-.01,0-.02,0,0,0-.02,0-.02,0-.02,0-.05.02-.07.02,0,0-.02,0-.03,0,0,0-.01,0-.01,0-.04.02-.09.04-.13.07-.07.04-.13.09-.2.14-.02.02-.04.03-.06.05-.03.03-.06.05-.09.08-.01.01-.03.03-.04.04-.01.01-.02.02-.03.04-.01.01-.03.03-.04.04-.03.03-.06.07-.09.1,0,.01-.02.03-.03.04,0,0,0,.01-.01.02,0,.01-.02.02-.03.04-.02.03-.04.06-.06.09-.02.03-.04.06-.05.09,0,0,0,0,0,0,0,0,0,0,0,0-.01.02-.03.05-.04.07-.02.03-.03.06-.04.09-.01.03-.03.05-.04.08h0s0,.01,0,.01c-.01.03-.03.06-.04.09-.01.03-.02.07-.04.1,0,.02,0,.03-.01.05,0,0,0,.01,0,.02,0,.01,0,.02-.01.04-.01.04-.02.08-.03.12,0,.02,0,.05-.01.07,0,.01,0,.03,0,.04,0,.01,0,.02,0,.04,0,.07-.01.14-.01.2,0,.33.12.56.31.67l.32.19c-.19-.11-.3-.34-.31-.67,0-.08,0-.16.02-.24,0-.01,0-.02,0-.04Z"/>
                      <path class="cls-64" d="m247.9,204.87c.58-.33,1.05-.06,1.05.6,0,.66-.46,1.47-1.04,1.81-.58.33-1.05.07-1.05-.6,0-.66.47-1.47,1.04-1.8Z"/>
                    </g>
                  </g>
                  <g>
                    <path class="cls-60" d="m228.11,199.21l-5.3-3.06c-.07-.04-.15-.07-.21-.08-.23-.03-.4.12-.4.43v1.89s0,9.55,0,9.55c0,.39.28.87.61,1.07l5.3,3.06c.3.17.55.07.6-.21,0-.05,0-.1.01-.14v-1.97s0-9.47,0-9.47c0-.39-.27-.87-.61-1.07Z"/>
                    <path class="cls-35" d="m228.11,199.21l-5.3-3.06c-.07-.04-.15-.07-.21-.08,0,.04-.01.09-.02.14v1.9s0,9.55,0,9.55c0,.4.28.87.61,1.07l5.3,3.06c.07.04.15.07.21.08,0-.05,0-.1.01-.14v-1.97s0-9.47,0-9.47c0-.39-.27-.87-.61-1.07Z"/>
                  </g>
                  <path class="cls-33" d="m220.01,234.88c.26,0,.53-.05.8-.15,3.93-1.55,3.24-15.85,3.06-18.7-.03-.41-.43-.72-.78-.69-.41.03-.71.37-.69.78.42,6.64.03,16.39-2.13,17.24-.57.23-1.52-.4-2.6-1.73-.26-.31-.73-.36-1.04-.1-.32.26-.36.72-.1,1.04.51.62,1.9,2.32,3.49,2.32Z"/>
                  <g>
                    <path class="cls-64" d="m226.47,205.36v3.11c0,1.53-1.32,3.54-2.94,4.47l-.76-.43v-.62l.33-.19c1.26-.73,2.29-2.29,2.29-3.48v-3.11l1.09.24Z"/>
                    <path class="cls-40" d="m226.8,205.17v3.11c0,1.53-1.32,3.54-2.94,4.48l-.33.19v-.62l.33-.19c1.26-.73,2.29-2.29,2.29-3.48v-3.11l.65-.38Z"/>
                    <g>
                      <polygon class="cls-45" points="224.56 207.08 223.96 206.76 223.77 207.11 223.9 207.48 224.56 207.08"/>
                      <g>
                        <polygon class="cls-43" points="225.18 209.07 225.78 209.39 225.27 209.47 225.02 209.18 225.18 209.07"/>
                        <path class="cls-43" d="m224.61,208.82c-.3-.25-.65-.82-.65-2.07l-.83.48c0,1.58.5,2.26.95,2.54h.02s.09.06.14.08l.43.23-.03-.12c.07,0,.13,0,.14,0l.4-.92s-.28,0-.57-.24Z"/>
                        <path class="cls-50" d="m225.78,209.39l-.4.92c-.07,0-1.64.06-1.64-2.75l.83-.48c0,1.25.35,1.82.65,2.07.29.25.57.24.57.24Z"/>
                      </g>
                    </g>
                    <path class="cls-66" d="m225.44,193.87c.09.19.05.42-.1.57l-.59.6c-.65.66-1.01,1.49-1.01,2.34v3.41h-1.13v-3.41c0-1.06.45-2.1,1.26-2.92l.74-.75c.25-.26.69-.18.84.15h0Z"/>
                    <path class="cls-28" d="m222.3,200.28v12.25c0,.39.33.7.73.7h.34c.41,0,.74-.31.74-.7v-12.25h-1.81Z"/>
                    <path class="cls-28" d="m224.58,213.17v2.68c0,.36-.35.65-.79.65h-1.17c-.44,0-.79-.29-.79-.65v-2.68c0-.36.35-.65.79-.65h1.17c.44,0,.79.29.79.65Z"/>
                    <g>
                      <path class="cls-64" d="m227.09,200.9l-1.7-1.02h0c-.07-.06-.16-.1-.26-.09l-3.73.31c-.43.04-.91.69-.91,1.25v5.41c0,.23.08.38.21.45h0s1.72,1.03,1.72,1.03l.02-1.82,2.44-1.41c.36-.21.66-.73.66-1.16v-2.32l1.56-.62Z"/>
                      <path class="cls-40" d="m222.18,202.37v5.41c0,.43.3.61.66.4l3.73-2.15c.36-.21.66-.73.66-1.16v-3.57c0-.32-.16-.51-.41-.49l-3.73.31c-.43.03-.91.69-.91,1.25Z"/>
                    </g>
                    <path class="cls-33" d="m224.11,198.9c0-.39-.33-.7-.74-.7h-.34c-.41,0-.73.31-.73.7v1.38h0c0,.13.09.26.26.36.35.2.93.2,1.28,0,.17-.1.26-.23.27-.36h0v-1.38Z"/>
                  </g>
                </g>
                <g>
                  <g>
                    <path class="cls-35" d="m250.04,194.88l2-1.15c.26-.15.46-.51.46-.8v-5.58c0-.3-.21-.41-.46-.27l-2,1.15c-.25.15-.46.51-.46.8v5.58c0,.29.21.41.46.27Z"/>
                    <path class="cls-35" d="m246.35,197l2-1.15c.26-.15.46-.51.46-.8v-5.58c0-.3-.21-.41-.46-.27l-2,1.15c-.25.15-.46.51-.46.8v5.58c0,.3.21.41.46.27Z"/>
                    <path class="cls-35" d="m242.65,199.12l2-1.15c.25-.15.46-.51.46-.8v-5.58c0-.29-.21-.41-.46-.27l-2,1.15c-.26.15-.46.51-.46.8v5.58c0,.3.21.42.46.27Z"/>
                    <path class="cls-35" d="m238.96,201.24l2-1.15c.26-.15.46-.51.46-.8v-5.58c0-.3-.21-.41-.46-.27l-2,1.16c-.25.15-.46.51-.46.8v5.58c0,.3.21.41.46.27Z"/>
                  </g>
                  <path class="cls-21" d="m238.61,191.86c3.75,1.63,9.92,3.75,15.22,3.06.25-.37.41-.8.41-1.18v-10.46c0-.15-.02-.27-.07-.38-.07.03-.15.07-.22.1l-2.91,1.68-12.44,7.18Z"/>
                </g>
              </g>
            </g>
            <g>
              <g class="cls-69">
                <polygon class="cls-49" points="64.15 186.52 54.94 181.16 55.37 334.11 64.59 339.47 64.15 186.52"/>
                <polygon class="cls-42" points="73.43 181.16 64.21 175.81 54.94 181.16 64.15 186.52 73.43 181.16"/>
                <polygon class="cls-40" points="64.15 186.52 64.59 339.47 73.86 334.11 73.43 181.16 64.15 186.52"/>
              </g>
              <g class="cls-69">
                <polygon class="cls-49" points="286.38 58.42 277.16 53.06 277.59 206.02 286.81 211.37 286.38 58.42"/>
                <polygon class="cls-42" points="295.65 53.06 286.44 47.71 277.16 53.06 286.38 58.42 295.65 53.06"/>
                <polygon class="cls-40" points="286.38 58.42 286.81 211.37 296.09 206.02 295.65 53.06 286.38 58.42"/>
              </g>
              <g class="cls-69">
                <polygon class="cls-40" points="9.39 144.76 9.43 158.49 107.36 215.4 107.32 201.67 9.39 144.76"/>
                <polygon class="cls-64" points="107.32 201.67 107.36 215.4 358.1 70.63 358.06 56.91 107.32 201.67"/>
                <g>
                  <polygon class="cls-55" points="9.39 144.76 107.32 201.67 358.06 56.91 260.13 0 9.39 144.76"/>
                  <polygon class="cls-66" points="352.84 56.9 260.12 3.02 14.61 144.77 107.32 198.65 352.84 56.9"/>
                </g>
              </g>
              <g class="cls-69">
                <path class="cls-33" d="m227.14,141.18c0-.08,0-.16.01-.24,0-.01,0-.02,0-.03,0-.01,0-.03,0-.04,0-.06,0-.12.02-.18.01-.1.02-.21.04-.32,0,0,0-.01,0-.02,0-.02,0-.04,0-.06.01-.1.03-.2.04-.31,0-.06.02-.12.03-.18,0-.04.02-.09.02-.13,0-.03,0-.07.02-.1.02-.1.04-.21.07-.32.02-.07.03-.14.04-.21,0-.02,0-.03,0-.05.03-.12.06-.24.09-.36.02-.09.04-.17.06-.26,0-.01,0-.02,0-.03.01-.06.03-.12.05-.18.05-.19.1-.39.16-.59,0-.03.01-.05.02-.08.01-.05.03-.11.05-.16.07-.25.15-.51.23-.77.01-.05.03-.1.04-.15.01-.03.02-.06.03-.09.12-.38.25-.78.38-1.17,0-.03.02-.06.03-.09.01-.04.03-.08.04-.11.17-.5.35-1.02.54-1.53.01-.03.02-.06.03-.09.01-.03.02-.06.03-.09.26-.71.53-1.42.8-2.13,0,0,0,0,0-.01,0-.02.02-.04.03-.07.17-.43.34-.85.51-1.27.02-.06.05-.11.07-.17.17-.42.34-.84.51-1.24.01-.04.03-.08.04-.11.02-.06.05-.11.07-.16.09-.21.17-.42.26-.62.04-.09.07-.18.11-.26.11-.26.22-.51.32-.76.01-.03.03-.07.04-.1.12-.28.24-.56.36-.83.03-.07.06-.13.09-.2.09-.2.17-.39.26-.58.01-.03.03-.06.04-.09.03-.07.06-.13.09-.2.05-.11.1-.22.15-.33.05-.1.09-.19.13-.29.05-.1.09-.2.13-.3.05-.1.09-.2.14-.3.04-.08.08-.17.11-.25.04-.09.08-.18.12-.27.04-.08.07-.16.11-.23.04-.09.08-.17.12-.25.03-.06.06-.13.09-.19.04-.08.07-.15.11-.23.03-.06.05-.11.08-.16.04-.08.07-.15.1-.22.01-.03.03-.07.05-.1.03-.07.06-.13.09-.19.01-.03.03-.05.04-.07,0,0,0-.01,0-.01.02-.05.04-.09.06-.12,0-.02.02-.03.02-.05.02-.05.04-.09.05-.11l1.84,1.07s-.07.15-.14.3c0,.01-.01.03-.02.04-.03.06-.06.13-.1.21-.02.05-.05.1-.07.15-.02.05-.05.11-.08.17-.03.06-.06.13-.09.2-.03.06-.06.13-.09.19-.03.06-.06.13-.09.19-.04.09-.08.17-.12.26-.03.07-.06.13-.09.2-.04.1-.09.2-.14.3-.03.07-.07.15-.1.22-.05.11-.1.21-.15.33-.04.09-.08.18-.12.27-.05.1-.09.21-.14.32-.05.1-.09.21-.14.31-.05.1-.09.21-.14.32-.08.18-.16.37-.25.56-.03.07-.06.15-.1.22-.12.27-.23.54-.36.82-.02.04-.04.09-.06.13-.1.24-.2.48-.31.72-.04.09-.08.19-.12.29-.08.2-.17.4-.25.61-.04.09-.08.18-.11.28-.17.41-.34.82-.51,1.24-.02.06-.05.11-.07.17-.17.42-.34.85-.51,1.27-.01.03-.02.06-.03.08-.28.71-.55,1.42-.8,2.13-.02.06-.04.12-.07.18-.19.52-.37,1.03-.54,1.53-.02.07-.05.13-.07.2-.13.4-.26.79-.38,1.18-.03.08-.05.16-.07.24-.08.26-.15.52-.22.77-.02.08-.05.16-.07.24-.06.2-.1.39-.15.58-.02.07-.04.15-.06.22-.02.09-.04.17-.06.26-.03.14-.07.28-.09.41-.02.07-.03.14-.04.21-.03.14-.06.28-.08.42,0,.04-.02.09-.02.13-.03.17-.06.33-.08.49,0,.02,0,.04,0,.05-.02.18-.04.35-.05.51,0,.01,0,.03,0,.04-.01.17-.02.33-.02.49,0,.31.02.62.04.91,0,.03,0,.05,0,.07.03.27.06.53.11.78,0,.03.01.06.02.1.05.24.11.47.17.69.01.04.03.08.04.11.06.19.13.37.21.54.02.04.03.09.05.13.08.17.17.33.26.48.02.04.04.08.07.12.11.17.23.33.36.48.03.04.07.08.11.12.1.11.2.21.31.3.04.04.08.08.13.11.15.12.3.23.46.32l-1.84-1.07c-.16-.09-.31-.2-.46-.32-.04-.04-.08-.07-.13-.11-.11-.09-.21-.2-.31-.3-.04-.04-.08-.08-.11-.12-.12-.15-.24-.3-.35-.47,0,0,0,0,0-.01-.02-.04-.04-.08-.07-.12-.08-.14-.16-.27-.24-.42,0-.02-.01-.04-.02-.06-.02-.04-.03-.09-.05-.13-.04-.1-.09-.19-.12-.29-.03-.08-.06-.17-.08-.25-.01-.04-.03-.08-.04-.11,0-.03-.02-.05-.02-.08-.04-.14-.08-.28-.11-.43-.01-.06-.03-.12-.04-.19,0-.03-.01-.06-.02-.1,0-.04-.02-.08-.02-.12-.02-.13-.04-.27-.06-.4-.01-.08-.02-.17-.03-.25,0-.03,0-.05,0-.08,0-.03,0-.05,0-.08-.01-.13-.02-.26-.02-.4,0-.13,0-.27,0-.41v-.02c0-.07,0-.14,0-.21Z"/>
                <path class="cls-35" d="m236.35,121.8c-.37.78-7.38,15.64-7.37,20.66.02,5.02,3.35,7.17,7.44,4.81,4.1-2.36,7.41-8.35,7.39-13.37-.01-5.02-7.09-11.74-7.46-12.1Z"/>
              </g>
              <g>
                <polygon class="cls-57" points="112.78 208.52 110.42 209.88 115.37 201.33 117.72 199.96 112.78 208.52"/>
                <polygon class="cls-57" points="120.19 204.24 117.84 205.6 122.78 197.04 125.14 195.68 120.19 204.24"/>
                <polygon class="cls-57" points="127.61 199.96 125.25 201.32 130.2 192.76 132.55 191.4 127.61 199.96"/>
                <polygon class="cls-57" points="135.02 195.68 132.67 197.04 137.61 188.48 139.97 187.12 135.02 195.68"/>
                <polygon class="cls-57" points="142.44 191.4 140.08 192.76 145.03 184.2 147.38 182.84 142.44 191.4"/>
                <polygon class="cls-57" points="149.86 187.12 147.5 188.48 152.45 179.92 154.8 178.56 149.86 187.12"/>
                <polygon class="cls-57" points="157.27 182.84 154.92 184.19 159.86 175.64 162.22 174.28 157.27 182.84"/>
                <polygon class="cls-57" points="164.69 178.55 162.33 179.91 167.28 171.35 169.63 169.99 164.69 178.55"/>
                <polygon class="cls-57" points="172.1 174.27 169.75 175.63 174.69 167.07 177.05 165.71 172.1 174.27"/>
                <polygon class="cls-57" points="179.52 169.99 177.16 171.35 182.11 162.79 184.46 161.43 179.52 169.99"/>
                <polygon class="cls-57" points="186.94 165.71 184.58 167.07 189.52 158.51 191.88 157.15 186.94 165.71"/>
              </g>
              <g>
                <polygon class="cls-57" points="274.37 115.83 272.01 117.19 276.96 108.63 279.31 107.27 274.37 115.83"/>
                <polygon class="cls-57" points="281.78 111.55 279.43 112.91 284.37 104.35 286.73 102.99 281.78 111.55"/>
                <polygon class="cls-57" points="289.2 107.27 286.84 108.63 291.79 100.07 294.14 98.71 289.2 107.27"/>
                <polygon class="cls-57" points="296.61 102.99 294.26 104.35 299.2 95.79 301.56 94.43 296.61 102.99"/>
                <polygon class="cls-57" points="304.03 98.71 301.68 100.06 306.62 91.51 308.97 90.15 304.03 98.71"/>
                <polygon class="cls-57" points="311.44 94.42 309.09 95.78 314.03 87.22 316.39 85.86 311.44 94.42"/>
                <polygon class="cls-57" points="318.86 90.14 316.51 91.5 321.45 82.94 323.81 81.58 318.86 90.14"/>
                <polygon class="cls-57" points="326.28 85.86 323.92 87.22 328.87 78.66 331.22 77.3 326.28 85.86"/>
                <polygon class="cls-57" points="333.69 81.58 331.34 82.94 336.28 74.38 338.64 73.02 333.69 81.58"/>
                <polygon class="cls-57" points="341.11 77.3 338.75 78.66 343.7 70.1 346.05 68.74 341.11 77.3"/>
                <polygon class="cls-57" points="348.52 73.02 346.17 74.38 351.11 65.82 353.47 64.46 348.52 73.02"/>
              </g>
            </g>
          </g>
          <g>
            <g>
              <path class="cls-32" d="m206.36,254.42c-.14.43-.5.67-.94.8.04-.06.08-.13.1-.21.27-.8.3-2.39.27-3.7-.03-1.27-.7-2.44-1.78-3.1l-9.35-5.74-.48.26c.14-.18.23-.26.23-.26h0c.66-.37,1.47-.35,2.11.05l9.13,5.61c.55.34.89.91.93,1.55.07,1.36.12,3.71-.23,4.74Z"/>
              <path class="cls-47" d="m205.53,255c-.03.08-.07.15-.1.21-1.11.34-2.74-.05-2.74-.05l-8.39-4.63c-.83-.46-1.38-1.32-1.38-2.28-.05-2.74.54-4.31.99-5.1.11-.18.21-.33.29-.44l.47-.26,10.17,6.24c.42.26.72.66.84,1.12.05.14.07.3.08.45.07,1.36.11,3.69-.23,4.73Z"/>
              <path class="cls-44" d="m205.67,249.82c-7.57.84-10.73-4.3-11.78-6.66.11-.18.21-.33.29-.44l.47-.26,10.17,6.24c.42.26.72.66.84,1.12Z"/>
            </g>
            <path class="cls-38" d="m248.22,321.14l-16.65-12.5,13.2-10.91s9.5,1.23,9.5,2.29-6.05,21.12-6.05,21.12Z"/>
            <path class="cls-38" d="m339.03,267.11l-16.66-12.5,13.2-10.91s2.46,1.76,2.46,2.81.99,20.6.99,20.6Z"/>
            <g>
              <g>
                <path class="cls-39" d="m227.14,340.34l-9.48-6.24s-6.28-24.86,15.38-26.53l9.48,5.34-15.38,27.43Z"/>
                <g>
                  <path class="cls-28" d="m246.21,320.36c0,7.08-4.97,15.69-11.1,19.22-6.13,3.54-11.1.67-11.1-6.41s4.97-15.68,11.1-19.22c6.13-3.54,11.1-.67,11.1,6.41Z"/>
                  <path class="cls-62" d="m244.88,321.26c0,3.5-1.38,7.41-3.54,10.73-.41.63-.85,1.23-1.31,1.81-1.44,1.81-3.13,3.34-4.92,4.38-1.79,1.04-3.48,1.45-4.92,1.3-.46-.04-.9-.14-1.31-.3-2.16-.82-3.54-3.15-3.54-6.64,0-.82.07-1.67.23-2.53.09-.57.22-1.15.38-1.73,1.31-4.85,4.61-9.72,8.54-12.28.2-.13.41-.26.62-.38.21-.12.42-.23.62-.34,3.93-1.99,7.23-.92,8.54,2.41.16.4.29.83.38,1.29.15.69.22,1.45.22,2.27Z"/>
                  <path class="cls-11" d="m226.26,332.01c0-3.17,1.25-6.72,3.21-9.73.37-.57.77-1.12,1.18-1.64,1.31-1.64,2.84-3.03,4.46-3.97,1.62-.94,3.15-1.31,4.46-1.18.42.04.81.13,1.18.27,1.96.74,3.21,2.85,3.21,6.02,0,.74-.07,1.51-.21,2.29-.08.52-.2,1.04-.34,1.57-1.19,4.39-4.18,8.81-7.74,11.12-.18.12-.37.24-.56.34-.19.11-.38.21-.56.3-3.57,1.8-6.55.84-7.74-2.18-.15-.37-.26-.76-.34-1.18-.14-.62-.2-1.31-.2-2.05Z"/>
                  <path class="cls-28" d="m242.82,322.31c0,4.92-3.45,10.9-7.71,13.35-4.26,2.46-7.71.47-7.71-4.45s3.45-10.9,7.71-13.35c4.26-2.46,7.71-.47,7.71,4.45Z"/>
                  <path class="cls-32" d="m241.71,322.95c0,4.21-2.96,9.33-6.6,11.43-3.65,2.1-6.6.4-6.6-3.81s2.95-9.33,6.6-11.43c3.64-2.1,6.6-.4,6.6,3.81Z"/>
                </g>
              </g>
              <g class="cls-69">
                <polygon class="cls-31" points="237.85 322.13 237.26 321.78 244.1 317.64 237.85 322.13"/>
                <polygon class="cls-27" points="229.46 337.91 231.49 329.85 232.08 330.19 229.46 337.91"/>
                <polygon class="cls-30" points="233.47 324.61 232.87 324.27 234.66 316.73 233.47 324.61"/>
                <polygon class="cls-52" points="227.31 327.16 232.87 324.27 233.47 324.61 227.31 327.16"/>
                <g class="cls-68">
                  <path class="cls-2" d="m234.66,316.73l2.08-1.19,1.11,6.59,6.25-4.49c.27.58.48,1.24.6,1.98l-5.53,6.56,2.58,4.83c-.55.88-1.16,1.71-1.81,2.48l-4.34-2.33-4.36,7.22-1.79-.47,2.63-7.72-5.41-.32c.13-.9.34-1.81.63-2.71l6.16-2.55,1.19-7.88Z"/>
                </g>
                <path class="cls-62" d="m234.66,316.73l2.08-1.19,1.11,6.59,6.25-4.49c.27.58.48,1.24.6,1.98l-5.53,6.56,2.58,4.83c-.55.88-1.16,1.71-1.81,2.48l-4.34-2.33-4.36,7.22-1.79-.47,2.63-7.72-5.41-.32c.13-.9.34-1.81.63-2.71l6.16-2.55,1.19-7.88Z"/>
              </g>
            </g>
            <g>
              <g>
                <path class="cls-39" d="m319,287.37l-9.48-6.24s-6.28-24.86,15.38-26.53l9.48,5.34-15.38,27.43Z"/>
                <g>
                  <path class="cls-28" d="m338.07,267.39c0,7.08-4.97,15.68-11.1,19.22-6.13,3.54-11.1.67-11.1-6.41s4.97-15.69,11.1-19.22c6.13-3.54,11.1-.67,11.1,6.41Z"/>
                  <path class="cls-62" d="m336.74,268.28c0,3.5-1.38,7.42-3.54,10.73-.41.63-.84,1.24-1.3,1.81-1.44,1.81-3.13,3.35-4.92,4.38-1.79,1.03-3.48,1.44-4.92,1.3-.46-.04-.9-.14-1.31-.3-2.16-.82-3.54-3.15-3.54-6.64,0-.82.07-1.66.23-2.53.09-.57.22-1.15.38-1.74,1.31-4.85,4.61-9.72,8.55-12.28.2-.13.41-.26.62-.38.21-.12.42-.23.62-.33,3.94-1.99,7.23-.92,8.54,2.41.16.4.29.83.38,1.3.15.69.23,1.44.23,2.27Z"/>
                  <path class="cls-10" d="m318.12,279.04c0-3.17,1.25-6.72,3.21-9.73.37-.57.77-1.12,1.18-1.64,1.31-1.64,2.84-3.03,4.46-3.97,1.62-.93,3.15-1.31,4.46-1.18.42.04.81.13,1.18.27,1.96.74,3.21,2.85,3.21,6.02,0,.75-.07,1.51-.2,2.29-.09.52-.2,1.04-.34,1.57-1.19,4.39-4.18,8.8-7.74,11.12-.18.12-.37.24-.56.35-.19.11-.38.21-.56.3-3.56,1.8-6.55.83-7.74-2.18-.15-.36-.26-.76-.35-1.17-.14-.63-.2-1.31-.2-2.06Z"/>
                  <path class="cls-28" d="m334.68,269.35c0,4.91-3.45,10.9-7.71,13.35-4.26,2.46-7.71.47-7.71-4.45s3.45-10.9,7.71-13.35c4.26-2.46,7.71-.47,7.71,4.45Z"/>
                  <path class="cls-32" d="m333.57,269.99c0,4.21-2.96,9.33-6.6,11.43-3.64,2.1-6.6.4-6.6-3.81s2.96-9.33,6.6-11.43c3.65-2.1,6.6-.4,6.6,3.81Z"/>
                </g>
              </g>
              <g class="cls-69">
                <polygon class="cls-31" points="329.71 269.16 329.12 268.81 335.96 264.67 329.71 269.16"/>
                <polygon class="cls-27" points="321.32 284.94 323.35 276.88 323.95 277.22 321.32 284.94"/>
                <polygon class="cls-30" points="325.33 271.64 324.73 271.3 326.52 263.75 325.33 271.64"/>
                <polygon class="cls-52" points="319.17 274.19 324.73 271.3 325.33 271.64 319.17 274.19"/>
                <g class="cls-68">
                  <path class="cls-3" d="m326.52,263.75l2.08-1.19,1.11,6.59,6.25-4.49c.28.58.48,1.24.6,1.98l-5.53,6.56,2.58,4.84c-.55.88-1.15,1.71-1.8,2.48l-4.34-2.33-4.37,7.22-1.79-.47,2.63-7.72-5.41-.32c.13-.89.34-1.81.63-2.71l6.16-2.55,1.19-7.89Z"/>
                </g>
                <path class="cls-62" d="m326.52,263.75l2.08-1.19,1.11,6.59,6.25-4.49c.28.58.48,1.24.6,1.98l-5.53,6.56,2.58,4.84c-.55.88-1.15,1.71-1.8,2.48l-4.34-2.33-4.37,7.22-1.79-.47,2.63-7.72-5.41-.32c.13-.89.34-1.81.63-2.71l6.16-2.55,1.19-7.89Z"/>
              </g>
            </g>
            <path class="cls-44" d="m342.25,265.16l-.17.17c-.39.3-1.22.92-2.49,1.7l-2.27-9.47c-.31-1.31-1.22-2.1-2.44-2.1-.57,0-1.22.18-1.83.57l-13.84,7.99c-1.7,1.01-3.19,3.19-3.58,5.28l-1.7,8.9-66.05,38.37-1.7-6.99c-.31-1.27-1.22-2.05-2.44-2.05-.57,0-1.18.17-1.83.57l-13.84,7.99c-1.7.96-3.19,3.15-3.58,5.28l-1.49,7.81-2.31-.7-.04.04c-1.75,2.01-4.06,3.49-6.68,4.15-7.42,1.96-13.88.35-19.82-2.4-.57-1.83-.65-2.71-.92-3.54-.3-.87-.92-1.66-1.75-2.14-2.01-1.27-9.3-4.8-13.66-7.38-5.89-3.45-9.52-6.76-11.39-7.07h-.09c-1.01.17-1.88.74-2.58,1.48-.13-.09-.26-.22-.39-.3-2.66-2.22-4.76-4.24-5.94-5.41-.09-.61-.13-1.18-.13-1.79-.04-1.27.17-2.57.3-3.84.09-.87.79-3.06,1.14-3.71.04-.09,0-.3.17-.65.3-.7.74-.61.83-1.01.31-1.31.61-2.66.96-3.97.09-.35.17-.65.26-1,.13-.53.26-1.05.44-1.57.04-.09.09-.22.13-.35.18-.57.35-1.09.57-1.62.65-1.75,1.48-3.27,2.62-4.54,9.87-11.3,27.89-22.74,27.89-22.74,0,0,.31-.39.83-1.09,2.84-3.93,12.75-17.42,20.91-27.28,3.75-4.59,7.11-8.38,9.25-10.13,7.51-6.11,55.35-30.95,61.46-30.95s40.81,23,40.81,23c0,0,11.04,14.01,11.96,18.68,0,0,1.66,2.18,2.97,4.37.7,1.18,1.27,2.36,1.44,3.19.39,1.83.92,4.67,1.31,7.77.92,7.07,1.4,15.8-1.31,18.46Z"/>
            <path class="cls-25" d="m325.89,212.67c-4.4.3-12.5,4.63-12.5,4.63,0,0-40.65,24.28-51.74,30.8-11.09,6.51-15.31,16.19-15.31,16.19,0,0-26.05-24.99-29.92-27.63-1.58-1.08-2.08-3.46-2.1-5.9,3.77-4.58,7.14-8.39,9.26-10.11,7.5-6.1,55.37-30.97,61.47-30.97s40.83,23,40.83,23Z"/>
            <path class="cls-25" d="m332.22,236.36c-.35,0-98.9,61.36-123.19,76.67-15.87,10-44.35-17.02-48.04-23-.02-.03-.04-.06-.05-.08.14-.52.29-1.04.45-1.55.03-.12.08-.24.12-.36.18-.56.37-1.1.58-1.63.67-1.72,1.5-3.27,2.6-4.53,9.9-11.31,27.93-22.76,27.93-22.76,0,0,.28-.39.79-1.1,2.72,1.15,3.02,1.53,3.02,1.53,0,0,33.96,16.46,39.94,21.85,5.98,5.4,14.32.47,14.32.47l2.22-1.64,3.64-5.28s64.99-39.06,74.14-41.77c9.15-2.7,1.88,3.17,1.53,3.17Z"/>
            <g>
              <path class="cls-19" d="m198.89,259.48s-33.14,19.41-34.02,29.27c0,0,12.91-15.02,35.61-27.86l-2.87-2.58,1.29,1.18Z"/>
              <path class="cls-44" d="m235.79,282.77s-28.68,22.88-32.03,30.09c0,0-.88-.88-.53-1.76.7-1.76,28.69-29.56,31.85-29.21s.7.88.7.88Z"/>
            </g>
            <g>
              <path class="cls-28" d="m252.56,251.51l-15.02,32.14s-17.14-5.38-30.37-14.44c-2.22-1.52-4.34-3.14-6.24-4.86-.02-.02-.03-.03-.04-.03-1.67-1.51-3.17-3.1-4.46-4.75l-.3-.39,19.62-28.62,20.51,11.66,16.31,9.28Z"/>
              <path class="cls-28" d="m238.82,279.32l-1.64,3.52s-28.82-8.94-40.22-23.68l2.05-2.99c10.96,11.94,31.4,20.14,39.81,23.16Z"/>
              <path class="cls-29" d="m251.7,251.78l-10.81,23.1-1.51,3.25c-.32.68-1.09,1-1.79.74-8.84-3.26-27.29-10.97-37.88-21.96-.41-.43-.46-1.1-.12-1.59l1.73-2.52,14.63-21.35,35.75,20.34Z"/>
              <g>
                <path class="cls-26" d="m240.89,274.88l-1.51,3.25c-.32.68-1.09,1-1.79.74-8.84-3.26-27.29-10.97-37.88-21.96-.41-.43-.46-1.1-.12-1.59l1.73-2.52c8.07,3.9,19.38,9.86,27.47,14.65.71.41,1.39.82,2.04,1.22.05.03.09.05.13.08.68.42,1.34.82,1.99,1.23,0,0,0,0,0,0,.4.25.78.49,1.17.74,1.05.67,2.08,1.34,3.07,2,.02.02.05.03.07.05.26.17.68.42,1.19.72.4.23.85.48,1.31.74.38.21.76.44,1.13.64Z"/>
                <g>
                  <path class="cls-26" d="m235.95,262.06c-.32-.19-.64-.34-.95-.45-.52-.19-1.03-.29-1.51-.29-2,0-3.3,1.59-3.3,4.07,0,.36.03.73.09,1.11h0c.09.72.29,1.45.56,2.17,0,0,0,0,0,.01.05.12.1.25.15.38.9,2.14,2.47,4.1,4.3,5.15.41.25.84.43,1.24.56h0c.42.12.82.18,1.21.18.46,0,.88-.09,1.27-.24.28-.12.52-.27.75-.48.02,0,.03-.03.05-.04.27-.24.5-.54.69-.88,0,0,0,0,0-.01.13-.25.24-.52.32-.82.14-.48.22-1.01.22-1.6,0-3.3-2.25-7.18-5.1-8.83Zm1.8,11.57s-.08,0-.12,0c-.21,0-.44-.05-.67-.11h0c-.32-.1-.66-.25-1-.44-.96-.56-1.86-1.43-2.58-2.45-.15-.2-.29-.41-.41-.62,0,0,0,0,0,0-.79-1.29-1.32-2.76-1.42-4.12h0c-.01-.17-.02-.32-.02-.47,0-1.72.74-2.75,1.97-2.75h.04c.31,0,.66.08,1.01.21.24.09.5.21.75.36.05.03.09.05.14.09,1.59.98,2.98,2.81,3.71,4.75.29.73.47,1.49.54,2.21.02.21.03.43.03.63,0,1.33-.44,2.25-1.22,2.59-.01,0-.03.01-.05.02-.21.09-.45.13-.7.13Z"/>
                  <path class="cls-26" d="m226.81,268.91s4.88-3.99,6.65-3.4c1.77.59,4.29,2.66,4.29,4.44s-1.78,6.36-1.78,6.36l-9.16-7.39Z"/>
                  <path class="cls-26" d="m233.6,265.59l-.1-2.76c-.02-.52.53-.87,1-.64l.57.28c.28.14.43.44.37.74l-.46,2.48c-.09.48-.63.72-1.05.46h-.01c-.2-.13-.32-.34-.32-.57Z"/>
                  <polygon class="cls-26" points="235.24 268.91 239.23 268.03 240.26 270.24 234.5 270.39 235.24 268.91"/>
                </g>
              </g>
              <path class="cls-20" d="m236.25,242.23c-19.24,18.65-25.3,24.84-29.09,26.98-2.22-1.52-4.34-3.14-6.24-4.86-.02-.02-.03-.03-.04-.03-1.67-1.51-3.17-3.1-4.46-4.75l-.3-.39,19.62-28.62,20.51,11.66Z"/>
            </g>
            <path class="cls-28" d="m281.38,236.65c.04-.05.11-.08.2-.06.07.01,0,.03-.2.06Z"/>
            <path class="cls-28" d="m309.71,219.41c.04-.06.11-.08.2-.06.07.01,0,.04-.2.06Z"/>
            <path class="cls-22" d="m251.41,319.29c-.87.48-1.7,1-2.53,1.48l-2.71-11.18c-.31-1.27-1.22-2.05-2.44-2.05-.57,0-1.18.17-1.83.57l-13.84,7.99c-1.7.96-3.19,3.15-3.58,5.28l-2.88,15.19c-1.18.7-2.27,1.35-3.19,1.88l3.27-17.59c.57-2.92,2.53-5.81,4.98-7.2l13.84-7.99c1.05-.61,2.14-.91,3.23-.91,2.53,0,4.58,1.66,5.19,4.19l2.49,10.35Z"/>
            <path class="cls-23" d="m342.07,265.34c-.39.3-1.22.92-2.49,1.7l-2.27-9.47c-.31-1.31-1.22-2.1-2.44-2.1-.57,0-1.22.18-1.83.57l-13.84,7.99c-1.7,1.01-3.19,3.19-3.58,5.28l-2.62,13.84c-1.05.65-2.14,1.27-3.23,1.92l3.06-16.24c.57-2.97,2.53-5.85,4.98-7.25l6.55-3.8,7.29-4.19c1.05-.61,2.14-.92,3.23-.92,2.53,0,4.58,1.66,5.19,4.23l2.01,8.43Z"/>
            <g>
              <path class="cls-41" d="m255.55,316.85c0-1.18-.13-2.71-.35-4.5-.83-6.72-3.01-16.5-4.28-22.09-.44-1.92-.74-3.32-.79-3.58-.09-1.31-2.05-2.84-2.27-3.01-.7-.87-.92-1.96-.66-3.06,6.37-25.01,9.04-26.98,10.04-27.72,2.18-1.61,25.41-15.24,50.16-29.73.26-.13.57-.17.83-.09.26.09.48.3.57.57l7.07,19.38v.04l.3-.13v-.04s.09-.26.22-.3c.13,0,1.05.09,2.62,4.76,1.01,2.92,2.05,12.44,2.05,12.57l.04.04s.83,1.57.83,2.58h.35c0-1.05-.74-2.49-.87-2.71-.09-.74-1.09-9.69-2.05-12.61-1.05-3.19-2.01-4.84-2.84-4.98-.17,0-.39.04-.52.22l-6.85-18.9c-.13-.39-.44-.66-.79-.79-.39-.17-.79-.13-1.14.09-24.75,14.49-47.97,28.16-50.2,29.77-1,.74-3.75,2.75-10.13,27.94-.31,1.14-.04,2.36.7,3.32v.04s2.1,1.57,2.18,2.79c.04.26.3,1.53.79,3.58,1.18,5.24,3.45,15.45,4.28,22.26.22,1.79.35,3.36.31,4.54l.39-.26Z"/>
              <path class="cls-41" d="m293.8,294l-.35-.06c2.64-15.36-2.67-27.22-4.67-31.69-.4-.9-.67-1.49-.73-1.8-.35-1.73-7.83-21.42-7.91-21.62l.33-.13c.31.81,7.58,19.92,7.93,21.67.05.27.33.88.71,1.73,2.01,4.5,7.35,16.43,4.69,31.9Z"/>
            </g>
            <g>
              <path class="cls-1" d="m250.67,283.12c-.49,0-.97-.23-1.28-.63-.3-.39-.41-.89-.28-1.38,2.31-9.1,6.6-24.65,9.31-26.65,2.84-2.09,46.43-27.54,60.45-35.76.62-.36,1.32-.56,2.04-.56,1.24,0,2.4.56,3.16,1.54,2.28,2.91,6.33,8.33,7.82,11.83.58,1.36.06,2.97-1.21,3.73l-79.18,47.63c-.26.15-.54.23-.84.23Z"/>
              <path class="cls-36" d="m330.33,234.66l-12.09,7.2-4.92,2.96-22.69,13.68-4.93,2.97-28.02,16.89-1.52.91-5.01,3.02c-.71.43-1.58-.22-1.38-1.02.6-2.37,1.65-6.39,2.86-10.57.08-.26.16-.53.24-.8h0c.46-1.6.96-3.22,1.45-4.76,1.6-4.96,3.26-9.22,4.49-10.13,1.17-.86,9.84-6.05,20.52-12.37,1.51-.91,3.06-1.83,4.65-2.76,7.74-4.58,16.07-9.47,23.11-13.62,1.63-.95,3.18-1.87,4.65-2.73,4.22-2.48,5.29-2.97,7.48-4.24,1.44-.85,3.28-.5,4.31.81.68.86,1.49,1.92,2.33,3.07,2.08,2.82,4.37,6.19,5.41,8.62.45,1.05.05,2.28-.93,2.86Z"/>
              <path class="cls-18" d="m325.85,223.18c-11.92,13.27-61.8,37.35-71.52,41.97,1.6-4.96,3.26-9.22,4.49-10.13,1.17-.86,9.84-6.05,20.52-12.37,1.51-.91,3.06-1.83,4.65-2.76,7.74-4.58,16.07-9.47,23.11-13.62,1.63-.95,3.18-1.87,4.65-2.73,4.22-2.48,5.29-2.97,7.48-4.24,1.44-.85,3.28-.5,4.31.81.68.86,1.49,1.92,2.33,3.07Z"/>
              <path class="cls-32" d="m290.62,258.51l-4.93,2.98c-1.53-6.34-6.31-18.76-6.31-18.76l-.04-.08c1.51-.9,3.06-1.82,4.65-2.75,1.5,4.21,5.64,12.98,6.63,18.61Z"/>
              <path class="cls-32" d="m318.24,241.86l-4.92,2.97c-1.35-5.68-5.44-16.5-6.22-18.55,1.62-.95,3.18-1.87,4.64-2.73,1.63,4.4,5.58,12.87,6.5,18.31Z"/>
              <path class="cls-32" d="m256.16,279.28l-5.01,3.02c-.71.43-1.58-.22-1.38-1.02.6-2.37,1.65-6.39,2.86-10.57.08-.27.16-.53.24-.8.67,2.24,2.09,6.76,3.28,9.37Z"/>
            </g>
            <path class="cls-28" d="m248.85,320.76c-.21.13-.42.25-.63.37l-2.72-11.35c-.37-1.52-1.71-1.96-3.25-1.07l-13.85,7.99c-1.54.89-2.88,2.89-3.24,4.82l-2.75,14.61c-.27.15-.54.31-.8.46l2.86-15.2c.4-2.13,1.87-4.32,3.58-5.3l13.85-8c.63-.36,1.25-.55,1.84-.55,1.22,0,2.13.77,2.44,2.07l2.68,11.14Z"/>
            <path class="cls-28" d="m339.6,267.03c-.2.13-.41.26-.63.41l-2.34-9.73c-.37-1.52-1.7-1.96-3.24-1.07l-13.85,7.99c-1.54.89-2.88,2.88-3.24,4.81l-2.49,13.23c-.27.16-.53.32-.81.48l2.6-13.83c.4-2.13,1.87-4.32,3.58-5.3l13.85-8c.63-.37,1.25-.55,1.84-.55,1.21,0,2.13.77,2.44,2.07l2.28,9.48Z"/>
            <path class="cls-28" d="m314.74,277.73l-.93,4.96c-.27.16-.53.32-.81.48-1.06.63-2.13,1.27-3.22,1.92-17.79,10.52-39.89,23.44-58.38,34.21-.86.5-1.7.99-2.54,1.48-.21.13-.42.25-.63.37l-1-4.16,67.52-39.25Z"/>
            <path class="cls-32" d="m220.65,328.52l-.02.03c-1.75,2.02-4.08,3.48-6.67,4.16-7.44,1.97-13.91.34-19.81-2.42-.57-1.82-.67-2.72-.95-3.53-.31-.89-.9-1.66-1.71-2.15-2.01-1.23-9.3-4.79-13.69-7.35-5.91-3.45-9.53-6.79-11.39-7.08h-.07c-1.01.15-1.87.73-2.58,1.48-.13-.12-.27-.22-.4-.34-2.65-2.23-4.75-4.22-5.96-5.41.67,6.61,4.51,12.65,10.47,16.07l29.78,17.03c10.03,3.7,16.31,1.99,16.31,1.99,0,0,1.59-.92,4.42-2.56.94-.55,2.01-1.17,3.22-1.87.26-.15.52-.31.8-.46l.59-3.16.3-1.59.37-1.95-3.01-.92Z"/>
            <g>
              <g>
                <path class="cls-47" d="m177.42,298.81v6.95s0,.08,0,.12c-.05.39-.37.54-.75.32l-2.08-1.2c-.41-.24-.75-.82-.75-1.3v-6.95c0-.38.21-.58.5-.53.08,0,.16.04.25.09l2.08,1.2c.42.24.75.82.75,1.3Z"/>
                <path class="cls-28" d="m177.42,298.81v6.95s0,.08,0,.12c-.08-.01-.16-.04-.25-.09l-2.08-1.2c-.41-.24-.75-.82-.75-1.3v-6.95s0-.08,0-.11c.08,0,.16.04.25.09l2.08,1.2c.42.24.75.82.75,1.3Z"/>
              </g>
              <g>
                <path class="cls-47" d="m182.54,301.69v6.95s0,.08,0,.12c-.05.39-.37.54-.75.31l-2.08-1.2c-.41-.24-.75-.82-.75-1.3v-6.95c0-.38.21-.58.5-.53.08.01.16.04.25.09l2.08,1.2c.42.24.76.82.76,1.3Z"/>
                <path class="cls-28" d="m182.54,301.69v6.95s0,.08,0,.12c-.08-.01-.17-.05-.25-.1l-2.08-1.2c-.41-.24-.75-.82-.75-1.31v-6.95s0-.07,0-.11c.08.01.16.04.25.09l2.08,1.2c.42.24.76.82.76,1.3Z"/>
              </g>
              <g>
                <path class="cls-47" d="m187.66,304.56v6.95s0,.08,0,.12c-.05.39-.37.54-.75.32l-2.08-1.2c-.41-.24-.75-.82-.75-1.3v-6.95c0-.38.21-.58.5-.53.08,0,.16.04.25.09l2.08,1.2c.42.24.75.82.75,1.3Z"/>
                <path class="cls-28" d="m187.66,304.56v6.95s0,.08,0,.12c-.08-.01-.17-.05-.25-.1l-2.08-1.2c-.41-.24-.75-.82-.75-1.3v-6.95s0-.08,0-.11c.08,0,.16.04.25.09l2.08,1.2c.42.24.75.82.75,1.3Z"/>
              </g>
              <g>
                <path class="cls-47" d="m192.77,307.45v6.95s0,.08,0,.12c-.05.39-.37.54-.75.32l-2.08-1.2c-.41-.24-.75-.82-.75-1.31v-6.95c0-.38.21-.58.5-.53.08.01.16.04.25.09l2.08,1.2c.42.24.75.82.75,1.3Z"/>
                <path class="cls-28" d="m192.77,307.45v6.95s0,.08,0,.12c-.08-.01-.17-.05-.25-.09l-2.08-1.2c-.41-.24-.75-.82-.75-1.3v-6.95s0-.08,0-.11c.08.01.16.04.25.09l2.08,1.2c.42.24.75.82.75,1.3Z"/>
              </g>
            </g>
            <g>
              <path class="cls-5" d="m209.02,322.24c-.29,0-.61-.06-.96-.14-3.21-.71-8.53-4.1-11.15-5.74-.83-.52-1.18-2-1.09-2.97l.07-.73c.29-3.1,2.54-4.54,6.34-3.03l7.49,3.78,1.72.87c.74.43.98,1.49,1.04,2.34.13,1.96-.73,5.73-3.46,5.63Z"/>
              <g>
                <path class="cls-45" d="m201.24,316.84c-.12.07-.05,0-.17.07-.06.03-.12.06-.17.09h0c-.34.07-.76,0-1.2-.26-1.18-.68-2.14-2.34-2.14-3.7,0-.31.05-.58.14-.8.21-.14.44-.28.67-.4.2-.11-.34-.13-.14-.21,2.17-.93,5.08-.8,5.76.48.71,1.33-.62,3.46-2.76,4.74Z"/>
                <path class="cls-62" d="m201.82,315.51c0,.53-.15.94-.4,1.2-.14.15-.32.25-.53.29h0c-.34.07-.76,0-1.2-.26-1.18-.68-2.14-2.34-2.14-3.7,0-.31.05-.58.14-.8.22-.54.7-.8,1.29-.69.22.04.46.12.7.27,1.18.68,2.13,2.34,2.13,3.7Z"/>
                <path class="cls-58" d="m201.06,314.12c0,.48-.42.87-.94.87s-.94-.39-.94-.87.42-.87.94-.87.94.39.94.87Z"/>
                <g>
                  <path class="cls-45" d="m200.57,316.79c-.27,0-.56-.09-.86-.26-1.05-.61-1.91-2.09-1.91-3.3,0-.85.41-1.37,1.07-1.37.27,0,.56.09.86.26,1.05.61,1.91,2.09,1.91,3.3,0,.85-.41,1.37-1.07,1.37Zm-1.69-4.89c-.63,0-1.03.51-1.03,1.33,0,1.2.85,2.66,1.88,3.26.29.17.58.26.84.26.63,0,1.03-.51,1.03-1.33,0-1.2-.85-2.66-1.88-3.26-.29-.17-.58-.26-.84-.26Z"/>
                  <path class="cls-45" d="m200.35,316.16c-.2,0-.42-.07-.64-.2-.78-.45-1.42-1.55-1.42-2.46,0-.62.32-1.02.8-1.02.2,0,.42.06.64.19.78.45,1.42,1.56,1.42,2.46,0,.63-.31,1.03-.8,1.03Zm-1.26-3.64c-.47,0-.76.38-.76.98,0,.89.63,1.98,1.4,2.42.22.13.43.19.62.19.47,0,.76-.38.76-.98,0-.89-.63-1.98-1.4-2.42-.22-.13-.43-.19-.62-.19Z"/>
                  <path class="cls-45" d="m200.09,315.41c-.12,0-.25-.04-.38-.11-.46-.27-.84-.92-.84-1.45,0-.37.19-.61.48-.61.12,0,.25.04.38.12.46.27.84.92.84,1.45,0,.37-.19.61-.48.61Zm-.74-2.13c-.27,0-.44.22-.44.57,0,.52.36,1.15.81,1.41.13.07.25.11.36.11.27,0,.44-.22.44-.57,0-.52-.36-1.15-.81-1.41-.13-.07-.25-.11-.36-.11Z"/>
                </g>
              </g>
              <g>
                <path class="cls-45" d="m206.62,320c-.12.07-.05,0-.18.07-.06.03-.11.06-.17.09h0c-.34.08-.75,0-1.2-.26-1.18-.68-2.14-2.33-2.14-3.7,0-.31.05-.58.14-.8.21-.14.44-.27.67-.4.2-.11-.34-.13-.14-.22,2.17-.93,5.08-.8,5.76.48.7,1.33-.62,3.47-2.76,4.74Z"/>
                <path class="cls-62" d="m207.2,318.67c0,.54-.15.94-.4,1.2-.14.15-.32.25-.53.29h0c-.34.08-.75,0-1.2-.26-1.18-.68-2.14-2.33-2.14-3.7,0-.31.05-.58.14-.8.22-.54.7-.8,1.29-.69.22.04.46.13.7.27,1.18.68,2.13,2.34,2.13,3.7Z"/>
                <path class="cls-58" d="m206.44,317.29c0,.48-.42.87-.94.87s-.94-.39-.94-.87.42-.87.94-.87.94.39.94.87Z"/>
                <g>
                  <path class="cls-45" d="m205.95,319.95c-.27,0-.56-.09-.86-.26-1.05-.61-1.9-2.08-1.9-3.3,0-.85.41-1.37,1.07-1.37.27,0,.56.09.86.26,1.05.61,1.9,2.09,1.9,3.3,0,.85-.41,1.37-1.07,1.37Zm-1.69-4.89c-.63,0-1.02.51-1.02,1.33,0,1.2.84,2.66,1.88,3.26.3.17.58.25.84.25.63,0,1.03-.51,1.03-1.33,0-1.2-.84-2.66-1.88-3.26-.3-.17-.57-.26-.84-.26Z"/>
                  <path class="cls-45" d="m205.74,319.33c-.2,0-.42-.07-.64-.19-.78-.45-1.42-1.55-1.42-2.46,0-.63.31-1.03.8-1.03.2,0,.42.07.64.2.78.45,1.42,1.55,1.42,2.46,0,.63-.31,1.03-.8,1.03Zm-1.26-3.64c-.47,0-.76.38-.76.98,0,.89.63,1.98,1.4,2.42.22.13.43.19.62.19.47,0,.76-.38.76-.98,0-.89-.63-1.98-1.4-2.42-.22-.12-.43-.19-.62-.19Z"/>
                  <path class="cls-45" d="m205.47,318.57c-.12,0-.24-.04-.38-.11-.46-.27-.84-.92-.84-1.45,0-.37.19-.61.48-.61.12,0,.25.04.38.11.46.27.84.92.84,1.45,0,.37-.19.61-.48.61Zm-.74-2.13c-.27,0-.44.22-.44.57,0,.52.37,1.15.82,1.41.13.07.25.11.36.11.27,0,.44-.21.44-.57,0-.52-.37-1.15-.82-1.41-.13-.07-.25-.11-.36-.11Z"/>
                </g>
              </g>
              <path class="cls-12" d="m196.84,312.81s1.38-4.19,5.37-2.54c2.5,1.03,4.97,2.53,6.47,3.5.57.37.42,1.25-.25,1.4-3.67.84-12.01,2.27-11.59-2.36Z"/>
              <path class="cls-63" d="m209.02,322.24c-.29,0-.61-.06-.96-.14-.14-1.43-.42-6.26,1.66-8.7l1.72.87c.74.43.98,1.49,1.04,2.34.13,1.96-.73,5.73-3.46,5.63Z"/>
            </g>
            <g>
              <g>
                <path class="cls-70" d="m169.51,298.14l-.58.46c-.77.6-2.22,1.09-3.1.68-1.62-.76-4.21-1.97-6.57-3.31.31-.67.69-1.56.77-1.96.31-1.31.61-2.65.95-3.98.22-.86.45-1.71.71-2.55.04-.12.08-.24.12-.36l6.82,4.04c3.32,2.4,3.31,5.07.87,6.98Z"/>
                <g class="cls-67">
                  <g>
                    <path class="cls-45" d="m163.76,296.4c-.12.07-.05,0-.18.08-.06.03-.12.06-.18.09h0c-.35.08-.78,0-1.24-.26-1.22-.69-2.22-2.39-2.23-3.79,0-.32.05-.6.14-.83.22-.15.45-.29.69-.42.21-.11-.36-.13-.14-.22,2.23-.98,5.23-.86,5.94.45.74,1.37-.61,3.57-2.8,4.9Z"/>
                    <path class="cls-62" d="m164.34,295.02c0,.55-.14.98-.4,1.24-.15.15-.33.26-.54.31h0c-.35.08-.78,0-1.24-.26-1.22-.69-2.22-2.39-2.23-3.79,0-.32.05-.6.14-.83.23-.56.71-.83,1.32-.73.23.04.47.13.73.27,1.22.69,2.22,2.39,2.23,3.79Z"/>
                    <path class="cls-58" d="m163.55,293.6c0,.49-.43.9-.96.9-.54,0-.97-.39-.98-.89s.43-.9.96-.9c.54,0,.97.4.98.89Z"/>
                    <g>
                      <path class="cls-45" d="m163.06,296.35c-.27,0-.57-.09-.88-.26-1.09-.62-1.98-2.13-1.99-3.38,0-.49.13-.88.38-1.14.19-.19.44-.29.73-.29s.57.09.87.26c1.09.62,1.98,2.13,1.99,3.38,0,.49-.13.88-.38,1.14-.19.19-.44.29-.72.29Zm-1.76-5.03c-.28,0-.51.09-.69.28-.24.24-.37.63-.36,1.11,0,1.24.89,2.73,1.97,3.34.3.17.59.26.85.26s.51-.1.69-.28c.24-.24.37-.62.36-1.1,0-1.24-.89-2.74-1.97-3.35-.3-.17-.59-.25-.85-.25Z"/>
                      <path class="cls-45" d="m162.83,295.71c-.2,0-.42-.07-.66-.2-.81-.46-1.48-1.59-1.48-2.52,0-.37.1-.66.28-.85.14-.14.33-.22.54-.22s.42.06.65.19c.81.46,1.48,1.59,1.48,2.52,0,.36-.09.66-.28.85-.14.14-.33.22-.54.22Zm-1.31-3.74c-.2,0-.38.07-.51.2-.18.18-.27.46-.27.82,0,.91.66,2.03,1.46,2.48.22.12.43.19.63.19s.38-.07.51-.2c.18-.18.27-.46.27-.82,0-.92-.66-2.03-1.46-2.48-.22-.13-.44-.19-.63-.19Z"/>
                      <path class="cls-45" d="m162.56,294.93c-.12,0-.25-.04-.39-.12-.48-.27-.87-.94-.87-1.48,0-.22.06-.39.17-.51.16-.16.43-.17.71-.01.48.27.87.94.87,1.49,0,.21-.06.39-.17.5-.08.08-.2.13-.32.13Zm-.77-2.19c-.12,0-.22.04-.29.12-.1.1-.16.26-.16.47,0,.53.39,1.18.85,1.45.26.15.51.14.66,0,.1-.1.16-.26.15-.47,0-.54-.39-1.19-.85-1.45-.13-.07-.25-.11-.37-.11Z"/>
                    </g>
                  </g>
                  <g>
                    <path class="cls-45" d="m168.8,299.26c-.12.07-.06,0-.18.08-.06.03-.12.06-.18.1h0c-.35.08-.78,0-1.24-.26-1.22-.69-2.22-2.39-2.23-3.79,0-.32.05-.6.14-.83.22-.15.45-.29.69-.42.21-.11-.36-.13-.14-.22,2.23-.98,5.23-.86,5.94.45.74,1.37-.61,3.58-2.8,4.9Z"/>
                    <path class="cls-62" d="m169.39,297.88c0,.55-.14.98-.4,1.24-.15.15-.33.26-.54.31h0c-.35.08-.78,0-1.24-.26-1.22-.69-2.22-2.39-2.23-3.79,0-.32.05-.6.14-.83.23-.56.71-.83,1.32-.73.23.04.47.13.73.27,1.22.69,2.22,2.39,2.23,3.79Z"/>
                    <path class="cls-58" d="m168.59,296.46c0,.49-.43.9-.96.9-.54,0-.97-.39-.98-.89,0-.5.43-.9.96-.9.54,0,.98.4.98.89Z"/>
                    <g>
                      <path class="cls-45" d="m168.1,299.21c-.27,0-.57-.09-.88-.26-1.09-.62-1.98-2.13-1.99-3.39,0-.49.13-.88.38-1.13.19-.19.44-.29.73-.29s.57.09.87.26c1.09.62,1.98,2.13,1.99,3.38,0,.49-.13.88-.38,1.13-.19.19-.44.29-.73.29Zm-1.76-5.03c-.27,0-.51.09-.69.28-.24.24-.37.62-.36,1.1.01,1.24.89,2.74,1.97,3.35.3.17.59.26.85.26s.51-.1.69-.28c.24-.24.37-.62.36-1.1,0-1.24-.89-2.74-1.97-3.35-.3-.17-.59-.25-.85-.25Z"/>
                      <path class="cls-45" d="m167.87,298.57c-.2,0-.43-.07-.65-.2-.81-.46-1.47-1.59-1.48-2.52,0-.36.09-.66.28-.85.14-.14.33-.21.54-.21s.42.06.65.19c.81.46,1.48,1.59,1.48,2.52,0,.37-.09.66-.28.85-.14.14-.33.22-.54.22Zm-1.31-3.74c-.2,0-.38.07-.51.2-.18.18-.27.46-.27.81,0,.92.66,2.03,1.46,2.49.22.12.43.19.63.19s.38-.07.51-.21c.18-.18.27-.46.27-.81,0-.92-.66-2.03-1.46-2.48-.22-.13-.44-.19-.63-.19Z"/>
                      <path class="cls-45" d="m167.6,297.8c-.12,0-.25-.04-.39-.12-.48-.27-.87-.94-.87-1.49,0-.21.06-.39.17-.5.16-.16.43-.17.71-.01.48.27.87.94.87,1.49,0,.22-.06.39-.17.5-.09.09-.2.13-.32.13Zm-.77-2.19c-.12,0-.22.04-.29.12-.1.1-.16.26-.15.47,0,.54.39,1.19.85,1.45.26.14.51.14.66,0,.1-.1.16-.27.15-.47,0-.54-.39-1.19-.85-1.45-.13-.07-.25-.11-.36-.11Z"/>
                    </g>
                  </g>
                </g>
              </g>
              <path class="cls-13" d="m160.61,291.47s1.75-3.46,4.99-1.5c2.03,1.23,3.98,2.85,5.15,3.89.45.4-.76,3.98-1.36,4.03-3.3.25-9.76-2.46-8.78-6.42Z"/>
            </g>
            <path class="cls-25" d="m159.53,297.02s7.18,9.48,22.88,17.25c8.35,4.13,20.91,8.18,31.03,8.71,0,0-5.28,4.05-27.75-5.66-15-6.48-27.77-17.99-27.1-20.41.73-2.65.6-.63.94.12Z"/>
            <path class="cls-54" d="m166.34,310.18c-1.01.15-1.87.73-2.58,1.48-.13-.12-.27-.22-.4-.34.79-.79,1.77-1.32,2.98-1.15Z"/>
            <path class="cls-14" d="m249.51,300.07s61.3-50.39,68.1-52.85c6.8-2.46-11.09,22.35-16.25,26.22-5.16,3.87-50.56,32.03-50.56,32.03,0,0-2.93.47-1.29-5.39Z"/>
            <path class="cls-48" d="m343.56,246.71c-.88.65-1.75,1.21-2.18,1.21-1.06,0-2.29-5.1-2.99-7.04-.5-1.38,1.32-3.84,2.41-5.13.7,1.17,1.29,2.34,1.46,3.19.38,1.83.89,4.64,1.3,7.77Z"/>
            <g>
              <path class="cls-54" d="m185.68,299.47c-1.37.06-3.08-.83-3.82-1.99-.74-1.16-.22-2.15,1.15-2.21,1.37-.06,3.08.83,3.82,1.99.74,1.16.22,2.15-1.15,2.21Z"/>
              <path class="cls-45" d="m185.49,299.27c-1.37.06-3.08-.83-3.82-1.98-.74-1.16-.22-2.15,1.15-2.21,1.37-.06,3.08.83,3.82,1.99.74,1.16.22,2.14-1.15,2.2Z"/>
              <path class="cls-15" d="m181.51,295.94s.54-1.76,4.09.39c3.56,2.14-4.48.54-4.09-.39Z"/>
            </g>
            <g>
              <polygon class="cls-62" points="186.14 330.2 169.61 320.66 169.61 315.08 186.14 324.62 186.14 330.2"/>
              <path class="cls-45" d="m186.35,330.57l-16.96-9.79v-6.07l16.96,9.79v6.07Zm-16.53-10.04l16.1,9.3v-5.08l-16.1-9.29v5.08Z"/>
            </g>
            <path class="cls-41" d="m329.03,246.53c-1.01,0-1.66-.82-1.66-2.09,0-1.76,1.24-3.91,2.77-4.79.45-.26.88-.39,1.28-.39,1.01,0,1.66.82,1.66,2.09,0,1.77-1.24,3.91-2.77,4.79-.45.26-.88.39-1.28.39Zm2.39-6.92c-.34,0-.72.12-1.11.34-1.43.82-2.59,2.84-2.59,4.49,0,1.07.5,1.74,1.31,1.74.34,0,.72-.12,1.11-.34,1.43-.82,2.59-2.84,2.59-4.49,0-1.07-.5-1.74-1.31-1.74Z"/>
            <g>
              <path class="cls-47" d="m287.59,266.59c0,1.73-1.21,3.82-2.7,4.68-1.49.86-2.7.16-2.7-1.56s1.48-1.63,2.98-2.5c1.49-.86,2.43-2.35,2.43-.62Z"/>
              <g>
                <path class="cls-9" d="m289.23,267.47c-.47.51-5.86,4.88-7.75,3.98-.88-.42-.91-.68-.69-.84.25-.18.82-.23.82-.23,0,0,5.35-2.1,6.55-3.94.37-.57.66-.74.87-.68.46.13.52,1.35.2,1.71Z"/>
                <path class="cls-6" d="m288.85,266.78c-.47.51-5.86,4.88-7.75,3.98-.12-.05-.22-.11-.3-.16.25-.18.82-.23.82-.23,0,0,5.35-2.1,6.55-3.94.37-.57.66-.74.87-.68.05.39-.01.83-.19,1.02Z"/>
              </g>
            </g>
            <g>
              <path class="cls-47" d="m316.76,248.57c0,1.73-1.21,3.82-2.7,4.68-1.49.86-2.7.16-2.7-1.56s1.48-1.64,2.98-2.5c1.49-.86,2.43-2.35,2.43-.62Z"/>
              <g>
                <path class="cls-7" d="m318.4,249.46c-.47.51-5.86,4.88-7.75,3.98-.88-.42-.91-.68-.69-.84.25-.18.82-.23.82-.23,0,0,5.35-2.1,6.55-3.94.37-.57.66-.74.87-.68.46.13.52,1.35.2,1.71Z"/>
                <path class="cls-4" d="m318.01,248.77c-.47.52-5.86,4.88-7.75,3.98-.12-.05-.22-.1-.3-.15.25-.18.82-.23.82-.23,0,0,5.35-2.1,6.55-3.94.37-.57.66-.74.87-.68.05.39-.01.83-.19,1.02Z"/>
              </g>
            </g>
            <g>
              <path class="cls-28" d="m247.08,292.83l-2.67,1.55-.06,1.51-.29-.16.06-1.54,2.63-1.53s.14.06.32.17Z"/>
              <path class="cls-65" d="m247.79,295.14c-.37.23-1.6.95-2.1,1.24-.14.08-.3.08-.44,0l-.9-.49.06-1.51,2.67-1.55c.37.21.94.61,1,1.04.1.65.18.97-.3,1.27Z"/>
            </g>
            <g>
              <path class="cls-28" d="m253.43,275.38c-.85-.06-1.58.63-1.55,1.49.04,1.11.3,2.46,1.23,2.92,1.67.83,2.93-1.01,2.93-1.01l-.5-3.26-2.11-.15Z"/>
              <path class="cls-32" d="m268.5,283.3c-.14.43-.5.67-.94.8.04-.07.08-.14.1-.22.27-.8.3-2.39.27-3.69-.03-1.27-.7-2.44-1.79-3.11l-9.35-5.74-.48.25c.14-.18.23-.25.23-.25l1.08-.59,10.17,6.24c.55.33.89.92.92,1.56.07,1.36.12,3.7-.23,4.73Z"/>
              <path class="cls-47" d="m267.66,283.88c-.03.08-.07.15-.1.21-1.11.34-2.74-.05-2.74-.05l-8.39-4.63c-.83-.46-1.38-1.33-1.39-2.28-.04-2.74.54-4.31.99-5.1.11-.18.21-.34.29-.44l.47-.26,10.17,6.24c.41.26.72.66.84,1.12.05.14.07.29.08.45.07,1.36.11,3.7-.23,4.73Z"/>
              <path class="cls-44" d="m267.81,278.7c-7.57.83-10.74-4.3-11.78-6.66.11-.18.21-.34.29-.44l.47-.26,10.17,6.24c.41.26.72.66.84,1.12Z"/>
            </g>
          </g>
        </g>
      </g>
    </g>
  </g>
</svg>