<svg width="245" height="78" viewBox="0 0 245 78" fill="none" xmlns="http://www.w3.org/2000/svg">
    <path opacity="0.7" fill-rule="evenodd" clip-rule="evenodd" d="M65.8495 10.4001C78.9495 4.24013 86.0595 15.5801 105.139 12.7801C122.479 10.2401 123.759 -0.169867 138.469 0.870133C150.069 1.70013 151.709 8.34013 164.069 8.01013C176.259 7.69013 180.679 1.06014 186.689 4.44014C192.289 7.59014 190.699 14.6001 199.189 21.1101C202.759 23.8401 203.319 22.8201 206.929 25.2801C217.559 32.5201 214.539 42.6501 222.999 49.6901C231.729 56.9601 242.009 52.0401 244.429 57.4301C246.549 62.1401 241.319 71.7201 233.719 75.8801C215.049 86.1001 196.399 55.8801 147.999 48.5001C133.629 46.3101 133.449 48.6901 103.949 45.5201C71.4395 42.0301 72.1095 39.1801 59.3095 40.1601C30.9195 42.3501 17.3295 57.1701 6.32947 49.0901C2.21947 46.0701 -0.87051 40.3301 0.37949 35.9901C2.06949 30.0901 11.3695 28.1301 16.4495 27.0601C32.5095 23.6801 37.6195 30.3701 47.9995 26.4601C58.2495 22.6001 55.8095 15.1101 65.8595 10.3901L65.8495 10.4001Z" fill="#C7B8C5"/>
</svg>