<svg width="184" height="98" viewBox="0 0 184 98" fill="none" xmlns="http://www.w3.org/2000/svg">
    <path opacity="0.7" fill-rule="evenodd" clip-rule="evenodd" d="M126.909 30.2603C137.159 33.9603 138.659 38.2702 140.439 42.8502C142.579 48.3502 147.029 52.5202 156.299 54.1202C175.449 57.4402 194.839 58.5202 174.549 72.1002C152.079 87.1402 126.979 76.7403 122.099 82.7803C110.519 97.1003 74.1294 102.37 75.6194 91.4902C83.7394 32.4002 48.9994 74.6003 31.4894 75.0703C15.6094 75.5003 0.319482 69.2502 0.529482 63.4202C0.609482 61.1302 3.67944 51.4602 7.48944 51.6002C24.8194 52.2702 50.1495 44.7302 49.0095 31.7402C46.9295 8.10024 60.8694 -3.34974 75.2394 1.95026C90.6194 7.63026 97.9194 18.1402 110.799 25.4602C114.409 27.5202 122.159 28.5302 126.919 30.2402V30.2603H126.909Z" fill="#C7B8C5"/>
</svg>