<?xml version="1.0" encoding="UTF-8"?>
<svg id="Layer_2" data-name="Layer 2" xmlns="http://www.w3.org/2000/svg" viewBox="0 0 234.46 179.78">
  <defs>
    <style>
      .cls-1 {
        fill: #6e777a;
      }

      .cls-1, .cls-2, .cls-3, .cls-4, .cls-5, .cls-6, .cls-7, .cls-8, .cls-9, .cls-10, .cls-11, .cls-12 {
        stroke-width: 0px;
      }

      .cls-2 {
        fill: #467a3d;
      }

      .cls-3 {
        fill: #2e3c57;
      }

      .cls-4 {
        fill: #313e4b;
      }

      .cls-5 {
        fill: #575e5f;
      }

      .cls-6 {
        fill: #585b5c;
      }

      .cls-7 {
        fill: #594239;
      }

      .cls-8 {
        fill: #3f3431;
      }

      .cls-9 {
        fill: #ccc;
      }

      .cls-10 {
        fill: #b8babb;
      }

      .cls-11 {
        fill: #909b97;
      }

      .cls-12 {
        fill: #7c8a85;
      }

      .cls-13 {
        stroke: #808285;
      }

      .cls-13, .cls-14, .cls-15 {
        fill: none;
        stroke-miterlimit: 10;
        stroke-width: .98px;
      }

      .cls-14 {
        stroke: #766f68;
      }

      .cls-15 {
        stroke: #d1d3d4;
      }
    </style>
  </defs>
  <g id="Layer_1-2" data-name="Layer 1">
    <g>
      <polygon class="cls-2" points="150.73 21.9 185.95 .57 225.11 23.4 190.81 45.23 150.73 21.9"/>
      <g>
        <path class="cls-8" d="m5.09,110s-7.18,1.04-3.6,5.24c3.58,4.2,11.26,12.13,11.26,12.13l5.4,7.32-1.67,4.06,49.26,33.24s10.32,6.95,19.55,7.28,20.31-8.59,20.31-8.59l95.2-64.85,20.85-13.05,10.44-8.49s5.99-8.07-3.45-11.76c-9.43-3.69-223.56,37.47-223.56,37.47"/>
        <line class="cls-13" x1="45.22" y1="136.79" x2="42.54" y2="156.02"/>
        <line class="cls-13" x1="75.9" y1="156.73" x2="73.22" y2="175.96"/>
        <line class="cls-13" x1="101.67" y1="155.57" x2="98.98" y2="174.81"/>
        <line class="cls-13" x1="116.36" y1="146.01" x2="113.67" y2="165.24"/>
        <line class="cls-13" x1="130.93" y1="136.02" x2="128.25" y2="155.25"/>
        <line class="cls-13" x1="145.93" y1="125.15" x2="143.24" y2="144.39"/>
        <line class="cls-13" x1="160.51" y1="116.43" x2="157.82" y2="135.66"/>
        <line class="cls-13" x1="173.79" y1="107.49" x2="171.1" y2="126.72"/>
        <line class="cls-13" x1="186.85" y1="98.51" x2="184.16" y2="117.74"/>
        <line class="cls-13" x1="200.8" y1="88.58" x2="198.12" y2="107.82"/>
        <line class="cls-13" x1="213.44" y1="80.97" x2="210.75" y2="100.2"/>
        <line class="cls-13" x1="225.67" y1="72.87" x2="222.99" y2="92.11"/>
        <line class="cls-13" x1="223.57" y1="24.45" x2="220.88" y2="43.69"/>
        <line class="cls-13" x1="213.87" y1="30.97" x2="211.18" y2="50.2"/>
        <line class="cls-13" x1="201.88" y1="38.95" x2="199.19" y2="58.18"/>
        <line class="cls-13" x1="64.15" y1="149.24" x2="61.46" y2="168.47"/>
        <line class="cls-13" x1="34.62" y1="130.95" x2="31.93" y2="150.19"/>
        <line class="cls-13" x1="24.5" y1="123.37" x2="21.81" y2="142.6"/>
        <line class="cls-13" x1="86.56" y1="163.71" x2="84.39" y2="179.26"/>
        <polyline class="cls-13" points="224.52 81.1 85.03 174.69 12.75 127.37 14.26 116.56"/>
        <path class="cls-14" d="m5.09,110s-7.18,1.04-3.6,5.24c3.58,4.2,11.26,12.13,11.26,12.13l5.4,7.32-1.67,4.06,49.26,33.24s10.32,6.95,19.55,7.28,20.31-8.59,20.31-8.59l95.2-64.85,20.85-13.05,10.44-8.49s5.99-8.07-3.45-11.76c-9.43-3.69-223.56,37.47-223.56,37.47Z"/>
        <polygon class="cls-2" points="227.8 71.2 146.94 24.74 87.03 61.14 167.79 110.71 227.8 71.2"/>
        <polygon class="cls-9" points="149.02 65.21 122.84 81.5 131.85 86.92 157.85 70.42 149.02 65.21"/>
        <polygon class="cls-11" points="147.63 25.47 224.98 69.94 229.34 67.65 148.25 20.46 147.63 25.47"/>
        <polygon class="cls-9" points="23.02 99.87 106.7 152.35 168.31 110.4 86.58 60.18 23.02 99.87"/>
        <polygon class="cls-2" points="5.09 110 88.77 162.48 105.6 151.85 21.92 99.37 5.09 110"/>
        <path class="cls-9" d="m27.76,127.12c4.51-5.41,13.98-8.34,24.35-6.89,13.67,1.91,23.74,10.71,22.49,19.66-.69,4.97-4.74,8.95-10.55,11.16"/>
        <polygon class="cls-12" points="4.54 111.65 147.63 25.47 148.25 20.46 5.23 106.68 4.54 111.65"/>
        <polygon class="cls-5" points="44.26 93.93 43.25 101.18 105.17 142.22 106.34 133.83 44.26 93.93"/>
        <polygon class="cls-1" points="41.93 92.43 106.34 133.82 131.15 113.46 68.93 74.69 41.93 92.43"/>
        <polygon class="cls-6" points="68.93 74.69 96.31 60.93 158.25 97.81 131.15 113.46 68.93 74.69"/>
        <polygon class="cls-3" points="106.34 133.83 158.25 97.81 131.15 113.46 106.34 133.83"/>
        <polygon class="cls-7" points="105.17 142.22 156.95 107.12 158.25 97.81 106.34 133.82 105.17 142.22"/>
        <polygon class="cls-4" points="48.04 96.36 47.02 103.68 62.11 113.68 63.32 106.18 48.04 96.36"/>
        <polygon class="cls-11" points="5.23 106.68 4.54 111.65 50.85 142.49 51.58 137.24 5.23 106.68"/>
        <path class="cls-9" d="m189.71,66.67c-1.95,7.5-14.06,10.83-27.05,7.46-12.99-3.38-21.94-12.2-19.99-19.69,1.95-7.5,14.06-10.84,27.05-7.46,12.99,3.38,21.94,12.2,19.99,19.69"/>
        <path class="cls-2" d="m176.35,62.34c-.82,3.17-5.95,4.58-11.44,3.15-5.49-1.43-9.28-5.16-8.45-8.33.83-3.17,5.95-4.58,11.44-3.15,5.49,1.43,9.28,5.16,8.45,8.33"/>
        <polygon class="cls-12" points="86.19 166.4 228.65 72.54 229.33 67.65 86.88 161.43 86.19 166.4"/>
        <polygon class="cls-11" points="63.24 145.29 62.54 150.25 86.16 165.99 86.95 160.93 63.24 145.29"/>
        <polygon class="cls-10" points="54.43 141.7 23.57 163.77 31.17 169.42 61.8 146.18 54.43 141.7"/>
        <line class="cls-13" x1="198.57" y1="49.75" x2="222.23" y2="34.07"/>
        <polyline class="cls-15" points="62.91 144.71 87.65 161.02 107.3 148.07 229.33 67.65 148.25 20.46 23.62 95.59 5.23 106.68 52.75 138.01"/>
        <polygon class="cls-15" points="150.73 21.9 185.95 .57 225.11 23.4 190.81 45.23 150.73 21.9"/>
      </g>
    </g>
  </g>
</svg>