<?xml version="1.0" encoding="UTF-8"?>
<svg xmlns="http://www.w3.org/2000/svg" viewBox="0 0 224.83 144.58">
  <defs>
    <style>
      .cls-1 {
        fill: none;
        stroke: #abb9c2;
        stroke-miterlimit: 10;
        stroke-width: 2.01px;
      }

      .cls-2 {
        fill: #4d4d4d;
        mix-blend-mode: multiply;
        opacity: .3;
      }

      .cls-2, .cls-3, .cls-4, .cls-5, .cls-6, .cls-7, .cls-8, .cls-9, .cls-10, .cls-11, .cls-12, .cls-13, .cls-14, .cls-15 {
        stroke-width: 0px;
      }

      .cls-16 {
        isolation: isolate;
      }

      .cls-3 {
        fill: #4b5154;
      }

      .cls-4 {
        fill: #7aa4b0;
      }

      .cls-5 {
        fill: #555f6d;
      }

      .cls-6 {
        fill: #95a2ab;
      }

      .cls-7 {
        fill: #599c4e;
      }

      .cls-8 {
        fill: #3f3431;
      }

      .cls-9 {
        fill: #ccc0b3;
      }

      .cls-10 {
        fill: #abb9c2;
      }

      .cls-11 {
        fill: #a9ada1;
      }

      .cls-12 {
        fill: #939598;
      }

      .cls-13 {
        fill: #6b7c85;
      }

      .cls-14 {
        fill: #fff;
      }

      .cls-15 {
        fill: #e3e4e5;
      }
    </style>
  </defs>
  <g class="cls-16">
    <g id="Layer_2" data-name="Layer 2">
      <g id="Layer_1-2" data-name="Layer 1">
        <g>
          <polygon class="cls-8" points="98.11 141.25 224.76 72.73 224.83 55.33 98.31 123.06 98.11 141.25"/>
          <polygon class="cls-8" points="84.98 120.38 84.73 138.34 98.46 144.58 98.2 125.37 84.98 120.38"/>
          <line class="cls-1" x1="98.11" y1="125.85" x2="98.11" y2="141.4"/>
          <line class="cls-1" x1="107.1" y1="120.61" x2="107.1" y2="136.16"/>
          <line class="cls-1" x1="116.82" y1="115.93" x2="116.82" y2="131.48"/>
          <path class="cls-12" d="m164.35,104.35v-15.55s0,15.55,0,15.55Z"/>
          <line class="cls-1" x1="175.2" y1="84.74" x2="175.2" y2="100.28"/>
          <line class="cls-1" x1="163.97" y1="88.99" x2="163.97" y2="104.54"/>
          <line class="cls-1" x1="185.49" y1="78.75" x2="185.49" y2="94.3"/>
          <line class="cls-1" x1="195.78" y1="73.14" x2="195.78" y2="88.69"/>
          <line class="cls-1" x1="206.45" y1="67.34" x2="206.45" y2="82.88"/>
          <line class="cls-1" x1="216.7" y1="61.25" x2="216.74" y2="77.78"/>
          <line class="cls-1" x1="155.93" y1="94.79" x2="155.93" y2="110.34"/>
          <polygon class="cls-4" points="98.11 123.83 224.76 55.31 224.83 51.21 98.31 118.94 98.11 123.83"/>
          <polygon class="cls-10" points="98.11 120.26 224.76 51.74 224.83 40.02 98.31 107.75 98.11 120.26"/>
          <polygon class="cls-11" points="1.49 67.18 128.34 5.72 223.34 40.13 98.28 107.07 1.49 67.18"/>
          <path class="cls-14" d="m128.37,6.39l93.47,33.85-123.6,66.16L2.98,67.14,128.37,6.39Zm-.07-1.32L0,67.23l98.31,40.52,126.52-67.73L128.3,5.06Z"/>
          <polygon class="cls-7" points="40.12 52.07 44.22 50.08 132.67 85.97 127.77 88.61 40.12 52.07"/>
          <polygon class="cls-7" points="63.89 39.56 67.99 37.57 156.44 73.45 151.54 76.1 63.89 39.56"/>
          <polygon class="cls-7" points="86 27.18 90.1 25.19 178.55 61.07 173.65 63.72 86 27.18"/>
          <polygon class="cls-7" points="107.71 15.99 111.82 14 200.27 49.88 195.37 52.53 107.71 15.99"/>
          <polygon class="cls-6" points="30.59 63.06 103.08 92.65 115.99 77.76 41.71 48.56 30.59 63.06"/>
          <polygon class="cls-3" points="115.99 77.76 115.99 85.9 103.08 92.65 115.99 77.76"/>
          <polygon class="cls-6" points="54.32 51.14 126.81 80.74 139.72 65.84 65.44 36.64 54.32 51.14"/>
          <polygon class="cls-3" points="139.72 65.84 139.72 73.98 126.81 80.74 139.72 65.84"/>
          <polygon class="cls-6" points="77.26 38.73 149.75 68.32 162.66 53.43 88.38 24.23 77.26 38.73"/>
          <polygon class="cls-3" points="162.66 53.43 162.66 61.57 149.75 68.32 162.66 53.43"/>
          <polygon class="cls-6" points="100.3 26.41 172.79 56.01 185.7 41.11 111.42 11.92 100.3 26.41"/>
          <polygon class="cls-3" points="185.7 41.11 185.7 49.26 172.79 56.01 185.7 41.11"/>
          <polygon class="cls-6" points="123.44 14.5 195.93 44.09 208.84 29.19 134.56 0 123.44 14.5"/>
          <polygon class="cls-3" points="208.84 29.2 208.84 37.34 195.93 44.09 208.84 29.2"/>
          <polygon class="cls-2" points="46.61 54.12 105.6 76.96 97.05 87.29 39.26 63.65 46.61 54.12"/>
          <polygon class="cls-7" points="15.49 66.04 21.12 63.26 109.57 99.14 103.87 101.99 15.49 66.04"/>
          <polygon class="cls-4" points="0 78.86 0 82.73 98.11 123.45 98.31 119.38 0 78.86"/>
          <polygon class="cls-4" points="0 85.83 0 100.93 26.95 112.25 26.95 96.62 0 85.83"/>
          <polygon class="cls-15" points="0 67.14 0 79.46 98.11 120.17 98.31 107.66 0 67.14"/>
          <polygon class="cls-15" points="0 82.77 0 85.75 98.11 126.46 98.31 123.28 0 82.77"/>
          <polygon class="cls-10" points="98.11 126.99 224.76 58.47 224.83 55.33 98.31 123.06 98.11 126.99"/>
          <polygon class="cls-13" points="26.55 89.87 26.55 121.91 44.82 129.46 44.95 96.89 26.55 89.87"/>
          <polygon class="cls-10" points="26.55 89.87 40.19 83.25 57.8 90.53 44.82 97.02 26.55 89.87"/>
          <polygon class="cls-5" points="44.82 97.02 57.8 90.53 57.8 122.5 44.82 129.46 44.82 97.02"/>
          <polygon class="cls-13" points="47.66 101.57 47.66 130.63 74.12 143.08 74.12 112.63 47.66 101.57"/>
          <polygon class="cls-10" points="47.66 101.57 59.8 95.28 85.83 105.69 74.12 112.63 47.66 101.57"/>
          <polygon class="cls-5" points="85.83 105.69 85.83 136.27 74.12 143.08 74.12 112.63 85.83 105.69"/>
          <polygon class="cls-13" points="121.97 100.05 121.97 126.49 129.64 130.36 129.64 103.66 121.97 100.05"/>
          <polygon class="cls-5" points="129.64 103.66 141.86 96.68 141.86 124.12 129.64 130.36 129.64 103.66"/>
          <polygon class="cls-13" points="141.86 96.68 147.85 99.17 147.85 126.86 141.86 124.12 141.86 96.68"/>
          <polygon class="cls-5" points="147.85 99.17 155.58 94.68 155.58 122.62 147.85 126.86 147.85 99.17"/>
          <polygon class="cls-9" points="123.3 100 141.66 89.87 154.19 94.79 147.8 98.49 141.82 96 129.61 102.98 123.3 100"/>
          <path class="cls-14" d="m141.7,90.54l11.09,4.36-5.03,2.92-5.43-2.26-.55-.23-.52.3-11.67,6.67-4.94-2.33,17.06-9.42Zm-.09-1.34l-19.65,10.85,7.67,3.62,12.22-6.98,5.99,2.49,7.73-4.49-13.97-5.49Z"/>
          <polygon class="cls-13" points="141.86 96.68 147.85 99.17 147.85 110.78 141.86 108.04 141.86 96.68"/>
          <polygon class="cls-5" points="147.85 99.17 155.58 94.68 155.58 106.54 147.85 110.78 147.85 99.17"/>
        </g>
      </g>
    </g>
  </g>
</svg>