<?xml version="1.0" encoding="UTF-8"?>
<svg id="Layer_2" data-name="Layer 2" xmlns="http://www.w3.org/2000/svg" xmlns:xlink="http://www.w3.org/1999/xlink" viewBox="0 0 179.44 134.87">
  <defs>
    <style>
      .cls-1 {
        clip-path: url(#clippath);
      }

      .cls-2, .cls-3 {
        fill: none;
      }

      .cls-2, .cls-4, .cls-5, .cls-6, .cls-7, .cls-8, .cls-9, .cls-10, .cls-11, .cls-12, .cls-13, .cls-14 {
        stroke-width: 0px;
      }

      .cls-3 {
        stroke: #895746;
        stroke-miterlimit: 10;
      }

      .cls-4 {
        fill: #624036;
      }

      .cls-5 {
        fill: #76493e;
      }

      .cls-6 {
        fill: #8a5749;
      }

      .cls-7 {
        fill: #593830;
      }

      .cls-8 {
        fill: #3a1708;
      }

      .cls-9 {
        fill: #c9864d;
      }

      .cls-10 {
        fill: #9e7164;
      }

      .cls-11 {
        fill: #8f5a2e;
      }

      .cls-12 {
        fill: #734720;
      }

      .cls-13 {
        fill: #f6891f;
      }

      .cls-14 {
        fill: #fba919;
      }
    </style>
    <clipPath id="clippath">
      <rect class="cls-2" width="179.44" height="134.87"/>
    </clipPath>
  </defs>
  <g id="Layer_1-2" data-name="Layer 1">
    <g class="cls-1">
      <g>
        <path class="cls-6" d="m159.57,12.95H18.87v100.33h140.69V12.95Z"/>
        <path class="cls-10" d="m45.01,28.94h-22.22v7.9h22.22v-7.9Z"/>
        <path class="cls-10" d="m133.44,43.89h-22.22v7.9h22.22v-7.9Z"/>
        <path class="cls-10" d="m159.07,26.64h-22.22v7.9h22.22v-7.9Z"/>
        <path class="cls-10" d="m162.77,56.3h-22.22v7.9h22.22v-7.9Z"/>
        <path class="cls-10" d="m58.17,49.18h-22.22v7.9h22.22v-7.9Z"/>
        <path class="cls-10" d="m123.52,21.12h-22.22v7.9h22.22v-7.9Z"/>
        <path class="cls-10" d="m146.14,86.2h-22.22v7.9h22.22v-7.9Z"/>
        <path class="cls-10" d="m48.25,95.86h-22.22v7.9h22.22v-7.9Z"/>
        <path class="cls-5" d="m88.89,30.55c-26.61,0-48.18,21.48-48.18,47.98v36.59h96.36v-36.59c0-26.5-21.57-47.98-48.18-47.98h0Z"/>
        <path class="cls-8" d="m88.89,38.22c-22.22,0-40.23,17.94-40.23,40.07v30.56h80.47v-30.56c0-22.13-18.01-40.07-40.23-40.07h0Z"/>
        <path class="cls-3" d="m159.34,12.95H18.87v99.41h140.46V12.95Z"/>
        <path class="cls-5" d="m159.57,12.95H18.87v4.84h140.69v-4.84Z"/>
        <path class="cls-4" d="m165.09,8.65H13.92v5.9h151.16v-5.9Z"/>
        <path class="cls-10" d="m179.44,9.17L0,9.28V0h179.44v9.17Z"/>
        <path class="cls-6" d="m166.99,113.05v-2H10.47v2h-.23v21.83h41.68s.02-.06.02-.08h74.19s.01.06.02.08h41v-21.83h-.17,0Z"/>
        <path class="cls-5" d="m166.99,133.96v-.08H10.47v.08h-.23v.91h156.91v-.91h-.17,0Z"/>
        <path class="cls-7" d="m167.33,108.92H9.96v6.88h157.38v-6.88Z"/>
        <path class="cls-12" d="m71.26,98.62c1.16.15,24.86,4.29,27.96,5.14,3.11.86.97,5.17-.78,5.17h-28.16l.97-10.31Z"/>
        <path class="cls-9" d="m71.13,108.92c-5.98,0-2.91-9.72.97-10.31,3.88-.58,8.35,10.31-.97,10.31Z"/>
        <path class="cls-12" d="m116.95,99.09c-1.16.15-24.86,4.29-27.96,5.14-3.11.86-.97,5.17.78,5.17h28.16l-.97-10.31Z"/>
        <path class="cls-9" d="m117.08,109.4c5.99,0,2.91-9.72-.97-10.31-3.88-.58-8.35,10.31.97,10.31Z"/>
        <path class="cls-11" d="m106.22,99.09c-1.16.15-18.02,4.29-21.13,5.14-3.11.86-.97,5.17.78,5.17h21.32l-.97-10.31Z"/>
        <path class="cls-9" d="m106.35,109.4c5.98,0,2.91-9.72-.97-10.31-3.88-.58-8.35,10.31.97,10.31Z"/>
        <path class="cls-14" d="m74.43,98.77c-.78-.44-8.18-5.43-6.18-13.19,0,2.19,2.59,4.18,3,3.98.4-.2-3.8-11.14,1-19.1,4.79-7.96,5.2-13.93,5.2-13.93,0,0,3,6.76-.2,12.14-3.19,5.37,4.19,11.34,4.19,11.34,0,0-4.79-16.51,6.19-28.05-1,5.57-2,18.11,4.79,24.87-3.19-11.74,0-14.32,3.99-19.7,3.99-5.37,1.6-12.54,1.6-12.54,0,0,5.75,10.4,6.59,16.51,1.8,13.13-2.6,14.13-2.4,20.1,7.19-3.98,4.79-17.71,4.79-17.71,0,0,13.59,22.68,1.2,35.02-7.19,2.98-22.7,6.54-33.78.26h0Z"/>
        <path class="cls-14" d="m92.28,42.97s1.23,3.99-.61,7.36c-1.85,3.37-.15,5.52-.15,5.52,0,0,8.16-5.98.77-12.88h0Z"/>
        <path class="cls-14" d="m80.58,45.73c-.61.31-3.38,3.99-.46,7.36.31-4.29.46-7.36.46-7.36Z"/>
        <path class="cls-14" d="m110.44,60.9s3.08,6.29,1.85,10.27c4.31-4.6,3.69-9.51-1.85-10.27Z"/>
        <path class="cls-14" d="m70.57,61.52c1.69,4.6-3.69,9.05-3.38,12.88-3.23-4.91,2.62-9.81,3.38-12.88Z"/>
        <path class="cls-13" d="m87.96,77.99s-8.21,8.9-6.23,16.98c0,0,1.87,5.39,7.79,6.63,0,0,7.79,1.24,11.43-7.04,0,0,2.6-6.11-.94-10.77l-.93-1.14s-.73,5.69-1.35,6.31c0,0-3.43-7.04.42-12.01l1.87-.93s-7.32-1.9-9.45,5.59c-.04.13-.01.3-.11.41-2.6,2.85-2.49-4.04-2.49-4.04h0Z"/>
      </g>
    </g>
  </g>
</svg>