<?xml version="1.0" encoding="UTF-8"?>
<svg id="Layer_2" data-name="Layer 2" xmlns="http://www.w3.org/2000/svg" viewBox="0 0 46.66 66.05">
  <defs>
    <style>
      .cls-1 {
        fill: #098e7a;
      }

      .cls-1, .cls-2, .cls-3, .cls-4 {
        stroke-width: 0px;
      }

      .cls-2 {
        fill: #f15523;
      }

      .cls-3 {
        fill: #fff;
      }

      .cls-4 {
        fill: #ffc60b;
      }
    </style>
  </defs>
  <g id="Layer_1-2" data-name="Layer 1">
    <g>
      <path class="cls-4" d="m46.66,0H0v66.05h46.66V0Z"/>
      <path class="cls-3" d="m42.94,3.71H3.71v58.63h39.23V3.71Z"/>
      <path class="cls-1" d="m38.06,8.6H8.6v48.85h29.46V8.6Z"/>
      <path class="cls-2" d="m38.06,29.6v10.13c-8.35-1.35-20.26-3.26-29.46-4.64v-14.67l29.46,9.18Z"/>
      <path class="cls-2" d="m8.6,43.46l29.46,10.96v3.03h-15.93l-13.53-6.11v-7.88Z"/>
      <path class="cls-2" d="m38.06,16.41v9.19L19.15,8.6h9.93c2.84,2.4,6.25,5.39,8.97,7.81Z"/>
      <path class="cls-3" d="m11.57,15.62c0,2.85,2.31,5.16,5.16,5.16s5.16-2.31,5.16-5.16-2.31-5.16-5.16-5.16-5.16,2.31-5.16,5.16Z"/>
      <path class="cls-3" d="m27.89,44.89c0,2.3,1.86,4.16,4.16,4.16s4.17-1.86,4.17-4.16-1.86-4.16-4.17-4.16-4.16,1.86-4.16,4.16Z"/>
      <path class="cls-3" d="m18.48,42.22c0,.87.71,1.58,1.58,1.58s1.58-.71,1.58-1.58-.71-1.58-1.58-1.58-1.58.71-1.58,1.58Z"/>
    </g>
  </g>
</svg>