<?xml version="1.0" encoding="UTF-8"?>
<svg id="Layer_2" data-name="Layer 2" xmlns="http://www.w3.org/2000/svg" viewBox="0 0 369.44 217.49">
  <defs>
    <style>
      .cls-1 {
        stroke-width: .93px;
      }

      .cls-1, .cls-2 {
        fill: none;
        stroke: #999c9d;
        stroke-miterlimit: 10;
      }

      .cls-2 {
        stroke-width: .93px;
      }

      .cls-3 {
        fill: #495052;
      }

      .cls-3, .cls-4, .cls-5, .cls-6, .cls-7, .cls-8, .cls-9, .cls-10, .cls-11, .cls-12, .cls-13 {
        stroke-width: 0px;
      }

      .cls-4 {
        fill: #7b8d94;
      }

      .cls-5 {
        fill: #5b6264;
      }

      .cls-6 {
        fill: #272c2e;
      }

      .cls-7 {
        fill: #575e5f;
      }

      .cls-8 {
        fill: #3f4346;
      }

      .cls-9 {
        fill: #1c2023;
      }

      .cls-10 {
        fill: #abb9c2;
      }

      .cls-11 {
        fill: #33383a;
      }

      .cls-12 {
        fill: #6b7c85;
      }

      .cls-13 {
        fill: #697072;
      }
    </style>
  </defs>
  <g id="Layer_1-2" data-name="Layer 1">
    <g>
      <polygon class="cls-3" points="259.62 12.9 301.44 91.5 206.72 92.51 190.59 53.21 13.23 57.24 .63 18.44 259.62 12.9"/>
      <polygon class="cls-1" points="259.62 12.9 301.44 91.5 206.72 92.51 190.59 53.21 13.23 57.24 .63 18.44 259.62 12.9"/>
      <polygon class="cls-3" points="260.63 6.65 302.45 85.25 207.72 86.26 191.6 46.96 14.24 50.99 1.64 12.19 260.63 6.65"/>
      <polygon class="cls-1" points="260.63 6.65 302.45 85.25 207.72 86.26 191.6 46.96 14.24 50.99 1.64 12.19 260.63 6.65"/>
      <polygon class="cls-7" points="261.64 .47 303.46 79.07 208.73 80.08 192.61 40.78 15.24 44.81 2.65 6.01 261.64 .47"/>
      <polygon class="cls-1" points="261.64 .47 303.46 79.07 208.73 80.08 192.61 40.78 15.24 44.81 2.65 6.01 261.64 .47"/>
      <polygon class="cls-9" points="333.49 202.55 364.39 202.55 364.73 198.85 315.35 115.55 218.94 117.23 259.92 205.24 276.05 211.28 303.93 211.28 333.49 202.55"/>
      <polygon class="cls-1" points="333.49 202.55 364.39 202.55 364.73 198.85 315.35 115.55 218.94 117.23 259.92 205.24 276.05 211.28 303.93 211.28 333.49 202.55"/>
      <polygon class="cls-6" points="334.7 194.15 365.6 194.15 365.94 190.45 316.56 107.15 220.15 108.83 261.13 196.84 277.26 202.88 305.14 202.88 334.7 194.15"/>
      <polygon class="cls-1" points="334.7 194.15 365.6 194.15 365.94 190.45 316.56 107.15 220.15 108.83 261.13 196.84 277.26 202.88 305.14 202.88 334.7 194.15"/>
      <polygon class="cls-11" points="335.37 185.08 366.27 185.08 366.61 181.38 317.23 98.08 220.82 99.76 261.8 187.77 277.93 193.81 305.81 193.81 335.37 185.08"/>
      <polygon class="cls-1" points="335.37 185.08 366.27 185.08 366.61 181.38 317.23 98.08 220.82 99.76 261.8 187.77 277.93 193.81 305.81 193.81 335.37 185.08"/>
      <polygon class="cls-8" points="336.34 176.05 367.25 176.07 367.59 172.38 318.28 89.03 221.87 90.63 262.78 178.67 278.9 184.73 306.78 184.76 336.34 176.05"/>
      <polygon class="cls-1" points="336.34 176.05 367.25 176.07 367.59 172.38 318.28 89.03 221.87 90.63 262.78 178.67 278.9 184.73 306.78 184.76 336.34 176.05"/>
      <polygon class="cls-3" points="337.38 167.28 368.29 167.28 368.63 163.58 319.24 80.27 222.84 81.96 263.82 169.97 279.94 176.01 307.83 176.01 337.38 167.28"/>
      <polygon class="cls-1" points="337.38 167.28 368.29 167.28 368.63 163.58 319.24 80.27 222.84 81.96 263.82 169.97 279.94 176.01 307.83 176.01 337.38 167.28"/>
      <polygon class="cls-13" points="337.72 157.2 368.62 157.2 368.96 153.5 319.58 70.2 223.18 71.88 264.15 159.89 280.28 165.93 308.16 165.93 337.72 157.2"/>
      <polygon class="cls-1" points="337.72 157.2 368.62 157.2 368.96 153.5 319.58 70.2 223.18 71.88 264.15 159.89 280.28 165.93 308.16 165.93 337.72 157.2"/>
      <polygon class="cls-10" points="301.44 147.46 306.48 159.05 337.72 158.54 331.67 146.45 301.44 147.46"/>
      <polygon class="cls-12" points="306.48 159.05 301.95 216.99 330.67 217.49 337.72 158.54 306.48 159.05"/>
      <polygon class="cls-4" points="301.44 147.46 297.08 204.56 301.95 216.99 306.48 159.05 301.44 147.46"/>
      <line class="cls-13" x1="280.28" y1="165.93" x2="276.05" y2="211.28"/>
      <line class="cls-1" x1="280.28" y1="165.93" x2="276.05" y2="211.28"/>
      <line class="cls-1" x1="263.65" y1="159.38" x2="259.42" y2="204.73"/>
      <line class="cls-1" x1="254.83" y1="139.73" x2="250.6" y2="185.08"/>
      <line class="cls-1" x1="242.79" y1="167.95" x2="247.02" y2="122.6"/>
      <line class="cls-1" x1="239.21" y1="105.72" x2="234.98" y2="151.07"/>
      <line class="cls-1" x1="231.66" y1="90.1" x2="227.42" y2="135.45"/>
      <line class="cls-1" x1="222.92" y1="71.29" x2="218.69" y2="116.64"/>
      <line class="cls-13" x1="351.7" y1="157.49" x2="347.47" y2="202.84"/>
      <line class="cls-1" x1="351.7" y1="157.49" x2="347.47" y2="202.84"/>
      <polygon class="cls-5" points="334.7 161.4 328.32 214.64 320.59 214.64 326.8 161.57 334.7 161.4"/>
      <polygon class="cls-10" points="169.43 27.34 173.8 35.41 194.62 35.41 189.25 27.34 169.43 27.34"/>
      <polygon class="cls-12" points="173.8 35.4 173.12 63.28 193.95 63.28 194.62 35.4 173.8 35.4"/>
      <polygon class="cls-4" points="169.43 27.34 168.76 54.89 173.12 63.29 173.8 35.41 169.43 27.34"/>
      <polygon class="cls-5" points="182.19 37.42 181.35 61.44 175.48 61.44 176.15 37.42 182.19 37.42"/>
      <line class="cls-1" x1="24.99" y1="44.47" x2="24.99" y2="57.24"/>
      <line class="cls-1" x1="34.68" y1="44.47" x2="34.68" y2="57.24"/>
      <line class="cls-1" x1="44.37" y1="44.47" x2="44.37" y2="57.24"/>
      <line class="cls-1" x1="54.07" y1="44.47" x2="54.07" y2="57.24"/>
      <path class="cls-3" d="m63.62,55.69l.27-12.5-.27,12.5Z"/>
      <line class="cls-1" x1="63.9" y1="43.2" x2="63.63" y2="55.69"/>
      <line class="cls-1" x1="73.45" y1="44.14" x2="73.45" y2="56.9"/>
      <line class="cls-1" x1="83.15" y1="43.47" x2="83.15" y2="56.23"/>
      <line class="cls-1" x1="92.84" y1="43.13" x2="92.84" y2="54.89"/>
      <line class="cls-1" x1="102.53" y1="42.79" x2="102.53" y2="55.56"/>
      <line class="cls-1" x1="112.23" y1="42.79" x2="112.23" y2="55.56"/>
      <line class="cls-1" x1="121.92" y1="42.12" x2="121.92" y2="54.89"/>
      <line class="cls-1" x1="131.61" y1="41.79" x2="131.61" y2="54.55"/>
      <line class="cls-1" x1="141.31" y1="41.79" x2="141.31" y2="54.55"/>
      <line class="cls-1" x1="151" y1="41.11" x2="151" y2="53.88"/>
      <line class="cls-1" x1="160.69" y1="41.11" x2="160.69" y2="53.88"/>
      <line class="cls-1" x1="197.98" y1="53.54" x2="197.98" y2="70.95"/>
      <line class="cls-1" x1="203.02" y1="66.64" x2="203.02" y2="84.05"/>
      <path class="cls-3" d="m207.72,92.34l.34-14.28-.34,14.28Z"/>
      <line class="cls-1" x1="208.06" y1="78.06" x2="207.72" y2="92.34"/>
      <path class="cls-3" d="m215.62,92.51l.17-13.1-.17,13.1Z"/>
      <line class="cls-2" x1="215.78" y1="79.41" x2="215.62" y2="92.51"/>
      <line class="cls-1" x1="14.91" y1="44.47" x2="14.91" y2="57.24"/>
    </g>
  </g>
</svg>