<svg width="147" height="257" viewBox="0 0 147 257" fill="none" xmlns="http://www.w3.org/2000/svg">
<path d="M55.03 8.2251L8.235 32.6701C3.79 34.9951 1 39.5951 1 44.6101V242.985C1 253.44 12.385 259.91 21.365 254.555L145.68 180.48" stroke="#3D7CC0" stroke-miterlimit="10" stroke-linecap="round" stroke-dasharray="2 2"/>
<path d="M57.1599 88.9351L37.5299 100.745C33.4799 103.18 31.0049 107.56 31.0049 112.29V185.495C31.0049 195.89 42.2749 202.365 51.2549 197.135L113.43 160.915" stroke="#3D7CC0" stroke-miterlimit="10" stroke-linecap="round" stroke-dasharray="2 2"/>
<path d="M58.0299 14.95C62.0202 14.95 65.2549 11.7153 65.2549 7.725C65.2549 3.73474 62.0202 0.5 58.0299 0.5C54.0397 0.5 50.8049 3.73474 50.8049 7.725C50.8049 11.7153 54.0397 14.95 58.0299 14.95Z" fill="white"/>
<path d="M58.0299 1C61.7449 1 64.7549 4.01 64.7549 7.725C64.7549 11.44 61.7449 14.45 58.0299 14.45C54.3149 14.45 51.3049 11.44 51.3049 7.725C51.3049 4.01 54.3149 1 58.0299 1ZM58.0299 0C53.7699 0 50.3049 3.465 50.3049 7.725C50.3049 11.985 53.7699 15.45 58.0299 15.45C62.2899 15.45 65.7549 11.985 65.7549 7.725C65.7549 3.465 62.2899 0 58.0299 0Z" fill="#808080"/>
<path d="M59.1601 96.16C63.1503 96.16 66.3851 92.9252 66.3851 88.935C66.3851 84.9447 63.1503 81.71 59.1601 81.71C55.1698 81.71 51.9351 84.9447 51.9351 88.935C51.9351 92.9252 55.1698 96.16 59.1601 96.16Z" fill="white"/>
<path d="M59.1601 82.21C62.8751 82.21 65.8851 85.22 65.8851 88.935C65.8851 92.65 62.8751 95.66 59.1601 95.66C55.4451 95.66 52.4351 92.65 52.4351 88.935C52.4351 85.22 55.4451 82.21 59.1601 82.21ZM59.1601 81.21C54.9001 81.21 51.4351 84.675 51.4351 88.935C51.4351 93.195 54.9001 96.66 59.1601 96.66C63.4201 96.66 66.8851 93.195 66.8851 88.935C66.8851 84.675 63.4201 81.21 59.1601 81.21Z" fill="#808080"/>
</svg>
