<?xml version="1.0" encoding="UTF-8"?>
<svg id="Layer_2" data-name="Layer 2" xmlns="http://www.w3.org/2000/svg" viewBox="0 0 50.96 98.59">
  <defs>
    <style>
      .cls-1 {
        fill: #785229;
      }

      .cls-1, .cls-2, .cls-3, .cls-4, .cls-5, .cls-6, .cls-7, .cls-8, .cls-9, .cls-10, .cls-11, .cls-12 {
        stroke-width: 0px;
      }

      .cls-2 {
        fill: #70481f;
      }

      .cls-3 {
        fill: #88633a;
      }

      .cls-4 {
        fill: #098e7a;
      }

      .cls-5 {
        fill: #e38425;
      }

      .cls-6 {
        fill: #af7342;
      }

      .cls-7 {
        fill: #8d653a;
      }

      .cls-8 {
        fill: #a0886e;
      }

      .cls-9 {
        fill: #fec214;
      }

      .cls-10 {
        fill: #7f5021;
      }

      .cls-11 {
        fill: #654019;
      }

      .cls-12 {
        fill: #007367;
      }
    </style>
  </defs>
  <g id="Layer_1-2" data-name="Layer 1">
    <g>
      <path class="cls-4" d="m17.3,53.05c4.82-2.35,7.3-14.38,2.66-18.63-4-3.67-8.32,3.63-7.71,8.74.6,5.11,2.12,8.84,5.05,9.9Z"/>
      <path class="cls-12" d="m28.96,27.46c5.35.39,13.52-8.79,11.64-14.79-1.62-5.18-9.02-1.03-11.05,3.69-2.04,4.72-2.59,8.72-.59,11.1Z"/>
      <path class="cls-4" d="m27.4,29.64c1.66-5.1-5.28-15.24-11.56-14.86-5.42.33-3.17,8.51.93,11.62,4.09,3.11,7.84,4.62,10.63,3.24h0Z"/>
      <path class="cls-4" d="m10.87,39.21c3.33-4.21.33-16.12-5.69-17.94C-.02,19.7-.74,28.15,2.02,32.48c2.76,4.34,5.75,7.04,8.85,6.72h0Z"/>
      <path class="cls-4" d="m28.12,19.31c4.2-3.34,4.01-15.62-1.43-18.77-4.7-2.72-7.34,5.34-5.64,10.2,1.69,4.85,3.99,8.18,7.07,8.57Z"/>
      <path class="cls-8" d="m10.34,39.45c1.58,6.94,6.67,15.62,16.45,25.73-.58-15.53.82-45.34.96-46.12.31-1.75.69-2.2.66-.13-.05,3.99-.18,15.85-.19,27.66,1.66-.33,6.7-2.48,15.37-15.68.5-1.13,1.39-1.01.75.25-.61,1.23-8.28,14.28-16.12,17.16,0,8.95.07,17.63.3,22.56.81,17.73.91,8.41.93,9.17-.19,1.38-1.8.23-2.1,0,0-5.99-.76-6.7-.7-12.71-14.25-14.78-16.59-25.38-16.98-28.09-.14-.98.38-.94.67.21h0Z"/>
      <path class="cls-12" d="m25.61,65.03c.52-5.34-8.46-13.73-14.5-11.99-5.22,1.5-1.24,8.99,3.43,11.14,4.67,2.15,8.65,2.8,11.08.85Z"/>
      <path class="cls-4" d="m27.42,43.54c4.82-2.35,7.3-14.38,2.66-18.63-4-3.67-8.32,3.63-7.71,8.74.61,5.11,2.12,8.84,5.05,9.9h0Z"/>
      <path class="cls-12" d="m17.18,50.64c.39-5.35-8.78-13.53-14.78-11.65-5.18,1.62-1.03,9.02,3.69,11.06,4.72,2.04,8.71,2.6,11.1.59h0Z"/>
      <path class="cls-4" d="m27.95,69.32c5.33.65,13.93-8.13,12.34-14.21-1.37-5.26-8.96-1.46-11.22,3.16-2.26,4.62-3.01,8.58-1.12,11.05Z"/>
      <path class="cls-12" d="m39.67,36.89c5.37.13,13.08-9.43,10.91-15.34-1.87-5.1-9.06-.59-10.86,4.23-1.8,4.81-2.17,8.83-.05,11.11Z"/>
      <path class="cls-4" d="m36.68,40.62c5-1.93,8.48-13.72,4.22-18.34-3.68-3.99-8.6,2.92-8.42,8.06.18,5.14,1.37,8.99,4.2,10.29Z"/>
      <path class="cls-12" d="m28.61,46.42c2.26,4.86,14.25,7.54,18.58,2.98,3.74-3.94-3.49-8.38-8.6-7.87-5.12.52-8.88,1.97-9.98,4.88Z"/>
      <path class="cls-4" d="m27.19,56.61c3.04-4.42-.76-16.11-6.88-17.52-5.29-1.22-5.44,7.26-2.4,11.41,3.05,4.14,6.21,6.64,9.28,6.11Z"/>
      <path class="cls-2" d="m39.93,78.74c.62-.39.36-1.92-.39-2.3-.75-.38-1.65-.41-2.22-.8-.57-.38-1.28-1.09-2.32-.68-1.03.41-2.03.91-2.68.47-.64-.44-1.54-1.29-2.72-1.46-.73-.1-2.11,1.4-2.93,1.14-.83-.27-1.96-1-2.6-.86-.65.15-.76,1.5-1.47,1.36-.72-.15-1.71-.5-3-.09-1.28.41-2.22,1.15-2.83,1.06-.61-.09-1.31.34-1.06.9.25.56-1.14,1.6,5.51,2.28,3.34.37,13.88.86,18.72-1.02Z"/>
      <path class="cls-10" d="m37.94,76.17c1.29.27.84.88-.1,1.04-.94.17-3.05-.94-4.5-.5-1.45.44-3.28,1.97-5.36,1.17-2.08-.79-4.45-.06-6.26-.15-1.8-.08-4.31-.62-3.79-.9.51-.27.69-.88,2.16-.94,1.47-.06,1.93.77,2.64.38.72-.4.43-.97,1.58-.92,1.14.04,1.4,1.09,3.08.78,1.68-.32,2.29-1.74,3-1.36.71.38,1.59,1.46,2.9,1.05,2.82-.9,2.04-.19,4.65.35h0Z"/>
      <path class="cls-6" d="m35.21,75.63c.91-.03,3.53.95,2.41.98-1.11.02-2.53-.65-3.32-.4-.79.25-.39-.53.91-.58Z"/>
      <path class="cls-6" d="m29.96,75.79c-.47.14-1.12.84-2.2.9-1.09.07-.61.74.53.79,1.14.05,2.88-2.06,1.67-1.69h0Z"/>
      <path class="cls-10" d="m18.81,77.97c-.98-.49-2.09-1.07-2.35-.63-.25.44,2.02,1.67,4.53,1.7,2.51.02,2.65-.53,1.09-.65-1.55-.11-1.74.35-3.27-.42Z"/>
      <path class="cls-10" d="m38.46,77.48c.86-.47,1.74-.3.86.39-.88.7-3.11,1.79-5.57,1.51-2.46-.28-1.72-1.3.58-1.37,2.3-.07,2.42.42,4.14-.54h0Z"/>
      <path class="cls-9" d="m40.94,79.68l-3.17,18.9h-18.35l-3.43-18.61,24.96-.29Z"/>
      <path class="cls-5" d="m14.44,76.86h28.52c.53,0,.95.43.95.95v1.62c0,.53-.43.95-.95.95H14.44c-.53,0-.95-.43-.95-.95v-1.63c0-.53.43-.95.95-.95h0Z"/>
      <path class="cls-11" d="m21.95,75.11l.13-.02c.49-.08.95-.15,1.11-.38l.04-.06c.27-.39.72-1.04,1.69-1.22.82-.15,1.54-.42,1.78-.94.14-.49.99-.75,1.04-.71.2.14.47.23,1.22.08.06-.03.16-.1.23-.11.94-.15,1.84,1.32,2.15,1.64.33.35.74.56,1.25.63.33.05.52.26.67.42.16.17.23.23.37.23.04,0,.09,0,.14-.01.14-.03.27-.04.37-.04.37,0,.54.18.69.34.1.11.22.23.46.36.23.13.73.25.9.65.07.16-.86.23-1.62.23-.35,0-.7-.05-1.01-.15-.17-.05-.38-.08-.61-.08-.64,0-1.35.2-1.61.39-.22.15-.6.23-1.15.23-.69,0-1.62-.12-2.26-.29-.62-.16-1.51-.06-2.59.31-.45.15-1.03.24-1.52.24-.53,0-.93-.1-1.18-.3-.25-.2-.86-.25-1.22-.29-.18-.02-.33-.03-.43-.05-.25-.06-.66-.1-.66-.24,0-.12.35-.63,1.65-.85h0Z"/>
      <path class="cls-1" d="m29.63,72.13c.3,0,.16.5,1.18,1.22.71.5-.03.84-.86.18-.88-.7-.88-1.4-.32-1.4Z"/>
      <path class="cls-7" d="m31.82,74.12c.47-.01,1.14.31.78.42-.36.11-1.64-.39-.78-.42Z"/>
      <path class="cls-1" d="m30.41,75.35c.43.18.91.76.53.7-.37-.05-1.33-1.04-.53-.7Z"/>
      <path class="cls-1" d="m34.35,75.17c.52.13,1.38.63.51.51s-1.2-.68-.51-.51Z"/>
      <path class="cls-1" d="m32.4,74.93c.57.09,1.48.39.94.5-.54.11-1.82.07-2.32-.65-.48-.66.77.05,1.39.15Z"/>
      <path class="cls-1" d="m28.91,75.66c.48.07,1.23.32.78.41-.45.09-1.51.05-1.93-.54-.4-.55.63.05,1.15.13Z"/>
      <path class="cls-1" d="m29.31,73.53c.36.28,1.53.94,1.14,1.12-.39.18-1.52-.4-1.67-.79-.15-.39.26-.55.52-.33Z"/>
      <path class="cls-1" d="m28.08,73.85c-.3,0-.55.38-.95.63-.74.46-.27,1.11.56.44.88-.7.94-1.07.39-1.07Z"/>
      <path class="cls-7" d="m25.62,73.59c-.46-.01-1.14.31-.78.42.36.11,1.64-.39.78-.42Z"/>
      <path class="cls-7" d="m25.79,75.51c-.43.18-.91.76-.53.7.38-.05,1.33-1.04.53-.7Z"/>
      <path class="cls-1" d="m22.7,75.17c-.52.13-1.38.63-.51.51.87-.12,1.2-.68.51-.51Z"/>
      <path class="cls-1" d="m24.85,74.78c-.57.09-1.48.39-.94.5.54.11,1.82.07,2.33-.65.48-.66-.76.05-1.39.15Z"/>
      <path class="cls-3" d="m27.05,72.23c-.36.35-.5,1.32-.11,1.54.39.22,1.36-.54,1.51-1.02.15-.48-1.13-.78-1.4-.52h0Z"/>
    </g>
  </g>
</svg>