<?xml version="1.0" encoding="UTF-8"?>
<svg id="Layer_2" data-name="Layer 2" xmlns="http://www.w3.org/2000/svg" viewBox="0 0 303.91 72.16">
  <defs>
    <style>
      .cls-1 {
        fill: #fff;
        stroke-width: 0px;
      }
    </style>
  </defs>
  <g id="Layer_1-2" data-name="Layer 1">
    <g>
      <g>
        <path class="cls-1" d="m269.34,37.18h-1.3c-19.78,0-35.88-16.09-35.88-35.88V0h70.45v2.6c-18.35,0-33.27,14.93-33.27,33.28v1.3ZM234.79,2.6c.67,17.33,14.65,31.3,31.98,31.96.53-14.48,9.67-26.79,22.44-31.96h-54.43Z"/>
        <path class="cls-1" d="m303.91,71.75h-1.3c-19.78,0-35.87-16.09-35.87-35.88v-1.3h1.3c18.35,0,33.27-14.93,33.27-33.28h2.6v70.45Zm-34.55-34.6c.66,17.33,14.62,31.31,31.95,31.98V14.7c-5.16,12.77-17.48,21.92-31.95,22.45"/>
      </g>
      <polygon class="cls-1" points="31.29 45.71 26.08 68.41 25 68.41 19.66 46.77 18.49 46.77 16.3 46.77 15.24 46.77 10.51 68.41 9.4 68.41 3.57 45.71 0 45.71 6.96 71.52 12.87 71.52 17.45 51.37 22.49 71.52 28.43 71.52 34.75 45.71 31.29 45.71"/>
      <g>
        <path class="cls-1" d="m46.5,52.08h-.14c-1.58,0-2.88.37-3.89,1.1-.93.67-1.64,1.61-2.12,2.81v-10.27h-3.39v25.81h3.39v-10.89c0-1.63.45-2.94,1.36-3.94.91-1,2.11-1.5,3.62-1.5,1.37,0,2.48.43,3.34,1.27.86.85,1.29,2.04,1.29,3.57v11.49h3.39v-10.78c0-2.78-.58-4.92-1.73-6.42-1.16-1.5-2.86-2.24-5.13-2.24"/>
        <polygon class="cls-1" points="55.16 52.64 55.16 55.33 58.05 55.33 58.05 71.52 61.45 71.52 61.45 55.33 61.45 52.64 58.05 52.64 55.16 52.64"/>
        <path class="cls-1" d="m59.01,49.6c.75,0,1.31-.2,1.68-.6.37-.4.55-.91.55-1.52s-.18-1.12-.55-1.52c-.37-.4-.93-.6-1.68-.6s-1.31.2-1.68.6c-.37.4-.55.91-.55,1.52s.18,1.12.55,1.52c.36.4.92.6,1.68.6"/>
        <path class="cls-1" d="m70.35,46.91h-3.25v5.73h-3.25v2.55h3.25v9.9c0,1.67.28,3,.83,3.98.55.98,1.34,1.67,2.37,2.07,1.03.4,2.25.6,3.66.6h2.9v-3.04h-3.32c-1.01,0-1.8-.28-2.35-.83-.55-.55-.83-1.34-.83-2.35v-10.32h6.5v-2.55h-6.5v-5.73Z"/>
        <path class="cls-1" d="m92.3,53.33c-1.33-.88-3.02-1.33-5.07-1.33-1.58,0-2.95.28-4.12.83-1.17.55-2.13,1.3-2.88,2.23-.75.93-1.31,1.97-1.68,3.13-.37,1.16-.55,2.35-.55,3.57v.64c0,1.2.18,2.38.55,3.54.36,1.16.92,2.2,1.68,3.13.76.93,1.73,1.68,2.94,2.25,1.2.57,2.63.85,4.28.85,1.49,0,2.82-.25,3.99-.74,1.18-.49,2.16-1.21,2.94-2.16.78-.94,1.29-2.06,1.55-3.36h-3.18c-.19.87-.75,1.64-1.68,2.3-.93.66-2.14.99-3.62.99s-2.58-.31-3.5-.94c-.92-.62-1.6-1.47-2.03-2.55-.37-.9-.58-1.9-.63-2.99h14.97v-1.52c0-1.58-.32-3.06-.97-4.45-.65-1.39-1.64-2.53-2.97-3.41m-8.41,2.56c.88-.61,2-.92,3.34-.92s2.37.27,3.22.81c.85.54,1.48,1.3,1.91,2.28.27.63.46,1.33.55,2.1h-11.5c.11-.63.27-1.22.5-1.77.44-1.06,1.1-1.9,1.98-2.51"/>
        <path class="cls-1" d="m119.45,61.34c1.4-.57,2.5-1.44,3.29-2.62.79-1.18,1.18-2.7,1.18-4.56v-.56c0-1.86-.39-3.38-1.17-4.56-.78-1.18-1.87-2.05-3.29-2.62-1.41-.57-3.06-.85-4.95-.85h-8.45v25.95h3.46v-9.33h4.98c.18,0,.36,0,.54-.01l6.96,9.34h4.21l-7.51-9.92c.25-.08.5-.16.74-.26m-9.92-12.73h5.62c1.08,0,2.02.23,2.79.69.78.46,1.38,1.08,1.8,1.87.42.79.64,1.69.64,2.71s-.21,1.91-.64,2.7c-.42.79-1.03,1.41-1.8,1.86-.78.45-1.71.67-2.79.67h-5.62v-10.5Z"/>
        <path class="cls-1" d="m143.33,55.06c-.87-.93-1.93-1.67-3.18-2.23-1.25-.55-2.68-.83-4.28-.83s-3.03.28-4.28.83c-1.25.55-2.31,1.3-3.18,2.23-.87.93-1.53,1.98-1.98,3.15-.45,1.17-.67,2.35-.67,3.55v.64c0,1.2.22,2.38.65,3.54.44,1.16,1.08,2.2,1.94,3.13.86.93,1.91,1.68,3.16,2.25,1.25.57,2.7.85,4.35.85s3.1-.28,4.35-.85c1.25-.57,2.3-1.31,3.16-2.25.86-.93,1.51-1.97,1.94-3.13.44-1.15.65-2.33.65-3.54v-.64c0-1.2-.23-2.39-.67-3.55-.45-1.17-1.11-2.22-1.98-3.15m-1.54,10.59c-.53,1.06-1.3,1.9-2.3,2.53-1,.63-2.21.94-3.62.94s-2.62-.31-3.62-.94c-1-.62-1.77-1.47-2.3-2.53-.53-1.06-.8-2.25-.8-3.57s.27-2.55.81-3.61c.54-1.06,1.32-1.9,2.33-2.51,1.01-.61,2.2-.92,3.57-.92s2.59.31,3.59.92c1,.61,1.77,1.45,2.32,2.51.54,1.06.81,2.26.81,3.61s-.27,2.51-.8,3.57"/>
        <path class="cls-1" d="m161.51,62.24c-1.23-.91-2.85-1.47-4.88-1.68l-2.05-.21c-1.11-.12-1.9-.39-2.39-.81-.48-.42-.72-.99-.72-1.7,0-.83.34-1.51,1.03-2.05.68-.54,1.68-.81,3-.81s2.32.27,2.99.8c.67.53,1.02,1.17,1.04,1.93h3.18c-.05-1.86-.73-3.26-2.05-4.21-1.32-.94-3.04-1.41-5.16-1.41-1.41,0-2.66.23-3.75.69s-1.93,1.12-2.54,1.98c-.61.86-.92,1.89-.92,3.09,0,1.6.57,2.85,1.7,3.73,1.13.88,2.59,1.42,4.38,1.61l2.05.21c1.32.14,2.27.43,2.86.87.59.44.88,1.04.88,1.82,0,.87-.4,1.61-1.2,2.21-.8.6-1.96.9-3.46.9-1.67,0-2.86-.32-3.55-.97-.7-.65-1.07-1.34-1.11-2.07h-3.18c.05,1.84.75,3.29,2.1,4.35,1.36,1.06,3.27,1.59,5.75,1.59,1.53,0,2.89-.25,4.07-.76,1.18-.51,2.1-1.21,2.78-2.12.67-.91,1.01-1.95,1.01-3.13,0-1.65-.61-2.93-1.84-3.84"/>
        <path class="cls-1" d="m179.38,53.33c-1.33-.88-3.02-1.33-5.07-1.33-1.58,0-2.95.28-4.12.83-1.17.55-2.13,1.3-2.88,2.23-.75.93-1.31,1.97-1.68,3.13-.37,1.16-.55,2.35-.55,3.57v.64c0,1.2.18,2.38.55,3.54.37,1.16.92,2.2,1.68,3.13.76.93,1.73,1.68,2.94,2.25,1.2.57,2.63.85,4.28.85,1.49,0,2.82-.25,4-.74,1.18-.49,2.16-1.21,2.93-2.16.78-.94,1.3-2.06,1.55-3.36h-3.18c-.19.87-.75,1.64-1.68,2.3-.93.66-2.14.99-3.62.99s-2.58-.31-3.5-.94c-.92-.62-1.6-1.47-2.03-2.55-.37-.9-.58-1.9-.64-2.99h14.97v-1.52c0-1.58-.32-3.06-.97-4.45-.65-1.39-1.64-2.53-2.97-3.41m-8.41,2.56c.88-.61,2-.92,3.34-.92s2.37.27,3.22.81c.85.54,1.48,1.3,1.91,2.28.27.63.46,1.33.55,2.1h-11.5c.11-.63.27-1.22.5-1.77.43-1.06,1.1-1.9,1.98-2.51"/>
        <path class="cls-1" d="m206.35,46.58c-1.43-.67-3.2-1.01-5.32-1.01h-7.88v25.95h3.46v-8.98h4.42c2.12,0,3.9-.34,5.32-1.01,1.43-.67,2.5-1.63,3.23-2.86.73-1.24,1.1-2.68,1.1-4.33v-.57c0-1.67-.37-3.12-1.1-4.35-.73-1.23-1.81-2.17-3.23-2.85m.18,10.24c-.41.83-1.02,1.48-1.82,1.96-.8.48-1.81.72-3.04.72h-5.06v-10.89h5.06c1.23,0,2.24.24,3.04.71.8.47,1.41,1.12,1.82,1.94.41.83.62,1.76.62,2.79s-.21,1.93-.62,2.76"/>
        <path class="cls-1" d="m223.12,53.12c-1.23-.46-2.8-.69-4.74-.69-.57,0-1.16,0-1.77.02-.61.01-1.21.04-1.79.07-.58.04-1.13.08-1.64.12v2.97c.52-.05,1.13-.08,1.84-.11.71-.02,1.45-.05,2.23-.07.78-.02,1.53-.04,2.26-.04,1.3,0,2.28.33,2.95.99.67.66,1.01,1.64,1.01,2.93v.46h-4.77c-1.63,0-3.02.23-4.17.69-1.16.46-2.03,1.14-2.63,2.03-.6.9-.9,2.02-.9,3.36s.28,2.4.83,3.32c.55.92,1.34,1.62,2.37,2.1,1.03.48,2.25.72,3.66.72,1.32,0,2.44-.24,3.38-.71.93-.47,1.66-1.16,2.19-2.07.25-.43.46-.92.62-1.45v3.73h2.69v-11.95c0-1.77-.29-3.17-.88-4.21-.59-1.04-1.5-1.78-2.72-2.24m-.44,14.28c-.48.7-1.09,1.19-1.82,1.49-.73.29-1.5.44-2.3.44-1.37,0-2.42-.32-3.15-.96-.73-.64-1.1-1.47-1.1-2.51s.37-1.89,1.1-2.55c.73-.66,1.78-.99,3.15-.99h4.91v2.19c-.05,1.23-.31,2.19-.8,2.88"/>
        <path class="cls-1" d="m234.52,54.36c-.88.93-1.44,2.26-1.68,3.96v-5.68h-2.69v18.88h3.39v-10.22c0-1.89.51-3.33,1.52-4.33,1.01-1,2.46-1.5,4.35-1.5h1.2v-3.04h-.64c-2.43,0-4.25.64-5.46,1.93"/>
      </g>
      <g>
        <polygon class="cls-1" points="251.29 60.7 258.25 52.64 254.68 52.64 246.62 62.02 246.62 45.71 243.23 45.71 243.23 71.52 246.62 71.52 246.62 62.72 249.13 62.72 256.24 71.52 260.16 71.52 251.29 60.7"/>
        <path class="cls-1" d="m268.04,37.18h-1.3v-1.3C266.75,16.09,282.84,0,302.61,0h1.3v1.3c0,19.78-16.09,35.88-35.87,35.88M301.29,2.62c-17.3.68-31.24,14.63-31.92,31.93,17.3-.68,31.24-14.63,31.92-31.93"/>
      </g>
    </g>
  </g>
</svg>